<?xml version="1.0" encoding="utf-8"?>
<!-- Generator: Adobe Illustrator 21.0.0, SVG Export Plug-In . SVG Version: 6.00 Build 0)  -->
<!DOCTYPE svg PUBLIC "-//W3C//DTD SVG 1.1//EN" "http://www.w3.org/Graphics/SVG/1.1/DTD/svg11.dtd">
<svg version="1.1" id="Layer_1" xmlns="http://www.w3.org/2000/svg" xmlns:xlink="http://www.w3.org/1999/xlink" x="0px" y="0px"
	 viewBox="0 0 825 223" style="enable-background:new 0 0 825 223;" xml:space="preserve">
<style type="text/css">
	.st0{fill:#F2B406;}
	.st1{opacity:0.5;}
	.st2{opacity:0.6;fill:none;stroke:#FFFFFF;stroke-width:4;stroke-linecap:round;stroke-linejoin:round;enable-background:new    ;}
</style>
<title>Asset 34</title>
<path class="st0" d="M0,223c104.8,0,101.5-110,206.2-110s101.5,110,206.2,110s101.4-110,206.2-110C719,113,733,214.3,825,223V0H0"/>
<g>
	<g class="st1">
		<line class="st2" x1="308.4" y1="66.6" x2="303.2" y2="82.7"/>
		<line class="st2" x1="313.8" y1="77.2" x2="297.7" y2="72.1"/>
		<line class="st2" x1="213" y1="99.3" x2="208.2" y2="114.3"/>
		<line class="st2" x1="218.1" y1="109.2" x2="203.1" y2="104.4"/>
		
			<ellipse transform="matrix(0.3072 -0.9516 0.9516 0.3072 157.3504 267.3584)" class="st2" cx="262.3" cy="25.6" rx="8.5" ry="8.5"/>
		
			<ellipse transform="matrix(0.3072 -0.9516 0.9516 0.3072 38.0036 351.2805)" class="st2" cx="260.3" cy="149.5" rx="8.5" ry="8.5"/>
		
			<ellipse transform="matrix(0.3072 -0.9516 0.9516 0.3072 111.7465 401.2256)" class="st2" cx="331.4" cy="123.9" rx="7.3" ry="7.3"/>
		<polygon class="st2" points="251.4,72.5 245.9,84.1 258.8,83 		"/>
		<line class="st2" x1="386.2" y1="134.9" x2="403.1" y2="136.9"/>
		<line class="st2" x1="393.7" y1="144.3" x2="395.6" y2="127.5"/>
		
			<ellipse transform="matrix(0.1134 -0.9936 0.9936 0.1134 252.2787 430.0223)" class="st2" cx="367.1" cy="73.7" rx="7.3" ry="7.3"/>
		<polygon class="st2" points="415.2,85.5 428,85.2 421.6,96.6 		"/>
		<polygon class="st2" points="331.4,22.6 341.9,15.4 342.8,28.3 		"/>
	</g>
	<g class="st1">
		<line class="st2" x1="516.6" y1="66.6" x2="521.8" y2="82.7"/>
		<line class="st2" x1="511.2" y1="77.2" x2="527.3" y2="72.1"/>
		<line class="st2" x1="612" y1="99.3" x2="616.9" y2="114.3"/>
		<line class="st2" x1="606.9" y1="109.2" x2="622" y2="104.4"/>
		
			<ellipse transform="matrix(0.9516 -0.3072 0.3072 0.9516 19.3486 174.0986)" class="st2" cx="562.7" cy="25.6" rx="8.5" ry="8.5"/>
		
			<ellipse transform="matrix(0.9516 -0.3072 0.3072 0.9516 -18.6217 180.7139)" class="st2" cx="564.7" cy="149.5" rx="8.5" ry="8.5"/>
		
			<ellipse transform="matrix(0.9516 -0.3072 0.3072 0.9516 -14.1783 157.6119)" class="st2" cx="493.6" cy="123.8" rx="7.3" ry="7.3"/>
		<polygon class="st2" points="573.6,72.5 579.1,84.1 566.2,83 		"/>
		<line class="st2" x1="438.8" y1="134.9" x2="421.9" y2="136.9"/>
		<line class="st2" x1="431.3" y1="144.3" x2="429.4" y2="127.5"/>
		<ellipse transform="matrix(0.9936 -0.1134 0.1134 0.9936 -5.4001 52.3911)" class="st2" cx="457.9" cy="73.7" rx="7.3" ry="7.3"/>
		<polygon class="st2" points="409.8,85.5 397,85.2 403.4,96.6 		"/>
		<polygon class="st2" points="493.6,22.6 483.1,15.4 482.2,28.3 		"/>
	</g>
</g>
</svg>
