<?xml version="1.0" encoding="utf-8"?>
<!-- Generator: Adobe Illustrator 21.0.0, SVG Export Plug-In . SVG Version: 6.00 Build 0)  -->
<!DOCTYPE svg PUBLIC "-//W3C//DTD SVG 1.1//EN" "http://www.w3.org/Graphics/SVG/1.1/DTD/svg11.dtd">
<svg version="1.1" id="Layer_1" xmlns="http://www.w3.org/2000/svg" xmlns:xlink="http://www.w3.org/1999/xlink" x="0px" y="0px"
	 viewBox="0 0 1024 371.4" style="enable-background:new 0 0 1024 371.4;" xml:space="preserve">
<style type="text/css">
	.st0{fill:#DD9F07;}
	.st1{fill:#F2B406;}
	.st2{fill:none;stroke:#F2B406;stroke-width:4;stroke-linecap:round;stroke-linejoin:round;}
	.st3{opacity:0.46;}
	.st4{fill:none;stroke:#FFFFFF;stroke-width:5;stroke-linecap:round;stroke-linejoin:round;}
</style>
<title>Asset 5</title>
<g id="Layer_2">
	<g id="familienaam">
		<g id="background">
			<polygon class="st0" points="770.2,145 724.9,190.2 818.9,190.2 			"/>
			<polygon class="st0" points="770.2,169.7 724.9,215 818.9,215 			"/>
			<polygon class="st0" points="770.2,194.5 724.9,239.8 818.9,239.8 			"/>
			<polygon class="st0" points="770.2,219.3 724.9,264.6 818.9,264.6 			"/>
			<polygon class="st0" points="770.2,244.1 724.9,289.4 818.9,289.4 			"/>
			<path class="st0" d="M771.9,268L771.9,268c5.7,0,10.3,4.6,10.3,10.2v47.9c0,5.7-4.6,10.2-10.2,10.2h0c-5.7,0-10.2-4.6-10.2-10.2
				v-47.9C761.7,272.6,766.2,268,771.9,268z"/>
			<polygon class="st1" points="725.9,112.4 672.9,165.4 782.9,165.4 			"/>
			<polygon class="st1" points="725.9,141.4 672.9,194.4 782.9,194.4 			"/>
			<polygon class="st1" points="725.9,170.4 672.9,223.4 782.9,223.4 			"/>
			<polygon class="st1" points="725.9,199.4 672.9,252.4 782.9,252.4 			"/>
			<polygon class="st1" points="725.9,228.4 672.9,281.4 782.9,281.4 			"/>
			<path class="st1" d="M727.9,256.4L727.9,256.4c6.6,0,12,5.4,12,12v56c0,6.6-5.4,12-12,12l0,0c-6.6,0-12-5.4-12-12v-56
				C715.9,261.7,721.3,256.4,727.9,256.4z"/>
			<polygon class="st0" points="264.2,145 218.9,190.2 312.9,190.2 			"/>
			<polygon class="st0" points="264.2,169.7 218.9,215 312.9,215 			"/>
			<polygon class="st0" points="264.2,194.5 218.9,239.8 312.9,239.8 			"/>
			<polygon class="st0" points="264.2,219.3 218.9,264.6 312.9,264.6 			"/>
			<polygon class="st0" points="264.2,244.1 218.9,289.4 312.9,289.4 			"/>
			<path class="st0" d="M265.9,268L265.9,268c5.7,0,10.3,4.6,10.3,10.2v47.9c0,5.7-4.6,10.2-10.2,10.2h0c-5.7,0-10.2-4.6-10.2-10.2
				v-47.9C255.7,272.6,260.2,268,265.9,268z"/>
			<polygon class="st1" points="298.9,112.4 245.9,165.4 355.9,165.4 			"/>
			<polygon class="st1" points="298.9,141.4 245.9,194.4 355.9,194.4 			"/>
			<polygon class="st1" points="298.9,170.4 245.9,223.4 355.9,223.4 			"/>
			<polygon class="st1" points="298.9,199.4 245.9,252.4 355.9,252.4 			"/>
			<polygon class="st1" points="298.9,228.4 245.9,281.4 355.9,281.4 			"/>
			<path class="st1" d="M300.9,256.4L300.9,256.4c6.6,0,12,5.4,12,12v56c0,6.6-5.4,12-12,12l0,0c-6.6,0-12-5.4-12-12v-56
				C288.9,261.7,294.3,256.4,300.9,256.4z"/>
			<line class="st2" x1="321.9" y1="334.4" x2="724.9" y2="334.4"/>
			<path class="st1" d="M664.9,198.9c0-83.1-67.4-150.5-150.6-150.4c-83.1,0-150.5,67.4-150.4,150.6c0,57.7,33,110.2,84.9,135.4H580
				C631.9,309.2,664.9,256.6,664.9,198.9z"/>
			<g class="st3">
				
					<ellipse transform="matrix(0.9638 -0.2666 0.2666 0.9638 -24.269 46.5203)" class="st1" cx="159.2" cy="112.7" rx="12.9" ry="12.8"/>
				
					<ellipse transform="matrix(0.9638 -0.2666 0.2666 0.9638 -25.8402 51.7801)" class="st1" cx="177.8" cy="121.1" rx="5.4" ry="5.4"/>
				
					<ellipse transform="matrix(0.9638 -0.2666 0.2666 0.9638 -22.0051 51.7989)" class="st1" cx="179.8" cy="107" rx="5.4" ry="5.4"/>
				
					<ellipse transform="matrix(0.9638 -0.2666 0.2666 0.9638 -19.2816 49.2265)" class="st1" cx="171.7" cy="95.6" rx="5.4" ry="5.4"/>
				
					<ellipse transform="matrix(0.9638 -0.2666 0.2666 0.9638 -25.9514 67.8674)" class="st1" cx="237" cy="129.5" rx="12.9" ry="12.9"/>
				
					<ellipse transform="matrix(0.9638 -0.2666 0.2666 0.9638 -27.5237 73.1333)" class="st1" cx="255.6" cy="138" rx="5.4" ry="5.4"/>
				
					<ellipse transform="matrix(0.9638 -0.2666 0.2666 0.9638 -23.69 73.1471)" class="st1" cx="257.6" cy="123.8" rx="5.4" ry="5.4"/>
				
					<ellipse transform="matrix(0.9638 -0.2666 0.2666 0.9638 -20.965 70.5798)" class="st1" cx="249.5" cy="112.5" rx="5.4" ry="5.4"/>
				
					<ellipse transform="matrix(0.5983 -0.8013 0.8013 0.5983 57.5894 236.0896)" class="st1" cx="264.3" cy="60.6" rx="12.9" ry="12.8"/>
				
					<ellipse transform="matrix(0.5983 -0.8013 0.8013 0.5983 69.3713 250.102)" class="st1" cx="284.1" cy="55.9" rx="5.5" ry="5.5"/>
				<ellipse transform="matrix(0.5983 -0.8013 0.8013 0.5983 76.429 239.4557)" class="st1" cx="277" cy="43.5" rx="5.5" ry="5.5"/>
				
					<ellipse transform="matrix(0.5983 -0.8013 0.8013 0.5983 74.2615 227.1667)" class="st1" cx="263.7" cy="39.5" rx="5.4" ry="5.5"/>
				
					<ellipse transform="matrix(0.5983 -0.8013 0.8013 0.5983 110.918 286.8955)" class="st1" cx="341.6" cy="32.8" rx="12.9" ry="12.8"/>
				
					<ellipse transform="matrix(0.5983 -0.8013 0.8013 0.5983 122.7039 300.8958)" class="st1" cx="361.5" cy="28.1" rx="5.5" ry="5.5"/>
				
					<ellipse transform="matrix(0.5983 -0.8013 0.8013 0.5983 129.7568 290.256)" class="st1" cx="354.4" cy="15.7" rx="5.5" ry="5.4"/>
				
					<ellipse transform="matrix(0.5983 -0.8013 0.8013 0.5983 127.5893 277.967)" class="st1" cx="341" cy="11.7" rx="5.5" ry="5.5"/>
				
					<ellipse transform="matrix(0.7779 -0.6283 0.6283 0.7779 -142.6605 70.0107)" class="st1" cx="27.7" cy="236.8" rx="12.9" ry="12.9"/>
				
					<ellipse transform="matrix(0.7767 -0.6299 0.6299 0.7767 -129.0166 68.137)" class="st1" cx="31.6" cy="216" rx="5.5" ry="5.4"/>
				
					<ellipse transform="matrix(0.7767 -0.6299 0.6299 0.7767 -130.3349 77.5724)" class="st1" cx="44.2" cy="222.6" rx="5.4" ry="5.4"/>
				
					<ellipse transform="matrix(0.7767 -0.6299 0.6299 0.7767 -137.6289 83.3546)" class="st1" cx="48.7" cy="235.8" rx="5.5" ry="5.4"/>
				
					<ellipse transform="matrix(0.7767 -0.6299 0.6299 0.7767 -89.4227 73.5913)" class="st1" cx="59.1" cy="162.9" rx="12.8" ry="12.9"/>
				<ellipse transform="matrix(0.7767 -0.6299 0.6299 0.7767 -75.9184 71.613)" class="st1" cx="63" cy="142.9" rx="5.5" ry="5.4"/>
				
					<ellipse transform="matrix(0.7767 -0.6299 0.6299 0.7767 -77.2418 81.0385)" class="st1" cx="75.7" cy="149.5" rx="5.5" ry="5.4"/>
				
					<ellipse transform="matrix(0.7767 -0.6299 0.6299 0.7767 -84.5393 86.8265)" class="st1" cx="80.2" cy="162.6" rx="5.4" ry="5.4"/>
				
					<ellipse transform="matrix(0.9998 -2.181488e-02 2.181488e-02 0.9998 -3.9119 2.9013)" class="st1" cx="131" cy="180.8" rx="12.8" ry="12.9"/>
				
					<ellipse transform="matrix(0.9998 -2.181488e-02 2.181488e-02 0.9998 -3.6158 3.2339)" class="st1" cx="146.4" cy="167.3" rx="5.4" ry="5.4"/>
				
					<ellipse transform="matrix(0.9998 -2.181488e-02 2.181488e-02 0.9998 -3.8969 3.3668)" class="st1" cx="152.4" cy="180.3" rx="5.4" ry="5.4"/>
				
					<ellipse transform="matrix(0.9998 -2.181488e-02 2.181488e-02 0.9998 -4.1851 3.2716)" class="st1" cx="147.9" cy="193.5" rx="5.4" ry="5.4"/>
			</g>
			<g class="st3">
				
					<ellipse transform="matrix(0.7399 -0.6728 0.6728 0.7399 115.6534 594.7408)" class="st1" cx="826.9" cy="147.8" rx="12.8" ry="12.9"/>
				
					<ellipse transform="matrix(0.7399 -0.6728 0.6728 0.7399 129.1507 588.8448)" class="st1" cx="826" cy="127.4" rx="5.5" ry="5.5"/>
				
					<ellipse transform="matrix(0.7399 -0.6728 0.6728 0.7399 122.5525 580.9648)" class="st1" cx="812.5" cy="132" rx="5.5" ry="5.4"/>
				
					<ellipse transform="matrix(0.7399 -0.6728 0.6728 0.7399 112.5666 579.8378)" class="st1" cx="806.1" cy="144.4" rx="5.5" ry="5.4"/>
				
					<ellipse transform="matrix(0.7399 -0.6728 0.6728 0.7399 162.2788 561.2066)" class="st1" cx="806.8" cy="70.8" rx="12.8" ry="12.8"/>
				
					<ellipse transform="matrix(0.7399 -0.6728 0.6728 0.7399 175.7761 555.3107)" class="st1" cx="806" cy="50.4" rx="5.5" ry="5.5"/>
				
					<ellipse transform="matrix(0.7399 -0.6728 0.6728 0.7399 169.1712 547.4333)" class="st1" cx="792.5" cy="55" rx="5.5" ry="5.5"/>
				
					<ellipse transform="matrix(0.7413 -0.6712 0.6712 0.7413 156.7195 545.4632)" class="st1" cx="785.9" cy="69.4" rx="5.4" ry="5.4"/>
				
					<ellipse transform="matrix(0.1724 -0.985 0.985 0.1724 530.2693 786.1944)" class="st1" cx="733" cy="77.5" rx="12.8" ry="12.8"/>
				
					<ellipse transform="matrix(0.1724 -0.985 0.985 0.1724 534.7024 760.3021)" class="st1" cx="719.8" cy="61.9" rx="5.5" ry="5.4"/>
				<ellipse transform="matrix(0.1724 -0.985 0.985 0.1724 516.499 762.4247)" class="st1" cx="712" cy="73.8" rx="5.5" ry="5.4"/>
				
					<ellipse transform="matrix(0.1724 -0.985 0.985 0.1724 505.0349 776.2213)" class="st1" cx="714.5" cy="87.5" rx="5.5" ry="5.4"/>
				
					<ellipse transform="matrix(0.1724 -0.985 0.985 0.1724 536.5096 680.6573)" class="st1" cx="673.3" cy="21" rx="12.8" ry="12.9"/>
				
					<ellipse transform="matrix(0.1724 -0.985 0.985 0.1724 540.9245 654.7636)" class="st1" cx="660.1" cy="5.5" rx="5.5" ry="5.4"/>
				
					<ellipse transform="matrix(0.1724 -0.985 0.985 0.1724 522.7294 656.8959)" class="st1" cx="652.3" cy="17.4" rx="5.5" ry="5.4"/>
				
					<ellipse transform="matrix(0.1724 -0.985 0.985 0.1724 511.2715 670.6569)" class="st1" cx="654.8" cy="31.1" rx="5.5" ry="5.5"/>
				
					<ellipse transform="matrix(0.4088 -0.9126 0.9126 0.4088 397.8439 1033.046)" class="st1" cx="996.3" cy="209.4" rx="12.8" ry="12.9"/>
				
					<ellipse transform="matrix(0.4088 -0.9126 0.9126 0.4088 381.1908 1018.3762)" class="st1" cx="976.6" cy="215" rx="5.5" ry="5.4"/>
				
					<ellipse transform="matrix(0.4088 -0.9126 0.9126 0.4088 394.2952 1010.1058)" class="st1" cx="976.8" cy="200.7" rx="5.5" ry="5.4"/>
				
					<ellipse transform="matrix(0.4088 -0.9126 0.9126 0.4088 409.1433 1013.0737)" class="st1" cx="986.5" cy="190.7" rx="5.5" ry="5.4"/>
				
					<ellipse transform="matrix(0.4088 -0.9126 0.9126 0.4088 346.3521 963.4591)" class="st1" cx="916.8" cy="214.4" rx="12.8" ry="12.9"/>
				
					<ellipse transform="matrix(0.4088 -0.9126 0.9126 0.4088 329.6989 948.7892)" class="st1" cx="897.2" cy="219.9" rx="5.5" ry="5.4"/>
				
					<ellipse transform="matrix(0.4088 -0.9126 0.9126 0.4088 342.8033 940.5189)" class="st1" cx="897.3" cy="205.7" rx="5.5" ry="5.4"/>
				
					<ellipse transform="matrix(0.4088 -0.9126 0.9126 0.4088 357.6573 943.4959)" class="st1" cx="907.1" cy="195.7" rx="5.5" ry="5.4"/>
				
					<ellipse transform="matrix(0.8821 -0.4711 0.4711 0.8821 38.8177 439.9434)" class="st1" cx="898.2" cy="142.4" rx="12.8" ry="12.8"/>
				
					<ellipse transform="matrix(0.8823 -0.4707 0.4707 0.8823 40.464 430.7044)" class="st1" cx="881.4" cy="134.4" rx="5.5" ry="5.4"/>
				
					<ellipse transform="matrix(0.8823 -0.4707 0.4707 0.8823 46.7574 433.5656)" class="st1" cx="890.3" cy="123.3" rx="5.5" ry="5.5"/>
				
					<ellipse transform="matrix(0.8823 -0.4707 0.4707 0.8823 49.2871 439.8315)" class="st1" cx="904.1" cy="121.4" rx="5.5" ry="5.4"/>
			</g>
			<ellipse class="st1" cx="389.4" cy="351.9" rx="48.5" ry="4.5"/>
			<ellipse class="st1" cx="520.4" cy="366.9" rx="48.5" ry="4.5"/>
			<ellipse class="st1" cx="645.4" cy="349.9" rx="48.5" ry="4.5"/>
			<line class="st4" x1="517.9" y1="20.4" x2="517.9" y2="28.4"/>
			<line class="st4" x1="531.9" y1="34.4" x2="523.9" y2="34.4"/>
			<line class="st4" x1="517.9" y1="48.4" x2="517.9" y2="40.4"/>
			<line class="st4" x1="503.9" y1="34.4" x2="511.9" y2="34.4"/>
			<line class="st4" x1="336.4" y1="81.9" x2="336.4" y2="89.9"/>
			<line class="st4" x1="350.4" y1="95.9" x2="342.4" y2="95.9"/>
			<line class="st4" x1="336.4" y1="109.9" x2="336.4" y2="101.9"/>
			<line class="st4" x1="322.4" y1="95.9" x2="330.4" y2="95.9"/>
			<line class="st4" x1="677.4" y1="42.4" x2="677.4" y2="52.4"/>
			<line class="st4" x1="694.9" y1="59.9" x2="684.9" y2="59.9"/>
			<line class="st4" x1="677.4" y1="77.4" x2="677.4" y2="67.4"/>
			<line class="st4" x1="659.9" y1="59.9" x2="669.9" y2="59.9"/>
			<line class="st4" x1="435.4" y1="43.4" x2="435.4" y2="47.7"/>
			<line class="st4" x1="442.9" y1="50.9" x2="438.6" y2="50.9"/>
			<line class="st4" x1="435.4" y1="58.4" x2="435.4" y2="54.1"/>
			<line class="st4" x1="427.9" y1="50.9" x2="432.2" y2="50.9"/>
			<line class="st4" x1="583.4" y1="92.4" x2="583.4" y2="98.4"/>
			<line class="st4" x1="593.9" y1="102.9" x2="587.9" y2="102.9"/>
			<line class="st4" x1="583.4" y1="113.4" x2="583.4" y2="107.4"/>
			<line class="st4" x1="572.9" y1="102.9" x2="578.9" y2="102.9"/>
		</g>
	</g>
</g>
</svg>
