<svg xmlns="http://www.w3.org/2000/svg" viewBox="0 0 866.7 183.82"><title>Asset 40</title><g id="Layer_2" data-name="Layer 2"><g id="color_avatar_5"><path d="M264.06,119.78a11.65,11.65,0,1,0-20.54-1.35.63.63,0,0,0,1.12,0h0a2.64,2.64,0,1,1,3.16,3.81.62.62,0,0,0-.12,1.1q.4.27.83.51A11.69,11.69,0,0,0,264.06,119.78Zm-1.26-9.38a1.63,1.63,0,1,1-1.76-1.49A1.63,1.63,0,0,1,262.8,110.4Zm-9.52-3.09A1.63,1.63,0,1,1,255,108.8,1.63,1.63,0,0,1,253.28,107.31Zm7.48,8.43a1.63,1.63,0,1,1-2.22.59A1.63,1.63,0,0,1,260.76,115.74Zm-15.14-5.21a2.46,2.46,0,1,1,.9,3.36A2.46,2.46,0,0,1,245.62,110.53Zm8.86,9.56a1.63,1.63,0,1,1,.59,2.22A1.63,1.63,0,0,1,254.47,120.09Z" style="fill:none;stroke:#f2b406;stroke-linecap:round;stroke-linejoin:round;stroke-width:2px;opacity:0.7000000000000001"/><path d="M187.14,54.07a15.59,15.59,0,1,0,27.5,1.8.84.84,0,0,0-1.5,0v0a3.53,3.53,0,1,1-4.23-5.1.83.83,0,0,0,.17-1.48q-.54-.36-1.11-.68A15.65,15.65,0,0,0,187.14,54.07Zm1.68,12.55a2.18,2.18,0,1,1,2.35,2A2.18,2.18,0,0,1,188.83,66.63Zm12.74,4.14a2.18,2.18,0,1,1-2.35-2A2.18,2.18,0,0,1,201.56,70.76Zm-10-11.28a2.18,2.18,0,1,1,3-.79A2.18,2.18,0,0,1,191.56,59.48Zm20.27,7a3.3,3.3,0,1,1-1.2-4.5A3.3,3.3,0,0,1,211.82,66.45ZM200,53.65a2.18,2.18,0,1,1-.79-3A2.18,2.18,0,0,1,200,53.65Z" style="fill:none;stroke:#f2b406;stroke-linecap:round;stroke-linejoin:round;stroke-width:2px;opacity:0.7000000000000001"/><path d="M688,36.32a17.35,17.35,0,1,0,30.6,2,.93.93,0,0,0-1.66,0v0a3.93,3.93,0,1,1-4.71-5.67.93.93,0,0,0,.18-1.64q-.6-.4-1.24-.75A17.42,17.42,0,0,0,688,36.32Zm1.87,14a2.42,2.42,0,1,1,2.62,2.21A2.42,2.42,0,0,1,689.88,50.29Zm14.17,4.6a2.42,2.42,0,1,1-2.62-2.21A2.42,2.42,0,0,1,704.06,54.89ZM692.92,42.33a2.42,2.42,0,1,1,3.31-.88A2.42,2.42,0,0,1,692.92,42.33Zm22.55,7.76a3.67,3.67,0,1,1-1.33-5A3.67,3.67,0,0,1,715.47,50.09ZM702.28,35.85a2.42,2.42,0,1,1-.88-3.31A2.42,2.42,0,0,1,702.28,35.85Z" style="fill:none;stroke:#f2b406;stroke-linecap:round;stroke-linejoin:round;stroke-width:2px;opacity:0.7000000000000001"/><path d="M510.35,6.53a11.65,11.65,0,1,0,20.54,1.35.63.63,0,0,0-1.12,0h0A2.64,2.64,0,1,1,526.6,4a.62.62,0,0,0,.12-1.1q-.4-.27-.83-.51A11.69,11.69,0,0,0,510.35,6.53Zm1.26,9.38a1.63,1.63,0,1,1,1.76,1.49A1.63,1.63,0,0,1,511.6,15.9ZM521.12,19a1.63,1.63,0,1,1-1.76-1.49A1.63,1.63,0,0,1,521.12,19Zm-7.48-8.43a1.63,1.63,0,1,1,2.22-.59A1.63,1.63,0,0,1,513.64,10.57Zm15.14,5.21a2.46,2.46,0,1,1-.9-3.36A2.46,2.46,0,0,1,528.79,15.77Zm-8.86-9.56A1.63,1.63,0,1,1,519.34,4,1.63,1.63,0,0,1,519.93,6.21Z" style="fill:none;stroke:#f2b406;stroke-linecap:round;stroke-linejoin:round;stroke-width:2px;opacity:0.7000000000000001"/><path d="M329,56.94a18.56,18.56,0,1,0,32.74,2.15A1,1,0,0,0,360,59v0a4.2,4.2,0,1,1-5-6.07,1,1,0,0,0,.2-1.76q-.64-.43-1.33-.81A18.64,18.64,0,0,0,329,56.94Zm2,14.95a2.59,2.59,0,1,1,2.8,2.37A2.59,2.59,0,0,1,331,71.89Zm15.16,4.93a2.59,2.59,0,1,1-2.8-2.37A2.59,2.59,0,0,1,346.2,76.82ZM334.29,63.38a2.59,2.59,0,1,1,3.54-.94A2.59,2.59,0,0,1,334.29,63.38Zm24.13,8.3A3.92,3.92,0,1,1,357,66.32,3.92,3.92,0,0,1,358.42,71.68ZM344.3,56.44a2.59,2.59,0,1,1-.94-3.54A2.59,2.59,0,0,1,344.3,56.44Z" style="fill:none;stroke:#f2b406;stroke-linecap:round;stroke-linejoin:round;stroke-width:2px;opacity:0.7000000000000001"/><path d="M634.47,137.29a15.71,15.71,0,1,0,27.71,1.82.84.84,0,0,0-1.51,0v0A3.56,3.56,0,1,1,656.4,134a.84.84,0,0,0,.17-1.49q-.54-.36-1.12-.68A15.78,15.78,0,0,0,634.47,137.29Zm1.7,12.65a2.2,2.2,0,1,1,2.37,2A2.2,2.2,0,0,1,636.17,149.94ZM649,154.11a2.2,2.2,0,1,1-2.37-2A2.2,2.2,0,0,1,649,154.11Zm-10.08-11.37a2.2,2.2,0,1,1,3-.8A2.2,2.2,0,0,1,638.92,142.74Zm20.43,7a3.32,3.32,0,1,1-1.21-4.54A3.32,3.32,0,0,1,659.35,149.77Zm-11.95-12.9a2.2,2.2,0,1,1-.8-3A2.2,2.2,0,0,1,647.4,136.87Z" style="fill:none;stroke:#f2b406;stroke-linecap:round;stroke-linejoin:round;stroke-width:2px;opacity:0.7000000000000001"/><path d="M785.47,92.13a17.35,17.35,0,1,0,30.6,2,.93.93,0,0,0-1.66,0v0a3.93,3.93,0,1,1-4.71-5.67.93.93,0,0,0,.18-1.64q-.6-.4-1.24-.75A17.42,17.42,0,0,0,785.47,92.13Zm1.87,14a2.42,2.42,0,1,1,2.62,2.21A2.42,2.42,0,0,1,787.34,106.1Zm14.17,4.6a2.42,2.42,0,1,1-2.62-2.21A2.42,2.42,0,0,1,801.52,110.71ZM790.38,98.15a2.42,2.42,0,1,1,3.31-.88A2.42,2.42,0,0,1,790.38,98.15Zm22.55,7.76a3.67,3.67,0,1,1-1.33-5A3.67,3.67,0,0,1,812.94,105.91ZM799.74,91.67a2.42,2.42,0,1,1-.88-3.31A2.42,2.42,0,0,1,799.74,91.67Z" style="fill:none;stroke:#f2b406;stroke-linecap:round;stroke-linejoin:round;stroke-width:2px;opacity:0.7000000000000001"/><path d="M607.81,62.34a11.65,11.65,0,1,0,20.54,1.35.63.63,0,0,0-1.12,0h0a2.64,2.64,0,1,1-3.16-3.81.62.62,0,0,0,.12-1.1q-.4-.27-.83-.51A11.69,11.69,0,0,0,607.81,62.34Zm1.26,9.38a1.63,1.63,0,1,1,1.76,1.49A1.63,1.63,0,0,1,609.07,71.72Zm9.52,3.09a1.63,1.63,0,1,1-1.76-1.49A1.63,1.63,0,0,1,618.58,74.81Zm-7.48-8.43a1.63,1.63,0,1,1,2.22-.59A1.63,1.63,0,0,1,611.1,66.38Zm15.14,5.21a2.46,2.46,0,1,1-.9-3.36A2.46,2.46,0,0,1,626.25,71.59ZM617.39,62a1.63,1.63,0,1,1-.59-2.22A1.63,1.63,0,0,1,617.39,62Z" style="fill:none;stroke:#f2b406;stroke-linecap:round;stroke-linejoin:round;stroke-width:2px;opacity:0.7000000000000001"/><path d="M70.45,160.87a17.35,17.35,0,1,0-30.6-2,.93.93,0,0,0,1.66,0v0a3.93,3.93,0,1,1,4.71,5.67A.93.93,0,0,0,46,166.2q.6.4,1.24.75A17.42,17.42,0,0,0,70.45,160.87Zm-1.87-14A2.42,2.42,0,1,1,66,144.69,2.42,2.42,0,0,1,68.57,146.9ZM54.4,142.3A2.42,2.42,0,1,1,57,144.51,2.42,2.42,0,0,1,54.4,142.3Zm11.14,12.56a2.42,2.42,0,1,1-3.31.88A2.42,2.42,0,0,1,65.53,154.85ZM43,147.1a3.67,3.67,0,1,1,1.33,5A3.67,3.67,0,0,1,43,147.1Zm13.19,14.24a2.42,2.42,0,1,1,.88,3.31A2.42,2.42,0,0,1,56.17,161.34Z" style="fill:none;stroke:#f2b406;stroke-linecap:round;stroke-linejoin:round;stroke-width:2px;opacity:0.7000000000000001"/><path d="M124,59.89a15.71,15.71,0,1,0-27.71-1.82.84.84,0,0,0,1.51,0v0a3.56,3.56,0,1,1,4.27,5.14.84.84,0,0,0-.17,1.49q.54.36,1.12.68A15.78,15.78,0,0,0,124,59.89Zm-1.7-12.65a2.2,2.2,0,1,1-2.37-2A2.2,2.2,0,0,1,122.29,47.24Zm-12.84-4.17a2.2,2.2,0,1,1,2.37,2A2.2,2.2,0,0,1,109.45,43.07Zm10.08,11.37a2.2,2.2,0,1,1-3,.8A2.2,2.2,0,0,1,119.54,54.44Zm-20.43-7A3.32,3.32,0,1,1,100.32,52,3.32,3.32,0,0,1,99.11,47.42Zm11.95,12.9a2.2,2.2,0,1,1,.8,3A2.2,2.2,0,0,1,111.06,60.32Z" style="fill:none;stroke:#f2b406;stroke-linecap:round;stroke-linejoin:round;stroke-width:2px;opacity:0.7000000000000001"/><path d="M3.55,50.83A11.65,11.65,0,1,0,24.1,52.17a.63.63,0,0,0-1.12,0h0a2.64,2.64,0,1,1-3.16-3.81.62.62,0,0,0,.12-1.1q-.4-.27-.83-.51A11.69,11.69,0,0,0,3.55,50.83ZM4.81,60.2a1.63,1.63,0,1,1,1.76,1.49A1.63,1.63,0,0,1,4.81,60.2Zm9.52,3.09a1.63,1.63,0,1,1-1.76-1.49A1.63,1.63,0,0,1,14.33,63.3ZM6.85,54.87a1.63,1.63,0,1,1,2.22-.59A1.63,1.63,0,0,1,6.85,54.87ZM22,60.07a2.46,2.46,0,1,1-.9-3.36A2.46,2.46,0,0,1,22,60.07Zm-8.86-9.56a1.63,1.63,0,1,1-.59-2.22A1.63,1.63,0,0,1,13.14,50.51Z" style="fill:none;stroke:#f2b406;stroke-linecap:round;stroke-linejoin:round;stroke-width:2px;opacity:0.7000000000000001"/><polygon points="10.15 92.62 13.28 98.97 20.29 99.99 15.22 104.94 16.42 111.92 10.15 108.62 3.88 111.92 5.07 104.94 0 99.99 7.01 98.97 10.15 92.62" style="fill:#dd9f07"/><polygon points="10.15 90.84 13.28 97.2 20.29 98.22 15.22 103.16 16.42 110.15 10.15 106.85 3.88 110.15 5.07 103.16 0 98.22 7.01 97.2 10.15 90.84" style="fill:#f2b406"/><polygon points="121.71 160.15 119.71 165.67 123.11 170.45 117.25 170.25 113.76 174.96 112.14 169.32 106.57 167.46 111.44 164.17 111.49 158.31 116.11 161.92 121.71 160.15" style="fill:#dd9f07"/><polygon points="122.77 159.14 120.77 164.65 124.17 169.43 118.31 169.23 114.82 173.95 113.2 168.31 107.63 166.44 112.5 163.16 112.55 157.29 117.17 160.9 122.77 159.14" style="fill:#f2b406"/><polygon points="145.09 87.82 151.05 93.91 159.44 92.45 155.49 100 159.47 107.54 151.07 106.11 145.13 112.22 143.89 103.8 136.24 100.04 143.88 96.25 145.09 87.82" style="fill:#dd9f07"/><polygon points="144.43 85.79 150.38 91.88 158.78 90.43 154.83 97.98 158.81 105.51 150.41 104.09 144.47 110.2 143.23 101.77 135.58 98.01 143.22 94.23 144.43 85.79" style="fill:#f2b406"/><polygon points="20.94 17.37 24.6 18.61 27.7 16.3 27.66 20.17 30.82 22.4 27.12 23.55 25.97 27.25 23.73 24.09 19.86 24.14 22.18 21.04 20.94 17.37" style="fill:#dd9f07"/><polygon points="20.25 16.68 23.92 17.93 27.02 15.61 26.97 19.48 30.13 21.72 26.43 22.87 25.29 26.57 23.05 23.4 19.18 23.45 21.5 20.35 20.25 16.68" style="fill:#f2b406"/><polygon points="171.33 7.99 172.77 12.4 177.22 13.71 173.47 16.45 173.59 21.08 169.84 18.36 165.46 19.91 166.89 15.49 164.07 11.81 168.71 11.81 171.33 7.99" style="fill:#dd9f07"/><polygon points="171.5 6.84 172.94 11.25 177.39 12.57 173.63 15.3 173.76 19.93 170 17.21 165.63 18.76 167.06 14.35 164.23 10.67 168.87 10.66 171.5 6.84" style="fill:#f2b406"/><polygon points="856.55 136.92 853.41 143.27 846.4 144.29 851.48 149.24 850.28 156.22 856.55 152.92 862.82 156.22 861.62 149.24 866.7 144.29 859.68 143.27 856.55 136.92" style="fill:#dd9f07"/><polygon points="856.55 135.15 853.41 141.5 846.4 142.52 851.48 147.46 850.28 154.45 856.55 151.15 862.82 154.45 861.62 147.46 866.7 142.52 859.68 141.5 856.55 135.15" style="fill:#f2b406"/><polygon points="699.8 169.01 701.8 174.53 698.4 179.31 704.26 179.1 707.75 183.82 709.37 178.18 714.94 176.32 710.08 173.03 710.02 167.17 705.4 170.78 699.8 169.01" style="fill:#dd9f07"/><polygon points="698.74 168 700.74 173.51 697.34 178.29 703.2 178.09 706.69 182.81 708.31 177.17 713.88 175.3 709.01 172.02 708.96 166.15 704.34 169.76 698.74 168" style="fill:#f2b406"/><polygon points="732.24 96.68 726.28 102.77 717.89 101.31 721.84 108.86 717.86 116.4 726.26 114.97 732.2 121.08 733.44 112.66 741.08 108.9 733.45 105.11 732.24 96.68" style="fill:#dd9f07"/><polygon points="732.9 94.65 726.94 100.74 718.55 99.29 722.5 106.84 718.52 114.37 726.92 112.95 732.86 119.06 734.1 110.63 741.75 106.87 734.11 103.09 732.9 94.65" style="fill:#f2b406"/><polygon points="800.57 26.23 796.91 27.47 793.8 25.16 793.85 29.03 790.69 31.26 794.39 32.41 795.54 36.11 797.77 32.95 801.64 33 799.33 29.89 800.57 26.23" style="fill:#dd9f07"/><polygon points="801.26 25.54 797.59 26.79 794.49 24.47 794.54 28.34 791.38 30.58 795.07 31.73 796.22 35.42 798.46 32.26 802.33 32.31 800.01 29.21 801.26 25.54" style="fill:#f2b406"/><polygon points="650.18 16.85 648.74 21.26 644.29 22.57 648.04 25.3 647.92 29.94 651.67 27.22 656.05 28.77 654.62 24.36 657.44 20.68 652.8 20.67 650.18 16.85" style="fill:#dd9f07"/><polygon points="650.01 15.7 648.57 20.11 644.12 21.43 647.88 24.16 647.75 28.8 651.51 26.07 655.88 27.62 654.45 23.21 657.28 19.53 652.64 19.52 650.01 15.7" style="fill:#f2b406"/></g></g></svg>