<?xml version="1.0" encoding="utf-8"?>
<!-- Generator: Adobe Illustrator 21.0.0, SVG Export Plug-In . SVG Version: 6.00 Build 0)  -->
<!DOCTYPE svg PUBLIC "-//W3C//DTD SVG 1.1//EN" "http://www.w3.org/Graphics/SVG/1.1/DTD/svg11.dtd">
<svg version="1.1" id="Layer_1" xmlns="http://www.w3.org/2000/svg" xmlns:xlink="http://www.w3.org/1999/xlink" x="0px" y="0px"
	 viewBox="0 0 1024 240" style="enable-background:new 0 0 1024 240;" xml:space="preserve">
<style type="text/css">
	.st0{opacity:0.7;fill:none;stroke:#F2B406;stroke-width:2;stroke-linecap:round;stroke-linejoin:round;enable-background:new    ;}
	.st1{fill:#F2B406;}
	.st2{fill:none;stroke:#F2B406;stroke-width:2;stroke-linecap:round;stroke-linejoin:round;}
	.st3{fill:#DD9F07;}
</style>
<title>Asset 7</title>
<g id="Layer_2">
	<g id="color_intro">
		<path class="st0" d="M342.7,130.8c3.4-5.5,1.7-12.7-3.8-16c-5.5-3.4-12.7-1.7-16,3.8c-2,3.3-2.3,7.4-0.7,10.9
			c0.2,0.3,0.5,0.4,0.8,0.3c0.1-0.1,0.2-0.2,0.3-0.3l0,0c0.7-1.3,2.3-1.7,3.6-1c1.3,0.7,1.7,2.3,1,3.6c-0.3,0.5-0.8,1-1.4,1.2
			c-0.3,0.1-0.5,0.5-0.4,0.8c0,0.1,0.1,0.2,0.2,0.3c0.3,0.2,0.5,0.4,0.8,0.5C332.6,137.8,339.4,136,342.7,130.8z M341.4,121.4
			c0.1,0.9-0.6,1.7-1.5,1.8c-0.9,0.1-1.7-0.6-1.8-1.5c-0.1-0.9,0.6-1.7,1.5-1.8C340.6,119.8,341.4,120.5,341.4,121.4
			C341.4,121.4,341.4,121.4,341.4,121.4z M331.9,118.3c-0.1-0.9,0.6-1.7,1.5-1.8c0.9-0.1,1.7,0.6,1.8,1.5c0.1,0.9-0.6,1.7-1.5,1.8
			c0,0,0,0,0,0C332.8,119.8,332,119.2,331.9,118.3L331.9,118.3z M339.4,126.7c0.8,0.4,1,1.4,0.6,2.2c-0.4,0.8-1.4,1-2.2,0.6
			s-1-1.4-0.6-2.2c0,0,0,0,0,0C337.6,126.5,338.6,126.3,339.4,126.7L339.4,126.7z M324.3,121.5c0.7-1.2,2.2-1.6,3.4-0.9
			s1.6,2.2,0.9,3.4s-2.2,1.6-3.4,0.9c0,0,0,0,0,0C324,124.2,323.6,122.7,324.3,121.5L324.3,121.5z M333.1,131.1
			c0.4-0.8,1.4-1,2.2-0.6s1,1.4,0.6,2.2c-0.4,0.8-1.4,1-2.2,0.6c0,0,0,0,0,0C332.9,132.8,332.7,131.8,333.1,131.1L333.1,131.1z"/>
		<ellipse class="st1" cx="645.7" cy="218.8" rx="42.1" ry="3.5"/>
		<ellipse class="st1" cx="358.6" cy="218.8" rx="42.1" ry="3.5"/>
		<line class="st2" x1="422.8" y1="182.5" x2="589.4" y2="182.5"/>
		<path class="st1" d="M589.4,120c0-46.7-37.9-84.6-84.6-84.6c-46.7,0-84.6,37.9-84.6,84.6c0,23.8,10,46.4,27.5,62.5h114.1
			C579.4,166.4,589.4,143.7,589.4,120z"/>
		<ellipse class="st1" cx="505.7" cy="224.1" rx="42.1" ry="3.5"/>
		<path class="st0" d="M265.8,65c-4.5,7.3-2.2,16.9,5.1,21.5c7.3,4.5,16.9,2.2,21.5-5.1c2.7-4.4,3.1-9.8,1-14.6
			c-0.2-0.4-0.7-0.6-1.1-0.4c-0.2,0.1-0.3,0.2-0.4,0.4l0,0c-1,1.7-3.1,2.3-4.8,1.3c-1.7-1-2.3-3.1-1.3-4.8c0.4-0.7,1.1-1.3,1.9-1.6
			c0.4-0.2,0.7-0.6,0.5-1.1c-0.1-0.2-0.2-0.3-0.3-0.4c-0.4-0.2-0.7-0.5-1.1-0.7C279.3,55.6,270.2,58,265.8,65z M267.5,77.6
			c-0.1-1.2,0.8-2.3,2-2.3c1.2-0.1,2.3,0.8,2.3,2c0.1,1.2-0.8,2.2-2,2.3C268.6,79.7,267.6,78.8,267.5,77.6L267.5,77.6z M280.2,81.7
			c0.1,1.2-0.8,2.3-2,2.3s-2.3-0.8-2.3-2c-0.1-1.2,0.8-2.2,2-2.3C279.1,79.6,280.1,80.5,280.2,81.7
			C280.2,81.7,280.2,81.7,280.2,81.7z M270.2,70.5c-1-0.6-1.4-1.9-0.8-3c0.6-1,1.9-1.4,3-0.8c1,0.6,1.4,1.9,0.8,3
			C272.6,70.7,271.3,71.1,270.2,70.5C270.2,70.5,270.2,70.5,270.2,70.5z M290.5,77.5c-0.9,1.6-2.9,2.1-4.5,1.2
			c-1.6-0.9-2.1-2.9-1.2-4.5c0.9-1.6,2.9-2.1,4.5-1.2c0,0,0,0,0,0C290.8,73.9,291.4,75.9,290.5,77.5L290.5,77.5z M278.6,64.6
			c-0.6,1-1.9,1.4-3,0.8c-1-0.6-1.4-1.9-0.8-3c0.6-1,1.9-1.4,3-0.8C278.9,62.2,279.3,63.6,278.6,64.6
			C278.7,64.6,278.7,64.6,278.6,64.6z"/>
		<path class="st0" d="M766.7,47.3c-5,8.2-2.5,18.8,5.7,23.9s18.8,2.5,23.9-5.7c3-4.9,3.4-11,1.1-16.2c-0.2-0.5-0.8-0.6-1.2-0.4
			c-0.2,0.1-0.3,0.2-0.4,0.4l0,0c-1.1,1.9-3.5,2.5-5.4,1.4c-1.9-1.1-2.5-3.5-1.4-5.4c0.5-0.8,1.2-1.4,2.1-1.7
			c0.5-0.2,0.7-0.7,0.5-1.2c-0.1-0.2-0.2-0.3-0.3-0.4c-0.4-0.3-0.8-0.5-1.2-0.8C781.7,36.8,771.5,39.4,766.7,47.3z M768.5,61.3
			c-0.1-1.3,0.9-2.5,2.2-2.6s2.5,0.9,2.6,2.2c0.1,1.3-0.9,2.5-2.2,2.6C769.8,63.6,768.6,62.6,768.5,61.3
			C768.5,61.3,768.5,61.3,768.5,61.3L768.5,61.3z M782.7,65.9c0.1,1.3-0.9,2.5-2.2,2.6c-1.3,0.1-2.5-0.9-2.6-2.2
			c-0.1-1.3,0.9-2.5,2.2-2.6C781.4,63.6,782.6,64.5,782.7,65.9C782.7,65.9,782.7,65.9,782.7,65.9L782.7,65.9z M771.6,53.3
			c-1.2-0.7-1.5-2.2-0.9-3.3c0.7-1.2,2.2-1.5,3.3-0.9c1.2,0.7,1.5,2.1,0.9,3.3C774.2,53.6,772.7,54,771.6,53.3
			C771.6,53.3,771.6,53.3,771.6,53.3z M794.1,61.1c-1,1.8-3.3,2.4-5,1.3c-1.8-1-2.4-3.3-1.3-5s3.3-2.4,5-1.3c0,0,0,0,0,0
			C794.5,57.1,795.1,59.3,794.1,61.1z M780.9,46.8c-0.7,1.2-2.2,1.5-3.3,0.9c-1.2-0.7-1.5-2.2-0.9-3.3c0.7-1.2,2.1-1.5,3.3-0.9
			C781.2,44.2,781.6,45.7,780.9,46.8C780.9,46.8,780.9,46.8,780.9,46.8z"/>
		<path class="st0" d="M589,17.5c-3.4,5.5-1.7,12.7,3.8,16s12.7,1.7,16-3.8c2-3.3,2.3-7.4,0.7-10.9c-0.2-0.3-0.5-0.4-0.8-0.3
			c-0.1,0.1-0.2,0.2-0.3,0.3l0,0c-0.8,1.2-2.4,1.6-3.6,0.8s-1.6-2.4-0.8-3.6c0.3-0.5,0.8-0.9,1.3-1.1c0.3-0.1,0.5-0.5,0.4-0.8
			c0-0.1-0.1-0.2-0.2-0.3c-0.3-0.2-0.5-0.3-0.8-0.5C599.1,10.4,592.3,12.2,589,17.5z M590.3,26.9c-0.1-0.9,0.6-1.7,1.5-1.8
			c0.9-0.1,1.7,0.6,1.8,1.5c0.1,0.9-0.6,1.7-1.5,1.8C591.1,28.4,590.3,27.8,590.3,26.9C590.3,26.9,590.3,26.9,590.3,26.9L590.3,26.9
			z M599.8,30c0.1,0.9-0.6,1.7-1.5,1.8c-0.9,0.1-1.7-0.6-1.8-1.5c-0.1-0.9,0.6-1.7,1.5-1.8C598.9,28.4,599.7,29.1,599.8,30
			C599.8,30,599.8,30,599.8,30z M592.3,21.5c-0.8-0.4-1-1.4-0.6-2.2c0.4-0.8,1.4-1,2.2-0.6c0.8,0.4,1,1.4,0.6,2.2c0,0,0,0,0,0
			C594.1,21.7,593.1,22,592.3,21.5z M607.4,26.8c-0.7,1.2-2.2,1.6-3.4,0.9s-1.6-2.2-0.9-3.4c0.7-1.2,2.2-1.6,3.4-0.9c0,0,0,0,0,0
			C607.7,24.1,608.1,25.6,607.4,26.8L607.4,26.8z M598.6,17.2c-0.5,0.8-1.4,1-2.2,0.6c-0.8-0.5-1-1.4-0.6-2.2c0.5-0.8,1.4-1,2.2-0.6
			c0,0,0,0,0,0C598.8,15.4,599,16.4,598.6,17.2L598.6,17.2z"/>
		<path class="st0" d="M407.6,67.9c-5.4,8.7-2.7,20.2,6.1,25.5s20.2,2.7,25.5-6.1c3.2-5.2,3.6-11.7,1.1-17.3
			c-0.2-0.5-0.8-0.7-1.3-0.5c-0.2,0.1-0.3,0.2-0.4,0.4l0,0c-1.2,2-3.7,2.7-5.7,1.5c-2-1.2-2.7-3.7-1.5-5.7c0.5-0.9,1.3-1.5,2.3-1.9
			c0.5-0.2,0.8-0.8,0.6-1.3c-0.1-0.2-0.2-0.4-0.4-0.5c-0.4-0.3-0.9-0.6-1.3-0.8C423.8,56.5,412.9,59.4,407.6,67.9z M409.6,82.9
			c-0.1-1.4,0.9-2.7,2.4-2.8c1.4-0.1,2.7,0.9,2.8,2.4c0.1,1.4-0.9,2.7-2.4,2.8C411,85.4,409.8,84.3,409.6,82.9
			C409.7,82.9,409.7,82.9,409.6,82.9z M424.8,87.8c0.1,1.4-0.9,2.7-2.4,2.8c-1.4,0.1-2.7-0.9-2.8-2.4c-0.1-1.4,0.9-2.7,2.4-2.8
			C423.4,85.3,424.7,86.3,424.8,87.8C424.8,87.8,424.8,87.8,424.8,87.8L424.8,87.8z M412.9,74.4c-1.2-0.7-1.7-2.3-0.9-3.5
			c0.7-1.2,2.3-1.7,3.5-0.9c1.2,0.7,1.7,2.3,0.9,3.5c0,0,0,0,0,0C415.8,74.6,414.2,75.1,412.9,74.4z M437.1,82.7
			c-1.1,1.9-3.5,2.5-5.4,1.4c-1.9-1.1-2.5-3.5-1.4-5.4c1.1-1.9,3.5-2.5,5.4-1.4C437.5,78.4,438.2,80.8,437.1,82.7
			C437.1,82.6,437.1,82.6,437.1,82.7z M422.9,67.4c-0.7,1.2-2.3,1.7-3.5,0.9s-1.7-2.3-0.9-3.5c0.7-1.2,2.3-1.7,3.5-0.9c0,0,0,0,0,0
			C423.2,64.6,423.7,66.2,422.9,67.4z"/>
		<path class="st0" d="M713.1,148.3c-4.6,7.4-2.3,17.1,5.1,21.6s17.1,2.3,21.6-5.1c2.7-4.4,3.1-9.9,1-14.7c-0.2-0.4-0.7-0.6-1.1-0.4
			c-0.2,0.1-0.3,0.2-0.4,0.4l0,0c-1,1.7-3.1,2.3-4.8,1.4c-1.7-1-2.3-3.1-1.4-4.8c0.4-0.8,1.1-1.3,1.9-1.6c0.4-0.2,0.7-0.6,0.5-1.1
			c-0.1-0.2-0.2-0.3-0.3-0.4c-0.4-0.2-0.7-0.5-1.1-0.7C726.8,138.8,717.6,141.2,713.1,148.3z M714.8,160.9c-0.1-1.2,0.8-2.3,2-2.4
			c1.2-0.1,2.3,0.8,2.4,2c0.1,1.2-0.8,2.3-2,2.4c0,0,0,0,0,0C716,163,714.9,162.1,714.8,160.9L714.8,160.9z M727.7,165.1
			c0.1,1.2-0.8,2.3-2,2.4c-1.2,0.1-2.3-0.8-2.4-2c-0.1-1.2,0.8-2.3,2-2.4c0,0,0,0,0,0C726.5,163,727.5,163.9,727.7,165.1z
			 M717.6,153.7c-1.1-0.6-1.4-2-0.8-3c0.6-1.1,2-1.4,3-0.8c1.1,0.6,1.4,2,0.8,3c0,0,0,0,0,0C720,154,718.6,154.3,717.6,153.7z
			 M738,160.7c-0.9,1.6-3,2.1-4.5,1.2s-2.1-3-1.2-4.5c0.9-1.6,2.9-2.1,4.5-1.2C738.4,157.1,738.9,159.1,738,160.7
			C738,160.7,738,160.7,738,160.7L738,160.7z M726,147.8c-0.6,1.1-2,1.4-3,0.8s-1.4-2-0.8-3c0.6-1.1,2-1.4,3-0.8c0,0,0,0,0,0
			C726.3,145.4,726.7,146.8,726,147.8C726.1,147.8,726.1,147.8,726,147.8L726,147.8z"/>
		<path class="st0" d="M864.1,103.1c-5,8.2-2.5,18.8,5.7,23.9s18.8,2.5,23.9-5.7c3-4.9,3.4-11,1.1-16.2c-0.2-0.5-0.8-0.6-1.2-0.4
			c-0.2,0.1-0.3,0.2-0.4,0.4l0,0c-1.1,1.9-3.5,2.5-5.4,1.4c-1.9-1.1-2.5-3.5-1.4-5.4c0.5-0.8,1.2-1.4,2.1-1.7
			c0.5-0.2,0.7-0.7,0.5-1.2c-0.1-0.2-0.2-0.3-0.3-0.4c-0.4-0.3-0.8-0.5-1.2-0.8C879.2,92.6,869,95.2,864.1,103.1z M866,117.1
			c-0.1-1.3,0.9-2.5,2.2-2.6c1.3-0.1,2.5,0.9,2.6,2.2c0.1,1.3-0.9,2.5-2.2,2.6C867.3,119.4,866.1,118.4,866,117.1
			C866,117.1,866,117.1,866,117.1L866,117.1z M880.2,121.7c0.1,1.3-0.9,2.5-2.2,2.6c-1.3,0.1-2.5-0.9-2.6-2.2
			c-0.1-1.3,0.9-2.5,2.2-2.6C878.9,119.4,880,120.3,880.2,121.7C880.2,121.7,880.2,121.7,880.2,121.7L880.2,121.7z M869,109.1
			c-1.2-0.7-1.5-2.2-0.9-3.3s2.2-1.5,3.3-0.9c1.2,0.7,1.5,2.1,0.9,3.3C871.7,109.4,870.2,109.8,869,109.1
			C869,109.1,869,109.1,869,109.1z M891.6,116.9c-1,1.8-3.3,2.4-5,1.3c-1.8-1-2.4-3.3-1.3-5s3.3-2.4,5-1.3c0,0,0,0,0,0
			C892,112.9,892.6,115.1,891.6,116.9L891.6,116.9z M878.4,102.6c-0.7,1.2-2.2,1.5-3.3,0.9c-1.2-0.7-1.5-2.2-0.9-3.3
			c0.7-1.2,2.1-1.5,3.3-0.9C878.7,100,879.1,101.5,878.4,102.6C878.4,102.6,878.4,102.6,878.4,102.6z"/>
		<path class="st0" d="M686.5,73.3c-3.4,5.5-1.7,12.7,3.8,16s12.7,1.7,16-3.8c2-3.3,2.3-7.4,0.7-10.9c-0.2-0.3-0.5-0.4-0.8-0.3
			c-0.1,0.1-0.2,0.2-0.3,0.3l0,0c-0.7,1.3-2.3,1.7-3.6,1s-1.7-2.3-1-3.6c0.3-0.5,0.8-1,1.4-1.2c0.3-0.1,0.5-0.5,0.4-0.8
			c0-0.1-0.1-0.2-0.2-0.3c-0.3-0.2-0.5-0.4-0.8-0.5C696.6,66.3,689.7,68,686.5,73.3z M687.7,82.7c-0.1-0.9,0.6-1.7,1.5-1.8
			c0.9-0.1,1.7,0.6,1.8,1.5c0.1,0.9-0.6,1.7-1.5,1.8C688.6,84.3,687.8,83.6,687.7,82.7C687.7,82.7,687.7,82.7,687.7,82.7z
			 M697.2,85.8c0.1,0.9-0.6,1.7-1.5,1.8c-0.9,0.1-1.7-0.6-1.8-1.5c-0.1-0.9,0.6-1.7,1.5-1.8C696.4,84.2,697.2,84.9,697.2,85.8
			L697.2,85.8z M689.8,77.3c-0.8-0.4-1-1.4-0.6-2.2c0.4-0.8,1.4-1,2.2-0.6c0.8,0.4,1,1.4,0.6,2.2c0,0,0,0,0,0
			C691.5,77.5,690.5,77.8,689.8,77.3C689.8,77.4,689.8,77.4,689.8,77.3L689.8,77.3z M704.9,82.6c-0.7,1.2-2.2,1.6-3.4,0.9
			s-1.6-2.2-0.9-3.4c0.7-1.2,2.2-1.6,3.4-0.9c0,0,0,0,0,0C705.2,79.9,705.6,81.4,704.9,82.6L704.9,82.6z M696,73
			c-0.4,0.8-1.4,1-2.2,0.6c-0.8-0.4-1-1.4-0.6-2.2c0.4-0.8,1.4-1,2.2-0.6c0,0,0,0,0,0C696.2,71.2,696.5,72.2,696,73z"/>
		<path class="st0" d="M810.6,204.1c-4.6,7.4-2.3,17.1,5.1,21.6c7.4,4.6,17.1,2.3,21.6-5.1c2.7-4.4,3.1-9.9,1-14.7
			c-0.2-0.4-0.7-0.6-1.1-0.4c-0.2,0.1-0.3,0.2-0.4,0.4l0,0c-1,1.7-3.2,2.3-4.9,1.3c-1.7-1-2.3-3.2-1.3-4.9c0.4-0.7,1.1-1.3,1.9-1.6
			c0.4-0.2,0.7-0.6,0.5-1.1c-0.1-0.2-0.2-0.3-0.3-0.4c-0.4-0.2-0.7-0.5-1.1-0.7C824.2,194.6,815,197,810.6,204.1z M812.3,216.7
			c-0.1-1.2,0.8-2.3,2-2.4c1.2-0.1,2.3,0.8,2.4,2s-0.8,2.3-2,2.4c0,0,0,0,0,0C813.4,218.8,812.4,217.9,812.3,216.7z M825.1,220.9
			c0.1,1.2-0.8,2.3-2,2.4c-1.2,0.1-2.3-0.8-2.4-2s0.8-2.3,2-2.4c0,0,0,0,0,0C824,218.8,825,219.7,825.1,220.9L825.1,220.9z
			 M815,209.5c-1.1-0.6-1.4-2-0.8-3c0.6-1.1,2-1.4,3-0.8s1.4,2,0.8,3c0,0,0,0,0,0C817.4,209.8,816.1,210.1,815,209.5
			C815,209.5,815,209.5,815,209.5L815,209.5z M835.5,216.5c-0.9,1.6-3,2.1-4.5,1.2c-1.6-0.9-2.1-3-1.2-4.5c0.9-1.6,2.9-2.1,4.5-1.2
			C835.8,212.9,836.4,214.9,835.5,216.5C835.5,216.5,835.5,216.5,835.5,216.5L835.5,216.5z M823.5,203.6c-0.6,1.1-2,1.4-3,0.8
			c-1.1-0.6-1.4-2-0.8-3c0.6-1.1,2-1.4,3-0.8c0,0,0,0,0,0C823.8,201.2,824.1,202.6,823.5,203.6C823.5,203.6,823.5,203.7,823.5,203.6
			L823.5,203.6z"/>
		<path class="st0" d="M162.6,171.8c5-8.2,2.5-18.8-5.7-23.9c-8.2-5-18.8-2.5-23.9,5.7c-3,4.9-3.4,11-1.1,16.2
			c0.2,0.5,0.8,0.6,1.2,0.4c0.2-0.1,0.3-0.2,0.4-0.4l0,0c1.1-1.9,3.5-2.5,5.4-1.4c1.9,1.1,2.5,3.5,1.4,5.4c-0.5,0.8-1.2,1.4-2.1,1.7
			c-0.5,0.2-0.8,0.7-0.6,1.2c0.1,0.2,0.2,0.4,0.4,0.5c0.4,0.3,0.8,0.5,1.2,0.8C147.5,182.4,157.7,179.7,162.6,171.8z M160.7,157.8
			c0.1,1.3-0.8,2.5-2.2,2.6c-1.3,0.1-2.5-0.8-2.6-2.2c-0.1-1.3,0.8-2.5,2.2-2.6c0,0,0,0,0.1,0C159.5,155.6,160.6,156.6,160.7,157.8
			L160.7,157.8z M146.5,153.3c-0.1-1.3,0.9-2.5,2.2-2.6s2.5,0.9,2.6,2.2c0.1,1.3-0.9,2.5-2.2,2.6c0,0,0,0,0,0
			C147.8,155.6,146.6,154.6,146.5,153.3z M157.7,165.8c1.2,0.7,1.5,2.2,0.9,3.3c-0.7,1.2-2.2,1.5-3.3,0.9c-1.2-0.7-1.5-2.1-0.9-3.3
			C155,165.6,156.5,165.2,157.7,165.8L157.7,165.8z M135.1,158.1c1-1.8,3.3-2.4,5-1.3c1.8,1,2.4,3.3,1.3,5c-1,1.8-3.3,2.4-5,1.3
			c0,0,0,0,0,0C134.7,162.1,134.1,159.8,135.1,158.1z M148.3,172.3c0.7-1.2,2.2-1.5,3.3-0.9c1.2,0.7,1.5,2.2,0.9,3.3
			c-0.7,1.2-2.1,1.5-3.3,0.9C148,175,147.6,173.5,148.3,172.3C148.3,172.3,148.3,172.3,148.3,172.3L148.3,172.3z"/>
		<path class="st0" d="M202.6,70.9c4.6-7.4,2.3-17.1-5.1-21.6c-7.4-4.6-17.1-2.3-21.6,5.1c-2.7,4.4-3.1,9.9-1,14.7
			c0.2,0.4,0.7,0.6,1.1,0.4c0.2-0.1,0.3-0.2,0.4-0.4l0,0c1-1.7,3.2-2.3,4.9-1.3c1.7,1,2.3,3.2,1.3,4.9c-0.4,0.7-1.1,1.3-1.9,1.6
			c-0.4,0.2-0.7,0.6-0.5,1.1c0.1,0.2,0.2,0.3,0.3,0.4c0.4,0.2,0.7,0.5,1.1,0.7C189,80.4,198.2,78,202.6,70.9z M200.9,58.2
			c0.1,1.2-0.8,2.3-2,2.4s-2.3-0.8-2.4-2c-0.1-1.2,0.8-2.3,2-2.4c0,0,0,0,0,0C199.8,56.1,200.8,57,200.9,58.2L200.9,58.2z M188.1,54
			c-0.1-1.2,0.8-2.3,2-2.4s2.3,0.8,2.4,2c0.1,1.2-0.8,2.3-2,2.4c0,0,0,0,0,0C189.3,56.1,188.2,55.2,188.1,54L188.1,54z M198.2,65.4
			c1.1,0.6,1.4,2,0.8,3c-0.6,1.1-2,1.4-3,0.8c-1.1-0.6-1.4-2-0.8-3c0,0,0,0,0,0C195.8,65.2,197.1,64.8,198.2,65.4z M177.8,58.4
			c0.9-1.6,3-2.1,4.5-1.2c1.6,0.9,2.1,3,1.2,4.5c-0.9,1.6-2.9,2.1-4.5,1.2C177.4,62.1,176.8,60,177.8,58.4
			C177.7,58.4,177.7,58.4,177.8,58.4L177.8,58.4z M189.7,71.3c0.6-1.1,2-1.4,3-0.8s1.4,2,0.8,3s-2,1.4-3,0.8c0,0,0,0,0,0
			C189.5,73.7,189.1,72.4,189.7,71.3C189.7,71.3,189.7,71.3,189.7,71.3L189.7,71.3z"/>
		<path class="st0" d="M82.2,61.8c-3.4,5.5-1.7,12.7,3.8,16s12.7,1.7,16-3.8c2-3.3,2.3-7.4,0.7-10.9c-0.2-0.3-0.5-0.4-0.8-0.3
			c-0.1,0.1-0.2,0.2-0.3,0.3l0,0c-0.7,1.3-2.3,1.7-3.6,1c-1.3-0.7-1.7-2.3-1-3.6c0.3-0.5,0.8-1,1.4-1.2c0.3-0.1,0.5-0.5,0.4-0.8
			c0-0.1-0.1-0.2-0.2-0.3c-0.3-0.2-0.5-0.3-0.8-0.5C92.3,54.7,85.5,56.5,82.2,61.8z M83.5,71.2c-0.1-0.9,0.6-1.7,1.5-1.8
			s1.7,0.6,1.8,1.5c0.1,0.9-0.6,1.7-1.5,1.8C84.3,72.7,83.5,72.1,83.5,71.2C83.5,71.2,83.5,71.2,83.5,71.2z M93,74.3
			c0.1,0.9-0.6,1.7-1.5,1.8c-0.9,0.1-1.7-0.6-1.8-1.5c-0.1-0.9,0.6-1.7,1.5-1.8C92.1,72.7,92.9,73.4,93,74.3
			C93,74.3,93,74.3,93,74.3L93,74.3z M85.5,65.8c-0.8-0.4-1-1.4-0.6-2.2c0.4-0.8,1.4-1,2.2-0.6c0.8,0.4,1,1.4,0.6,2.2c0,0,0,0,0,0
			C87.3,66,86.3,66.3,85.5,65.8z M100.6,71c-0.7,1.2-2.2,1.6-3.4,0.9c-1.2-0.7-1.6-2.2-0.9-3.4c0.7-1.2,2.2-1.6,3.4-0.9c0,0,0,0,0,0
			C100.9,68.4,101.3,69.9,100.6,71z M91.8,61.5c-0.4,0.8-1.4,1-2.2,0.6c-0.8-0.4-1-1.4-0.6-2.2c0.4-0.8,1.4-1,2.2-0.6c0,0,0,0,0,0
			C92,59.7,92.2,60.7,91.8,61.5z"/>
		<polygon class="st3" points="88.8,103.6 91.9,109.9 98.9,111 93.9,115.9 95.1,122.9 88.8,119.6 82.5,122.9 83.7,115.9 78.6,111 
			85.7,109.9 		"/>
		<polygon class="st1" points="88.8,101.8 91.9,108.2 98.9,109.2 93.9,114.1 95.1,121.1 88.8,117.8 82.5,121.1 83.7,114.1 
			78.6,109.2 85.7,108.2 		"/>
		<polygon class="st3" points="200.4,171.1 198.4,176.6 201.8,181.4 195.9,181.2 192.4,185.9 190.8,180.3 185.2,178.4 190.1,175.1 
			190.1,169.3 194.8,172.9 		"/>
		<polygon class="st1" points="201.4,170.1 199.4,175.6 202.8,180.4 197,180.2 193.5,184.9 191.8,179.3 186.3,177.4 191.1,174.1 
			191.2,168.3 195.8,171.9 		"/>
		<polygon class="st3" points="223.7,98.8 229.7,104.9 238.1,103.4 234.1,111 238.1,118.5 229.7,117.1 223.8,123.2 222.5,114.8 
			214.9,111 222.5,107.2 		"/>
		<polygon class="st1" points="223.1,96.8 229,102.8 237.4,101.4 233.5,109 237.5,116.5 229.1,115.1 223.1,121.2 221.9,112.7 
			214.2,109 221.9,105.2 		"/>
		<polygon class="st3" points="354.5,28.7 358.2,29.9 361.3,27.6 361.2,31.5 364.4,33.7 360.7,34.9 359.5,38.6 357.3,35.4 
			353.4,35.5 355.8,32.4 		"/>
		<polygon class="st1" points="353.8,28 357.5,29.2 360.6,26.9 360.5,30.8 363.7,33 360,34.2 358.9,37.9 356.6,34.7 352.8,34.8 
			355.1,31.7 		"/>
		<polygon class="st3" points="250,19 251.4,23.4 255.9,24.7 252.1,27.4 252.2,32.1 248.5,29.3 244.1,30.9 245.5,26.5 242.7,22.8 
			247.4,22.8 		"/>
		<polygon class="st1" points="250.1,17.8 251.6,22.2 256,23.5 252.3,26.3 252.4,30.9 248.6,28.2 244.3,29.7 245.7,25.3 242.9,21.6 
			247.5,21.6 		"/>
		<polygon class="st3" points="885.7,173.7 882.5,180 875.5,181 880.6,186 879.4,193 885.7,189.7 891.9,193 890.7,186 895.8,181 
			888.8,180 		"/>
		<polygon class="st1" points="885.7,171.9 882.5,178.2 875.5,179.3 880.6,184.2 879.4,191.2 885.7,187.9 891.9,191.2 890.7,184.2 
			895.8,179.3 888.8,178.2 		"/>
		<polygon class="st3" points="778.4,180 780.4,185.5 777.1,190.3 782.9,190.1 786.4,194.8 788,189.1 793.6,187.3 788.7,184 
			788.7,178.1 784.1,181.8 		"/>
		<polygon class="st1" points="777.4,179 779.4,184.5 776,189.3 781.8,189.1 785.3,193.8 787,188.1 792.5,186.3 787.7,183 
			787.6,177.1 783,180.7 		"/>
		<polygon class="st3" points="810.9,107.7 804.9,113.7 796.5,112.3 800.5,119.8 796.5,127.4 804.9,125.9 810.8,132.1 812.1,123.6 
			819.7,119.9 812.1,116.1 		"/>
		<polygon class="st1" points="811.6,105.6 805.6,111.7 797.2,110.3 801.2,117.8 797.2,125.3 805.6,123.9 811.5,130 812.8,121.6 
			820.4,117.8 812.8,114.1 		"/>
		<polygon class="st3" points="879.2,37.2 875.6,38.4 872.4,36.1 872.5,40 869.3,42.2 873,43.4 874.2,47.1 876.4,43.9 880.3,44 
			878,40.9 		"/>
		<polygon class="st1" points="879.9,36.5 876.2,37.8 873.1,35.4 873.2,39.3 870,41.6 873.7,42.7 874.9,46.4 877.1,43.2 881,43.3 
			878.7,40.2 		"/>
		<polygon class="st3" points="728.8,27.8 727.4,32.2 722.9,33.5 726.7,36.3 726.6,40.9 730.3,38.2 734.7,39.7 733.3,35.3 
			736.1,31.7 731.4,31.6 		"/>
		<polygon class="st1" points="728.7,26.7 727.2,31.1 722.8,32.4 726.5,35.1 726.4,39.8 730.2,37 734.5,38.6 733.1,34.2 735.9,30.5 
			731.3,30.5 		"/>
		<polygon class="st3" points="305.9,214.4 243.8,214.4 226.1,134.6 288.1,134.6 		"/>
		<polygon class="st1" points="310.3,210.8 248.3,210.8 230.6,131.1 292.6,131.1 		"/>
		<polygon class="st3" points="712.5,214.4 774.6,214.4 792.3,134.6 730.3,134.6 		"/>
		<polygon class="st1" points="708.1,210.8 770.1,210.8 787.8,131.1 725.8,131.1 		"/>
	</g>
</g>
</svg>
