<svg xmlns="http://www.w3.org/2000/svg" viewBox="0 0 983.84 307.65"><title>Asset 20</title><g id="Layer_2" data-name="Layer 2"><g id="aantal_familie"><g style="opacity:0.6000000000000001"><circle cx="401.21" cy="21.17" r="4.17" style="fill:#f2b406"/><circle cx="430.79" cy="73.52" r="4.17" style="fill:#f2b406"/><circle cx="361" cy="135.72" r="4.17" style="fill:#f2b406"/><circle cx="295.76" cy="87.93" r="4.17" style="fill:#f2b406"/><circle cx="313.21" cy="21.17" r="4.17" style="fill:#f2b406"/></g><g style="opacity:0.6000000000000001"><circle cx="563.55" cy="34.07" r="4.17" style="fill:#f2b406"/><circle cx="593.14" cy="86.41" r="4.17" style="fill:#f2b406"/><circle cx="523.34" cy="148.62" r="4.17" style="fill:#f2b406"/><circle cx="458.1" cy="100.83" r="4.17" style="fill:#f2b406"/><circle cx="475.55" cy="34.07" r="4.17" style="fill:#f2b406"/></g><g style="opacity:0.6000000000000001"><circle cx="723.62" cy="21.17" r="4.17" style="fill:#f2b406"/><circle cx="753.21" cy="73.52" r="4.17" style="fill:#f2b406"/><circle cx="683.41" cy="135.72" r="4.17" style="fill:#f2b406"/><circle cx="618.17" cy="87.93" r="4.17" style="fill:#f2b406"/><circle cx="635.62" cy="21.17" r="4.17" style="fill:#f2b406"/></g><circle cx="488.49" cy="140.65" r="125.61" style="fill:#f2b406"/><rect x="253.1" y="217.65" width="498" height="59" rx="29.5" ry="29.5" style="fill:#dd9f07"/><ellipse cx="734.1" cy="246.65" rx="13" ry="20" style="fill:#f2b406"/><line x1="710.6" y1="232.15" x2="282.6" y2="232.15" style="fill:none;stroke:#ffc600;stroke-miterlimit:10"/><line x1="701.1" y1="241.15" x2="273.1" y2="241.15" style="fill:none;stroke:#ffc600;stroke-miterlimit:10"/><line x1="707.1" y1="255.15" x2="279.1" y2="255.15" style="fill:none;stroke:#ffc600;stroke-miterlimit:10"/><g style="opacity:0.6000000000000001"><circle cx="241.14" cy="34.07" r="4.17" style="fill:#f2b406"/><circle cx="270.72" cy="86.41" r="4.17" style="fill:#f2b406"/><circle cx="200.93" cy="148.62" r="4.17" style="fill:#f2b406"/><circle cx="135.69" cy="100.83" r="4.17" style="fill:#f2b406"/><circle cx="153.14" cy="34.07" r="4.17" style="fill:#f2b406"/></g><g style="opacity:0.6000000000000001"><circle cx="183.62" cy="139.17" r="4.17" style="fill:#f2b406"/><circle cx="213.21" cy="191.52" r="4.17" style="fill:#f2b406"/><circle cx="143.41" cy="253.72" r="4.17" style="fill:#f2b406"/><circle cx="78.17" cy="205.93" r="4.17" style="fill:#f2b406"/><circle cx="95.62" cy="139.17" r="4.17" style="fill:#f2b406"/></g><g style="opacity:0.6000000000000001"><circle cx="115.62" cy="166.17" r="4.17" style="fill:#f2b406"/><circle cx="145.21" cy="218.52" r="4.17" style="fill:#f2b406"/><circle cx="75.41" cy="280.72" r="4.17" style="fill:#f2b406"/><circle cx="10.17" cy="232.93" r="4.17" style="fill:#f2b406"/><circle cx="27.62" cy="166.17" r="4.17" style="fill:#f2b406"/></g><g style="opacity:0.6000000000000001"><circle cx="109.62" cy="4.17" r="4.17" style="fill:#f2b406"/><circle cx="139.21" cy="56.52" r="4.17" style="fill:#f2b406"/><circle cx="69.41" cy="118.72" r="4.17" style="fill:#f2b406"/><circle cx="4.17" cy="70.93" r="4.17" style="fill:#f2b406"/><circle cx="21.62" cy="4.17" r="4.17" style="fill:#f2b406"/></g><g style="opacity:0.6000000000000001"><circle cx="809.44" cy="144.17" r="4.17" transform="translate(135.14 614.59) rotate(-45)" style="fill:#f2b406"/><circle cx="751.5" cy="128.08" r="4.17" transform="translate(129.55 568.91) rotate(-45)" style="fill:#f2b406"/><circle cx="756.87" cy="34.74" r="4.17" transform="translate(197.12 545.36) rotate(-45)" style="fill:#f2b406"/><circle cx="836.8" cy="22.4" r="4.17" transform="translate(229.25 598.26) rotate(-45)" style="fill:#f2b406"/><circle cx="871.66" cy="81.94" r="4.17" transform="translate(197.36 640.36) rotate(-45)" style="fill:#f2b406"/></g><g style="opacity:0.6000000000000001"><circle cx="859.44" cy="134.17" r="4.17" transform="translate(156.85 647.01) rotate(-45)" style="fill:#fff"/><circle cx="801.5" cy="118.08" r="4.17" transform="translate(151.26 601.33) rotate(-45)" style="fill:#fff"/><circle cx="806.87" cy="24.74" r="4.17" transform="translate(218.83 577.79) rotate(-45)" style="fill:#fff"/><circle cx="886.8" cy="12.4" r="4.17" transform="translate(250.97 630.69) rotate(-45)" style="fill:#fff"/><circle cx="921.66" cy="71.94" r="4.17" transform="translate(219.08 672.79) rotate(-45)" style="fill:#fff"/></g><g style="opacity:0.6000000000000001"><circle cx="167.44" cy="236.17" r="4.17" transform="translate(-117.96 187.57) rotate(-45)" style="fill:#fff;stroke:#fff;stroke-miterlimit:10;stroke-dasharray:12,30"/><circle cx="109.5" cy="220.08" r="4.17" transform="translate(-123.55 141.89) rotate(-45)" style="fill:#fff;stroke:#fff;stroke-miterlimit:10;stroke-dasharray:12,30"/><circle cx="114.87" cy="126.74" r="4.17" transform="translate(-55.97 118.34) rotate(-45)" style="fill:#fff;stroke:#fff;stroke-miterlimit:10;stroke-dasharray:12,30"/><circle cx="194.8" cy="114.4" r="4.17" transform="translate(-23.84 171.25) rotate(-45)" style="fill:#fff;stroke:#fff;stroke-miterlimit:10;stroke-dasharray:12,30"/><circle cx="229.66" cy="173.94" r="4.17" transform="translate(-55.73 213.34) rotate(-45)" style="fill:#fff;stroke:#fff;stroke-miterlimit:10;stroke-dasharray:12,30"/></g><g style="opacity:0.6000000000000001"><circle cx="917.44" cy="266.17" r="4.17" transform="translate(80.5 726.69) rotate(-45)" style="fill:#f2b406"/><circle cx="859.5" cy="250.08" r="4.17" transform="translate(74.91 681.01) rotate(-45)" style="fill:#f2b406"/><circle cx="864.87" cy="156.74" r="4.17" transform="translate(142.48 657.46) rotate(-45)" style="fill:#f2b406"/><circle cx="944.8" cy="144.4" r="4.17" transform="translate(174.62 710.37) rotate(-45)" style="fill:#f2b406"/><circle cx="979.66" cy="203.94" r="4.17" transform="translate(142.73 752.46) rotate(-45)" style="fill:#f2b406"/></g><g style="opacity:0.6000000000000001"><circle cx="705.37" cy="266.48" r="4.17" transform="translate(18.17 576.82) rotate(-45)" style="fill:#f2b406"/><circle cx="647.44" cy="250.38" r="4.17" transform="translate(12.58 531.14) rotate(-45)" style="fill:#f2b406"/><circle cx="652.8" cy="157.04" r="4.17" transform="translate(80.15 507.6) rotate(-45)" style="fill:#f2b406"/><circle cx="732.73" cy="144.71" r="4.17" transform="translate(112.29 560.5) rotate(-45)" style="fill:#f2b406"/><circle cx="767.6" cy="204.25" r="4.17" transform="translate(80.4 602.6) rotate(-45)" style="fill:#f2b406"/></g><g id="background"><ellipse cx="319.99" cy="288.15" rx="48.5" ry="4.5" style="fill:#f2b406"/><ellipse cx="450.99" cy="303.15" rx="48.5" ry="4.5" style="fill:#f2b406"/><ellipse cx="656.99" cy="286.15" rx="48.5" ry="4.5" style="fill:#f2b406"/></g><path d="M153.6,83.65a37.51,37.51,0,0,1-35-50.95,3.22,3.22,0,0,0-4.18-4.18,39,39,0,1,0,42.86,63.09,4.74,4.74,0,0,0-3.56-8Z" style="fill:#dd9f07"/><path d="M153.6,78.65a37.51,37.51,0,0,1-35-50.95,3.22,3.22,0,0,0-4.18-4.18,39,39,0,1,0,42.86,63.09,4.74,4.74,0,0,0-3.56-8Z" style="fill:#f2b406"/></g></g></svg>