<svg xmlns="http://www.w3.org/2000/svg" viewBox="0 0 25.6 22"><title>Asset 36</title><g id="Layer_2" data-name="Layer 2"><g id="info_activiteit"><path d="M21.19,7.28A6.85,6.85,0,0,0,14.43.8,7,7,0,0,0,8.86,3.6l-.09,0-.24-.11L8.38,3.4l-.25-.08L8,3.29l-.27-.05-.12,0-.4,0A3.6,3.6,0,0,0,3.6,6.8c0,.05,0,.1,0,.15A5.53,5.53,0,0,0,.8,11.66,5.14,5.14,0,0,0,5.94,16.8H8A.4.4,0,0,0,8,16H5.94A4.34,4.34,0,0,1,1.6,11.66a4.75,4.75,0,0,1,2.57-4.1l.23-.11V7.2s0-.1,0-.15V6.9s0-.07,0-.1A2.8,2.8,0,0,1,7.2,4l.37,0h.09L8,4.11H8l.33.13.08,0,.28.16A2.8,2.8,0,0,1,10,6.8a.4.4,0,0,0,.8,0A3.59,3.59,0,0,0,9.52,4.05,6.34,6.34,0,0,1,14.43,1.6a6,6,0,0,1,5.94,5.56,7.64,7.64,0,0,0-1.63,0,.4.4,0,0,0,.06.8h.06a7.35,7.35,0,0,1,1.87,0A4.1,4.1,0,0,1,24,12a4,4,0,0,1-4,4H18.4a.4.4,0,0,0,0,.8H20A4.82,4.82,0,0,0,24.8,12,4.92,4.92,0,0,0,21.19,7.28Z" style="fill:#fff;stroke:#fff;stroke-miterlimit:10;stroke-width:1.59999859333038px"/><path d="M16.12,17.32,13.6,19.83V11.6a.4.4,0,0,0-.8,0v8.23l-2.52-2.52a.4.4,0,0,0-.57.57l3.2,3.2a.4.4,0,0,0,.57,0l3.2-3.2a.4.4,0,1,0-.57-.57Z" style="fill:#fff;stroke:#fff;stroke-miterlimit:10;stroke-width:1.59999859333038px"/></g></g></svg>