<?xml version="1.0" encoding="utf-8"?>
<!-- Generator: Adobe Illustrator 21.0.0, SVG Export Plug-In . SVG Version: 6.00 Build 0)  -->
<!DOCTYPE svg PUBLIC "-//W3C//DTD SVG 1.1//EN" "http://www.w3.org/Graphics/SVG/1.1/DTD/svg11.dtd">
<svg version="1.1" id="Layer_1" xmlns="http://www.w3.org/2000/svg" xmlns:xlink="http://www.w3.org/1999/xlink" x="0px" y="0px"
	 viewBox="0 0 50 50" style="enable-background:new 0 0 50 50;" xml:space="preserve">
<style type="text/css">
	.st0{fill:#551CC4;}
	.st1{fill:#FFFFFF;}
	.st2{fill:none;stroke:#1CFCF4;stroke-width:0.5;stroke-linecap:round;stroke-linejoin:round;stroke-miterlimit:10;}
	.st3{fill:none;stroke:#C9433D;stroke-width:0.6742;stroke-linecap:round;stroke-miterlimit:10;}
	.st4{fill:#C9433D;}
	.st5{fill:none;stroke:#3F2B09;stroke-linecap:round;stroke-linejoin:round;stroke-miterlimit:10;}
	.st6{fill:none;stroke:#73FF29;stroke-linecap:round;stroke-linejoin:round;stroke-miterlimit:10;}
	.st7{fill:none;stroke:#73FF29;stroke-width:0.5;stroke-linecap:round;stroke-linejoin:round;stroke-miterlimit:10;}
	.st8{fill:none;stroke:#C9433D;stroke-width:0.5;stroke-linecap:round;stroke-linejoin:round;stroke-miterlimit:10;}
</style>
<circle class="st0" cx="25" cy="25" r="25"/>
<rect x="10" y="15" class="st1" width="30" height="20"/>
<path class="st2" d="M38,18c0.1-0.4,0.1-0.8,0-1.2c-0.1-0.4-0.5-0.7-0.8-0.7s-0.8,0.2-0.9,0.6c0-0.5-0.7-0.8-1.2-0.9
	c-0.2,0-0.5-0.1-0.7,0c-0.2,0.1-0.4,0.3-0.3,0.6c-0.4-0.2-0.8-0.4-1.2-0.4c-0.4-0.1-0.9-0.1-1.3,0c-0.4,0.1-0.7,0.5-0.7,1
	c0,0.3,0.3,0.6,0.6,0.4c-0.4,0.1-0.7,0.4-0.8,0.7c-0.1,0.4-0.1,0.7-0.2,1.1c0,0.2,0,0.4,0.1,0.6c0.2,0.3,0.6,0.5,1,0.5
	c0.4,0,0.7-0.2,1-0.4c-0.1,0.5-0.2,1.2,0.2,1.6c0.2,0.2,0.4,0.3,0.7,0.3c0.3,0.1,0.6,0.1,0.9-0.1c0.3-0.1,0.4-0.5,0.3-0.8
	c0.3,0.2,0.6,0.5,0.9,0.6c0.3,0.1,0.8,0.1,1-0.1c0.3-0.2,0.3-0.7,0.1-1c0.6,0.1,1.2,0,1.6-0.5s0.1-1.3-0.5-1.4
	c0.2-0.1,0.3-0.4,0.2-0.6"/>
<line class="st3" x1="28.9" y1="32.6" x2="28.9" y2="29.6"/>
<line class="st3" x1="31.2" y1="32.6" x2="31.2" y2="29.6"/>
<line class="st3" x1="28.6" y1="29.6" x2="31.5" y2="29.6"/>
<g>
	<path class="st4" d="M35,25.5v6.9h-9v-6.9H35 M35.6,24.8H25.3V33h10.3V24.8L35.6,24.8z"/>
</g>
<g>
	<path class="st4" d="M30.5,20.7l4.2,4.1h-8.4L30.5,20.7 M30.5,19.8l-5.1,5v0.7h10.3v-0.7L30.5,19.8L30.5,19.8z"/>
</g>
<path class="st5" d="M17.6,27.1c0,1.1,0.4,2.3,1.2,3.1c0.5,0.6,1.1,1,1.7,1.5c0.5,0.3,0.9,0.7,1.4,1"/>
<path class="st5" d="M16.5,26.9c-0.1,0.5-0.2,0.9-0.4,1.4c-0.3,0.9-0.7,1.9-1.4,2.6c-0.2,0.2-0.5,0.4-0.7,0.6
	c-0.6,0.4-1.2,0.9-1.9,1.3"/>
<path class="st6" d="M19.6,25.4c0.5,0.1,1-0.2,1.3-0.6c0.2-0.3,0.4-0.7,0.3-1.1c-0.1-0.4-0.6-0.6-0.9-0.4c0.3-0.7,0.5-1.4,0.5-2.1
	c0-0.1,0-0.2,0-0.3c0-0.1-0.1-0.1-0.2-0.2c-0.5-0.3-1.2-0.4-1.8-0.4c0.1-0.4,0-0.8-0.2-1.2c-0.3-0.3-0.6-0.6-1-0.7
	c-0.4-0.1-0.7-0.2-1.1-0.1c-0.4,0.1-0.6,0.5-0.5,0.9c-0.6-0.4-1.4-0.7-2.2-0.6c-0.2,0-0.4,0-0.5,0.1c-0.1,0.1-0.2,0.2-0.3,0.4
	c-0.1,0.3-0.3,0.6-0.3,0.9c0,0.3,0.3,0.6,0.6,0.6c-0.7,0.6-1.2,1.5-1.3,2.4c0,0.2,0,0.3,0.1,0.5c0.2,0.4,0.8,0.3,1.1,0.5
	c-0.1,0.5-0.1,0.9-0.1,1.4c0,0.3,0.1,0.6,0.2,0.8c0.2,0.3,0.6,0.3,0.9,0.4c0.3,0,0.6,0.1,0.9,0c0.3-0.1,0.5-0.4,0.4-0.7
	c0.3,0.4,0.8,0.7,1.2,0.9c0.3,0.1,0.5,0.2,0.8,0c0.2-0.1,0.4-0.4,0.2-0.7c0.4,0.2,0.8,0.3,1.2,0.3c0.4-0.1,0.8-0.5,0.6-0.9"/>
<path class="st7" d="M19.9,22.7c-0.5-0.5-1-1.1-1.6-1.6c0.3,0.8,0.7,1.7,1,2.5c-0.5-1-1.1-1.9-1.8-2.6c0.4,1,0.9,2.1,1.3,3.1
	c-0.4-1.1-1-2.1-1.8-3c0.6,1.3,1.1,2.6,1.7,4c-0.7-1.2-1.3-2.3-2-3.5c0.5,1.1,1,2.1,1.5,3.2c-0.7-1.3-1.5-2.6-2.2-3.9
	c-0.2-0.4-0.5-0.8-0.8-1.1c0.9,1.8,1.7,3.6,2.3,5.5c-0.5-1.2-1.1-2.4-1.9-3.5c0.5,1,1,2.1,1.4,3.1c-0.9-1.6-1.9-3.3-2.7-5
	c0.7,1.7,1.4,3.3,1.7,5.1c-0.6-1.7-1.4-3.3-2.4-4.8c0.8,1.2,1.6,2.5,1.8,4c-0.3-0.8-0.7-1.5-1.3-2c0.3,0.9,0.6,1.7,1,2.6
	c-0.5-0.4-0.9-0.9-1.3-1.4"/>
<path class="st8" d="M33.3,23.7c-0.8-0.9-1.6-1.8-2.5-2.5c0.9,1.1,1.8,2.2,2.7,3.3c-1-1-2.1-2.1-3.1-3.1c0.1,0.3,0.4,0.6,0.6,0.9
	c0.8,0.8,1.5,1.7,2,2.7c-1.1-1.3-2.2-2.5-3.5-3.6c0.8,1,1.5,1.9,2.1,3c-0.8-0.9-1.7-1.7-2.6-2.5c0.3,0.5,0.7,1.1,1,1.6
	c-0.7-0.6-1.3-1.1-2-1.7c0.3,0.4,0.6,0.9,0.8,1.4c-0.4-0.3-0.9-0.6-1.3-0.8c0.2,0.4,0.3,0.8,0.5,1.2c-0.2-0.2-0.4-0.3-0.6-0.5"/>
</svg>
