<?xml version="1.0" encoding="utf-8"?>
<!-- Generator: Adobe Illustrator 21.0.0, SVG Export Plug-In . SVG Version: 6.00 Build 0)  -->
<!DOCTYPE svg PUBLIC "-//W3C//DTD SVG 1.1//EN" "http://www.w3.org/Graphics/SVG/1.1/DTD/svg11.dtd">
<svg version="1.1" id="Layer_2" xmlns="http://www.w3.org/2000/svg" xmlns:xlink="http://www.w3.org/1999/xlink" x="0px" y="0px"
	 viewBox="0 0 512 512" style="enable-background:new 0 0 512 512;" xml:space="preserve">
<style type="text/css">
	.st0{fill:#DD9F07;}
</style>
<path class="st0" d="M499.5,439L388.2,327.7c-0.6-0.6-1.3-1-1.9-1.6C408.2,293,421,253.2,421,210.5C421,94.2,326.8,0,210.5,0
	S0,94.2,0,210.5C0,326.8,94.2,421,210.5,421c42.7,0,82.5-12.8,115.7-34.7c0.6,0.6,1,1.3,1.6,1.9L439,499.5
	c16.7,16.7,43.8,16.7,60.5,0C516.2,482.8,516.2,455.7,499.5,439z M210.5,348C134.5,348,73,286.5,73,210.5
	C73,134.5,134.5,73,210.5,73c76,0,137.5,61.6,137.5,137.5S286.4,348,210.5,348z"/>
</svg>
