<?xml version="1.0" encoding="utf-8"?>
<!-- Generator: Adobe Illustrator 21.0.0, SVG Export Plug-In . SVG Version: 6.00 Build 0)  -->
<!DOCTYPE svg PUBLIC "-//W3C//DTD SVG 1.1//EN" "http://www.w3.org/Graphics/SVG/1.1/DTD/svg11.dtd">
<svg version="1.1" id="Layer_1" xmlns="http://www.w3.org/2000/svg" xmlns:xlink="http://www.w3.org/1999/xlink" x="0px" y="0px"
	 viewBox="0 0 364.7 211" style="enable-background:new 0 0 364.7 211;" xml:space="preserve">
<style type="text/css">
	.st0{fill:#FDD1DA;}
	.st1{fill:#FFFFFF;}
	.st2{fill:#FDDD32;}
	.st3{fill:#FCADAE;}
	.st4{fill:#282828;}
	.st5{fill:#FC6D6F;}
	.st6{fill:#E1E1E1;}
	.st7{fill:#E75A5C;}
	.st8{fill:none;stroke:#FCADAE;stroke-width:3;stroke-linecap:round;stroke-linejoin:round;}
	.st9{fill:#8B25FF;}
	.st10{fill:none;stroke:#FCADAE;stroke-width:2;stroke-linecap:round;stroke-linejoin:round;}
</style>
<title>Asset 31</title>
<g>
	<g id="Layer_2">
		<g id="Familie_overzicht">
			<path class="st0" d="M159.2,110.6h3.6c3.5,0,6.4,2.9,6.4,6.4V196c0,3.5-2.9,6.4-6.4,6.4h-3.6c-3.5,0-6.4-2.9-6.4-6.4v-79.1
				C152.8,113.4,155.7,110.6,159.2,110.6z"/>
			<path class="st0" d="M194.5,110.6h3.6c3.5,0,6.4,2.9,6.4,6.4V196c0,3.5-2.9,6.4-6.4,6.4h-3.6c-3.5,0-6.4-2.9-6.4-6.4v-79.1
				C188.1,113.4,191,110.6,194.5,110.6z"/>
			<path class="st1" d="M142,136.1c4.1,17.6,18.9,30.7,36.4,30.7s32.3-13.1,36.4-30.7C179.3,158.2,142.1,136.2,142,136.1z"/>
			<path class="st2" d="M206.5,99.1c1.4-3.9,2.1-8,2.1-12.1c0-18.1-13.5-32.7-30.2-32.7S148.2,68.9,148.2,87c0,4.1,0.7,8.2,2.1,12.1
				c-6.2,7.6-9.5,17.2-9.5,27c0,3.4,0.4,6.7,1.1,10c0.1,0.1,37.3,22.1,72.8,0c0.8-3.3,1.1-6.6,1.1-10
				C216,116.3,212.6,106.7,206.5,99.1z"/>
			<path class="st0" d="M159.3,63.9L159.3,63.9c-3.2-3.2-8.4-3.2-11.6,0l-44.9,44.9c-1.6-2.8-5.1-3.8-7.9-2.2
				c-2.8,1.6-3.8,5.1-2.2,7.9c0.5,0.9,1.3,1.7,2.2,2.2l-0.6,0.6c-3.2,3.2-3.2,8.4,0,11.6l0,0c3.2,3.2,8.4,3.2,11.6,0l53.4-53.4
				C162.5,72.3,162.5,67.1,159.3,63.9z"/>
			<path class="st0" d="M263.7,117.3l-2.7-2.7c3-1.2,4.4-4.6,3.1-7.6s-4.6-4.4-7.6-3.1c-1.4,0.6-2.5,1.7-3.1,3.1l-43.1-43.1
				c-3.2-3.2-8.4-3.2-11.6,0l0,0c-3.2,3.2-3.2,8.4,0,11.6l53.4,53.4c3.2,3.2,8.4,3.2,11.6,0l0,0
				C266.9,125.7,266.9,120.5,263.7,117.3z"/>
			
				<rect x="208.6" y="58.4" transform="matrix(0.7071 -0.7071 0.7071 0.7071 5.1891 178.5222)" class="st2" width="19" height="49.1"/>
			
				<rect x="114.2" y="74.8" transform="matrix(0.7071 -0.7071 0.7071 0.7071 -18.962 122.7777)" class="st2" width="49.1" height="19"/>
			<path class="st0" d="M160.3,194.5c-9.1,0-16.5,7.4-16.5,16.5h33.1C176.8,201.9,169.4,194.5,160.3,194.5z"/>
			<path class="st0" d="M196.6,194.5c-9.1,0-16.5,7.4-16.5,16.5h33.1C213.2,201.9,205.8,194.5,196.6,194.5z"/>
			<path class="st0" d="M126.6,14.5c-3,7.9-12.5,24.3-4.6,27.3s30.1-8.4,33.2-16.3c3.1-7.8-0.7-16.7-8.6-19.8s-16.7,0.7-19.8,8.6
				C126.7,14.3,126.6,14.4,126.6,14.5L126.6,14.5z"/>
			<path class="st3" d="M129.8,25.3c0,6-7.6,12.5-2.6,12.5S148,31.2,148,25.3s-4.1-10.8-9.1-10.8S129.8,19.3,129.8,25.3z"/>
			<path class="st0" d="M227,14.5c3,7.9,12.5,24.3,4.6,27.3s-30.1-8.4-33.2-16.3c-3.1-7.8,0.7-16.7,8.6-19.8s16.7,0.7,19.8,8.6
				C226.9,14.3,227,14.4,227,14.5L227,14.5z"/>
			<path class="st3" d="M222.3,25.3c0,6,7.6,12.5,2.6,12.5S204,31.2,204,25.3s4.1-10.8,9.1-10.8S222.3,19.3,222.3,25.3z"/>
			<circle class="st0" cx="176.2" cy="40.1" r="40.1"/>
			<circle class="st3" cx="161.4" cy="27.8" r="10"/>
			<circle class="st1" cx="161.4" cy="27.8" r="8.3"/>
			<circle class="st3" cx="191.5" cy="27.8" r="10"/>
			<circle class="st1" cx="191.5" cy="27.8" r="8.3"/>
			<circle class="st4" cx="161.2" cy="28.9" r="3"/>
			<circle class="st4" cx="191.7" cy="29.7" r="3"/>
			<path class="st4" d="M198.1,40.2v3.1c0,0.9-0.8,1.7-1.7,1.7h-1.3c-0.9,0-1.7-0.8-1.7-1.7v-2c-1,0.2-2,0.4-3,0.6v3.5
				c0,0.9-0.8,1.7-1.7,1.7h-1.3c-0.9,0-1.7-0.8-1.7-1.7v-2.9c-2.5,0.3-4.9,0.4-7.2,0.4v3.3c0,0.9-0.8,1.7-1.7,1.7h-1.3
				c-0.9,0-1.7-0.8-1.7-1.7v-3.4c-2.2-0.1-4.4-0.3-6.4-0.5v3c0,0.9-0.8,1.7-1.7,1.7h-1.3c-0.9,0-1.7-0.8-1.7-1.7v-3.7
				c-0.9-0.2-1.7-0.3-2.6-0.5v1.7c0,0.9-0.8,1.7-1.7,1.7h-1.3c-0.9,0-1.7-0.8-1.7-1.7V40c-1.7-0.5-3.1-0.9-4.4-1.3
				c-1.4-0.4-2.8,0.4-3.3,1.7c-0.2,0.5-0.2,1.1,0,1.6c2.1,6.2,6.3,11.4,11.9,14.7c3.3-2.7,9.6-4.5,16.8-4.5c7.5,0,14,2,17.2,4.8
				c7.8-4.7,11.3-12.4,12.7-16.8c0.3-0.9-0.2-1.9-1.1-2.2c-0.4-0.1-0.8-0.1-1.1,0C202.2,38.9,200.1,39.6,198.1,40.2z"/>
			<path class="st5" d="M159.9,56.7c4.9,2.8,10.5,4.3,16.1,4.4c7.6,0.4,13.4-1.4,17.8-4.1c-3.2-2.9-9.7-4.8-17.2-4.8
				C169.4,52.2,163.2,54,159.9,56.7z"/>
			<path class="st6" d="M158.6,43.7h-1.3c-0.9,0-1.7-0.8-1.7-1.7v0.8c0,0.9,0.8,1.7,1.7,1.7h1.3c0.9,0,1.7-0.8,1.7-1.7V42
				C160.3,42.9,159.6,43.7,158.6,43.7C158.6,43.7,158.6,43.7,158.6,43.7z"/>
			<path class="st1" d="M157.3,43.7h1.3c0.9,0,1.7-0.8,1.7-1.7v-0.8c-1.7-0.4-3.2-0.7-4.7-1.1v2C155.7,43,156.4,43.7,157.3,43.7z"/>
			<path class="st6" d="M165.8,46.3h-1.3c-0.9,0-1.7-0.8-1.7-1.7v0.8c0,0.9,0.8,1.7,1.7,1.7h1.3c0.9,0,1.7-0.8,1.7-1.7v-0.8
				C167.5,45.5,166.8,46.3,165.8,46.3z"/>
			<path class="st1" d="M164.6,46.3h1.3c0.9,0,1.7-0.8,1.7-1.7v-2.2c-1.6-0.2-3.2-0.4-4.7-0.7v2.9C162.9,45.5,163.6,46.3,164.6,46.3
				z"/>
			<path class="st6" d="M176.9,47.1h-1.3c-0.9,0-1.7-0.8-1.7-1.7v0.8c0,0.9,0.8,1.7,1.7,1.7h1.3c0.9,0,1.7-0.8,1.7-1.7v-0.8
				C178.6,46.4,177.8,47.1,176.9,47.1z"/>
			<path class="st1" d="M175.6,47.1h1.3c0.9,0,1.7-0.8,1.7-1.7V43c-1.6,0-3.2,0-4.7-0.1v2.5C173.9,46.4,174.7,47.1,175.6,47.1z"/>
			<path class="st6" d="M188.8,46.3h-1.3c-0.9,0-1.7-0.8-1.7-1.7v0.8c0,0.9,0.8,1.7,1.7,1.7h1.3c0.9,0,1.7-0.8,1.7-1.7v-0.8
				C190.4,45.5,189.7,46.3,188.8,46.3z"/>
			<path class="st1" d="M187.5,46.3h1.3c0.9,0,1.7-0.8,1.7-1.7v-2.7c-1.6,0.3-3.1,0.5-4.7,0.7v2C185.8,45.5,186.5,46.3,187.5,46.3z"
				/>
			<path class="st6" d="M196.4,44.1h-1.3c-0.9,0-1.7-0.8-1.7-1.7v0.8c0,0.9,0.8,1.7,1.7,1.7h1.3c0.9,0,1.7-0.8,1.7-1.7v-0.8
				C198.1,43.4,197.3,44.1,196.4,44.1z"/>
			<path class="st1" d="M195.1,44.1h1.3c0.9,0,1.7-0.8,1.7-1.7v-2.3c-1.6,0.4-3.1,0.8-4.7,1.1v1.1C193.4,43.4,194.2,44.1,195.1,44.1
				z"/>
			<circle class="st1" cx="162.9" cy="27.2" r="1.7"/>
			<circle class="st1" cx="193.8" cy="28" r="1.7"/>
			<path class="st7" d="M168.7,29.7H185c3.5,0,6.3,2.8,6.3,6.3v3.5c0,3.5-2.8,6.3-6.3,6.3h-16.3c-3.5,0-6.3-2.8-6.3-6.3V36
				C162.4,32.5,165.3,29.7,168.7,29.7z"/>
			<path class="st5" d="M168.7,28.4H185c3.5,0,6.3,2.8,6.3,6.3v3.5c0,3.5-2.8,6.3-6.3,6.3h-16.3c-3.5,0-6.3-2.8-6.3-6.3v-3.5
				C162.4,31.3,165.3,28.4,168.7,28.4z"/>
			<path class="st4" d="M183.3,33.1h1.5c1.5,0,2.6,1.2,2.6,2.7v1.5c0,1.5-1.2,2.7-2.6,2.7h-1.5c-1.5,0-2.6-1.2-2.6-2.7v-1.5
				C180.7,34.3,181.9,33.1,183.3,33.1z"/>
			<path class="st4" d="M168.9,33.1h1.5c1.5,0,2.6,1.2,2.6,2.7v1.5c0,1.5-1.2,2.7-2.6,2.7h-1.5c-1.5,0-2.6-1.2-2.6-2.7v-1.5
				C166.2,34.3,167.4,33.1,168.9,33.1z"/>
			<path class="st8" d="M162.4,67.1c0,0,14.9,10.2,28,0"/>
			<path class="st0" d="M302.7,136.8L302.7,136.8c2.7,0,4.8,2.2,4.8,4.8v44.5c0,2.7-2.2,4.8-4.8,4.8l0,0c-2.7,0-4.8-2.2-4.8-4.8
				v-44.5C297.9,138.9,300,136.8,302.7,136.8z"/>
			<path class="st0" d="M323.5,136.8L323.5,136.8c2.7,0,4.8,2.2,4.8,4.8v44.5c0,2.7-2.2,4.8-4.8,4.8l0,0c-2.7,0-4.8-2.2-4.8-4.8
				v-44.5C318.7,138.9,320.9,136.8,323.5,136.8z"/>
			<path class="st1" d="M291.5,151.8c2.4,10.4,11.1,18.1,21.5,18.1s19-7.7,21.5-18.1C313.5,164.8,291.5,151.9,291.5,151.8z"/>
			<path class="st9" d="M329.5,130c0.8-2.3,1.3-4.7,1.3-7.1c0-10.7-8-19.3-17.8-19.3s-17.8,8.6-17.8,19.3c0,2.4,0.4,4.9,1.3,7.1
				c-3.7,4.5-5.6,10.1-5.6,15.9c0,2,0.2,4,0.7,5.9c0.1,0,22,13,43,0c0.4-1.9,0.7-3.9,0.7-5.9C335.2,140.1,333.2,134.5,329.5,130z"/>
			<path class="st0" d="M301.7,109.2L301.7,109.2c-1.9-1.9-4.9-1.9-6.8,0l-26.4,26.5c-0.9-1.6-3-2.2-4.7-1.3c-1.6,0.9-2.2,3-1.3,4.7
				c0.3,0.5,0.8,1,1.3,1.3l-0.4,0.4c-1.9,1.9-1.9,4.9,0,6.8l0,0c1.9,1.9,4.9,1.9,6.8,0l31.5-31.5
				C303.6,114.2,303.6,111.1,301.7,109.2z"/>
			<path class="st0" d="M363.3,140.7l-1.6-1.6c1.7-0.7,2.6-2.7,1.8-4.5c-0.7-1.7-2.7-2.6-4.5-1.8c-0.8,0.3-1.5,1-1.8,1.8l-25.4-25.4
				c-1.9-1.9-4.9-1.9-6.8,0l0,0c-1.9,1.9-1.9,4.9,0,6.8l31.5,31.5c1.9,1.9,4.9,1.9,6.8,0l0,0C365.2,145.7,365.2,142.6,363.3,140.7
				C363.3,140.7,363.3,140.7,363.3,140.7z"/>
			
				<rect x="330.8" y="106" transform="matrix(0.7071 -0.7071 0.7071 0.7071 13.3138 273.1377)" class="st9" width="11.2" height="29"/>
			
				<rect x="275.1" y="115.6" transform="matrix(0.7071 -0.7071 0.7071 0.7071 -0.9268 240.2633)" class="st9" width="29" height="11.2"/>
			<path class="st0" d="M302.3,186.3c-5.4,0-9.7,4.3-9.8,9.7H312C312,190.6,307.6,186.3,302.3,186.3z"/>
			<path class="st0" d="M323.7,186.3c-5.4,0-9.7,4.4-9.7,9.7h19.5C333.5,190.6,329.1,186.3,323.7,186.3
				C323.7,186.3,323.7,186.3,323.7,186.3z"/>
			<path class="st0" d="M282.4,80.1c-1.8,4.6-7.4,14.3-2.7,16.1s17.8-5,19.5-9.6c1.8-4.6-0.5-9.9-5.2-11.7S284.2,75.5,282.4,80.1
				L282.4,80.1z"/>
			<path class="st3" d="M284.3,86.4c0,3.5-4.5,7.4-1.5,7.4S295,90,295,86.4s-2.4-6.4-5.4-6.4S284.3,82.9,284.3,86.4z"/>
			<path class="st0" d="M341.6,80.1c1.8,4.6,7.4,14.3,2.7,16.1s-17.8-5-19.5-9.6c-1.8-4.6,0.5-9.9,5.2-11.7S339.8,75.5,341.6,80.1
				L341.6,80.1z"/>
			<path class="st3" d="M338.8,86.4c0,3.5,4.5,7.4,1.5,7.4s-12.3-3.8-12.3-7.4s2.4-6.4,5.4-6.4S338.8,82.9,338.8,86.4z"/>
			<circle class="st0" cx="311.7" cy="95.2" r="23.7"/>
			<circle class="st3" cx="302.9" cy="87.9" r="5.9"/>
			<circle class="st1" cx="302.9" cy="87.9" r="4.9"/>
			<circle class="st3" cx="320.7" cy="87.9" r="5.9"/>
			<circle class="st1" cx="320.7" cy="87.9" r="4.9"/>
			<circle class="st4" cx="302.8" cy="88.6" r="1.8"/>
			<circle class="st4" cx="320.8" cy="89.1" r="1.8"/>
			<path class="st4" d="M324.6,95.2v1.8c0,0.6-0.4,1-1,1h-0.8c-0.6,0-1-0.4-1-1v-1.2c-0.6,0.1-1.2,0.2-1.8,0.3v2.1c0,0.6-0.4,1-1,1
				h-0.8c-0.6,0-1-0.4-1-1v-1.7c-1.5,0.2-2.9,0.2-4.3,0.3v2c0,0.6-0.4,1-1,1h-0.8c-0.6,0-1-0.4-1-1v-2c-1.3-0.1-2.6-0.2-3.8-0.3v1.8
				c0,0.6-0.4,1-1,1h-0.8c-0.6,0-1-0.4-1-1v-2.3l-1.5-0.3v1c0,0.6-0.4,1-1,1h-0.8c-0.6,0-1-0.4-1-1v-1.7c-1-0.3-1.9-0.5-2.6-0.8
				c-0.8-0.3-1.7,0.1-2,0.9c-0.1,0.4-0.1,0.8,0,1.1c1.2,3.6,3.7,6.7,7,8.7c2-1.6,5.7-2.7,9.9-2.7c4.4,0,8.2,1.2,10.1,2.9
				c3.6-2.3,6.2-5.8,7.5-9.9c0.2-0.5-0.1-1.1-0.6-1.3c-0.2-0.1-0.5-0.1-0.7,0C327,94.5,325.8,94.9,324.6,95.2z"/>
			<path class="st5" d="M302,105c2.9,1.6,6.2,2.5,9.5,2.6c3.7,0.3,7.3-0.6,10.5-2.4c-1.9-1.7-5.7-2.9-10.1-2.9
				C307.7,102.3,304,103.4,302,105z"/>
			<path class="st6" d="M301.3,97.3h-0.8c-0.6,0-1-0.4-1-1v0.5c0,0.6,0.4,1,1,1h0.8c0.6,0,1-0.4,1-1v-0.5
				C302.3,96.9,301.8,97.3,301.3,97.3z"/>
			<path class="st1" d="M300.5,97.3h0.8c0.6,0,1-0.4,1-1v-0.5c-1-0.2-1.9-0.4-2.8-0.7v1.2C299.5,96.9,300,97.3,300.5,97.3z"/>
			<path class="st6" d="M305.5,98.8h-0.8c-0.6,0-1-0.4-1-1v0.5c0,0.6,0.4,1,1,1h0.8c0.6,0,1-0.4,1-1v-0.5
				C306.5,98.4,306.1,98.8,305.5,98.8z"/>
			<path class="st1" d="M304.8,98.8h0.8c0.6,0,1-0.4,1-1v-1.3c-1-0.1-1.9-0.3-2.8-0.4v1.7C303.8,98.4,304.2,98.8,304.8,98.8
				L304.8,98.8z"/>
			<path class="st6" d="M312,99.3h-0.8c-0.6,0-1-0.4-1-1v0.5c0,0.6,0.4,1,1,1h0.8c0.6,0,1-0.4,1-1v-0.5
				C313,98.9,312.6,99.3,312,99.3z"/>
			<path class="st1" d="M311.3,99.3h0.8c0.6,0,1-0.4,1-1v-1.5c-0.9,0-1.9,0-2.8,0v1.5C310.3,98.9,310.8,99.3,311.3,99.3z"/>
			<path class="st6" d="M319.1,98.8h-0.8c-0.6,0-1-0.4-1-1v0.5c0,0.6,0.4,1,1,1h0.8c0.6,0,1-0.4,1-1v-0.5
				C320.1,98.4,319.6,98.8,319.1,98.8z"/>
			<path class="st1" d="M318.3,98.8h0.8c0.6,0,1-0.4,1-1v-1.6c-0.9,0.2-1.9,0.3-2.8,0.4v1.2C317.3,98.4,317.8,98.8,318.3,98.8
				L318.3,98.8z"/>
			<path class="st6" d="M323.6,97.6h-0.8c-0.6,0-1-0.4-1-1v0.5c0,0.6,0.4,1,1,1h0.8c0.6,0,1-0.4,1-1v-0.5
				C324.6,97.1,324.1,97.6,323.6,97.6z"/>
			<path class="st1" d="M322.8,97.6h0.8c0.6,0,1-0.4,1-1v-1.3c-0.9,0.3-1.8,0.5-2.8,0.7v0.7C321.8,97.1,322.3,97.6,322.8,97.6
				L322.8,97.6z"/>
			<circle class="st1" cx="303.8" cy="87.6" r="1"/>
			<circle class="st1" cx="322.1" cy="88.1" r="1"/>
			<path class="st7" d="M308.3,89.1h7.5c2.6,0,4.8,2.1,4.8,4.8v0c0,2.6-2.1,4.8-4.8,4.8h-7.5c-2.6,0-4.8-2.1-4.8-4.8v0
				C303.5,91.2,305.7,89.1,308.3,89.1z"/>
			<path class="st5" d="M308.3,88.3h7.5c2.6,0,4.8,2.1,4.8,4.8v0c0,2.6-2.1,4.8-4.8,4.8h-7.5c-2.6,0-4.8-2.1-4.8-4.8v0
				C303.5,90.4,305.7,88.3,308.3,88.3z"/>
			<path class="st4" d="M316.3,91.1L316.3,91.1c1.1,0,2,0.9,2,2v0c0,1.1-0.9,2-2,2h0c-1.1,0-2-0.9-2-2v0
				C314.3,92,315.2,91.1,316.3,91.1z"/>
			<path class="st4" d="M307.8,91.1L307.8,91.1c1.1,0,2,0.9,2,2v0c0,1.1-0.9,2-2,2h0c-1.1,0-2-0.9-2-2v0
				C305.8,92,306.7,91.1,307.8,91.1z"/>
			<path class="st10" d="M303.5,111.1c0,0,8.8,6,16.5,0"/>
			<path class="st0" d="M40.7,136.8L40.7,136.8c2.7,0,4.8,2.2,4.8,4.8v44.5c0,2.7-2.2,4.8-4.8,4.8l0,0c-2.7,0-4.8-2.2-4.8-4.8v-44.5
				C35.9,138.9,38,136.8,40.7,136.8z"/>
			<path class="st0" d="M61.5,136.8L61.5,136.8c2.7,0,4.8,2.2,4.8,4.8v44.5c0,2.7-2.2,4.8-4.8,4.8h0c-2.7,0-4.8-2.2-4.8-4.8v-44.5
				C56.7,138.9,58.9,136.8,61.5,136.8z"/>
			<path class="st1" d="M29.5,151.8c2.4,10.4,11.1,18.1,21.5,18.1s19.1-7.7,21.5-18.1C51.5,164.8,29.5,151.9,29.5,151.8z"/>
			<path class="st9" d="M67.5,130c0.8-2.3,1.3-4.7,1.3-7.1c0-10.7-8-19.3-17.8-19.3s-17.8,8.6-17.8,19.3c0,2.4,0.4,4.9,1.3,7.1
				c-3.7,4.5-5.6,10.1-5.6,15.9c0,2,0.2,4,0.7,5.9c0.1,0,22,13,43,0c0.4-1.9,0.7-3.9,0.7-5.9C73.2,140.1,71.2,134.5,67.5,130z"/>
			<path class="st0" d="M39.7,109.2L39.7,109.2c-1.9-1.9-4.9-1.9-6.8,0L6.4,135.7c-0.9-1.6-3-2.2-4.7-1.3s-2.2,3-1.3,4.7
				c0.3,0.5,0.8,1,1.3,1.3l-0.4,0.4c-1.9,1.9-1.9,4.9,0,6.8l0,0c1.9,1.9,4.9,1.9,6.8,0l31.5-31.5C41.6,114.2,41.6,111.1,39.7,109.2z
				"/>
			<path class="st0" d="M101.3,140.7l-1.6-1.6c1.7-0.7,2.6-2.7,1.8-4.5s-2.7-2.6-4.5-1.8c-0.8,0.3-1.5,1-1.8,1.8l-25.4-25.4
				c-1.9-1.9-4.9-1.9-6.8,0l0,0c-1.9,1.9-1.9,4.9,0,6.8l31.5,31.5c1.9,1.9,4.9,1.9,6.8,0l0,0C103.1,145.7,103.1,142.6,101.3,140.7z"
				/>
			
				<rect x="68.8" y="106" transform="matrix(0.7071 -0.7071 0.7071 0.7071 -63.425 87.8777)" class="st9" width="11.2" height="29"/>
			
				<rect x="13.1" y="115.6" transform="matrix(0.7071 -0.7071 0.7071 0.7071 -77.6668 55.0005)" class="st9" width="29" height="11.2"/>
			<path class="st0" d="M40.3,186.3c-5.4,0-9.7,4.4-9.7,9.7H50C50,190.6,45.6,186.3,40.3,186.3z"/>
			<path class="st0" d="M61.7,186.3c-5.4,0-9.7,4.4-9.7,9.7h19.5C71.5,190.6,67.1,186.3,61.7,186.3z"/>
			<path class="st0" d="M20.4,80.1c-1.8,4.6-7.4,14.3-2.7,16.1s17.8-5,19.6-9.6c1.8-4.6-0.5-9.9-5.2-11.7
				C27.4,73.2,22.2,75.5,20.4,80.1C20.4,80.1,20.4,80.1,20.4,80.1z"/>
			<path class="st3" d="M22.3,86.4c0,3.5-4.5,7.4-1.5,7.4S33,90,33,86.4s-2.4-6.4-5.4-6.4S22.3,82.9,22.3,86.4z"/>
			<path class="st0" d="M79.6,80.1c1.8,4.6,7.4,14.3,2.7,16.1s-17.8-5-19.5-9.6c-1.8-4.6,0.5-9.9,5.2-11.7
				C72.6,73.2,77.8,75.5,79.6,80.1z"/>
			<path class="st3" d="M76.8,86.4c0,3.5,4.5,7.4,1.5,7.4S66.1,90,66.1,86.4s2.4-6.4,5.4-6.4S76.8,82.9,76.8,86.4z"/>
			<circle class="st0" cx="49.7" cy="95.2" r="23.7"/>
			<circle class="st3" cx="40.9" cy="87.9" r="5.9"/>
			<circle class="st1" cx="40.9" cy="87.9" r="4.9"/>
			<circle class="st3" cx="58.7" cy="87.9" r="5.9"/>
			<circle class="st1" cx="58.7" cy="87.9" r="4.9"/>
			<circle class="st4" cx="40.8" cy="88.6" r="1.8"/>
			<circle class="st4" cx="58.8" cy="89.1" r="1.8"/>
			<path class="st4" d="M62.6,95.2v1.8c0,0.6-0.4,1-1,1h-0.8c-0.6,0-1-0.4-1-1v-1.2c-0.6,0.1-1.2,0.2-1.8,0.3v2.1c0,0.6-0.4,1-1,1
				h-0.8c-0.6,0-1-0.4-1-1v-1.7c-1.5,0.2-2.9,0.2-4.3,0.3v2c0,0.6-0.4,1-1,1h-0.8c-0.6,0-1-0.4-1-1v-2c-1.3-0.1-2.6-0.2-3.8-0.3v1.8
				c0,0.6-0.4,1-1,1h-0.8c-0.6,0-1-0.4-1-1v-2.3l-1.5-0.3v1c0,0.6-0.4,1-1,1h-0.8c-0.6,0-1-0.4-1-1v-1.7c-1-0.3-1.8-0.5-2.6-0.8
				c-0.8-0.3-1.7,0.1-2,0.9c-0.1,0.4-0.1,0.8,0,1.1c1.2,3.6,3.7,6.7,7,8.6c2-1.6,5.7-2.7,9.9-2.7c4.4,0,8.2,1.2,10.1,2.9
				c3.6-2.3,6.2-5.8,7.5-9.9c0.2-0.5,0-1.1-0.6-1.3c-0.2-0.1-0.5-0.1-0.7,0C65,94.5,63.8,94.9,62.6,95.2z"/>
			<path class="st5" d="M40,105c2.9,1.6,6.2,2.5,9.5,2.6c3.7,0.3,7.3-0.6,10.5-2.4c-1.9-1.7-5.7-2.9-10.1-2.9
				C45.7,102.3,42,103.4,40,105z"/>
			<path class="st6" d="M39.3,97.3h-0.8c-0.6,0-1-0.4-1-1v0.5c0,0.6,0.4,1,1,1h0.8c0.6,0,1-0.4,1-1v-0.5
				C40.3,96.9,39.8,97.3,39.3,97.3z"/>
			<path class="st1" d="M38.5,97.3h0.8c0.6,0,1-0.4,1-1v-0.5c-1-0.2-1.9-0.4-2.8-0.7v1.2C37.5,96.9,38,97.3,38.5,97.3z"/>
			<path class="st6" d="M43.5,98.8h-0.8c-0.6,0-1-0.4-1-1v0.5c0,0.6,0.4,1,1,1h0.8c0.6,0,1-0.4,1-1v-0.5
				C44.5,98.4,44.1,98.8,43.5,98.8z"/>
			<path class="st1" d="M42.8,98.8h0.8c0.6,0,1-0.4,1-1v-1.3c-1-0.1-1.9-0.3-2.8-0.4v1.7C41.8,98.4,42.2,98.8,42.8,98.8
				C42.8,98.8,42.8,98.8,42.8,98.8z"/>
			<path class="st6" d="M50,99.3h-0.8c-0.6,0-1-0.4-1-1v0.5c0,0.6,0.4,1,1,1H50c0.6,0,1-0.4,1-1v-0.5C51,98.9,50.6,99.3,50,99.3z"/>
			<path class="st1" d="M49.3,99.3H50c0.6,0,1-0.4,1-1v-1.5c-0.9,0-1.9,0-2.8,0v1.5C48.3,98.9,48.8,99.3,49.3,99.3z"/>
			<path class="st6" d="M57.1,98.8h-0.8c-0.6,0-1-0.4-1-1v0.5c0,0.6,0.4,1,1,1h0.8c0.6,0,1-0.4,1-1v-0.5
				C58.1,98.4,57.6,98.8,57.1,98.8z"/>
			<path class="st1" d="M56.3,98.8h0.8c0.6,0,1-0.4,1-1v-1.6c-0.9,0.2-1.8,0.3-2.8,0.4v1.2C55.3,98.4,55.8,98.8,56.3,98.8
				C56.3,98.8,56.3,98.8,56.3,98.8z"/>
			<path class="st6" d="M61.6,97.6h-0.8c-0.6,0-1-0.4-1-1v0.5c0,0.6,0.4,1,1,1h0.8c0.6,0,1-0.4,1-1v-0.5
				C62.6,97.1,62.1,97.6,61.6,97.6z"/>
			<path class="st1" d="M60.8,97.6h0.8c0.6,0,1-0.4,1-1v-1.3c-0.9,0.3-1.8,0.5-2.8,0.7v0.7C59.8,97.1,60.3,97.6,60.8,97.6
				C60.8,97.6,60.8,97.6,60.8,97.6z"/>
			<circle class="st1" cx="41.8" cy="87.6" r="1"/>
			<circle class="st1" cx="60.1" cy="88.1" r="1"/>
			<path class="st7" d="M46.3,89.1h7.5c2.6,0,4.8,2.1,4.8,4.8v0c0,2.6-2.1,4.8-4.8,4.8h-7.5c-2.6,0-4.8-2.1-4.8-4.8v0
				C41.5,91.2,43.7,89.1,46.3,89.1z"/>
			<path class="st5" d="M46.3,88.3h7.5c2.6,0,4.8,2.1,4.8,4.8v0c0,2.6-2.1,4.8-4.8,4.8h-7.5c-2.6,0-4.8-2.1-4.8-4.8v0
				C41.5,90.4,43.7,88.3,46.3,88.3z"/>
			<path class="st4" d="M54.3,91.1L54.3,91.1c1.1,0,2,0.9,2,2v0c0,1.1-0.9,2-2,2h0c-1.1,0-2-0.9-2-2v0C52.3,92,53.2,91.1,54.3,91.1z
				"/>
			<path class="st4" d="M45.8,91.1L45.8,91.1c1.1,0,2,0.9,2,2v0c0,1.1-0.9,2-2,2h0c-1.1,0-2-0.9-2-2v0C43.8,92,44.7,91.1,45.8,91.1z
				"/>
			<path class="st10" d="M41.5,111.1c0,0,8.8,6,16.5,0"/>
		</g>
	</g>
</g>
</svg>
