<?xml version="1.0" encoding="utf-8"?>
<!-- Generator: Adobe Illustrator 21.0.0, SVG Export Plug-In . SVG Version: 6.00 Build 0)  -->
<!DOCTYPE svg PUBLIC "-//W3C//DTD SVG 1.1//EN" "http://www.w3.org/Graphics/SVG/1.1/DTD/svg11.dtd">
<svg version="1.1" id="Layer_1" xmlns="http://www.w3.org/2000/svg" xmlns:xlink="http://www.w3.org/1999/xlink" x="0px" y="0px"
	 viewBox="0 0 102.5 102.5" style="enable-background:new 0 0 102.5 102.5;" xml:space="preserve">
<style type="text/css">
	.st0{fill:#FF5263;}
	.st1{fill:#E51F3B;}
	.st2{fill:#FFFFFF;}
	.st3{fill:#282828;}
	.st4{fill:none;stroke:#E51F3B;stroke-width:2;stroke-linecap:round;stroke-linejoin:round;}
</style>
<title>Asset 28</title>
<g id="avatar_keuze">
	<circle class="st0" cx="51.2" cy="51.2" r="51.2"/>
	<circle class="st1" cx="58.7" cy="44" r="5.8"/>
	<path class="st1" d="M54.5,71.5c-0.3-3-0.3-5.6,1-8.3c1-2.1,1.7-4.8,1.6-7.1c0-5.7-2.5-11-5.8-11s-6.3,5.3-6.3,11
		c0,2.4,0.5,4.6,1.6,6.8c0,0,0,0,0,0.1c0,0.1,0.1,0.1,0.2,0.3v0.1c2,3.3,1.6,7.1-0.6,10.3c-3.9,5.8-2.8,6.3-1.7,7
		c1.1,0.7,2.5-0.2,5.9,0.6c4.2,1.1,8.1,0.7,6-3C55.4,76.1,54.9,74.3,54.5,71.5z"/>
	<circle class="st2" cx="58.7" cy="44" r="4.4"/>
	<circle class="st3" cx="58.6" cy="44.2" r="1.6"/>
	<circle class="st2" cx="59.5" cy="43.3" r="0.9"/>
	<circle class="st1" cx="43.8" cy="44" r="5.8"/>
	<circle class="st2" cx="43.8" cy="44" r="4.4"/>
	<circle class="st3" cx="43.7" cy="44.2" r="1.6"/>
	<circle class="st2" cx="44.5" cy="43.3" r="0.9"/>
	<path class="st2" d="M44.8,53.9c0,0-1.2,7.8-6.2,7.5s-2.2,2-2.2,2s6.6,2.1,10.2-3.2S46.1,51.9,44.8,53.9z"/>
	<path class="st2" d="M57.9,53.9c0,0,1.2,7.8,6.2,7.5s2.2,2,2.2,2s-6.6,2.1-10.2-3.1S56.5,51.9,57.9,53.9z"/>
	<path class="st0" d="M53.8,71.1c-0.3-2.9,0.2-5.8,1.4-8.4c0.9-2,1.3-4.2,1.2-6.4c0-5.5-2.4-9.9-5.3-9.9s-5.3,4.4-5.3,9.9
		c0,2.3,0.4,4.5,1.4,6.6c0,0,0,0,0,0.1s0.1,0.1,0.2,0.3v0.1c1.8,3.2,1.7,7.1-0.2,10.2c-3.4,5.6-2.8,5.9-1.8,6.6s2.2-0.2,5.2,0.6
		s7,1.5,5.2-2.1C54.8,76.4,54.1,73.8,53.8,71.1z"/>
	<path class="st4" d="M46.2,53.3c0,0,3.9-3.9,10,0"/>
	<path class="st4" d="M46.2,58.6c0,0,3.9-3.9,10,0"/>
	<circle class="st1" cx="34.2" cy="54.3" r="3.6"/>
	<circle class="st1" cx="68.1" cy="54.3" r="3.6"/>
</g>
</svg>
