<?xml version="1.0" encoding="utf-8"?>
<!-- Generator: Adobe Illustrator 21.0.0, SVG Export Plug-In . SVG Version: 6.00 Build 0)  -->
<!DOCTYPE svg PUBLIC "-//W3C//DTD SVG 1.1//EN" "http://www.w3.org/Graphics/SVG/1.1/DTD/svg11.dtd">
<svg version="1.1" id="Layer_1" xmlns="http://www.w3.org/2000/svg" xmlns:xlink="http://www.w3.org/1999/xlink" x="0px" y="0px"
	 viewBox="0 0 104.1 104.1" style="enable-background:new 0 0 104.1 104.1;" xml:space="preserve">
<style type="text/css">
	.st0{fill:#FFD2DB;}
	.st1{fill:#FFAEAE;}
	.st2{fill:#FFFFFF;}
	.st3{fill:#282828;}
	.st4{fill:#FF6C6C;}
	.st5{fill:#E2E2E2;}
	.st6{fill:#EA5959;}
	.st7{fill:none;stroke:#FFAEAE;stroke-width:4;stroke-linecap:round;stroke-linejoin:round;}
</style>
<title>Asset 23</title>
<g>
	<g id="Layer_2">
		<g id="avatar_keuze">
			<circle class="st0" cx="52" cy="52" r="52"/>
			<circle class="st1" cx="42.5" cy="45.6" r="6.5"/>
			<circle class="st2" cx="42.5" cy="45.6" r="5.4"/>
			<circle class="st1" cx="62.1" cy="45.6" r="6.5"/>
			<circle class="st2" cx="62.1" cy="45.6" r="5.4"/>
			<circle class="st3" cx="42.4" cy="46.3" r="1.9"/>
			<circle class="st3" cx="62.2" cy="46.8" r="1.9"/>
			<path class="st3" d="M66.4,53.6v2c0,0.6-0.5,1.1-1.1,1.1h-0.8c-0.6,0-1.1-0.5-1.1-1.1v-1.3c-0.7,0.1-1.3,0.3-1.9,0.4V57
				c0,0.6-0.5,1.1-1.1,1.1h-0.8c-0.6,0-1.1-0.5-1.1-1.1v-1.9c-1.6,0.2-3.2,0.3-4.7,0.3v2.2c0,0.6-0.5,1.1-1.1,1.1h-0.8
				c-0.6,0-1.1-0.5-1.1-1.1v-2.2c-1.4-0.1-2.8-0.2-4.1-0.3v2c0,0.6-0.5,1.1-1.1,1.1h-0.8c-0.6,0-1.1-0.5-1.1-1.1v-2.4L42,54.4v1.1
				c0,0.6-0.5,1.1-1.1,1.1h-0.8c-0.6,0-1.1-0.5-1.1-1.1v-1.8c-1.1-0.3-2-0.6-2.8-0.9c-0.9-0.3-1.8,0.2-2.2,1c-0.1,0.4-0.1,0.8,0,1.1
				c1.3,4,4.1,7.4,7.7,9.5c2.2-1.8,6.2-2.9,10.9-2.9c4.9,0,9.1,1.3,11.2,3.2c3.9-2.5,6.9-6.4,8.2-10.9c0.2-0.6-0.1-1.2-0.7-1.4
				c-0.2-0.1-0.5-0.1-0.7,0C69.1,52.8,67.7,53.2,66.4,53.6z"/>
			<path class="st4" d="M41.7,64.4c3.2,1.8,6.7,2.7,10.3,2.7c4,0.3,8.3-0.4,11.8-2.4c-2.1-1.9-6.5-3.4-11.3-3.4
				C47.8,61.4,43.8,62.7,41.7,64.4z"/>
			<path class="st5" d="M40.8,55.9H40c-0.6,0-1.1-0.5-1.1-1.1v0.5c0,0.6,0.5,1.1,1.1,1.1h0.8c0.6,0,1.1-0.5,1.1-1.1v-0.6
				C41.9,55.4,41.4,55.9,40.8,55.9L40.8,55.9z"/>
			<path class="st2" d="M39.9,55.9h0.8c0.6,0,1.1-0.5,1.1-1.1v-0.5c-1.1-0.2-2.1-0.5-3-0.7v1.3C38.9,55.4,39.3,55.9,39.9,55.9z"/>
			<path class="st5" d="M45.6,57.7h-0.8c-0.6,0-1.1-0.5-1.1-1.1v0.5c0,0.6,0.5,1.1,1.1,1.1h0.8c0.6,0,1.1-0.5,1.1-1.1v-0.5
				C46.7,57.2,46.3,57.7,45.6,57.7L45.6,57.7z"/>
			<path class="st2" d="M44.8,57.7h0.8c0.7,0,1.1-0.5,1.1-1.1v-1.5c-1.1-0.1-2.1-0.3-3-0.5v1.9C43.7,57.1,44,57.6,44.8,57.7
				L44.8,57.7z"/>
			<path class="st5" d="M52.6,58.1h-0.8c-0.6,0-1.1-0.5-1.1-1.1v0.5c0,0.6,0.5,1.1,1.1,1.1h0.8c0.6,0,1.1-0.5,1.1-1.1V57
				C53.7,57.6,53.2,58.1,52.6,58.1L52.6,58.1z"/>
			<path class="st2" d="M51.8,58.1h0.8c0.6,0,1.1-0.5,1.1-1.1l0,0v-1.6c-1,0-2,0-3,0V57C50.7,57.6,51.2,58.1,51.8,58.1z"/>
			<path class="st5" d="M60.3,57.6h-0.8c-0.6,0-1.1-0.5-1.1-1.1V57c0,0.6,0.5,1.1,1.1,1.1h0.8c0.6,0,1.1-0.5,1.1-1.1v-0.5
				C61.4,57.1,60.9,57.6,60.3,57.6L60.3,57.6z"/>
			<path class="st2" d="M59.5,57.6h0.8c0.6,0,1.1-0.5,1.1-1.1v-1.8c-1,0.2-2,0.3-3,0.4v1.3C58.4,57,58.9,57.5,59.5,57.6z"/>
			<path class="st5" d="M65.3,56.2h-0.8c-0.6,0-1.1-0.5-1.1-1.1v0.5c0,0.6,0.5,1.1,1.1,1.1h0.8c0.6,0,1.1-0.5,1.1-1.1v-0.5
				C66.4,55.7,65.9,56.2,65.3,56.2z"/>
			<path class="st2" d="M64.4,56.2h0.8c0.6,0,1.1-0.5,1.1-1.1v-1.5c-1,0.3-2,0.5-3,0.7V55C63.4,55.7,63.8,56.2,64.4,56.2z"/>
			<circle class="st2" cx="43.5" cy="45.2" r="1.1"/>
			<circle class="st2" cx="63.6" cy="45.7" r="1.1"/>
			<path class="st6" d="M48.5,46.8h8.3c2.9,0,5.2,2.3,5.2,5.2l0,0c0,2.9-2.3,5.2-5.2,5.2h-8.3c-2.9,0-5.2-2.3-5.2-5.2l0,0
				C43.2,49.2,45.6,46.8,48.5,46.8z"/>
			<path class="st4" d="M48.5,46h8.3c2.9,0,5.2,2.3,5.2,5.2l0,0c0,2.9-2.3,5.2-5.2,5.2h-8.3c-2.9,0-5.2-2.3-5.2-5.2l0,0
				C43.2,48.3,45.6,46,48.5,46z"/>
			<path class="st3" d="M57.3,49L57.3,49c1.2,0,2.2,1,2.2,2.2l0,0c0,1.2-1,2.2-2.2,2.2l0,0c-1.2,0-2.2-1-2.2-2.2l0,0
				C55.1,50,56.1,49,57.3,49z"/>
			<path class="st3" d="M47.9,49L47.9,49c1.2,0,2.2,1,2.2,2.2l0,0c0,1.2-1,2.2-2.2,2.2l0,0c-1.2,0-2.2-1-2.2-2.2l0,0
				C45.7,50,46.7,49,47.9,49z"/>
			<path class="st7" d="M43.2,71.1c0,0,9.6,6.6,18.2,0"/>
		</g>
	</g>
</g>
</svg>
