<svg xmlns="http://www.w3.org/2000/svg" viewBox="0 0 968.2 376"><title>Asset 4</title><g id="Layer_2" data-name="Layer 2"><g id="overzicht_1_2"><rect x="26.32" y="319" width="915" height="57" rx="28.5" ry="28.5" style="fill:#dd9f07"/><circle cx="54.32" cy="346" r="19" style="fill:#f2b406"/><line x1="80.32" y1="349.67" x2="918.32" y2="349.67" style="fill:none;stroke:#ffc600;stroke-miterlimit:10"/><line x1="80.32" y1="336.5" x2="918.32" y2="336.5" style="fill:none;stroke:#ffc600;stroke-miterlimit:10"/><line x1="83.32" y1="362" x2="918.32" y2="362" style="fill:none;stroke:#ffc600;stroke-miterlimit:10"/><polygon points="932.1 24.14 898.54 57.71 968.2 57.71 932.1 24.14" style="fill:#dd9f07"/><polygon points="932.1 42.51 898.54 76.07 968.2 76.07 932.1 42.51" style="fill:#dd9f07"/><polygon points="932.1 60.88 898.54 94.44 968.2 94.44 932.1 60.88" style="fill:#dd9f07"/><polygon points="932.1 79.24 898.54 112.81 968.2 112.81 932.1 79.24" style="fill:#dd9f07"/><polygon points="932.1 97.61 898.54 131.17 968.2 131.17 932.1 97.61" style="fill:#dd9f07"/><rect x="925.77" y="115.34" width="15.2" height="50.66" rx="7.6" ry="7.6" style="fill:#dd9f07"/><polygon points="899.28 0 860 39.28 941.52 39.28 899.28 0" style="fill:#f2b406"/><polygon points="899.28 21.49 860 60.77 941.52 60.77 899.28 21.49" style="fill:#f2b406"/><polygon points="899.28 42.98 860 82.26 941.52 82.26 899.28 42.98" style="fill:#f2b406"/><polygon points="899.28 64.47 860 103.75 941.52 103.75 899.28 64.47" style="fill:#f2b406"/><polygon points="899.28 85.96 860 125.24 941.52 125.24 899.28 85.96" style="fill:#f2b406"/><rect x="891.87" y="106.71" width="17.79" height="59.29" rx="8.89" ry="8.89" style="fill:#f2b406"/><polygon points="649.1 24.14 615.54 57.71 685.2 57.71 649.1 24.14" style="fill:#dd9f07"/><polygon points="649.1 42.51 615.54 76.07 685.2 76.07 649.1 42.51" style="fill:#dd9f07"/><polygon points="649.1 60.88 615.54 94.44 685.2 94.44 649.1 60.88" style="fill:#dd9f07"/><polygon points="649.1 79.24 615.54 112.81 685.2 112.81 649.1 79.24" style="fill:#dd9f07"/><polygon points="649.1 97.61 615.54 131.17 685.2 131.17 649.1 97.61" style="fill:#dd9f07"/><rect x="642.77" y="115.34" width="15.2" height="50.66" rx="7.6" ry="7.6" style="fill:#dd9f07"/><polygon points="616.28 0 577 39.28 658.52 39.28 616.28 0" style="fill:#f2b406"/><polygon points="616.28 21.49 577 60.77 658.52 60.77 616.28 21.49" style="fill:#f2b406"/><polygon points="616.28 42.98 577 82.26 658.52 82.26 616.28 42.98" style="fill:#f2b406"/><polygon points="616.28 64.47 577 103.75 658.52 103.75 616.28 64.47" style="fill:#f2b406"/><polygon points="616.28 85.96 577 125.24 658.52 125.24 616.28 85.96" style="fill:#f2b406"/><rect x="608.87" y="106.71" width="17.79" height="59.29" rx="8.89" ry="8.89" style="fill:#f2b406"/><polygon points="366.1 24.14 332.54 57.71 402.2 57.71 366.1 24.14" style="fill:#dd9f07"/><polygon points="366.1 42.51 332.54 76.07 402.2 76.07 366.1 42.51" style="fill:#dd9f07"/><polygon points="366.1 60.88 332.54 94.44 402.2 94.44 366.1 60.88" style="fill:#dd9f07"/><polygon points="366.1 79.24 332.54 112.81 402.2 112.81 366.1 79.24" style="fill:#dd9f07"/><polygon points="366.1 97.61 332.54 131.17 402.2 131.17 366.1 97.61" style="fill:#dd9f07"/><rect x="359.77" y="115.34" width="15.2" height="50.66" rx="7.6" ry="7.6" style="fill:#dd9f07"/><polygon points="333.28 0 294 39.28 375.52 39.28 333.28 0" style="fill:#f2b406"/><polygon points="333.28 21.49 294 60.77 375.52 60.77 333.28 21.49" style="fill:#f2b406"/><polygon points="333.28 42.98 294 82.26 375.52 82.26 333.28 42.98" style="fill:#f2b406"/><polygon points="333.28 64.47 294 103.75 375.52 103.75 333.28 64.47" style="fill:#f2b406"/><polygon points="333.28 85.96 294 125.24 375.52 125.24 333.28 85.96" style="fill:#f2b406"/><rect x="325.87" y="106.71" width="17.79" height="59.29" rx="8.89" ry="8.89" style="fill:#f2b406"/><polygon points="36.1 24.14 69.66 57.71 0 57.71 36.1 24.14" style="fill:#dd9f07"/><polygon points="36.1 42.51 69.66 76.07 0 76.07 36.1 42.51" style="fill:#dd9f07"/><polygon points="36.1 60.88 69.66 94.44 0 94.44 36.1 60.88" style="fill:#dd9f07"/><polygon points="36.1 79.24 69.66 112.81 0 112.81 36.1 79.24" style="fill:#dd9f07"/><polygon points="36.1 97.61 69.66 131.17 0 131.17 36.1 97.61" style="fill:#dd9f07"/><rect x="27.23" y="115.34" width="15.2" height="50.66" rx="7.6" ry="7.6" style="fill:#dd9f07"/><polygon points="68.92 0 108.2 39.28 26.68 39.28 68.92 0" style="fill:#f2b406"/><polygon points="68.92 21.49 108.2 60.77 26.68 60.77 68.92 21.49" style="fill:#f2b406"/><polygon points="68.92 42.98 108.2 82.26 26.68 82.26 68.92 42.98" style="fill:#f2b406"/><polygon points="68.92 64.47 108.2 103.75 26.68 103.75 68.92 64.47" style="fill:#f2b406"/><polygon points="68.92 85.96 108.2 125.24 26.68 125.24 68.92 85.96" style="fill:#f2b406"/><rect x="58.54" y="106.71" width="17.79" height="59.29" rx="8.89" ry="8.89" transform="translate(134.88 272.71) rotate(-180)" style="fill:#f2b406"/></g></g></svg>