<svg xmlns="http://www.w3.org/2000/svg" viewBox="0 0 111.78 65.94"><title>Asset 38</title><g id="Layer_2" data-name="Layer 2"><g id="overzicht_1_2"><path d="M98.76,33A18.49,18.49,0,0,0,65.25,24.8a18.43,18.43,0,0,0-3.37-.6,20.5,20.5,0,0,0-41,.74h-.41a20.51,20.51,0,1,0,11,37.84,18.49,18.49,0,0,0,23.6-2.41,18.47,18.47,0,0,0,9.44.28A18.49,18.49,0,0,0,88.59,59,14.47,14.47,0,1,0,98.76,33Z" style="fill:#dd9f07"/><path d="M98.76,28.22A18.49,18.49,0,0,0,65.25,20a18.43,18.43,0,0,0-3.37-.6,20.5,20.5,0,0,0-41,.74h-.41a20.51,20.51,0,1,0,11,37.84,18.49,18.49,0,0,0,23.6-2.41,18.47,18.47,0,0,0,9.44.28,18.49,18.49,0,0,0,24.1-1.65A14.47,14.47,0,1,0,98.76,28.22Z" style="fill:#f2b406"/></g></g></svg>