<?xml version="1.0" encoding="utf-8"?>
<!-- Generator: Adobe Illustrator 21.0.0, SVG Export Plug-In . SVG Version: 6.00 Build 0)  -->
<!DOCTYPE svg PUBLIC "-//W3C//DTD SVG 1.1//EN" "http://www.w3.org/Graphics/SVG/1.1/DTD/svg11.dtd">
<svg version="1.1" id="Layer_1" xmlns="http://www.w3.org/2000/svg" xmlns:xlink="http://www.w3.org/1999/xlink" x="0px" y="0px"
	 viewBox="0 0 347.1 347.1" style="enable-background:new 0 0 347.1 347.1;" xml:space="preserve">
<style type="text/css">
	.st0{display:none;}
	.st1{display:inline;}
	.st2{fill:#23B9FB;}
	.st3{display:none;fill:#F2B406;}
	.st4{fill:#17A348;}
	.st5{fill:#FFFFFF;}
	.st6{fill:#FB474B;}
	.st7{display:inline;clip-path:url(#SVGID_2_);}
	.st8{clip-path:url(#SVGID_4_);enable-background:new    ;}
	.st9{clip-path:url(#SVGID_6_);}
	.st10{clip-path:url(#SVGID_8_);}
	.st11{clip-path:url(#SVGID_10_);fill:#FFFFFF;}
	.st12{clip-path:url(#SVGID_12_);}
	.st13{clip-path:url(#SVGID_14_);fill:#E92D3F;}
	.st14{clip-path:url(#SVGID_16_);}
	.st15{clip-path:url(#SVGID_18_);fill:#052991;}
	.st16{display:inline;clip-path:url(#SVGID_20_);}
	.st17{clip-path:url(#SVGID_22_);enable-background:new    ;}
	.st18{clip-path:url(#SVGID_24_);}
	.st19{clip-path:url(#SVGID_26_);}
	.st20{clip-path:url(#SVGID_28_);fill:#F6E43B;}
	.st21{clip-path:url(#SVGID_30_);}
	.st22{clip-path:url(#SVGID_32_);fill:#D60A22;}
	.st23{clip-path:url(#SVGID_34_);}
	.st24{clip-path:url(#SVGID_36_);}
	.st25{clip-path:url(#SVGID_38_);}
	.st26{clip-path:url(#SVGID_40_);enable-background:new    ;}
	.st27{clip-path:url(#SVGID_42_);}
	.st28{clip-path:url(#SVGID_44_);}
	.st29{clip-path:url(#SVGID_46_);fill:#D60A22;}
	.st30{clip-path:url(#SVGID_48_);}
	.st31{clip-path:url(#SVGID_50_);fill:#F6E43B;}
	.st32{clip-path:url(#SVGID_52_);}
	.st33{clip-path:url(#SVGID_54_);}
</style>
<title>Asset 16</title>
<g id="Layer_2" class="st0">
	<g id="locatie" class="st1">
		<path class="st2" d="M173.6,341.1C81.2,341.1,6,265.9,6,173.5S81.2,6,173.6,6s167.5,75.2,167.5,167.5S265.9,341.1,173.6,341.1z"/>
		<path class="st3" d="M173.6,12c89.2,0,161.5,72.3,161.5,161.5s-72.3,161.5-161.5,161.5S12,262.8,12,173.5c0,0,0,0,0,0
			C12,84.3,84.4,12,173.6,12 M173.6,0C77.7,0.1,0.1,77.9,0.1,173.8C0.2,243.4,41.9,306.3,106,333.4c88.4,37.2,190.1-4.4,227.3-92.7
			c37.1-88.2-4.2-189.7-92.2-227.1C219.7,4.6,196.8,0,173.6,0z"/>
		<path class="st4" d="M283.4,47.5c-1.8-1.5-4.3-1.7-6.4-0.5l-22.8,12.6l-14,8c-1.8,1-2.9,2.9-2.9,5v10.3c0,3.2,2.6,5.8,5.8,5.8l0,0
			c2.9,0,5.4,2.2,5.7,5.1l2.7,23.7c0.2,1.7,1.1,3.2,2.5,4.1l4.4,2.9c0.4,0.3,0.9,0.5,1.4,0.7l20.2,6.8c0.5,0.2,1,0.4,1.5,0.7
			c4.1,2.8,24.7,17.8,24.7,29.8c0,11.6,11.1,15.9,13.9,16.8c0.5,0.1,0.9,0.4,1.3,0.6l10.6,6.8c2.7,1.7,6.2,0.9,7.9-1.7
			c0.5-0.8,0.9-1.8,0.9-2.8C342.1,157.8,339.3,93.1,283.4,47.5z"/>
		<path class="st5" d="M100.6,22.1l5.6,9.6c2.5,5.7,8.2,9.5,14.4,9.5h13.7c3.3,0,6.6-0.7,9.6-2.2l9.1-4.3c4.3-2,9.3-1.4,13,1.5l0,0
			c3.8,3,8.9,3.8,13.3,2l17-6.8l29.3-17.4C225.6,14.1,165.6-10.9,100.6,22.1z"/>
		<path class="st5" d="M243.6,325.2l-3.8-5c-3.3-7.5-10.7-12.4-18.9-12.4h-8c-4.9,0-9.8,1.1-14.2,3.2l-12.2,5.7
			c-1,0.5-2.1,0.3-3-0.4l0,0c-6.6-5.3-15.6-6.6-23.4-3.5l-11.5,4.6l-27.9,14.7C120.6,332.2,181.6,356.2,243.6,325.2z"/>
		<path class="st4" d="M152.8,86.3l-31.7-8.7c-0.9-0.2-1.8-0.2-2.6,0.2l-9.1,4c-0.4,0.2-0.7,0.4-1,0.6L91.8,96.8
			c-0.7,0.6-1.6,1-2.6,1H54.5c-0.9,0-1.7-0.3-2.4-0.8L37.7,85.7c-1.8-1.4-4.9-0.6-6.2,1.3c-6.4,10.2-24,35-25.5,85.7
			c0,0.8,0.2,1.5,0.5,2.2l11,18.6c0.4,0.6,0.5,1.3,0.5,2l0,0c0,2.2,1.7,3.9,3.9,3.9c1.3,0,2.5-0.6,3.2-1.7l15-20.9
			c1.2-1.7,3.5-2.1,5.2-1.1l9.5,5.9c1.7,1.1,4,0.6,5.2-1l8.6-11.8c1.3-1.7,3.7-2.1,5.5-0.8c0.1,0.1,0.2,0.1,0.3,0.2l14.8,13
			c0.9,0.8,1.4,1.9,1.3,3V204c0,2.2,1.8,3.9,3.9,3.9h20.7c1.3,0,2.4-0.6,3.2-1.6l6.6-9.1c1.1-1.5,3.2-2.1,4.9-1.2l21,10
			c2,0.9,4.3,0.1,5.2-1.8c0.1-0.1,0.1-0.2,0.2-0.4l18.6-51.5c0.3-0.8,0.3-1.7,0-2.5l-19.6-60.9C155.1,87.6,154.1,86.6,152.8,86.3z"
			/>
		<path class="st4" d="M199.2,178.3l-3.5,3.8c-2.6,2.9-2.6,7.3,0,10.2l5.5,6c1.3,1.4,2,3.2,2,5.1v7.6c0,4.2,3.4,7.6,7.6,7.6l0,0
			c3.4,0,6.4-2.2,7.3-5.5l6.3-21.2c1-3.5-0.5-7.2-3.8-8.9l-12.2-6.4C205.4,175.1,201.6,175.7,199.2,178.3z"/>
		<path class="st6" d="M135,122.2c-7.6-0.5-14,5.3-14.5,12.8c0,0,0,0,0,0c-0.5,7.6,11.7,22.8,12.3,22.8s14.6-13.6,15-21.2
			C148.3,129.2,142.5,122.7,135,122.2C135,122.2,135,122.2,135,122.2z M133.8,142.4c-3.3-0.2-5.8-3-5.7-6.3c0.2-3.3,3-5.8,6.3-5.7
			c3.3,0.2,5.8,3,5.7,6.3c0,0,0,0.1,0,0.1C139.8,140.1,137.1,142.6,133.8,142.4L133.8,142.4z"/>
	</g>
</g>
<g class="st0">
	<defs>
		<circle id="SVGID_1_" cx="173.5" cy="173.5" r="167.5"/>
	</defs>
	<clipPath id="SVGID_2_" class="st1">
		<use xlink:href="#SVGID_1_"  style="overflow:visible;"/>
	</clipPath>
	<g class="st7">
		<defs>
			<rect id="SVGID_3_" x="-72.7" y="-61" width="485.7" height="502.5"/>
		</defs>
		<clipPath id="SVGID_4_">
			<use xlink:href="#SVGID_3_"  style="overflow:visible;"/>
		</clipPath>
		<g class="st8">
			<g>
				<defs>
					<rect id="SVGID_5_" x="-22.4" y="6" width="402" height="335"/>
				</defs>
				<clipPath id="SVGID_6_">
					<use xlink:href="#SVGID_5_"  style="overflow:visible;"/>
				</clipPath>
				<g class="st9">
					<defs>
						<rect id="SVGID_7_" x="103.7" y="6" width="139.6" height="335"/>
					</defs>
					<clipPath id="SVGID_8_">
						<use xlink:href="#SVGID_7_"  style="overflow:visible;"/>
					</clipPath>
					<g class="st10">
						<defs>
							<rect id="SVGID_9_" x="-5.7" y="6" width="351.8" height="351.8"/>
						</defs>
						<clipPath id="SVGID_10_">
							<use xlink:href="#SVGID_9_"  style="overflow:visible;"/>
						</clipPath>
						<rect x="20" y="-77.7" class="st11" width="307.1" height="502.5"/>
					</g>
				</g>
				<g class="st9">
					<defs>
						<rect id="SVGID_11_" x="229.9" y="6" width="139.6" height="335"/>
					</defs>
					<clipPath id="SVGID_12_">
						<use xlink:href="#SVGID_11_"  style="overflow:visible;"/>
					</clipPath>
					<g class="st12">
						<defs>
							<rect id="SVGID_13_" x="-5.7" y="6" width="351.8" height="351.8"/>
						</defs>
						<clipPath id="SVGID_14_">
							<use xlink:href="#SVGID_13_"  style="overflow:visible;"/>
						</clipPath>
						<rect x="146.2" y="-77.7" class="st13" width="307.1" height="502.5"/>
					</g>
				</g>
				<g class="st9">
					<defs>
						<rect id="SVGID_15_" x="-22.4" y="6" width="139.6" height="335"/>
					</defs>
					<clipPath id="SVGID_16_">
						<use xlink:href="#SVGID_15_"  style="overflow:visible;"/>
					</clipPath>
					<g class="st14">
						<defs>
							<rect id="SVGID_17_" x="-5.7" y="6" width="351.8" height="351.8"/>
						</defs>
						<clipPath id="SVGID_18_">
							<use xlink:href="#SVGID_17_"  style="overflow:visible;"/>
						</clipPath>
						<rect x="-106.2" y="-77.7" class="st15" width="307.1" height="502.5"/>
					</g>
				</g>
			</g>
		</g>
	</g>
</g>
<g class="st0">
	<defs>
		<circle id="SVGID_19_" cx="173.5" cy="173.5" r="167.6"/>
	</defs>
	<clipPath id="SVGID_20_" class="st1">
		<use xlink:href="#SVGID_19_"  style="overflow:visible;"/>
	</clipPath>
	<g class="st16">
		<defs>
			<rect id="SVGID_21_" x="-72.8" y="-61.1" width="486" height="502.8"/>
		</defs>
		<clipPath id="SVGID_22_">
			<use xlink:href="#SVGID_21_"  style="overflow:visible;"/>
		</clipPath>
		<g class="st17">
			<g>
				<defs>
					<rect id="SVGID_23_" x="-22.6" y="5.9" width="402.2" height="335.2"/>
				</defs>
				<clipPath id="SVGID_24_">
					<use xlink:href="#SVGID_23_"  style="overflow:visible;"/>
				</clipPath>
				<g class="st18">
					<defs>
						<rect id="SVGID_25_" x="103.7" y="5.9" width="139.7" height="335.2"/>
					</defs>
					<clipPath id="SVGID_26_">
						<use xlink:href="#SVGID_25_"  style="overflow:visible;"/>
					</clipPath>
					<g class="st19">
						<defs>
							<rect id="SVGID_27_" x="-5.8" y="5.9" width="352" height="352"/>
						</defs>
						<clipPath id="SVGID_28_">
							<use xlink:href="#SVGID_27_"  style="overflow:visible;"/>
						</clipPath>
						<rect x="19.9" y="-77.9" class="st20" width="307.3" height="502.8"/>
					</g>
				</g>
				<g class="st18">
					<defs>
						<rect id="SVGID_29_" x="230" y="5.9" width="139.7" height="335.2"/>
					</defs>
					<clipPath id="SVGID_30_">
						<use xlink:href="#SVGID_29_"  style="overflow:visible;"/>
					</clipPath>
					<g class="st21">
						<defs>
							<rect id="SVGID_31_" x="-5.8" y="5.9" width="352" height="352"/>
						</defs>
						<clipPath id="SVGID_32_">
							<use xlink:href="#SVGID_31_"  style="overflow:visible;"/>
						</clipPath>
						<rect x="146.2" y="-77.9" class="st22" width="307.3" height="502.8"/>
					</g>
				</g>
				<g class="st18">
					<defs>
						<rect id="SVGID_33_" x="-22.6" y="5.9" width="139.7" height="335.2"/>
					</defs>
					<clipPath id="SVGID_34_">
						<use xlink:href="#SVGID_33_"  style="overflow:visible;"/>
					</clipPath>
					<g class="st23">
						<defs>
							<rect id="SVGID_35_" x="-5.8" y="5.9" width="352" height="352"/>
						</defs>
						<clipPath id="SVGID_36_">
							<use xlink:href="#SVGID_35_"  style="overflow:visible;"/>
						</clipPath>
						<rect x="-106.4" y="-77.9" class="st24" width="307.3" height="502.8"/>
					</g>
				</g>
			</g>
		</g>
	</g>
</g>
<g>
	<defs>
		<circle id="SVGID_37_" cx="173.5" cy="173.5" r="167.5"/>
	</defs>
	<clipPath id="SVGID_38_">
		<use xlink:href="#SVGID_37_"  style="overflow:visible;"/>
	</clipPath>
	<g class="st25">
		<defs>
			<rect id="SVGID_39_" x="-55.9" y="-61" width="469" height="502.5"/>
		</defs>
		<clipPath id="SVGID_40_">
			<use xlink:href="#SVGID_39_"  style="overflow:visible;"/>
		</clipPath>
		<g class="st26">
			<g>
				<defs>
					<rect id="SVGID_41_" x="4.1" y="-29.8" width="338.9" height="406.6"/>
				</defs>
				<clipPath id="SVGID_42_">
					<use xlink:href="#SVGID_41_"  style="overflow:visible;"/>
				</clipPath>
				<g class="st27">
					<defs>
						<rect id="SVGID_43_" x="4.1" y="97.9" width="338.9" height="141.2"/>
					</defs>
					<clipPath id="SVGID_44_">
						<use xlink:href="#SVGID_43_"  style="overflow:visible;"/>
					</clipPath>
					<g class="st28">
						<defs>
							<rect id="SVGID_45_" x="-12.8" y="4.1" width="355.8" height="355.8"/>
						</defs>
						<clipPath id="SVGID_46_">
							<use xlink:href="#SVGID_45_"  style="overflow:visible;"/>
						</clipPath>
						<rect x="-80.6" y="13.1" class="st29" width="508.3" height="310.6"/>
					</g>
				</g>
				<g class="st27">
					<defs>
						<rect id="SVGID_47_" x="4.1" y="225.5" width="338.9" height="141.2"/>
					</defs>
					<clipPath id="SVGID_48_">
						<use xlink:href="#SVGID_47_"  style="overflow:visible;"/>
					</clipPath>
					<g class="st30">
						<defs>
							<rect id="SVGID_49_" x="-12.8" y="4.1" width="355.8" height="355.8"/>
						</defs>
						<clipPath id="SVGID_50_">
							<use xlink:href="#SVGID_49_"  style="overflow:visible;"/>
						</clipPath>
						<rect x="-80.6" y="140.8" class="st31" width="508.3" height="310.6"/>
					</g>
				</g>
				<g class="st27">
					<defs>
						<rect id="SVGID_51_" x="4.1" y="-29.8" width="338.9" height="141.2"/>
					</defs>
					<clipPath id="SVGID_52_">
						<use xlink:href="#SVGID_51_"  style="overflow:visible;"/>
					</clipPath>
					<g class="st32">
						<defs>
							<rect id="SVGID_53_" x="-12.8" y="4.1" width="355.8" height="355.8"/>
						</defs>
						<clipPath id="SVGID_54_">
							<use xlink:href="#SVGID_53_"  style="overflow:visible;"/>
						</clipPath>
						<rect x="-80.6" y="-114.5" class="st33" width="508.3" height="310.6"/>
					</g>
				</g>
			</g>
		</g>
	</g>
</g>
</svg>
