<?xml version="1.0" encoding="utf-8"?>
<!-- Generator: Adobe Illustrator 21.0.0, SVG Export Plug-In . SVG Version: 6.00 Build 0)  -->
<!DOCTYPE svg PUBLIC "-//W3C//DTD SVG 1.1//EN" "http://www.w3.org/Graphics/SVG/1.1/DTD/svg11.dtd">
<svg version="1.1" id="Layer_1" xmlns="http://www.w3.org/2000/svg" xmlns:xlink="http://www.w3.org/1999/xlink" x="0px" y="0px"
	 viewBox="0 0 347.1 347.1" style="enable-background:new 0 0 347.1 347.1;" xml:space="preserve">
<style type="text/css">
	.st0{fill:#23B9FB;}
	.st1{display:none;fill:#F2B406;}
	.st2{fill:#17A348;}
</style>
<title>Asset 16</title>
<g id="Layer_2">
	<g id="locatie">
		<path class="st0" d="M173.5,341.1C81.2,341.1,6,265.9,6,173.5S81.2,6,173.5,6S341,81.2,341,173.5S265.9,341.1,173.5,341.1z"/>
		<path class="st1" d="M173.5,12C262.7,12,335,84.3,335,173.5S262.7,335,173.5,335S12,262.7,12,173.5l0,0C12,84.3,84.3,12,173.5,12
			 M173.5,0C77.7,0.1,0,77.9,0.1,173.7C0.2,243.4,41.9,306.3,106,333.4c88.4,37.2,190.1-4.4,227.3-92.7
			c37.1-88.2-4.2-189.7-92.2-227.1C219.7,4.6,196.7,0,173.5,0z"/>
		<path class="st2" d="M283.4,47.5c-1.8-1.5-4.3-1.7-6.4-0.5l-22.8,12.6l-14,8c-1.8,1-2.9,2.9-2.9,5v10.3c0,3.2,2.6,5.8,5.8,5.8l0,0
			c2.9,0,5.4,2.2,5.7,5.1l2.7,23.7c0.2,1.7,1.1,3.2,2.5,4.1l4.4,2.9c0.4,0.3,0.9,0.5,1.4,0.7L280,132c0.5,0.2,1,0.4,1.5,0.7
			c4.1,2.8,24.7,17.8,24.7,29.8c0,11.6,11.1,15.9,13.9,16.8c0.5,0.1,0.9,0.4,1.3,0.6l10.6,6.8c2.7,1.7,6.2,0.9,7.9-1.7
			c0.5-0.8,0.9-1.8,0.9-2.8C342,157.8,339.2,93.1,283.4,47.5z"/>
		<path class="st2" d="M100.5,22.1l5.6,9.6c2.5,5.7,8.2,9.5,14.4,9.5h13.7c3.3,0,6.6-0.7,9.6-2.2l9.1-4.3c4.3-2,9.3-1.4,13,1.5l0,0
			c3.8,3,8.9,3.8,13.3,2l17-6.8L225.5,14C225.5,14.1,165.5-10.9,100.5,22.1z"/>
		<path class="st2" d="M243.5,325.2l-3.8-5c-3.3-7.5-10.7-12.4-18.9-12.4h-8c-4.9,0-9.8,1.1-14.2,3.2l-12.2,5.7
			c-1,0.5-2.1,0.3-3-0.4l0,0c-6.6-5.3-15.6-6.6-23.4-3.5l-11.5,4.6l-27.9,14.7C120.5,332.2,181.5,356.2,243.5,325.2z"/>
		<path class="st2" d="M152.7,86.2L121,77.5c-0.9-0.2-1.8-0.2-2.6,0.2l-9.1,4c-0.4,0.2-0.7,0.4-1,0.6L91.8,96.7
			c-0.7,0.6-1.6,1-2.6,1H54.5c-0.9,0-1.7-0.3-2.4-0.8L37.7,85.7c-1.8-1.4-4.9-0.6-6.2,1.3c-6.4,10.2-24,35-25.5,85.7
			c0,0.8,0.2,1.5,0.5,2.2l11,18.6c0.4,0.6,0.5,1.3,0.5,2l0,0c0,2.2,1.7,3.9,3.9,3.9c1.3,0,2.5-0.6,3.2-1.7l15-20.9
			c1.2-1.7,3.5-2.1,5.2-1.1l9.5,5.9c1.7,1.1,4,0.6,5.2-1l8.6-11.8c1.3-1.7,3.7-2.1,5.5-0.8c0.1,0.1,0.2,0.1,0.3,0.2l14.8,13
			c0.9,0.8,1.4,1.9,1.3,3V204c0,2.2,1.8,3.9,3.9,3.9h20.7c1.3,0,2.4-0.6,3.2-1.6l6.6-9.1c1.1-1.5,3.2-2.1,4.9-1.2l21,10
			c2,0.9,4.3,0.1,5.2-1.8c0.1-0.1,0.1-0.2,0.2-0.4l18.6-51.5c0.3-0.8,0.3-1.7,0-2.5l-19.6-60.9C155,87.6,154,86.6,152.7,86.2z"/>
		<path class="st2" d="M199.2,178.3l-3.5,3.8c-2.6,2.9-2.6,7.3,0,10.2l5.5,6c1.3,1.4,2,3.2,2,5.1v7.6c0,4.2,3.4,7.6,7.6,7.6l0,0
			c3.4,0,6.4-2.2,7.3-5.5l6.3-21.2c1-3.5-0.5-7.2-3.8-8.9l-12.2-6.4C205.3,175,201.5,175.7,199.2,178.3z"/>
	</g>
</g>
</svg>
