<svg xmlns="http://www.w3.org/2000/svg" viewBox="0 0 781.9 169.6"><title>Asset 6</title><g id="Layer_2" data-name="Layer 2"><g id="info_activiteit"><g style="opacity:0.4"><line x1="453.83" y1="92.91" x2="448.63" y2="76.79" style="fill:none;stroke:#fff;stroke-linecap:round;stroke-linejoin:round;stroke-width:3px;opacity:0.6000000000000001"/><line x1="459.29" y1="82.25" x2="443.17" y2="87.45" style="fill:none;stroke:#fff;stroke-linecap:round;stroke-linejoin:round;stroke-width:3px;opacity:0.6000000000000001"/><line x1="358.45" y1="60.22" x2="353.59" y2="45.18" style="fill:none;stroke:#fff;stroke-linecap:round;stroke-linejoin:round;stroke-width:3px;opacity:0.6000000000000001"/><line x1="363.54" y1="50.27" x2="348.5" y2="55.13" style="fill:none;stroke:#fff;stroke-linecap:round;stroke-linejoin:round;stroke-width:3px;opacity:0.6000000000000001"/><circle cx="407.73" cy="133.89" r="8.47" transform="matrix(0.95, -0.31, 0.31, 0.95, -21.42, 131.71)" style="fill:none;stroke:#fff;stroke-linecap:round;stroke-linejoin:round;stroke-width:3px;opacity:0.6000000000000001"/><circle cx="405.7" cy="9.97" r="8.47" transform="translate(16.55 125.1) rotate(-17.89)" style="fill:none;stroke:#fff;stroke-linecap:round;stroke-linejoin:round;stroke-width:3px;opacity:0.6000000000000001"/><circle cx="476.87" cy="35.64" r="7.34" transform="translate(12.1 148.2) rotate(-17.89)" style="fill:none;stroke:#fff;stroke-linecap:round;stroke-linejoin:round;stroke-width:3px;opacity:0.6000000000000001"/><polygon points="396.89 86.97 391.34 75.45 404.26 76.53 396.89 86.97" style="fill:none;stroke:#fff;stroke-linecap:round;stroke-linejoin:round;stroke-width:3px;opacity:0.6000000000000001"/><line x1="531.68" y1="24.57" x2="548.51" y2="22.64" style="fill:none;stroke:#fff;stroke-linecap:round;stroke-linejoin:round;stroke-width:3px;opacity:0.6000000000000001"/><line x1="539.14" y1="15.19" x2="541.06" y2="32.02" style="fill:none;stroke:#fff;stroke-linecap:round;stroke-linejoin:round;stroke-width:3px;opacity:0.6000000000000001"/><circle cx="512.54" cy="85.84" r="7.34" transform="translate(-6.43 58.68) rotate(-6.51)" style="fill:none;stroke:#fff;stroke-linecap:round;stroke-linejoin:round;stroke-width:3px;opacity:0.6000000000000001"/><polygon points="560.61 73.97 573.4 74.26 567.08 62.94 560.61 73.97" style="fill:none;stroke:#fff;stroke-linecap:round;stroke-linejoin:round;stroke-width:3px;opacity:0.6000000000000001"/><polygon points="476.82 136.89 487.38 144.1 488.25 131.16 476.82 136.89" style="fill:none;stroke:#fff;stroke-linecap:round;stroke-linejoin:round;stroke-width:3px;opacity:0.6000000000000001"/></g><g style="opacity:0.4"><line x1="317.07" y1="92.91" x2="322.27" y2="76.79" style="fill:none;stroke:#fff;stroke-linecap:round;stroke-linejoin:round;stroke-width:3px;opacity:0.6000000000000001"/><line x1="311.61" y1="82.25" x2="327.73" y2="87.45" style="fill:none;stroke:#fff;stroke-linecap:round;stroke-linejoin:round;stroke-width:3px;opacity:0.6000000000000001"/><line x1="412.45" y1="60.22" x2="417.3" y2="45.18" style="fill:none;stroke:#fff;stroke-linecap:round;stroke-linejoin:round;stroke-width:3px;opacity:0.6000000000000001"/><line x1="407.35" y1="50.27" x2="422.4" y2="55.13" style="fill:none;stroke:#fff;stroke-linecap:round;stroke-linejoin:round;stroke-width:3px;opacity:0.6000000000000001"/><circle cx="363.16" cy="133.89" r="8.47" transform="translate(124.19 438.37) rotate(-72.11)" style="fill:none;stroke:#fff;stroke-linecap:round;stroke-linejoin:round;stroke-width:3px;opacity:0.6000000000000001"/><circle cx="365.19" cy="9.97" r="8.47" transform="translate(243.53 354.45) rotate(-72.11)" style="fill:none;stroke:#fff;stroke-linecap:round;stroke-linejoin:round;stroke-width:3px;opacity:0.6000000000000001"/><circle cx="294.02" cy="35.64" r="7.34" transform="translate(169.79 304.51) rotate(-72.11)" style="fill:none;stroke:#fff;stroke-linecap:round;stroke-linejoin:round;stroke-width:3px;opacity:0.6000000000000001"/><polygon points="374.01 86.97 379.55 75.45 366.63 76.53 374.01 86.97" style="fill:none;stroke:#fff;stroke-linecap:round;stroke-linejoin:round;stroke-width:3px;opacity:0.6000000000000001"/><line x1="239.21" y1="24.57" x2="222.39" y2="22.64" style="fill:none;stroke:#fff;stroke-linecap:round;stroke-linejoin:round;stroke-width:3px;opacity:0.6000000000000001"/><line x1="231.76" y1="15.19" x2="229.84" y2="32.02" style="fill:none;stroke:#fff;stroke-linecap:round;stroke-linejoin:round;stroke-width:3px;opacity:0.6000000000000001"/><circle cx="258.36" cy="85.84" r="7.34" transform="translate(143.77 332.8) rotate(-83.49)" style="fill:none;stroke:#fff;stroke-linecap:round;stroke-linejoin:round;stroke-width:3px;opacity:0.6000000000000001"/><polygon points="210.28 73.97 197.5 74.26 203.82 62.94 210.28 73.97" style="fill:none;stroke:#fff;stroke-linecap:round;stroke-linejoin:round;stroke-width:3px;opacity:0.6000000000000001"/><polygon points="294.08 136.89 283.52 144.1 282.65 131.16 294.08 136.89" style="fill:none;stroke:#fff;stroke-linecap:round;stroke-linejoin:round;stroke-width:3px;opacity:0.6000000000000001"/></g><g style="opacity:0.4"><line x1="675.07" y1="76.69" x2="680.27" y2="92.81" style="fill:none;stroke:#fff;stroke-linecap:round;stroke-linejoin:round;stroke-width:3px;opacity:0.6000000000000001"/><line x1="669.61" y1="87.35" x2="685.73" y2="82.15" style="fill:none;stroke:#fff;stroke-linecap:round;stroke-linejoin:round;stroke-width:3px;opacity:0.6000000000000001"/><line x1="770.45" y1="109.38" x2="775.3" y2="124.42" style="fill:none;stroke:#fff;stroke-linecap:round;stroke-linejoin:round;stroke-width:3px;opacity:0.6000000000000001"/><line x1="765.35" y1="119.33" x2="780.4" y2="114.47" style="fill:none;stroke:#fff;stroke-linecap:round;stroke-linejoin:round;stroke-width:3px;opacity:0.6000000000000001"/><circle cx="721.16" cy="35.71" r="8.47" transform="translate(23.89 223.24) rotate(-17.89)" style="fill:none;stroke:#fff;stroke-linecap:round;stroke-linejoin:round;stroke-width:3px;opacity:0.6000000000000001"/><circle cx="723.19" cy="159.63" r="8.47" transform="translate(-14.07 229.85) rotate(-17.89)" style="fill:none;stroke:#fff;stroke-linecap:round;stroke-linejoin:round;stroke-width:3px;opacity:0.6000000000000001"/><circle cx="652.02" cy="133.95" r="7.34" transform="translate(-9.63 206.75) rotate(-17.89)" style="fill:none;stroke:#fff;stroke-linecap:round;stroke-linejoin:round;stroke-width:3px;opacity:0.6000000000000001"/><polygon points="732.01 82.63 737.55 94.15 724.63 93.07 732.01 82.63" style="fill:none;stroke:#fff;stroke-linecap:round;stroke-linejoin:round;stroke-width:3px;opacity:0.6000000000000001"/><line x1="597.21" y1="145.03" x2="580.39" y2="146.95" style="fill:none;stroke:#fff;stroke-linecap:round;stroke-linejoin:round;stroke-width:3px;opacity:0.6000000000000001"/><line x1="589.76" y1="154.41" x2="587.84" y2="137.58" style="fill:none;stroke:#fff;stroke-linecap:round;stroke-linejoin:round;stroke-width:3px;opacity:0.6000000000000001"/><circle cx="616.36" cy="83.76" r="7.34" transform="translate(-5.52 70.44) rotate(-6.51)" style="fill:none;stroke:#fff;stroke-linecap:round;stroke-linejoin:round;stroke-width:3px;opacity:0.6000000000000001"/><polygon points="568.28 95.63 555.5 95.34 561.82 106.66 568.28 95.63" style="fill:none;stroke:#fff;stroke-linecap:round;stroke-linejoin:round;stroke-width:3px;opacity:0.6000000000000001"/><polygon points="652.08 32.71 641.52 25.5 640.65 38.44 652.08 32.71" style="fill:none;stroke:#fff;stroke-linecap:round;stroke-linejoin:round;stroke-width:3px;opacity:0.6000000000000001"/></g><g style="opacity:0.4"><line x1="106.83" y1="76.69" x2="101.63" y2="92.81" style="fill:none;stroke:#fff;stroke-linecap:round;stroke-linejoin:round;stroke-width:3px;opacity:0.6000000000000001"/><line x1="112.29" y1="87.35" x2="96.17" y2="82.15" style="fill:none;stroke:#fff;stroke-linecap:round;stroke-linejoin:round;stroke-width:3px;opacity:0.6000000000000001"/><line x1="11.45" y1="109.38" x2="6.59" y2="124.42" style="fill:none;stroke:#fff;stroke-linecap:round;stroke-linejoin:round;stroke-width:3px;opacity:0.6000000000000001"/><line x1="16.54" y1="119.33" x2="1.5" y2="114.47" style="fill:none;stroke:#fff;stroke-linecap:round;stroke-linejoin:round;stroke-width:3px;opacity:0.6000000000000001"/><circle cx="60.73" cy="35.71" r="8.47" transform="translate(8.1 82.54) rotate(-72.11)" style="fill:none;stroke:#fff;stroke-linecap:round;stroke-linejoin:round;stroke-width:3px;opacity:0.6000000000000001"/><circle cx="58.7" cy="159.63" r="8.47" transform="translate(-111.24 166.46) rotate(-72.11)" style="fill:none;stroke:#fff;stroke-linecap:round;stroke-linejoin:round;stroke-width:3px;opacity:0.6000000000000001"/><circle cx="129.87" cy="133.95" r="7.34" transform="translate(-37.5 216.4) rotate(-72.11)" style="fill:none;stroke:#fff;stroke-linecap:round;stroke-linejoin:round;stroke-width:3px;opacity:0.6000000000000001"/><polygon points="49.89 82.63 44.34 94.15 57.26 93.07 49.89 82.63" style="fill:none;stroke:#fff;stroke-linecap:round;stroke-linejoin:round;stroke-width:3px;opacity:0.6000000000000001"/><line x1="184.68" y1="145.03" x2="201.51" y2="146.95" style="fill:none;stroke:#fff;stroke-linecap:round;stroke-linejoin:round;stroke-width:3px;opacity:0.6000000000000001"/><line x1="192.14" y1="154.41" x2="194.06" y2="137.58" style="fill:none;stroke:#fff;stroke-linecap:round;stroke-linejoin:round;stroke-width:3px;opacity:0.6000000000000001"/><circle cx="165.54" cy="83.76" r="7.34" transform="translate(63.55 238.73) rotate(-83.49)" style="fill:none;stroke:#fff;stroke-linecap:round;stroke-linejoin:round;stroke-width:3px;opacity:0.6000000000000001"/><polygon points="213.61 95.63 226.4 95.34 220.08 106.66 213.61 95.63" style="fill:none;stroke:#fff;stroke-linecap:round;stroke-linejoin:round;stroke-width:3px;opacity:0.6000000000000001"/><polygon points="129.82 32.71 140.38 25.5 141.25 38.44 129.82 32.71" style="fill:none;stroke:#fff;stroke-linecap:round;stroke-linejoin:round;stroke-width:3px;opacity:0.6000000000000001"/></g></g></g></svg>