<?xml version="1.0" encoding="utf-8"?>
<!-- Generator: Adobe Illustrator 21.0.0, SVG Export Plug-In . SVG Version: 6.00 Build 0)  -->
<!DOCTYPE svg PUBLIC "-//W3C//DTD SVG 1.1//EN" "http://www.w3.org/Graphics/SVG/1.1/DTD/svg11.dtd">
<svg version="1.1" id="Layer_1" xmlns="http://www.w3.org/2000/svg" xmlns:xlink="http://www.w3.org/1999/xlink" x="0px" y="0px"
	 viewBox="0 0 158.8 161.2" style="enable-background:new 0 0 158.8 161.2;" xml:space="preserve">
<style type="text/css">
	.st0{fill:#FB7936;}
	.st1{fill:#FF3E3E;}
	.st2{fill:#FFF200;}
	.st3{fill:#00EDFF;}
	.st4{fill:none;stroke:#E55E23;stroke-linecap:round;stroke-linejoin:round;}
	.st5{fill:#E55E23;}
	.st6{fill:#FFEC00;}
	.st7{fill:#F4A04D;}
	.st8{fill:#00FF1E;}
	.st9{fill:#FFFFFF;}
	.st10{fill:#262626;}
	.st11{fill:#282828;}
	.st12{fill:#FF6C6C;}
	.st13{fill:#58071E;}
	.st14{fill:#E2E2E2;}
</style>
<title>Asset 1</title>
<g id="overzicht_1_2">
	<path class="st0" d="M94.8,94L94.8,94c2.8,0,5,2.4,5,5.3v48.6c0,2.9-2.2,5.3-5,5.3h0c-2.8,0-5-2.4-5-5.3V99.3
		C89.8,96.3,92,94,94.8,94z"/>
	<path class="st0" d="M116.3,94L116.3,94c2.8,0,5,2.4,5,5.3v49c0,2.9-2.2,5.3-5,5.3h0c-2.8,0-5-2.4-5-5.3v-49
		C111.3,96.4,113.6,94,116.3,94z"/>
	<path class="st0" d="M84.8,154.7c0.3-5.3,4.8-9.3,10.1-9c4.9,0.3,8.8,4.2,9,9H84.8z"/>
	<path class="st0" d="M106.9,154.7c0.3-5.3,4.8-9.3,10.1-9c4.9,0.3,8.8,4.2,9,9H106.9z"/>
	<circle class="st1" cx="105.2" cy="79.5" r="17.8"/>
	<circle class="st2" cx="105.2" cy="105.4" r="22.6"/>
	<path class="st3" d="M157.4,98.1l-1.6-1.7c1.8-0.8,2.6-2.8,1.9-4.6c-0.8-1.8-2.8-2.6-4.6-1.9c-0.9,0.4-1.5,1-1.9,1.9l-26.3-26.3
		c-1.9-1.9-5.1-1.9-7,0l0,0c-1.9,1.9-1.9,5.1,0,7l32.5,32.5c1.9,1.9,5.1,1.9,7,0l0,0C159.3,103.2,159.3,100,157.4,98.1z"/>
	<path class="st4" d="M105.4,104.2c0,0-1.5,2.7,0,2.4s1-1.2,1-1.2"/>
	<ellipse class="st5" cx="118.9" cy="82.8" rx="1.8" ry="0.9"/>
	<ellipse class="st5" cx="93.5" cy="82.8" rx="1.8" ry="0.9"/>
	<path class="st6" d="M134,34.3l5-4.3c-7.5-18.4-28.5-27.3-46.9-19.8c-13.5,5.5-22.4,18.7-22.4,33.3c0,1.2,4.4,2.7,4.5,3.9
		s-4,1.9-3.8,3.1C73.8,70,92.5,83,112.1,79.5s32.6-22.2,29.1-41.8c-0.2-1.2-0.5-2.3-0.8-3.5H134z"/>
	<circle class="st0" cx="85.1" cy="31" r="4.6"/>
	<circle class="st0" cx="126.2" cy="31" r="4.6"/>
	<circle class="st5" cx="126" cy="31.4" r="2.6"/>
	<circle class="st5" cx="85.1" cy="31.4" r="2.6"/>
	<path class="st0" d="M83.8,43.5c0-12,9.7-21.8,21.8-21.8s21.8,9.7,21.8,21.8s-9.7,21.8-21.8,21.8c0,0,0,0,0,0
		C93.6,65.3,83.8,55.6,83.8,43.5z"/>
	<path class="st7" d="M102.2,47h6.5c3.5,0,6.3,2.8,6.3,6.3l0,0c0,3.5-2.8,6.3-6.3,6.3h-6.5c-3.5,0-6.3-2.8-6.3-6.3l0,0
		C95.9,49.8,98.7,47,102.2,47z"/>
	<path class="st8" d="M109.8,46.3c0,1.6-2.1,4.2-4.6,4.2s-4.6-2.5-4.6-4.2s2.1-2.9,4.6-2.9S109.8,44.7,109.8,46.3z"/>
	<circle class="st5" cx="94" cy="47.5" r="2.9"/>
	<circle class="st5" cx="117.4" cy="47.6" r="2.9"/>
	<circle class="st5" cx="99.5" cy="39.5" r="4.7"/>
	<circle class="st9" cx="99.5" cy="39.5" r="3.5"/>
	<circle class="st10" cx="99.4" cy="39.6" r="1.3"/>
	<circle class="st9" cx="100.2" cy="38.9" r="0.7"/>
	<circle class="st5" cx="110.8" cy="39.5" r="4.7"/>
	<circle class="st9" cx="110.8" cy="39.5" r="3.5"/>
	<circle class="st10" cx="110.7" cy="39.6" r="1.3"/>
	<circle class="st9" cx="111.4" cy="38.9" r="0.7"/>
	<path class="st11" d="M111,51.6v0.8c0,0.2-0.2,0.4-0.4,0.4l0,0h-0.3c-0.2,0-0.4-0.2-0.4-0.4l0,0v-0.5L109,52v0.9
		c0,0.2-0.2,0.4-0.4,0.4l0,0h-0.3c-0.2,0-0.4-0.2-0.4-0.4l0,0v-0.7c-0.6,0.1-1.3,0.1-1.9,0.1v0.9c0,0.2-0.2,0.4-0.4,0.4l0,0h-0.3
		c-0.2,0-0.4-0.2-0.4-0.4l0,0v-0.9c-0.6,0-1.1-0.1-1.6-0.1V53c0,0.2-0.2,0.4-0.4,0.4l0,0h-0.3c-0.2,0-0.4-0.2-0.4-0.4l0,0v-1
		l-0.7-0.1v0.4c0,0.2-0.2,0.4-0.4,0.4l0,0h-0.3c-0.2,0-0.4-0.2-0.4-0.4l0,0v-0.7c-0.4-0.1-0.8-0.2-1.1-0.3c-0.3-0.1-0.7,0.1-0.9,0.4
		c-0.1,0.1-0.1,0.3,0,0.5c0.5,1.6,1.6,2.9,3.1,3.8c1.3-0.8,2.8-1.2,4.3-1.2c1.6-0.1,3.2,0.4,4.5,1.3c1.6-1,2.7-2.5,3.3-4.3
		c0.1-0.2-0.1-0.5-0.3-0.6c-0.1,0-0.2,0-0.3,0C112.1,51.3,111.5,51.4,111,51.6z"/>
	<path class="st12" d="M101.1,55.9c1.3,0.7,2.7,1.1,4.2,1.1c1.6,0.1,3.2-0.2,4.6-1c-1.3-0.9-2.9-1.3-4.4-1.2
		C103.9,54.7,102.4,55.1,101.1,55.9z"/>
	<path class="st9" d="M100.8,52.5h-0.3c-0.2,0-0.4-0.2-0.4-0.4l0,0v0.2c0,0.2,0.2,0.4,0.4,0.4l0,0h0.3c0.2,0,0.4-0.2,0.4-0.4l0,0
		v-0.2C101.2,52.3,101,52.5,100.8,52.5L100.8,52.5z"/>
	<path class="st10" d="M101.2,52.1c0,0.2-0.2,0.4-0.4,0.4l0,0h-0.3c-0.2,0-0.4-0.2-0.4-0.4l0,0v0.2c0,0.2,0.2,0.4,0.4,0.4l0,0h0.3
		c0.2,0,0.4-0.2,0.4-0.4l0,0V52.1z"/>
	<path class="st9" d="M100.5,52.5h0.3c0.2,0,0.4-0.2,0.4-0.4l0,0v-0.2c-0.4-0.1-0.8-0.2-1.2-0.3v0.5C100,52.3,100.2,52.5,100.5,52.5
		z"/>
	<path class="st9" d="M102.7,53.2h-0.3c-0.2,0-0.4-0.2-0.4-0.4l0,0V53c0,0.2,0.2,0.4,0.4,0.4l0,0h0.3c0.2,0,0.4-0.2,0.4-0.4l0,0
		v-0.2C103.1,53,102.9,53.2,102.7,53.2L102.7,53.2z"/>
	<path class="st10" d="M103.1,52.7c0,0.2-0.2,0.4-0.4,0.4l0,0h-0.3c-0.2,0-0.4-0.2-0.4-0.4l0,0V53c0,0.2,0.2,0.4,0.4,0.4l0,0h0.3
		c0.2,0,0.4-0.2,0.4-0.4l0,0V52.7z"/>
	<path class="st9" d="M102.3,53.2h0.3c0.2,0,0.4-0.2,0.4-0.4l0,0v-0.6c-0.4,0-0.8-0.1-1.2-0.2v0.8C101.9,53,102.1,53.2,102.3,53.2z"
		/>
	<path class="st9" d="M105.5,53.4h-0.3c-0.2,0-0.4-0.2-0.4-0.4l0,0v0.2c0,0.2,0.2,0.4,0.4,0.4l0,0h0.3c0.2,0,0.4-0.2,0.4-0.4l0,0V53
		C106,53.2,105.8,53.4,105.5,53.4L105.5,53.4z"/>
	<path class="st10" d="M105.9,53c0,0.2-0.2,0.4-0.4,0.4l0,0h-0.3c-0.2,0-0.4-0.2-0.4-0.4l0,0v0.2c0,0.2,0.2,0.4,0.4,0.4l0,0h0.3
		c0.2,0,0.4-0.2,0.4-0.4l0,0V53z"/>
	<path class="st9" d="M105.2,53.4h0.3c0.2,0,0.4-0.2,0.4-0.4l0,0v-0.6c-0.4,0-0.8,0-1.2,0V53C104.7,53.2,104.9,53.4,105.2,53.4z"/>
	<path class="st9" d="M108.6,53.2h-0.3c-0.2,0-0.4-0.2-0.4-0.4l0,0V53c0,0.2,0.2,0.4,0.4,0.4l0,0h0.3c0.2,0,0.4-0.2,0.4-0.4l0,0
		v-0.2C109,53,108.8,53.2,108.6,53.2L108.6,53.2z"/>
	<path class="st10" d="M109,52.7c0,0.2-0.2,0.4-0.4,0.4l0,0h-0.3c-0.2,0-0.4-0.2-0.4-0.4l0,0V53c0,0.2,0.2,0.4,0.4,0.4l0,0h0.3
		c0.2,0,0.4-0.2,0.4-0.4l0,0V52.7z"/>
	<path class="st9" d="M108.2,53.2h0.3c0.2,0,0.4-0.2,0.4-0.4l0,0V52c-0.4,0.1-0.8,0.1-1.2,0.2v0.5C107.8,52.9,108,53.2,108.2,53.2
		C108.2,53.2,108.2,53.2,108.2,53.2z"/>
	<path class="st9" d="M110.6,52.6h-0.3c-0.2,0-0.4-0.2-0.4-0.4l0,0v0.2c0,0.2,0.2,0.4,0.4,0.4l0,0h0.3c0.2,0,0.4-0.2,0.4-0.4l0,0
		v-0.2C111,52.4,110.8,52.6,110.6,52.6L110.6,52.6z"/>
	<path class="st10" d="M111,52.2c0,0.2-0.2,0.4-0.4,0.4l0,0h-0.3c-0.2,0-0.4-0.2-0.4-0.4l0,0v0.2c0,0.2,0.2,0.4,0.4,0.4l0,0h0.3
		c0.2,0,0.4-0.2,0.4-0.4l0,0V52.2z"/>
	<path class="st9" d="M110.2,52.6h0.3c0.2,0,0.4-0.2,0.4-0.4l0,0v-0.6c-0.4,0.1-0.8,0.2-1.2,0.3v0.3C109.8,52.4,110,52.6,110.2,52.6
		C110.2,52.6,110.2,52.6,110.2,52.6z"/>
	<path class="st13" d="M95.5,34.1h6.2c1,0,1.8,0.8,1.8,1.8v0c0,1-0.8,1.8-1.8,1.8h-6.2c-1,0-1.8-0.8-1.8-1.8v0
		C93.7,34.9,94.5,34.1,95.5,34.1z"/>
	<path class="st13" d="M108.6,31h6.2c1,0,1.8,0.8,1.8,1.8v0c0,1-0.8,1.8-1.8,1.8h-6.2c-1,0-1.8-0.8-1.8-1.8v0
		C106.9,31.8,107.7,31,108.6,31z"/>
	<path class="st0" d="M45.9,94.4L45.9,94.4c3,0,5.4,2.4,5.4,5.4v50.2c0,3-2.4,5.4-5.4,5.4h0c-3,0-5.4-2.4-5.4-5.4V99.8
		C40.5,96.8,42.9,94.4,45.9,94.4z"/>
	<path class="st0" d="M69.4,94.4L69.4,94.4c3,0,5.4,2.4,5.4,5.4v50.2c0,3-2.4,5.4-5.4,5.4l0,0c-3,0-5.4-2.4-5.4-5.4V99.8
		C64,96.8,66.4,94.4,69.4,94.4z"/>
	<path class="st9" d="M33.2,111.4c2.8,11.7,12.5,20.4,24.2,20.4s21.5-8.7,24.2-20.4C58.1,126.1,33.3,111.4,33.2,111.4z"/>
	<path class="st0" d="M76.2,86.8c0.9-2.6,1.4-5.3,1.4-8.1c0-12-9-21.8-20.1-21.8s-20.1,9.8-20.1,21.8c0,2.7,0.5,5.5,1.4,8.1
		c-4.1,5.1-6.4,11.5-6.3,18c0,2.2,0.3,4.5,0.8,6.7c0.1,0,24.8,14.7,48.5,0c0.5-2.2,0.8-4.4,0.8-6.7C82.5,98.2,80.3,91.8,76.2,86.8z"
		/>
	<path class="st0" d="M45.3,63.3L45.3,63.3c-2.1-2.1-5.6-2.1-7.7,0L7.7,93.2c-1-1.9-3.4-2.5-5.3-1.5S0,95.1,1,97
		c0.3,0.6,0.8,1.1,1.5,1.5L2,98.9c-2.1,2.1-2.1,5.6,0,7.7l0,0c2.1,2.1,5.6,2.1,7.7,0L45.3,71C47.4,68.9,47.4,65.4,45.3,63.3z"/>
	<path class="st0" d="M114.3,98.9l-1.8-1.8c2-0.8,3-3,2.2-5s-3-3-5-2.2c-1,0.4-1.8,1.2-2.2,2.2L78.7,63.3c-2.1-2.1-5.6-2.1-7.7,0
		l0,0c-2.1,2.1-2.1,5.5,0,7.7l35.5,35.5c2.1,2.1,5.6,2.1,7.7,0l0,0C116.3,104.4,116.4,101,114.3,98.9z"/>
	<path class="st0" d="M45.4,150.2c-6.1,0-11,4.9-11,11h22C56.4,155.2,51.5,150.2,45.4,150.2z"/>
	<path class="st0" d="M69.6,150.2c-6.1,0-11,4.9-11,11h22C80.6,155.2,75.7,150.2,69.6,150.2z"/>
	<path class="st4" d="M57.5,105.5c0,0-1.7,3,0,2.6s1.1-1.3,1.1-1.3"/>
	<ellipse class="st5" cx="72.3" cy="82.1" rx="1.9" ry="1"/>
	<ellipse class="st5" cx="44.5" cy="82.1" rx="1.9" ry="1"/>
	<path class="st13" d="M88.8,29.2l5.4-4.6C86.1,4.4,63.2-5.3,43,2.8c-14.9,6-24.6,20.4-24.6,36.5c0,1.2,4.8,3,4.9,4.2
		s-4.4,2.1-4.2,3.4c4.2,21.3,24.8,35.2,46.1,31s35.2-24.8,31-46.1c-0.2-0.9-0.4-1.8-0.6-2.7H88.8z"/>
	<circle class="st0" cx="35.3" cy="25.6" r="5.1"/>
	<circle class="st0" cx="80.2" cy="25.6" r="5.1"/>
	<circle class="st5" cx="80" cy="26" r="2.9"/>
	<circle class="st5" cx="35.3" cy="26" r="2.9"/>
	<path class="st0" d="M34,39.3c0-13.1,10.6-23.8,23.8-23.8s23.8,10.6,23.8,23.8c0,13.1-10.6,23.8-23.8,23.8c0,0,0,0,0,0
		C44.6,63,34,52.4,34,39.3z"/>
	<path class="st7" d="M54,43h7.1c3.8,0,6.9,3.1,6.9,6.9v0c0,3.8-3.1,6.9-6.9,6.9H54c-3.8,0-6.9-3.1-6.9-6.9v0
		C47.1,46.1,50.2,43,54,43z"/>
	<path class="st13" d="M62.3,42.3c0,1.8-2.3,4.5-5.1,4.5s-5.1-2.8-5.1-4.5s2.3-3.2,5.1-3.2S62.3,40.5,62.3,42.3z"/>
	<circle class="st5" cx="45" cy="43.6" r="3.2"/>
	<circle class="st5" cx="70.6" cy="43.7" r="3.2"/>
	<circle class="st5" cx="51.1" cy="34.8" r="5.1"/>
	<circle class="st9" cx="51.1" cy="34.8" r="3.8"/>
	<circle class="st11" cx="51" cy="35" r="1.4"/>
	<circle class="st9" cx="51.8" cy="34.2" r="0.8"/>
	<circle class="st5" cx="63.4" cy="34.8" r="5.1"/>
	<circle class="st9" cx="63.4" cy="34.8" r="3.8"/>
	<circle class="st11" cx="63.3" cy="35" r="1.4"/>
	<circle class="st9" cx="64.1" cy="34.2" r="0.8"/>
	<path class="st11" d="M63.6,48.1V49c0,0.3-0.2,0.5-0.5,0.5h-0.4c-0.3,0-0.5-0.2-0.5-0.5v-0.6l-0.8,0.2v1c0,0.2-0.2,0.4-0.4,0.4
		h-0.4c-0.3,0-0.5-0.2-0.5-0.5v-0.8c-0.7,0.1-1.4,0.1-2,0.1v0.9c0,0.3-0.2,0.5-0.5,0.5h-0.4c-0.3,0-0.5-0.2-0.5-0.5v-1
		c-0.6,0-1.2-0.1-1.8-0.2v0.9c0,0.3-0.2,0.5-0.5,0.5h-0.4c-0.3,0-0.5-0.2-0.5-0.5v-1L53,48.4v0.5c0,0.3-0.2,0.5-0.5,0.5h-0.4
		c-0.3,0-0.5-0.2-0.5-0.5V48c-0.5-0.1-0.9-0.3-1.2-0.4c-0.4-0.1-0.8,0.1-0.9,0.5c0,0.2,0,0.3,0,0.5c0.6,1.7,1.8,3.2,3.3,4.1
		c1.4-0.9,3.1-1.4,4.7-1.3c1.7-0.1,3.4,0.4,4.8,1.4c1.7-1.1,3-2.8,3.5-4.7c0.1-0.3-0.1-0.5-0.3-0.6c-0.1,0-0.2,0-0.3,0
		C64.8,47.7,64.2,47.9,63.6,48.1z"/>
	<path class="st12" d="M52.8,52.7c1.4,0.8,3,1.2,4.5,1.3c1.7,0.1,3.5-0.3,5-1.2c-1.4-1-3.1-1.5-4.8-1.4
		C55.9,51.4,54.2,51.8,52.8,52.7z"/>
	<path class="st14" d="M52.5,49.1h-0.4c-0.3,0-0.5-0.2-0.5-0.5v0.2c0,0.3,0.2,0.5,0.5,0.5h0.4c0.3,0,0.5-0.2,0.5-0.5v-0.2
		C53,48.9,52.7,49.1,52.5,49.1z"/>
	<path class="st9" d="M52.1,49.1h0.4c0.3,0,0.5-0.2,0.5-0.5v-0.2c-0.5-0.1-0.9-0.2-1.3-0.3v0.6C51.6,48.9,51.9,49.1,52.1,49.1z"/>
	<path class="st14" d="M54.5,49.8h-0.4c-0.3,0-0.5-0.2-0.5-0.5v0.2c0,0.3,0.2,0.5,0.5,0.5h0.4c0.3,0,0.5-0.2,0.5-0.5v-0.2
		C55,49.6,54.8,49.8,54.5,49.8z"/>
	<path class="st9" d="M54.2,49.8h0.4c0.3,0,0.5-0.2,0.5-0.5v-0.6c-0.5-0.1-0.9-0.1-1.3-0.2v0.8C53.7,49.6,53.9,49.8,54.2,49.8z"/>
	<path class="st14" d="M57.6,50h-0.4c-0.3,0-0.5-0.2-0.5-0.5v0.2c0,0.3,0.2,0.5,0.5,0.5h0.4c0.3,0,0.5-0.2,0.5-0.5v-0.2
		C58.1,49.8,57.9,50,57.6,50z"/>
	<path class="st9" d="M57.3,50h0.4c0.3,0,0.5-0.2,0.5-0.5v-0.7c-0.5,0-0.9,0-1.3,0v0.7C56.8,49.8,57,50,57.3,50z"/>
	<path class="st14" d="M61,49.8h-0.4c-0.3,0-0.5-0.2-0.5-0.5v0.2c0,0.3,0.2,0.5,0.5,0.5H61c0.3,0,0.5-0.2,0.5-0.5v-0.2
		C61.5,49.6,61.3,49.8,61,49.8z"/>
	<path class="st9" d="M60.6,49.8H61c0.3,0,0.5-0.2,0.5-0.5v-0.8c-0.4,0.1-0.9,0.1-1.3,0.2v0.6C60.2,49.6,60.4,49.8,60.6,49.8z"/>
	<path class="st14" d="M63.1,49.2h-0.4c-0.3,0-0.5-0.2-0.5-0.5V49c0,0.3,0.2,0.5,0.5,0.5h0.4c0.3,0,0.5-0.2,0.5-0.5v-0.2
		C63.6,49,63.4,49.2,63.1,49.2z"/>
	<path class="st9" d="M62.8,49.2h0.4c0.3,0,0.5-0.2,0.5-0.5v-0.6c-0.4,0.1-0.9,0.2-1.3,0.3v0.3C62.3,49,62.5,49.2,62.8,49.2z"/>
	<path class="st13" d="M46.7,29h6.7c1.1,0,1.9,0.9,1.9,1.9l0,0c0,1.1-0.9,1.9-1.9,1.9h-6.7c-1.1,0-1.9-0.9-1.9-1.9l0,0
		C44.8,29.9,45.6,29,46.7,29z"/>
	<path class="st13" d="M61,25.6h6.7c1.1,0,1.9,0.9,1.9,1.9v0c0,1.1-0.9,1.9-1.9,1.9H61c-1.1,0-1.9-0.9-1.9-1.9v0
		C59.1,26.5,60,25.6,61,25.6z"/>
</g>
</svg>
