<?xml version="1.0" encoding="utf-8"?>
<!-- Generator: Adobe Illustrator 21.0.0, SVG Export Plug-In . SVG Version: 6.00 Build 0)  -->
<!DOCTYPE svg PUBLIC "-//W3C//DTD SVG 1.1//EN" "http://www.w3.org/Graphics/SVG/1.1/DTD/svg11.dtd">
<svg version="1.1" id="Layer_1" xmlns="http://www.w3.org/2000/svg" xmlns:xlink="http://www.w3.org/1999/xlink" x="0px" y="0px"
	 viewBox="0 0 425.4 152.2" style="enable-background:new 0 0 425.4 152.2;" xml:space="preserve">
<style type="text/css">
	.st0{fill:#FFFFFF;}
</style>
<title>Asset 37</title>
<g id="Layer_2">
	<g id="overzicht_1_2">
		<path class="st0" d="M294.4,46.8c-2.9,0-5.8,0.5-8.5,1.4c-7.1-8.6-19.8-9.9-28.5-2.8c-2.3,1.9-4.2,4.4-5.5,7.1
			c-1.1,0-2.1,0.1-3.1,0.2c-2.6-10.9-13.5-17.6-24.4-15c-6.1,1.5-11.1,5.6-13.7,11.3c-7.7-3.6-16.9-2-22.9,4
			c-4.4-8.5-14.9-11.9-23.4-7.5c-2.2,1.1-4.1,2.7-5.6,4.5c-9.7-13.5-28.6-16.6-42.1-6.8c-13.5,9.7-16.6,28.6-6.8,42.1
			c8.3,11.6,23.6,15.7,36.7,9.9c7.2,13.1,23.6,17.8,36.7,10.6c4-2.2,7.3-5.3,9.7-9.1c4.9,14.1,20.3,21.6,34.3,16.7
			c5.3-1.8,9.9-5.3,13.2-9.9c12.7,6.3,28.1,1.8,35.3-10.4c10.7,10.4,27.8,10.1,38.2-0.6c10.4-10.7,10.1-27.8-0.6-38.2
			C308.2,49.5,301.4,46.8,294.4,46.8z"/>
	</g>
</g>
<g id="Layer_2_1_">
	<g id="overzicht_1_2_1_">
		<path class="st0" d="M368.2,20.3c-5.5,0-11,0.9-16.2,2.7c-13.5-16.5-37.8-18.8-54.3-5.3c-4.5,3.7-8.1,8.3-10.5,13.6
			c-2,0-4,0.2-6,0.5c-5-20.7-25.8-33.5-46.5-28.5c-11.5,2.8-21.2,10.7-26.1,21.5c-14.7-6.9-32.1-3.8-43.6,7.6
			c-8.3-16.3-28.3-22.7-44.6-14.4c-4.1,2.1-7.7,5.1-10.7,8.7C91.3,0.8,55.4-5,29.6,13.6S-2,68.1,16.6,93.8
			c15.9,22,45,29.9,69.9,18.9c13.7,24.9,45,33.9,69.9,20.1c7.5-4.2,13.9-10.1,18.5-17.4c9.3,26.8,38.6,41.1,65.4,31.8
			c10.1-3.5,18.9-10.1,25.1-18.8c24.1,12,53.4,3.4,67.2-19.8c20.4,19.7,53,19.2,72.7-1.2c19.7-20.4,19.2-53-1.2-72.7
			C394.5,25.5,381.6,20.3,368.2,20.3z"/>
	</g>
</g>
</svg>
