<svg xmlns="http://www.w3.org/2000/svg" viewBox="0 0 251.52 164.86"><title>Asset 2</title><g id="Layer_2" data-name="Layer 2"><g id="Layer_1-2" data-name="Layer 1"><path d="M49.52,6.09A24.09,24.09,0,0,0,17.91,18.54L2,55.18A24.09,24.09,0,0,0,14.43,86.79l71.51,31.09L121,37.18Z" style="fill:#f2b406"/><path d="M207.22,74.66,121,37.18l-35.09,80.7,86.18,37.47a24.09,24.09,0,0,0,31.61-12.45l15.93-36.64A24.09,24.09,0,0,0,207.22,74.66Z" style="fill:#f2b406"/><path d="M56,2.35A28.52,28.52,0,0,0,18.55,17.09L6.14,45.63A28.52,28.52,0,0,0,20.87,83l67.46,29.33,35.09-80.7Z" style="fill:#6a9fc9"/><path d="M205.56,67.39,123.43,31.68l-35.09,80.7,82.13,35.71a28.52,28.52,0,0,0,37.42-14.74l12.41-28.54A28.52,28.52,0,0,0,205.56,67.39Z" style="fill:#dc7c7d"/><path d="M249.4,150.36c-10.44,7.76-11.35,13-11.35,13" style="fill:none;stroke:#dc7c7d;stroke-linecap:round;stroke-linejoin:round;stroke-width:3px"/><path d="M241.4,119.36c-10.44,7.76-11.35,13-11.35,13" style="fill:none;stroke:#dc7c7d;stroke-linecap:round;stroke-linejoin:round;stroke-width:5px"/><path d="M235.52,139.25c-7-2.12-9.63-.78-9.63-.78" style="fill:none;stroke:#dc7c7d;stroke-linecap:round;stroke-linejoin:round;stroke-width:3px"/><path d="M250.52,134.25c-7-2.12-9.63-.78-9.63-.78" style="fill:none;stroke:#dc7c7d;stroke-linecap:round;stroke-linejoin:round;stroke-width:2px"/><path d="M223,152c-.57,7.43,3.43,9.72,3.43,9.72" style="fill:none;stroke:#dc7c7d;stroke-linecap:round;stroke-linejoin:round;stroke-width:3px"/><path d="M234,146c-.57,7.43,3.43,9.72,3.43,9.72" style="fill:none;stroke:#dc7c7d;stroke-linecap:round;stroke-linejoin:round;stroke-width:4px"/></g></g></svg>