<svg xmlns="http://www.w3.org/2000/svg" viewBox="0 0 185 130"><title>Asset 3</title><g id="Layer_2" data-name="Layer 2"><g id="Layer_1-2" data-name="Layer 1"><path d="M73.4,81h0A22.81,22.81,0,0,1,70,69h0A23.07,23.07,0,0,1,93,46h92V30.62A23.62,23.62,0,0,0,161.38,7H150.86a23.61,23.61,0,0,0-14.92,5.47A59.71,59.71,0,0,1,98,26,59.71,59.71,0,0,1,60.06,12.47,23.61,23.61,0,0,0,45.14,7H29.62A23.62,23.62,0,0,0,6,30.62v75.76A23.62,23.62,0,0,0,29.62,130h9.76A23.77,23.77,0,0,0,56,123.15a60,60,0,0,1,84,0A23.77,23.77,0,0,0,156.62,130h4.76A23.62,23.62,0,0,0,185,106.38V92H93A23,23,0,0,1,73.4,81Z" style="fill:#f2b406"/><path d="M70,69h0a22.81,22.81,0,0,0,3.4,12H185V46H93A23.07,23.07,0,0,0,70,69Z" style="fill:#f2b406"/><path d="M73.4,81A23,23,0,0,0,93,92h92V81Z" style="fill:#f2b406"/><path d="M67.4,74h0A22.81,22.81,0,0,1,64,62h0A23.07,23.07,0,0,1,87,39h92V23.62A23.62,23.62,0,0,0,155.38,0H144.86a23.61,23.61,0,0,0-14.92,5.47A59.71,59.71,0,0,1,92,19,59.71,59.71,0,0,1,54.06,5.47,23.61,23.61,0,0,0,39.14,0H23.62A23.62,23.62,0,0,0,0,23.62V99.38A23.62,23.62,0,0,0,23.62,123h9.76A23.77,23.77,0,0,0,50,116.15a60,60,0,0,1,84,0A23.77,23.77,0,0,0,150.62,123h4.76A23.62,23.62,0,0,0,179,99.38V85H87A23,23,0,0,1,67.4,74Z" style="fill:#8b25ff"/><path d="M64,62h0a22.81,22.81,0,0,0,3.4,12H179V39H87A23.07,23.07,0,0,0,64,62Z" style="fill:#c4c4c4"/><path d="M67.4,74A23,23,0,0,0,87,85h92V74Z" style="fill:#999"/><circle cx="122" cy="59" r="5" style="fill:#999"/><line x1="118.92" y1="55.06" x2="125.27" y2="62.77" style="fill:none;stroke:#7f7f7f;stroke-miterlimit:10"/></g></g></svg>