<?xml version="1.0" encoding="utf-8"?>
<!-- Generator: Adobe Illustrator 21.0.0, SVG Export Plug-In . SVG Version: 6.00 Build 0)  -->
<!DOCTYPE svg PUBLIC "-//W3C//DTD SVG 1.1//EN" "http://www.w3.org/Graphics/SVG/1.1/DTD/svg11.dtd">
<svg version="1.1" id="Layer_1" xmlns="http://www.w3.org/2000/svg" xmlns:xlink="http://www.w3.org/1999/xlink" x="0px" y="0px"
	 viewBox="0 0 974.8 305.9" style="enable-background:new 0 0 974.8 305.9;" xml:space="preserve">
<style type="text/css">
	.st0{fill:none;stroke:#F2B406;stroke-width:2;stroke-linecap:round;stroke-linejoin:round;}
	.st1{fill:#F2B406;}
	.st2{fill:#DD9F07;}
	.st3{opacity:0.4;fill:#F2B406;enable-background:new    ;}
	.st4{fill:none;stroke:#F2B406;stroke-linecap:round;stroke-linejoin:round;stroke-dasharray:12;}
	.st5{fill:#282828;}
	.st6{fill:#BAAA83;}
	.st7{fill:#E02D36;}
	.st8{fill:#F53B3F;}
	.st9{fill:#836342;}
	.st10{fill:#107980;}
	.st11{fill:#DC24B2;}
	.st12{fill:#FFFFFF;}
	.st13{fill:#796BFA;}
	.st14{fill:#755639;}
	.st15{fill:#CE2838;}
</style>
<title>Asset 4</title>
<g id="color_intro">
	<line class="st0" x1="404.1" y1="225" x2="570.7" y2="225"/>
	<path class="st1" d="M572,162.5c0-46.7-37.9-84.6-84.6-84.6s-84.6,37.9-84.6,84.6c0,23.8,10,46.4,27.5,62.4h114.1
		C562,209,572,186.3,572,162.5z"/>
	<path class="st2" d="M709.8,97c-0.3,0-0.5,0.1-0.5,0.4c0,0.1,0,0.2,0.1,0.3l1.7,3.1l0.4-3.6L709.8,97z"/>
	<polygon class="st1" points="718.6,98 711.5,97.2 711,100.8 713.6,105.5 	"/>
	<path class="st2" d="M748.3,117.5l-2.5-1.7l-4.9,7.5l2.5,1.7c2.1,1.3,4.9,0.7,6.2-1.4C750.8,121.5,750.2,118.9,748.3,117.5z"/>
	
		<rect x="723.8" y="95.2" transform="matrix(0.5489 -0.8359 0.8359 0.5489 236.7789 658.3485)" class="st2" width="9" height="29.1"/>
	<rect x="737.4" y="117" transform="matrix(0.5489 -0.8359 0.8359 0.5489 235.455 673.7222)" class="st1" width="9" height="3.4"/>
	<path class="st2" d="M917.1,183.4c0.2,0.1,0.4-0.1,0.4-0.3c0-0.1,0-0.1,0-0.2l-1-2.6l-0.8,2.7L917.1,183.4z"/>
	<polygon class="st1" points="910.5,181.6 915.8,183.1 916.6,180.4 915.2,176.4 	"/>
	<path class="st2" d="M890.1,163.2l1.7,1.6l4.7-5.2l-1.7-1.6c-1.4-1.3-3.6-1.2-4.9,0.3C888.5,159.8,888.6,162,890.1,163.2z"/>
	
		<rect x="901" y="160.3" transform="matrix(0.6684 -0.7438 0.7438 0.6684 172.3627 729.6927)" class="st2" width="7" height="22.5"/>
	
		<rect x="891.6" y="161.8" transform="matrix(0.6684 -0.7438 0.7438 0.6684 175.5113 719.9445)" class="st1" width="7" height="2.6"/>
	<path class="st2" d="M942.9,111.1c0,0.3,0.1,0.5,0.4,0.5c0.1,0,0.2,0,0.3-0.1l3.2-1.7l-3.6-0.4L942.9,111.1z"/>
	<polygon class="st1" points="943.9,102.3 943.1,109.4 946.7,109.9 951.4,107.3 	"/>
	<path class="st2" d="M963.4,72.7l-1.7,2.5l7.5,4.9l1.7-2.5c1.4-2,0.9-4.8-1.1-6.3c-2-1.4-4.8-0.9-6.3,1.1
		C963.5,72.5,963.4,72.6,963.4,72.7z"/>
	
		<rect x="941.2" y="88.2" transform="matrix(0.5489 -0.8359 0.8359 0.5489 353.6877 840.7002)" class="st2" width="29.1" height="9"/>
	<rect x="964.4" y="70.7" transform="matrix(0.5478 -0.8366 0.8366 0.5478 373.9376 842.236)" class="st1" width="3.4" height="9"/>
	<path class="st2" d="M652.8,178.2c0-0.1-0.1-0.3-0.2-0.3c-0.1,0-0.1,0-0.2,0l-1.7,1l2,0.2L652.8,178.2z"/>
	<polygon class="st1" points="652.4,183 652.7,179.1 650.7,179 648.2,180.5 	"/>
	<path class="st2" d="M642.4,199.4l0.8-1.4l-4.2-2.5l-0.8,1.4c-0.7,1.1-0.3,2.6,0.8,3.3C640.2,200.9,641.7,200.6,642.4,199.4z"/>
	
		<rect x="638.3" y="186" transform="matrix(0.5185 -0.8551 0.8551 0.5185 150.0069 643.3338)" class="st2" width="15.8" height="4.9"/>
	
		<rect x="640.7" y="193.5" transform="matrix(0.5185 -0.8551 0.8551 0.5185 141.3906 643.0502)" class="st1" width="1.8" height="4.9"/>
	<path class="st2" d="M303.8,97c0.3,0,0.5,0.1,0.5,0.4c0,0.1,0,0.2-0.1,0.3l-1.7,3.2l-0.4-3.6L303.8,97z"/>
	<polygon class="st1" points="295,98 302.1,97.2 302.5,100.8 299.9,105.5 	"/>
	<path class="st2" d="M265.3,117.5l2.5-1.7l4.9,7.5l-2.5,1.6c-2.1,1.3-4.9,0.7-6.2-1.4C262.8,121.5,263.3,118.8,265.3,117.5
		L265.3,117.5z"/>
	
		<rect x="272" y="105.3" transform="matrix(0.8366 -0.5478 0.5478 0.8366 -13.3619 174.9323)" class="st2" width="29.2" height="9"/>
	<rect x="270" y="114.2" transform="matrix(0.8359 -0.5489 0.5489 0.8359 -20.5438 168.6037)" class="st1" width="3.4" height="9"/>
	<path class="st2" d="M96.5,183.4c-0.2,0.1-0.4,0-0.5-0.2c0-0.1,0-0.2,0-0.2l1-2.6l0.8,2.7L96.5,183.4z"/>
	<polygon class="st1" points="103.1,181.6 97.7,183.1 97,180.4 98.4,176.4 	"/>
	<path class="st2" d="M123.5,163.2l-1.7,1.6l-4.7-5.2l1.7-1.6c1.4-1.3,3.6-1.2,4.9,0.3C125.1,159.8,124.9,162,123.5,163.2z"/>
	<rect x="97.9" y="168" transform="matrix(0.7438 -0.6684 0.6684 0.7438 -86.6509 116.8624)" class="st2" width="22.5" height="7"/>
	
		<rect x="117.2" y="159.6" transform="matrix(0.7438 -0.6684 0.6684 0.7438 -78.6343 120.9629)" class="st1" width="2.6" height="7"/>
	<path class="st2" d="M70.7,111.1c0,0.3-0.1,0.5-0.4,0.5c-0.1,0-0.2,0-0.3-0.1l-3.2-1.7l3.6-0.4L70.7,111.1z"/>
	<polygon class="st1" points="69.7,102.3 70.5,109.4 66.9,109.9 62.1,107.3 	"/>
	<path class="st2" d="M50.2,72.7l1.7,2.5l-7.5,4.9l-1.7-2.5c-1.4-2-0.9-4.8,1.1-6.3c2-1.4,4.8-0.9,6.3,1.1
		C50.1,72.5,50.1,72.6,50.2,72.7L50.2,72.7z"/>
	<rect x="53.4" y="78" transform="matrix(0.8359 -0.5489 0.5489 0.8359 -41.3257 46.9841)" class="st2" width="9" height="29.1"/>
	<rect x="44.5" y="77.3" transform="matrix(0.8359 -0.5489 0.5489 0.8359 -35.3363 39.8582)" class="st1" width="9" height="3.4"/>
	<path class="st2" d="M360.8,178.2c0-0.1,0.1-0.3,0.2-0.3c0.1,0,0.1,0,0.2,0l1.7,1l-2,0.2L360.8,178.2z"/>
	<polygon class="st1" points="361.2,183 360.9,179.1 362.9,179 365.4,180.5 	"/>
	<path class="st2" d="M371.1,199.4l-0.9-1.4l4.2-2.5l0.8,1.4c0.7,1.1,0.3,2.6-0.8,3.3C373.3,200.9,371.8,200.5,371.1,199.4
		L371.1,199.4z"/>
	
		<rect x="364.9" y="180.6" transform="matrix(0.8551 -0.5185 0.5185 0.8551 -44.4898 217.7749)" class="st2" width="4.9" height="15.8"/>
	
		<rect x="369.5" y="195.1" transform="matrix(0.8551 -0.5185 0.5185 0.8551 -47.7192 221.2266)" class="st1" width="4.9" height="1.8"/>
	
		<ellipse transform="matrix(0.8816 -0.4719 0.4719 0.8816 -82.5281 130.2732)" class="st3" cx="218.4" cy="229.7" rx="12.4" ry="12.4"/>
	
		<ellipse transform="matrix(0.8816 -0.4719 0.4719 0.8816 -81.4603 90.8721)" class="st3" cx="140.4" cy="207.8" rx="8.4" ry="8.4"/>
	
		<ellipse transform="matrix(0.8816 -0.4719 0.4719 0.8816 -102.2243 103.9453)" class="st3" cx="156.1" cy="255.8" rx="17.2" ry="17.2"/>
	
		<ellipse transform="matrix(0.9284 -0.3717 0.3717 0.9284 -34.5886 120.9517)" class="st3" cx="296.5" cy="150.2" rx="12.4" ry="12.4"/>
	
		<ellipse transform="matrix(0.9284 -0.3717 0.3717 0.9284 -64.6799 115.0646)" class="st3" cx="266.1" cy="225.3" rx="8.4" ry="8.4"/>
	
		<ellipse transform="matrix(0.9284 -0.3717 0.3717 0.9284 -57.3208 132.6776)" class="st3" cx="315.5" cy="215" rx="17.2" ry="17.2"/>
	
		<ellipse transform="matrix(0.3198 -0.9475 0.9475 0.3198 -36.0249 215.0385)" class="st3" cx="131.8" cy="132.6" rx="12.4" ry="12.4"/>
	<ellipse transform="matrix(0.3198 -0.9475 0.9475 0.3198 48.3218 257.6118)" class="st3" cx="203.6" cy="95.2" rx="8.4" ry="8.4"/>
	
		<ellipse transform="matrix(0.3192 -0.9477 0.9477 0.3192 41.7793 199.2301)" class="st3" cx="159.6" cy="70.5" rx="17.3" ry="17.3"/>
	
		<ellipse transform="matrix(0.4719 -0.8816 0.8816 0.4719 225.0514 835.1801)" class="st3" cx="809.7" cy="229.7" rx="12.4" ry="12.4"/>
	
		<ellipse transform="matrix(0.4719 -0.8816 0.8816 0.4719 285.5038 892.4224)" class="st3" cx="887.7" cy="207.9" rx="8.4" ry="8.4"/>
	
		<ellipse transform="matrix(0.4719 -0.8816 0.8816 0.4719 234.9552 903.928)" class="st3" cx="872.1" cy="255.8" rx="17.2" ry="17.2"/>
	
		<ellipse transform="matrix(0.3717 -0.9284 0.9284 0.3717 320.2894 773.5123)" class="st3" cx="731.6" cy="150.1" rx="12.4" ry="12.4"/>
	
		<ellipse transform="matrix(0.3717 -0.9284 0.9284 0.3717 269.6043 848.8486)" class="st3" cx="761.9" cy="225.2" rx="8.4" ry="8.4"/>
	
		<ellipse transform="matrix(0.3717 -0.9284 0.9284 0.3717 248.1216 796.5433)" class="st3" cx="712.5" cy="215" rx="17.2" ry="17.2"/>
	
		<ellipse transform="matrix(0.9477 -0.3192 0.3192 0.9477 4.6121 293.8068)" class="st3" cx="898.6" cy="132.8" rx="12.4" ry="12.4"/>
	<ellipse transform="matrix(0.9475 -0.3198 0.3198 0.9475 12.8441 268.6723)" class="st3" cx="824.5" cy="95.2" rx="8.4" ry="8.4"/>
	<ellipse transform="matrix(0.9475 -0.3198 0.3198 0.9475 22.9124 281.5443)" class="st3" cx="868.8" cy="71" rx="17.2" ry="17.2"/>
	<path class="st4" d="M0.5,123.4c0,0,58.5-28.9,99.5,2.1s-48,26-2,58s219,125,204-86c7-51,58.6,10.4,58.8,80.7s153-122.8,291.6-0.2
		S669,119.5,711,97.5s143,145,205,86s80-70,27-74s-87-63-59-109"/>
</g>
<g>
	<path class="st5" d="M451.1,124.4c-0.1,0-0.3,0-0.3,0.2c0,0,0,0.1,0,0.2l0.5,1.9l0.7-1.9L451.1,124.4z"/>
	<polygon class="st6" points="455.7,126.1 452,124.7 451.3,126.6 452,129.5 	"/>
	<path class="st2" d="M469,140.4l-1.1-1.2l-3.6,3.4l1.1,1.2c0.9,1,2.5,1.1,3.5,0.1C469.9,143,469.9,141.4,469,140.4z"/>
	<rect x="456.9" y="125.7" transform="matrix(0.7323 -0.681 0.681 0.7323 31.9268 348.6012)" class="st2" width="5" height="16.1"/>
	<rect x="463" y="139.3" transform="matrix(0.7323 -0.681 0.681 0.7323 29.0811 354.5166)" class="st1" width="5" height="1.9"/>
	<path class="st7" d="M506.2,127.3c0,0,23.4,7.5,23.9,13.4s-8.6,13-8.6,13L506.2,127.3z"/>
	<path class="st8" d="M474.3,232.1L474.3,232.1c3.3,0,6,2.7,6,6v55.4c0,3.3-2.7,6-6,6l0,0c-3.3,0-6-2.7-6-6v-55.4
		C468.3,234.8,471,232.1,474.3,232.1z"/>
	<path class="st8" d="M500.2,232.1L500.2,232.1c3.3,0,6,2.7,6,6v55.4c0,3.3-2.7,6-6,6l0,0c-3.3,0-6-2.7-6-6v-55.4
		C494.2,234.8,496.9,232.1,500.2,232.1z"/>
	<path class="st9" d="M473.8,293.8c-6.7,0-12.1,5.4-12.1,12.1h24.3C485.9,299.2,480.5,293.8,473.8,293.8z"/>
	<path class="st9" d="M500.5,293.8c-6.7,0-12.1,5.4-12.1,12.1h24.3C512.6,299.2,507.2,293.8,500.5,293.8z"/>
	<path class="st9" d="M552.1,228.6l-2-2c2.2-0.9,3.2-3.4,2.3-5.6c-0.9-2.2-3.4-3.2-5.6-2.3c-1.1,0.4-1.9,1.3-2.3,2.3l-31.7-31.6
		c-2.3-2.3-6.1-2.3-8.5,0l0,0c-2.3,2.3-2.3,6.1,0,8.5l39.2,39.2c2.3,2.3,6.1,2.3,8.5,0l0,0C554.4,234.8,554.4,231,552.1,228.6z"/>
	<polygon class="st8" points="508.9,182.6 537.6,211.3 527.4,222.4 498.7,193.7 	"/>
	<path class="st9" d="M422.6,228.6l2-2c-2.2-0.9-3.2-3.4-2.3-5.6s3.4-3.2,5.6-2.3c1.1,0.4,1.9,1.3,2.3,2.3l31.6-31.6
		c2.3-2.3,6.1-2.3,8.5,0l0,0c2.3,2.3,2.3,6.1,0,8.5l-39.2,39.2c-2.3,2.3-6.1,2.3-8.5,0l0,0C420.3,234.8,420.3,231,422.6,228.6z"/>
	<polygon class="st8" points="476.9,193.3 448.3,221.9 437.2,211.8 465.8,183.1 	"/>
	<path class="st10" d="M515.6,208.4c0-16.2-13.1-29.3-29.4-29.4l0,0c-16.2,0-29.3,13.2-29.4,29.4v9.1c0,8.7,4.2,24.4,10.5,37
		c7.3,2,23,5.1,38.4,1.3c6.1-12.9,9.8-29.3,9.8-38.3L515.6,208.4z"/>
	<path class="st11" d="M467.4,254.5c5.5,10.9,12.5,19.5,20,19.5l0,0c7.2,0,13.5-8,18.4-18.2C490.4,259.6,474.7,256.5,467.4,254.5z"
		/>
	<path class="st9" d="M480,115.1h11.2c2.5,0,4.9,1,6.7,2.8l28,29.3c3,3.1,3.4,7.9,1.1,11.5l-17.7,27.1c-1.7,2.6-4.6,4.2-7.8,4.2
		l-9,6.9c-2.2,1.7-5.3,1.8-7.6,0.1l-10-7.1c-2.9,0-5.7-1.4-7.5-3.8l-20.2-27.6c-2.6-3.5-2.4-8.4,0.5-11.6l25.4-28.7
		C474.8,116.2,477.4,115.1,480,115.1z"/>
	<path class="st10" d="M499.4,145.5c0.6-0.5,1.2-1,1.7-1.4c0.9-0.5,1.6-1.3,2.2-2.2l0,0l0,0c1.8-3.1,0.8-7.1-2.3-8.9
		c-3.1-1.8-7.1-0.8-8.9,2.3l0,0c-5.4,3.2-10.8,0-10.8,0l0,0c-1.8-3.1-5.8-4.1-8.9-2.3c-2.8,1.7-4,5.2-2.7,8.2l0,0
		c0.6,1.3,1.5,2.3,2.7,3c0.5,0.5,1,0.9,1.4,1.3c-2.8,0.5-4.7,3.1-4.2,5.9c0.4,2.5,2.5,4.3,5,4.3h24c2.8,0,5.1-2.3,5.1-5.1
		C503.8,148,501.9,145.8,499.4,145.5L499.4,145.5z"/>
	<circle class="st12" cx="495.7" cy="140.5" r="4.9"/>
	<ellipse class="st13" cx="486.7" cy="156.7" rx="9.6" ry="13.2"/>
	<circle class="st10" cx="495.5" cy="140.7" r="1.2"/>
	<circle class="st12" cx="478.8" cy="140.5" r="4.9"/>
	<circle class="st10" cx="479" cy="140.7" r="1.2"/>
	<path class="st13" d="M496.6,178.5c0.6-1.8,0.9-3.6,0.9-5.5c0-7.4-4.6-13.4-10.2-13.4s-10.2,6-10.2,13.4c0,2.2,0.4,4.3,1.2,6.3
		C481.5,181.2,488.5,183.9,496.6,178.5z"/>
	<path class="st13" d="M478.2,180.9c1.7,4.2,5.1,7.1,9,7.1c4.2,0,7.8-3.3,9.3-7.9C488.5,185.4,481.5,182.8,478.2,180.9z"/>
	<path class="st11" d="M485.3,139.1l-2.4,27.6c0,0-7.5-9.1-10.6-3.1s14.6,15.8,14.6,15.8s24.8-12.2,9.1-15.3c0,0-2.8,0-5.1,3.9
		l-2-28.8L485.3,139.1z"/>
	<path class="st5" d="M480.4,167.7c0.2,1.7,2.6,5.3,1.3,5.4s-5.9-3.2-6-5s0.8-3.2,2-3.4S480.3,166,480.4,167.7z"/>
	<path class="st5" d="M492.9,168.9c-0.7,1.6-4.1,4.2-2.9,4.7s6.6-1.2,7.3-2.8s0.3-3.3-0.9-3.8S493.6,167.3,492.9,168.9z"/>
	<path class="st14" d="M496.3,104.9H475c-5.5,0-9.9,4.5-9.9,9.9v12.5c0,0.4,0.3,0.7,0.7,0.7l0,0h39.7c0.4,0,0.7-0.3,0.7-0.7v-12.5
		C506.2,109.3,501.8,104.9,496.3,104.9z M491.3,124.2H480l0,0c-0.1-3.1,2.3-5.8,5.4-5.9s5.8,2.3,5.9,5.4
		C491.4,123.8,491.4,124,491.3,124.2L491.3,124.2z"/>
	<path class="st8" d="M496.3,104.2H475c-5.5,0-9.9,4.5-9.9,9.9v12.5c0,0.4,0.3,0.7,0.7,0.7l0,0h39.7c0.4,0,0.7-0.3,0.7-0.7v-12.5
		C506.2,108.6,501.8,104.2,496.3,104.2z M491.3,123.4H480l0,0c-0.1-3.1,2.3-5.8,5.4-5.9s5.8,2.3,5.9,5.4
		C491.4,123.1,491.4,123.3,491.3,123.4L491.3,123.4z"/>
	<path class="st7" d="M471.6,127.3h-0.5v-14.9c0-2.5,1-4.8,2.8-6.5c0.8-0.8,1.8-1.4,2.8-1.9l0.2,0.4c-1,0.5-1.9,1.1-2.7,1.8
		c-1.7,1.6-2.7,3.9-2.6,6.2L471.6,127.3z"/>
	<path class="st7" d="M499.9,127.3h-0.4v-14.9c0-2.3-0.9-4.6-2.7-6.2c-0.8-0.8-1.7-1.4-2.7-1.8l0.2-0.4c1,0.5,2,1.1,2.8,1.9
		c1.8,1.7,2.8,4.1,2.8,6.5L499.9,127.3z"/>
	<polygon class="st15" points="507.8,128.3 509.8,129.6 526.6,146.7 526.8,148.4 	"/>
</g>
</svg>
