<?xml version="1.0" encoding="utf-8"?>
<!-- Generator: Adobe Illustrator 21.0.0, SVG Export Plug-In . SVG Version: 6.00 Build 0)  -->
<!DOCTYPE svg PUBLIC "-//W3C//DTD SVG 1.1//EN" "http://www.w3.org/Graphics/SVG/1.1/DTD/svg11.dtd">
<svg version="1.1" id="Layer_1" xmlns="http://www.w3.org/2000/svg" xmlns:xlink="http://www.w3.org/1999/xlink" x="0px" y="0px"
	 viewBox="0 0 50 50" style="enable-background:new 0 0 50 50;" xml:space="preserve">
<style type="text/css">
	.st0{fill:#551CC4;}
	.st1{display:none;fill:none;stroke:#57DB37;stroke-width:5;stroke-linecap:round;stroke-miterlimit:10;}
	.st2{fill:#FB7936;}
	.st3{fill:#00FF1E;}
	.st4{fill:#FF3E3E;}
	.st5{fill:#FFF200;}
	.st6{fill:#00EDFF;}
	.st7{fill:none;stroke:#E55E23;stroke-width:0.2485;stroke-linecap:round;stroke-linejoin:round;}
	.st8{fill:#E55E23;}
	.st9{fill:#FFEC00;}
	.st10{fill:#F4A04D;}
	.st11{fill:#FFFFFF;}
	.st12{fill:#262626;}
	.st13{fill:#282828;}
	.st14{fill:#FF6C6C;}
	.st15{fill:#58071E;}
</style>
<circle class="st0" cx="25" cy="25" r="25"/>
<path class="st1" d="M18,24.7l4.7,4.6l0.2,0.2l9.1-9.1"/>
<title>Asset 2</title>
<g>
	<path class="st2" d="M22.5,28.2L22.5,28.2c0.7,0,1.2,0.6,1.2,1.3v12.1c0,0.7-0.5,1.3-1.2,1.3l0,0c-0.7,0-1.2-0.6-1.2-1.3V29.5
		C21.2,28.8,21.8,28.2,22.5,28.2z"/>
	<path class="st3" d="M12,30.9L12,30.9c0.5,0.5,1.3,0.5,1.7,0l8.1-8.1c0.5-0.5,0.5-1.3,0-1.7l0,0c-0.5-0.5-1.3-0.5-1.7,0l-6.5,6.5
		c-0.1-0.2-0.2-0.4-0.5-0.5c-0.4-0.2-0.9,0-1.1,0.5c-0.2,0.4,0,0.9,0.5,1.1L12,29.2C11.5,29.7,11.5,30.5,12,30.9z"/>
	<path class="st2" d="M27.8,28.2L27.8,28.2c0.7,0,1.2,0.6,1.2,1.3v12.2c0,0.7-0.5,1.3-1.2,1.3l0,0c-0.7,0-1.2-0.6-1.2-1.3V29.5
		C26.6,28.8,27.1,28.2,27.8,28.2z"/>
	<path class="st2" d="M20,43.3c0.1-1.3,1.2-2.3,2.5-2.2c1.2,0.1,2.2,1,2.2,2.2H20z"/>
	<path class="st2" d="M25.5,43.3C25.5,42,26.7,41,28,41c1.2,0.1,2.2,1,2.2,2.2H25.5z"/>
	<circle class="st4" cx="25.1" cy="24.6" r="4.4"/>
	<circle class="st5" cx="25.1" cy="31" r="5.6"/>
	<path class="st6" d="M38,29.2l-0.4-0.4c0.4-0.2,0.6-0.7,0.5-1.1c-0.2-0.4-0.7-0.6-1.1-0.5c-0.2,0.1-0.4,0.2-0.5,0.5l-6.5-6.5
		c-0.5-0.5-1.3-0.5-1.7,0l0,0c-0.5,0.5-0.5,1.3,0,1.7l8.1,8.1c0.5,0.5,1.3,0.5,1.7,0l0,0C38.5,30.5,38.5,29.7,38,29.2z"/>
	<path class="st7" d="M25.1,30.7c0,0-0.4,0.7,0,0.6s0.2-0.3,0.2-0.3"/>
	<ellipse class="st8" cx="28.5" cy="25.4" rx="0.4" ry="0.2"/>
	<ellipse class="st8" cx="22.1" cy="25.4" rx="0.4" ry="0.2"/>
	<path class="st9" d="M32.2,13.4l1.2-1.1c-1.9-4.6-7.1-6.8-11.7-4.9c-3.4,1.4-5.6,4.6-5.6,8.3c0,0.3,1.1,0.7,1.1,1
		c0,0.3-1,0.5-0.9,0.8c0.8,4.8,5.5,8.1,10.4,7.2s8.1-5.5,7.2-10.4c0-0.3-0.1-0.6-0.2-0.9L32.2,13.4L32.2,13.4z"/>
	<circle class="st2" cx="20.1" cy="12.5" r="1.1"/>
	<circle class="st2" cx="30.3" cy="12.5" r="1.1"/>
	<circle class="st8" cx="30.2" cy="12.6" r="0.6"/>
	<circle class="st8" cx="20.1" cy="12.6" r="0.6"/>
	<path class="st2" d="M19.7,15.7c0-3,2.4-5.4,5.4-5.4s5.4,2.4,5.4,5.4s-2.4,5.4-5.4,5.4l0,0C22.2,21.1,19.7,18.7,19.7,15.7z"/>
	<path class="st10" d="M24.3,16.5h1.6c0.9,0,1.6,0.7,1.6,1.6l0,0c0,0.9-0.7,1.6-1.6,1.6h-1.6c-0.9,0-1.6-0.7-1.6-1.6l0,0
		C22.7,17.2,23.4,16.5,24.3,16.5z"/>
	<path class="st3" d="M26.2,16.3c0,0.4-0.5,1-1.1,1c-0.6,0-1.1-0.6-1.1-1c0-0.4,0.5-0.7,1.1-0.7C25.7,15.6,26.2,16,26.2,16.3z"/>
	<circle class="st8" cx="22.3" cy="16.6" r="0.7"/>
	<circle class="st8" cx="28.1" cy="16.7" r="0.7"/>
	<circle class="st8" cx="23.6" cy="14.7" r="1.2"/>
	<circle class="st11" cx="23.6" cy="14.7" r="0.9"/>
	<circle class="st12" cx="23.6" cy="14.7" r="0.3"/>
	<circle class="st11" cx="23.8" cy="14.5" r="0.2"/>
	<circle class="st8" cx="26.4" cy="14.7" r="1.2"/>
	<circle class="st11" cx="26.4" cy="14.7" r="0.9"/>
	<circle class="st12" cx="26.4" cy="14.7" r="0.3"/>
	<circle class="st11" cx="26.6" cy="14.5" r="0.2"/>
	<path class="st13" d="M26.5,17.7v0.2c0,0,0,0.1-0.1,0.1l0,0h-0.1c0,0-0.1,0-0.1-0.1l0,0v-0.1l-0.2,0V18c0,0,0,0.1-0.1,0.1l0,0h-0.1
		c0,0-0.1,0-0.1-0.1l0,0v-0.2c-0.1,0-0.3,0-0.5,0v0.2c0,0,0,0.1-0.1,0.1l0,0h-0.1c0,0-0.1,0-0.1-0.1l0,0v-0.2c-0.1,0-0.3,0-0.4,0V18
		c0,0,0,0.1-0.1,0.1l0,0h-0.1c0,0-0.1,0-0.1-0.1l0,0v-0.2l-0.2,0v0.1c0,0,0,0.1-0.1,0.1l0,0H24c0,0-0.1,0-0.1-0.1l0,0v-0.2
		c-0.1,0-0.2,0-0.3-0.1s-0.2,0-0.2,0.1c0,0,0,0.1,0,0.1c0.1,0.4,0.4,0.7,0.8,0.9c0.3-0.2,0.7-0.3,1.1-0.3c0.4,0,0.8,0.1,1.1,0.3
		c0.4-0.2,0.7-0.6,0.8-1.1c0,0,0-0.1-0.1-0.1c0,0,0,0-0.1,0C26.8,17.6,26.6,17.6,26.5,17.7z"/>
	<path class="st14" d="M24,18.7c0.3,0.2,0.7,0.3,1,0.3c0.4,0,0.8,0,1.1-0.2c-0.3-0.2-0.7-0.3-1.1-0.3C24.7,18.4,24.4,18.5,24,18.7z"
		/>
	<path class="st11" d="M24,17.9L24,17.9c-0.1,0-0.2,0-0.2-0.1l0,0v0C23.8,17.9,23.8,17.9,24,17.9L24,17.9L24,17.9
		C24,17.9,24.1,17.9,24,17.9L24,17.9L24,17.9C24.1,17.8,24,17.9,24,17.9L24,17.9z"/>
	<path class="st12" d="M24.1,17.8C24.1,17.8,24,17.9,24.1,17.8L24.1,17.8l-0.2,0.1c0,0-0.1,0-0.1-0.1l0,0v0c0,0,0,0.1,0.1,0.1l0,0
		H24C24,17.9,24.1,17.9,24.1,17.8L24.1,17.8L24.1,17.8z"/>
	<path class="st11" d="M23.9,17.9L23.9,17.9c0.1,0,0.2,0,0.2-0.1l0,0v0c-0.1,0-0.2,0-0.3-0.1v0.1C23.8,17.8,23.8,17.9,23.9,17.9z"/>
	<path class="st11" d="M24.4,18.1L24.4,18.1c-0.1,0-0.2,0-0.2-0.1l0,0v0C24.3,18.1,24.3,18.1,24.4,18.1L24.4,18.1L24.4,18.1
		C24.5,18.1,24.5,18.1,24.4,18.1L24.4,18.1L24.4,18.1C24.5,18,24.5,18.1,24.4,18.1L24.4,18.1z"/>
	<path class="st12" d="M24.5,17.9C24.5,18,24.5,18,24.5,17.9L24.5,17.9L24.4,18c0,0-0.1,0-0.1-0.1l0,0V18c0,0,0,0.1,0.1,0.1l0,0h0.1
		C24.5,18.1,24.5,18.1,24.5,17.9L24.5,17.9L24.5,17.9z"/>
	<path class="st11" d="M24.3,18.1L24.3,18.1c0.1,0,0.2,0,0.2-0.1l0,0v-0.1c-0.1,0-0.2,0-0.3,0V18C24.2,18,24.3,18.1,24.3,18.1z"/>
	<path class="st11" d="M25.1,18.1L25.1,18.1c-0.1,0-0.2,0-0.2-0.1l0,0v0C25,18.1,25,18.2,25.1,18.1L25.1,18.1L25.1,18.1
		C25.2,18.2,25.2,18.1,25.1,18.1L25.1,18.1L25.1,18.1C25.3,18.1,25.2,18.1,25.1,18.1L25.1,18.1z"/>
	<path class="st12" d="M25.2,18C25.2,18.1,25.2,18.1,25.2,18L25.2,18l-0.2,0.1c0,0-0.1,0-0.1-0.1l0,0v0c0,0,0,0.1,0.1,0.1l0,0h0.1
		C25.2,18.2,25.2,18.1,25.2,18L25.2,18L25.2,18z"/>
	<path class="st11" d="M25.1,18.1L25.1,18.1c0.1,0,0.2,0,0.2-0.1l0,0v-0.1c-0.1,0-0.2,0-0.3,0V18C24.9,18.1,25,18.1,25.1,18.1z"/>
	<path class="st11" d="M25.9,18.1L25.9,18.1c-0.1,0-0.2,0-0.2-0.1l0,0v0C25.7,18.1,25.8,18.1,25.9,18.1L25.9,18.1L25.9,18.1
		C25.9,18.1,26,18.1,25.9,18.1L25.9,18.1L25.9,18.1C26,18,25.9,18.1,25.9,18.1L25.9,18.1z"/>
	<path class="st12" d="M26,17.9C26,18,25.9,18,26,17.9L26,17.9L25.8,18c0,0-0.1,0-0.1-0.1l0,0V18c0,0,0,0.1,0.1,0.1l0,0h0.1
		C25.9,18.1,26,18.1,26,17.9L26,17.9L26,17.9z"/>
	<path class="st11" d="M25.8,18.1L25.8,18.1c0.1,0,0.2,0,0.2-0.1l0,0v-0.2c-0.1,0-0.2,0-0.3,0v0.1C25.7,18,25.7,18.1,25.8,18.1
		L25.8,18.1z"/>
	<path class="st11" d="M26.4,17.9L26.4,17.9c-0.1,0-0.2,0-0.2-0.1l0,0v0C26.2,17.9,26.3,18,26.4,17.9L26.4,17.9L26.4,17.9
		C26.4,18,26.5,17.9,26.4,17.9L26.4,17.9L26.4,17.9C26.5,17.9,26.4,17.9,26.4,17.9L26.4,17.9z"/>
	<path class="st12" d="M26.5,17.8C26.5,17.9,26.4,17.9,26.5,17.8L26.5,17.8l-0.2,0.1c0,0-0.1,0-0.1-0.1l0,0v0c0,0,0,0.1,0.1,0.1l0,0
		h0.1C26.4,18,26.5,17.9,26.5,17.8L26.5,17.8L26.5,17.8z"/>
	<path class="st11" d="M26.3,17.9L26.3,17.9c0.1,0,0.2,0,0.2-0.1l0,0v-0.1c-0.1,0-0.2,0-0.3,0.1v0.1C26.2,17.9,26.2,17.9,26.3,17.9
		L26.3,17.9z"/>
	<path class="st15" d="M22.6,13.3h1.5c0.2,0,0.4,0.2,0.4,0.4l0,0c0,0.2-0.2,0.4-0.4,0.4h-1.5c-0.2,0-0.4-0.2-0.4-0.4l0,0
		C22.2,13.5,22.4,13.3,22.6,13.3z"/>
	<path class="st15" d="M25.9,12.5h1.5c0.2,0,0.4,0.2,0.4,0.4l0,0c0,0.2-0.2,0.4-0.4,0.4h-1.5c-0.2,0-0.4-0.2-0.4-0.4l0,0
		C25.5,12.7,25.7,12.5,25.9,12.5z"/>
</g>
</svg>
