<?xml version="1.0" encoding="utf-8"?>
<!-- Generator: Adobe Illustrator 21.0.0, SVG Export Plug-In . SVG Version: 6.00 Build 0)  -->
<!DOCTYPE svg PUBLIC "-//W3C//DTD SVG 1.1//EN" "http://www.w3.org/Graphics/SVG/1.1/DTD/svg11.dtd">
<svg version="1.1" id="Layer_1" xmlns="http://www.w3.org/2000/svg" xmlns:xlink="http://www.w3.org/1999/xlink" x="0px" y="0px"
	 viewBox="0 0 111.8 133.9" style="enable-background:new 0 0 111.8 133.9;" xml:space="preserve">
<style type="text/css">
	.st0{fill:#FFD2DB;}
	.st1{fill:#FFAEAE;}
	.st2{fill:#FFFFFF;}
	.st3{fill:#282828;}
	.st4{fill:#FF6C6C;}
	.st5{fill:#E2E2E2;}
	.st6{fill:#EA5959;}
	.st7{fill:none;stroke:#FFAEAE;stroke-width:4;stroke-linecap:round;stroke-linejoin:round;}
	.st8{fill:#BAB509;}
	.st9{fill:#F9F938;}
	.st10{clip-path:url(#SVGID_2_);}
	.st11{fill:none;stroke:#BAB509;stroke-width:2;stroke-linecap:round;stroke-miterlimit:10;}
	.st12{fill:#AD7759;}
	.st13{fill:#D6D6D6;}
	.st14{fill:#B2B2B2;}
</style>
<title>Asset 23</title>
<g>
	<g id="Layer_2">
		<g id="avatar_keuze">
			<circle class="st0" cx="55.9" cy="67.8" r="52"/>
			<circle class="st1" cx="46.4" cy="65.2" r="6.5"/>
			<circle class="st2" cx="46.4" cy="65.2" r="5.4"/>
			<circle class="st1" cx="66" cy="65.2" r="6.5"/>
			<circle class="st2" cx="66" cy="65.2" r="5.4"/>
			<circle class="st3" cx="46.3" cy="65.9" r="1.9"/>
			<circle class="st3" cx="66.1" cy="66.4" r="1.9"/>
			<path class="st3" d="M70.3,73.2v2c0,0.6-0.5,1.1-1.1,1.1h-0.8c-0.6,0-1.1-0.5-1.1-1.1v-1.3c-0.7,0.1-1.3,0.3-1.9,0.4v2.3
				c0,0.6-0.5,1.1-1.1,1.1h-0.8c-0.6,0-1.1-0.5-1.1-1.1v-1.9c-1.6,0.2-3.2,0.3-4.7,0.3v2.2c0,0.6-0.5,1.1-1.1,1.1h-0.8
				c-0.6,0-1.1-0.5-1.1-1.1V75c-1.4-0.1-2.8-0.2-4.1-0.3v2c0,0.6-0.5,1.1-1.1,1.1h-0.8c-0.6,0-1.1-0.5-1.1-1.1v-2.4L45.9,74v1.1
				c0,0.6-0.5,1.1-1.1,1.1H44c-0.6,0-1.1-0.5-1.1-1.1v-1.8c-1.1-0.3-2-0.6-2.8-0.9c-0.9-0.3-1.8,0.2-2.2,1c-0.1,0.4-0.1,0.8,0,1.1
				c1.3,4,4.1,7.4,7.7,9.5c2.2-1.8,6.2-2.9,10.9-2.9c4.9,0,9.1,1.3,11.2,3.2c3.9-2.5,6.9-6.4,8.2-10.9c0.2-0.6-0.1-1.2-0.7-1.4
				c-0.2-0.1-0.5-0.1-0.7,0C73,72.4,71.6,72.8,70.3,73.2z"/>
			<path class="st4" d="M45.5,83.9c3.2,1.8,6.8,2.8,10.4,2.8c4,0.3,8.1-0.6,11.6-2.6c-2.1-1.9-6.3-3.2-11.1-3.2
				C51.7,81,47.6,82.2,45.5,83.9z"/>
			<path class="st5" d="M44.7,75.5h-0.8c-0.6,0-1.1-0.5-1.1-1.1v0.5c0,0.6,0.5,1.1,1.1,1.1h0.8c0.6,0,1.1-0.5,1.1-1.1v-0.6
				C45.8,75,45.3,75.5,44.7,75.5L44.7,75.5z"/>
			<path class="st2" d="M43.8,75.5h0.8c0.6,0,1.1-0.5,1.1-1.1v-0.5c-1.1-0.2-2.1-0.5-3-0.7v1.3C42.8,75,43.2,75.5,43.8,75.5z"/>
			<path class="st5" d="M49.3,77.2h-0.8c-0.6,0-1.1-0.5-1.1-1.1v0.5c0,0.6,0.5,1.1,1.1,1.1h0.8c0.6,0,1.1-0.5,1.1-1.1v-0.5
				C50.4,76.7,50,77.2,49.3,77.2L49.3,77.2z"/>
			<path class="st2" d="M48.5,77.2h0.8c0.6,0,1.1-0.5,1.1-1.1v-1.5c-1.1-0.1-2.1-0.3-3-0.5V76C47.4,76.6,47.9,77.1,48.5,77.2
				L48.5,77.2z"/>
			<path class="st5" d="M56.5,77.7h-0.8c-0.6,0-1.1-0.5-1.1-1.1v0.5c0,0.6,0.5,1.1,1.1,1.1h0.8c0.6,0,1.1-0.5,1.1-1.1v-0.5
				C57.6,77.2,57.1,77.7,56.5,77.7L56.5,77.7z"/>
			<path class="st2" d="M55.7,77.7h0.8c0.6,0,1.1-0.5,1.1-1.1l0,0V75c-1,0-2,0-3,0v1.6C54.6,77.2,55.1,77.7,55.7,77.7z"/>
			<path class="st5" d="M64.2,77.2h-0.8c-0.6,0-1.1-0.5-1.1-1.1v0.5c0,0.6,0.5,1.1,1.1,1.1h0.8c0.6,0,1.1-0.5,1.1-1.1v-0.5
				C65.3,76.7,64.8,77.2,64.2,77.2L64.2,77.2z"/>
			<path class="st2" d="M63.4,77.2h0.8c0.6,0,1.1-0.5,1.1-1.1v-1.8c-1,0.2-2,0.3-3,0.4V76C62.3,76.6,62.8,77.1,63.4,77.2z"/>
			<path class="st5" d="M69.2,75.8h-0.8c-0.6,0-1.1-0.5-1.1-1.1v0.5c0,0.6,0.5,1.1,1.1,1.1h0.8c0.6,0,1.1-0.5,1.1-1.1v-0.5
				C70.3,75.3,69.8,75.8,69.2,75.8z"/>
			<path class="st2" d="M68.3,75.8h0.8c0.6,0,1.1-0.5,1.1-1.1v-1.5c-1,0.3-2,0.5-3,0.7v0.7C67.3,75.3,67.7,75.8,68.3,75.8z"/>
			<circle class="st2" cx="47.4" cy="64.8" r="1.1"/>
			<circle class="st2" cx="67.5" cy="65.3" r="1.1"/>
			<path class="st6" d="M52.4,66.4h8.3c2.9,0,5.2,2.3,5.2,5.2l0,0c0,2.9-2.3,5.2-5.2,5.2h-8.3c-2.9,0-5.2-2.3-5.2-5.2l0,0
				C47.1,68.8,49.5,66.4,52.4,66.4z"/>
			<path class="st4" d="M52.4,65.6h8.3c2.9,0,5.2,2.3,5.2,5.2l0,0c0,2.9-2.3,5.2-5.2,5.2h-8.3c-2.9,0-5.2-2.3-5.2-5.2l0,0
				C47.1,67.9,49.5,65.6,52.4,65.6z"/>
			<path class="st3" d="M61.2,68.6L61.2,68.6c1.2,0,2.2,1,2.2,2.2l0,0c0,1.2-1,2.2-2.2,2.2l0,0C60,73,59,72,59,70.8l0,0
				C59,69.6,60,68.6,61.2,68.6z"/>
			<path class="st3" d="M51.8,68.6L51.8,68.6c1.2,0,2.2,1,2.2,2.2l0,0c0,1.2-1,2.2-2.2,2.2l0,0c-1.2,0-2.2-1-2.2-2.2l0,0
				C49.6,69.6,50.6,68.6,51.8,68.6z"/>
			<path class="st7" d="M47.1,90.7c0,0,9.6,6.6,18.2,0"/>
		</g>
	</g>
</g>
<path class="st8" d="M95.7,53.7l-35.8,2.4c-2.7,0.2-5.4,0.2-8.1,0L16,53.7c-1.6,0-3-0.8-3.8-2.1l-1.8-3C9,46,11,42.9,14.3,42.9h83.2
	c3.2,0,5.3,3.1,3.8,5.7l-1.8,3C98.8,52.9,97.3,53.7,95.7,53.7z"/>
<path class="st9" d="M104.5,49.6c0-26.4-21.8-47.7-48.6-47.7S7.2,23.2,7.2,49.6H104.5z"/>
<g>
	<defs>
		<path id="SVGID_1_" d="M104.7,49.6c0-26.4-21.9-47.7-48.8-47.7S7,23.2,7,49.6H104.7z"/>
	</defs>
	<clipPath id="SVGID_2_">
		<use xlink:href="#SVGID_1_"  style="overflow:visible;"/>
	</clipPath>
	<g class="st10">
		<rect x="45.4" y="-0.1" class="st8" width="21" height="51.6"/>
		<line class="st11" x1="31.2" y1="3.7" x2="31.2" y2="33.1"/>
		<line class="st11" x1="18.4" y1="12.1" x2="18.4" y2="25.7"/>
		<line class="st11" x1="80.5" y1="3.7" x2="80.5" y2="33.1"/>
		<line class="st11" x1="93.2" y1="12.1" x2="93.2" y2="25.7"/>
	</g>
</g>
<g>
	
		<rect x="40.8" y="97.5" transform="matrix(0.7071 -0.7071 0.7071 0.7071 -68.7355 65.274)" class="st12" width="7.2" height="36.2"/>
	<path class="st13" d="M39.3,98l-12.5,12.5c-0.6,0.6-1.6,0.6-2.3,0l-5.4-5.4c-0.6-0.6-0.6-1.6,0-2.3l12.5-12.5
		c0.6-0.6,1.6-0.6,2.3,0l5.4,5.4C40,96.4,40,97.4,39.3,98z"/>
	
		<rect x="36.4" y="90.2" transform="matrix(0.7071 -0.7071 0.7071 0.7071 -54.501 53.4105)" class="st14" width="1.6" height="4.6"/>
	<path class="st13" d="M40.6,95l1.1-1.1c0.2-0.2,0.2-0.6,0-0.9l-5-5c-0.2-0.2-0.6-0.2-0.9,0l-1.1,1.1c-0.2,0.2-0.2,0.6,0,0.9l5,5
		C40,95.2,40.3,95.2,40.6,95z"/>
	<path class="st14" d="M23.5,109.5c0,0-4.8,2-7.1,7.1c-0.1,0.3-0.6,0.2-0.6-0.1c0.2-2.3,1.1-6.9,4.4-10.2L23.5,109.5z"/>
</g>
</svg>
