<?xml version="1.0" encoding="utf-8"?>
<!-- Generator: Adobe Illustrator 21.0.0, SVG Export Plug-In . SVG Version: 6.00 Build 0)  -->
<!DOCTYPE svg PUBLIC "-//W3C//DTD SVG 1.1//EN" "http://www.w3.org/Graphics/SVG/1.1/DTD/svg11.dtd">
<svg version="1.1" id="Layer_1" xmlns="http://www.w3.org/2000/svg" xmlns:xlink="http://www.w3.org/1999/xlink" x="0px" y="0px"
	 viewBox="0 0 133 133" style="enable-background:new 0 0 133 133;" xml:space="preserve">
<style type="text/css">
	.st0{fill:#551CC4;}
	.st1{fill:#FFFFFF;stroke:#FFFFFF;stroke-width:0.5544;stroke-miterlimit:10;}
	.st2{fill:#551CC4;stroke:#FFFFFF;stroke-width:0.5544;stroke-miterlimit:10;}
	.st3{fill:#FFFFFF;stroke:#FFFFFF;stroke-miterlimit:10;}
	.st4{fill:#551CC4;stroke:#FFFFFF;stroke-miterlimit:10;}
</style>
<circle class="st0" cx="66.5" cy="66.5" r="66.5"/>
<g>
	<g>
		<path class="st1" d="M43.3,41.7L65,72.5c1.8,2.5,1.2,6-1.3,7.7L45.9,92.7c-2.5,1.8-6,1.2-7.7-1.3L16.5,60.5
			c-1.8-2.5-1.2-6,1.3-7.7l17.7-12.4C38,38.6,41.5,39.2,43.3,41.7z"/>
		
			<rect x="27" y="47.2" transform="matrix(0.8177 -0.5757 0.5757 0.8177 -30.604 35.2409)" class="st2" width="26.6" height="37.4"/>
		<ellipse transform="matrix(0.8177 -0.5757 0.5757 0.8177 -38.6958 45.5953)" class="st2" cx="52.6" cy="83.9" rx="1.7" ry="1.7"/>
	</g>
	<g>
		<path class="st3" d="M106.5,32.5v68c0,5.5-4.5,10-10,10h-39c-5.5,0-10-4.5-10-10v-68c0-5.5,4.5-10,10-10h39
			C102,22.5,106.5,27,106.5,32.5z"/>
		<rect x="53" y="31.5" class="st4" width="48" height="67.5"/>
		<circle class="st4" cx="76.5" cy="104.5" r="3"/>
	</g>
</g>
</svg>
