<?xml version="1.0" encoding="utf-8"?>
<!-- Generator: Adobe Illustrator 21.0.0, SVG Export Plug-In . SVG Version: 6.00 Build 0)  -->
<!DOCTYPE svg PUBLIC "-//W3C//DTD SVG 1.1//EN" "http://www.w3.org/Graphics/SVG/1.1/DTD/svg11.dtd">
<svg version="1.1" id="Capa_1" xmlns="http://www.w3.org/2000/svg" xmlns:xlink="http://www.w3.org/1999/xlink" x="0px" y="0px"
	 viewBox="0 0 512 512" style="enable-background:new 0 0 512 512;" xml:space="preserve">
<style type="text/css">
	.st0{fill:#DD9F07;}
</style>
<g>
	<path class="st0" d="M421.1,158c-4.3,0-8.5,0.5-12.6,1.6c-4.4,1.1-9.1-0.7-11.4-4.6c-9-15.3-25.6-25.6-44.4-25.6
		c-5.4,0-10.6,0.8-15.5,2.4c-4.1,1.3-8.7-0.3-11.2-3.8c-9.4-12.9-24.6-21.4-41.8-21.4c-1.9,0-3.7,0.1-5.5,0.3
		c-6,0.6-11.2-4.2-11.2-10.2V52.1c0-28.7-23.2-52.1-51.7-52.1s-51.7,23.4-51.7,52.1v179c0,9.5-11.8,13.9-18,6.7l-19.2-22
		c-0.3-0.3-0.5-0.6-0.8-0.9c-9.8-9.8-22.8-15.2-36.6-15.3c-0.1,0-0.2,0-0.3,0c-13.8,0-26.8,5.3-36.5,15c-17.1,17.1-18,42.5-2.6,69.7
		c20,35.2,41.8,68.3,60.9,97.5c14,21.4,27.3,41.6,37,58.3c8.4,14.5,30.7,61.5,30.9,61.9c2.9,6.1,9,10,15.8,10h221.1
		c7.6,0,14.3-4.9,16.7-12.1c4.1-12.8,40.3-126.5,40.3-170.4V210.1C472.8,181.4,449.6,158,421.1,158z"/>
</g>
<path class="st0" d="M82.9,174.8l48.8-50c3.5-3.6,1-9.7-4.1-9.7h-21.2c-3.2,0-5.7-2.6-5.7-5.7V25.9c0-3.2-2.6-5.7-5.7-5.7H62.6
	c-3.2,0-5.7,2.6-5.7,5.7v83.4c0,3.2-2.6,5.7-5.7,5.7H31c-5,0-7.6,6-4.1,9.7l47.7,50C76.8,177.1,80.6,177.2,82.9,174.8z"/>
</svg>
