<?xml version="1.0" encoding="utf-8"?>
<!-- Generator: Adobe Illustrator 21.0.0, SVG Export Plug-In . SVG Version: 6.00 Build 0)  -->
<!DOCTYPE svg PUBLIC "-//W3C//DTD SVG 1.1//EN" "http://www.w3.org/Graphics/SVG/1.1/DTD/svg11.dtd">
<svg version="1.1" id="Layer_1" xmlns="http://www.w3.org/2000/svg" xmlns:xlink="http://www.w3.org/1999/xlink" x="0px" y="0px"
	 viewBox="0 0 104.1 104.1" style="enable-background:new 0 0 104.1 104.1;" xml:space="preserve">
<style type="text/css">
	.st0{fill:#FFD2DB;}
	.st1{fill:#FFAEAE;}
	.st2{fill:#FFFFFF;}
	.st3{fill:#282828;}
	.st4{fill:#E2E2E2;}
	.st5{fill:#FF6C6C;}
	.st6{fill:#EA5959;}
	.st7{fill:none;stroke:#FFAEAE;stroke-width:4;stroke-linecap:round;stroke-linejoin:round;}
</style>
<title>Asset 23</title>
<g id="avatar_keuze">
	<circle class="st0" cx="52" cy="52" r="52"/>
	<circle class="st1" cx="42.5" cy="45.6" r="6.5"/>
	<circle class="st2" cx="42.5" cy="45.6" r="5.4"/>
	<circle class="st1" cx="62.1" cy="45.6" r="6.5"/>
	<g>
		<path class="st3" d="M70.1,66c-0.9-2.6-2.9-6.4-7.2-8.9c-1-0.6-2-1.1-3.2-1.5c0,0,0,0,0,0V57v0.5c0,0.4-0.4,0.8-0.8,0.8H58
			c-0.4,0-0.8-0.4-0.8-0.8V57v-1.4c0-0.3,0.1-0.5,0.3-0.6c-1.2-0.3-2.5-0.5-4-0.5c0.1,0.1,0.1,0.3,0.1,0.4v1.4v0.5
			c0,0.4-0.4,0.8-0.8,0.8h-0.9c-0.4,0-0.8-0.4-0.8-0.8v-0.5v-1.4c0-0.2,0.1-0.4,0.2-0.5c-1.6,0-3,0.2-4.3,0.6
			c0.2,0.1,0.4,0.4,0.4,0.7V57v0.5c0,0.4-0.4,0.8-0.8,0.8h-0.9c-0.4,0-0.8-0.4-0.8-0.8V57v-1.4c0,0,0,0,0,0
			c-0.9,0.4-1.8,0.8-2.6,1.3c-4.7,2.9-6.8,7.5-7.7,10.2c-0.3,0.8,0.5,1.6,1.3,1.3c1.3-0.5,2.5-0.9,3.8-1.2c0.2-0.1,0.5-0.1,0.7-0.2
			c0-0.1,0-0.2,0-0.4c0-2.9,5.4-5.3,12-5.3s12,2.4,12,5.3c0,0.1,0,0.2,0,0.3c0.4,0.1,0.7,0.2,1.1,0.3c1,0.3,1.9,0.6,2.6,0.8
			C69.3,68.5,70.5,67.3,70.1,66z"/>
		<path class="st4" d="M52.8,57.1h-0.9c-0.4,0-0.8-0.4-0.8-0.8v0.5c0,0.4,0.4,0.8,0.8,0.8h0.9c0.4,0,0.8-0.4,0.8-0.8v-0.5
			C53.6,56.7,53.3,57.1,52.8,57.1z"/>
		<path class="st4" d="M58.8,57.8H58c-0.4,0-0.8-0.4-0.8-0.8v0.5c0,0.4,0.4,0.8,0.8,0.8h0.9c0.4,0,0.8-0.4,0.8-0.8V57
			C59.6,57.5,59.3,57.8,58.8,57.8z"/>
		<path class="st4" d="M46.6,57.8h-0.9c-0.4,0-0.8-0.4-0.8-0.8v0.5c0,0.4,0.4,0.8,0.8,0.8h0.9c0.4,0,0.8-0.4,0.8-0.8V57
			C47.4,57.5,47,57.8,46.6,57.8z"/>
		<path class="st2" d="M51.1,56.3c0,0.4,0.4,0.8,0.8,0.8h0.9c0.4,0,0.8-0.4,0.8-0.8v-1.4c0-0.2,0-0.3-0.1-0.4c-0.1,0-0.3,0-0.4,0
			c-0.6,0-1.2,0-1.8,0c-0.1,0.1-0.2,0.3-0.2,0.5V56.3z"/>
		<path class="st2" d="M57.1,55.6V57c0,0.4,0.4,0.8,0.8,0.8h0.9c0.4,0,0.8-0.4,0.8-0.8v-1.4c0,0,0,0,0,0c-0.7-0.2-1.4-0.4-2.2-0.6
			C57.3,55.1,57.1,55.4,57.1,55.6z"/>
		<path class="st2" d="M44.9,57c0,0.4,0.4,0.8,0.8,0.8h0.9c0.4,0,0.8-0.4,0.8-0.8v-1.4c0-0.3-0.2-0.5-0.4-0.7
			c-0.7,0.2-1.5,0.4-2.1,0.7c0,0,0,0,0,0V57z"/>
		<path class="st5" d="M52.4,61.3c-6.6,0-12,2.4-12,5.3c0,0.1,0,0.2,0,0.4c0.7-0.2,1.4-0.4,2.1-0.5c0.6-0.1,1.2-0.2,1.8-0.3
			c1-0.2,1.9-0.3,2.8-0.4c1.5-0.2,3-0.2,4.4-0.3c1,0,1.9,0,2.8,0c1.4,0.1,2.6,0.2,3.9,0.3c1,0.1,1.9,0.3,2.8,0.4
			c0.5,0.1,1,0.2,1.5,0.3c0.6,0.1,1.2,0.3,1.8,0.4c0-0.1,0-0.2,0-0.3C64.4,63.7,59,61.3,52.4,61.3z"/>
	</g>
	<circle class="st2" cx="62.1" cy="45.6" r="5.4"/>
	<circle class="st3" cx="42.5" cy="46.3" r="1.9"/>
	<circle class="st3" cx="62.2" cy="46.8" r="1.9"/>
	<path class="st4" d="M52.6,58.1h-0.8c-0.6,0-1.1-0.5-1.1-1.1v0.5c0,0.6,0.5,1.1,1.1,1.1h0.8c0.6,0,1.1-0.5,1.1-1.1V57
		C53.8,57.6,53.2,58.1,52.6,58.1L52.6,58.1z"/>
	<path class="st2" d="M51.8,58.1h0.8c0.6,0,1.1-0.5,1.1-1.1l0,0v-1.6c-1,0-2,0-3,0V57C50.8,57.6,51.2,58.1,51.8,58.1z"/>
	<circle class="st2" cx="43.5" cy="45.2" r="1.1"/>
	<circle class="st2" cx="63.6" cy="45.7" r="1.1"/>
	<path class="st6" d="M48.5,46.8h8.3c2.9,0,5.2,2.3,5.2,5.2l0,0c0,2.9-2.3,5.2-5.2,5.2h-8.3c-2.9,0-5.2-2.3-5.2-5.2l0,0
		C43.2,49.2,45.6,46.8,48.5,46.8z"/>
	<path class="st5" d="M48.5,46h8.3c2.9,0,5.2,2.3,5.2,5.2l0,0c0,2.9-2.3,5.2-5.2,5.2h-8.3c-2.9,0-5.2-2.3-5.2-5.2l0,0
		C43.2,48.3,45.6,46,48.5,46z"/>
	<path class="st3" d="M57.3,49L57.3,49c1.2,0,2.2,1,2.2,2.2l0,0c0,1.2-1,2.2-2.2,2.2l0,0c-1.2,0-2.2-1-2.2-2.2l0,0
		C55.1,50,56.1,49,57.3,49z"/>
	<path class="st3" d="M48,49L48,49c1.2,0,2.2,1,2.2,2.2l0,0c0,1.2-1,2.2-2.2,2.2l0,0c-1.2,0-2.2-1-2.2-2.2l0,0
		C45.8,50,46.8,49,48,49z"/>
	<path class="st7" d="M43.2,71.1c0,0,9.6,6.6,18.2,0"/>
</g>
</svg>
