<?xml version="1.0" encoding="utf-8"?>
<!-- Generator: Adobe Illustrator 21.0.0, SVG Export Plug-In . SVG Version: 6.00 Build 0)  -->
<!DOCTYPE svg PUBLIC "-//W3C//DTD SVG 1.1//EN" "http://www.w3.org/Graphics/SVG/1.1/DTD/svg11.dtd">
<svg version="1.1" id="Layer_1" xmlns="http://www.w3.org/2000/svg" xmlns:xlink="http://www.w3.org/1999/xlink" x="0px" y="0px"
	 viewBox="0 0 69.3 69.3" style="enable-background:new 0 0 69.3 69.3;" xml:space="preserve">
<style type="text/css">
	.st0{fill:#551CC4;}
	.st1{fill:#FFFFFF;}
</style>
<circle class="st0" cx="34.6" cy="34.6" r="34.6"/>
<g>
	<path class="st1" d="M46.4,19.1h-6.3c-0.3-2.7-2.6-4.9-5.5-4.9c-2.8,0-5.2,2.1-5.5,4.9h-6.3c-2.6,0-4.7,2.1-4.7,4.7V24
		c0,2,1.2,3.6,2.9,4.3v22c0,2.6,2.1,4.7,4.7,4.7h17.8c2.6,0,4.7-2.1,4.7-4.7v-22c1.7-0.7,2.9-2.4,2.9-4.3v-0.2
		C51.1,21.2,49,19.1,46.4,19.1z M34.6,16.5c1.6,0,2.9,1.2,3.2,2.7h-6.5C31.7,17.6,33,16.5,34.6,16.5z M46,50.3
		c0,1.3-1.1,2.4-2.4,2.4H25.8c-1.3,0-2.4-1.1-2.4-2.4V28.7H46V50.3z M48.9,24c0,1.3-1.1,2.4-2.4,2.4H22.8c-1.3,0-2.4-1.1-2.4-2.4
		v-0.2c0-1.3,1.1-2.4,2.4-2.4h23.6c1.3,0,2.4,1.1,2.4,2.4L48.9,24L48.9,24z"/>
	<path class="st1" d="M28.7,50c0.6,0,1.1-0.5,1.1-1.1V36.4c0-0.6-0.5-1.1-1.1-1.1s-1.1,0.5-1.1,1.1v12.4C27.6,49.5,28.1,50,28.7,50z
		"/>
	<path class="st1" d="M34.6,50c0.6,0,1.1-0.5,1.1-1.1V36.4c0-0.6-0.5-1.1-1.1-1.1c-0.6,0-1.1,0.5-1.1,1.1v12.4
		C33.5,49.5,34,50,34.6,50z"/>
	<path class="st1" d="M40.5,50c0.6,0,1.1-0.5,1.1-1.1V36.4c0-0.6-0.5-1.1-1.1-1.1c-0.6,0-1.1,0.5-1.1,1.1v12.4
		C39.4,49.5,39.9,50,40.5,50z"/>
</g>
</svg>
