<svg xmlns="http://www.w3.org/2000/svg" viewBox="0 0 326.39 212.54"><title>Asset 21</title><g id="Layer_2" data-name="Layer 2"><g id="talen"><ellipse cx="85.71" cy="201.71" rx="35.61" ry="3.43" style="fill:#f2b406"/><ellipse cx="255.89" cy="208.54" rx="41.5" ry="4" style="fill:#f2b406"/><path d="M89.72,43.48c0-14,14.78-25.39,33-25.39s33,11.37,33,25.39-14.78,25.39-33,25.39a41.27,41.27,0,0,1-14-2.4c-1.07,1.08-6.64,6.47-9.69,4.94V61.15h0C93.28,56.58,89.72,50.35,89.72,43.48Z" style="fill:#ffc600;stroke:#f2b406;stroke-linecap:round;stroke-linejoin:round;stroke-width:7px"/><line x1="140.22" y1="33.35" x2="107.96" y2="33.35" style="fill:none;stroke:#f2b406;stroke-linecap:round;stroke-linejoin:round;stroke-width:7px"/><line x1="124.09" y1="41.79" x2="107.96" y2="41.79" style="fill:none;stroke:#f2b406;stroke-linecap:round;stroke-linejoin:round;stroke-width:7px"/><line x1="140.22" y1="41.79" x2="131.54" y2="41.79" style="fill:none;stroke:#f2b406;stroke-linecap:round;stroke-linejoin:round;stroke-width:7px"/><line x1="114.41" y1="50.23" x2="107.96" y2="50.23" style="fill:none;stroke:#f2b406;stroke-linecap:round;stroke-linejoin:round;stroke-width:7px"/><line x1="140.22" y1="50.23" x2="121.4" y2="50.23" style="fill:none;stroke:#f2b406;stroke-linecap:round;stroke-linejoin:round;stroke-width:7px"/><path d="M218.44,36.43c0-18.19-19.17-32.93-42.81-32.93s-42.81,14.74-42.81,32.93S152,69.36,175.63,69.36a53.53,53.53,0,0,0,18.16-3.12c1.39,1.4,8.61,8.39,12.57,6.41V59.35h0C213.82,53.42,218.44,45.34,218.44,36.43Z" style="fill:#ffc600;stroke:#f2b406;stroke-linecap:round;stroke-linejoin:round;stroke-width:7px"/><line x1="152.93" y1="23.3" x2="194.78" y2="23.3" style="fill:#ffc600;stroke:#f2b406;stroke-linecap:round;stroke-linejoin:round;stroke-width:7px"/><line x1="173.86" y1="34.24" x2="194.78" y2="34.24" style="fill:#ffc600;stroke:#f2b406;stroke-linecap:round;stroke-linejoin:round;stroke-width:7px"/><line x1="152.93" y1="34.24" x2="164.2" y2="34.24" style="fill:#ffc600;stroke:#f2b406;stroke-linecap:round;stroke-linejoin:round;stroke-width:7px"/><line x1="186.41" y1="45.19" x2="194.78" y2="45.19" style="fill:#ffc600;stroke:#f2b406;stroke-linecap:round;stroke-linejoin:round;stroke-width:7px"/><line x1="152.93" y1="45.19" x2="177.34" y2="45.19" style="fill:#ffc600;stroke:#f2b406;stroke-linecap:round;stroke-linejoin:round;stroke-width:7px"/><path d="M11.43,104c-4.52,11.69-18.59,36.07-6.9,40.59s44.72-12.54,49.24-24.23A22.7,22.7,0,0,0,11.43,104Z" style="fill:#ffd2db"/><path d="M16.16,120c0,8.88-11.27,18.6-3.78,18.6s30.89-9.72,30.89-18.6-6.07-16.08-13.55-16.08S16.16,111.13,16.16,120Z" style="fill:#ffaeae"/><path d="M160.51,104c4.52,11.69,18.59,36.07,6.9,40.59s-44.72-12.54-49.24-24.23A22.7,22.7,0,1,1,160.51,104Z" style="fill:#ffd2db"/><path d="M153.55,120c0,8.88,11.27,18.6,3.78,18.6s-30.89-9.72-30.89-18.6,6.07-16.08,13.55-16.08S153.55,111.13,153.55,120Z" style="fill:#ffaeae"/><circle cx="85.15" cy="142.07" r="59.58" style="fill:#ffd2db"/><path d="M48.27,123.79a14.82,14.82,0,1,1,29.63,0" style="fill:none;stroke:#ffaeae;stroke-linecap:round;stroke-linejoin:round;stroke-width:4px"/><path d="M93,123.79a14.82,14.82,0,1,1,29.63,0" style="fill:none;stroke:#ffaeae;stroke-linecap:round;stroke-linejoin:round;stroke-width:4px"/><path d="M117.62,142.16v4.64a2.53,2.53,0,0,1-2.52,2.52H113.2a2.53,2.53,0,0,1-2.52-2.52v-3q-2.23.47-4.41.84V150a2.53,2.53,0,0,1-2.52,2.52h-1.89A2.53,2.53,0,0,1,99.33,150v-4.31c-3.68.39-7.26.6-10.72.65v4.92a2.53,2.53,0,0,1-2.52,2.52H84.2a2.53,2.53,0,0,1-2.52-2.52v-5c-3.3-.14-6.46-.41-9.46-.78V150a2.53,2.53,0,0,1-2.52,2.52H67.81A2.53,2.53,0,0,1,65.29,150v-5.57q-2-.35-3.78-.74v2.52A2.53,2.53,0,0,1,59,148.69H57.09a2.53,2.53,0,0,1-2.52-2.52V142c-2.48-.68-4.65-1.36-6.49-2a3.88,3.88,0,0,0-4.92,5,40.31,40.31,0,0,0,17.66,21.82c4.93-4,14.26-6.71,25-6.71,11.13,0,20.77,2.93,25.53,7.2,11.56-7,16.74-18.41,18.87-24.92a2.53,2.53,0,0,0-3.28-3.17Q122.21,140.9,117.62,142.16Z" style="fill:#282828"/><path d="M60.82,166.75c6,3.52,13.81,6,24,6.53,11.29.53,19.91-2.05,26.47-6-4.76-4.27-14.4-7.2-25.53-7.2C75.08,160,65.76,162.75,60.82,166.75Z" style="fill:#ff6c6c"/><path d="M59,147.43H57.09a2.53,2.53,0,0,1-2.52-2.52v1.26a2.53,2.53,0,0,0,2.52,2.52H59a2.53,2.53,0,0,0,2.52-2.52v-1.26A2.53,2.53,0,0,1,59,147.43Z" style="fill:#e2e2e2"/><path d="M57.09,147.43H59a2.53,2.53,0,0,0,2.52-2.52v-1.26c-2.52-.53-4.83-1.1-6.94-1.68v2.94A2.53,2.53,0,0,0,57.09,147.43Z" style="fill:#fff"/><path d="M69.7,151.22H67.81a2.53,2.53,0,0,1-2.52-2.52V150a2.53,2.53,0,0,0,2.52,2.52H69.7A2.53,2.53,0,0,0,72.22,150v-1.26A2.53,2.53,0,0,1,69.7,151.22Z" style="fill:#e2e2e2"/><path d="M67.81,151.22H69.7a2.53,2.53,0,0,0,2.52-2.52v-3.27c-2.42-.29-4.74-.64-6.94-1v4.31A2.53,2.53,0,0,0,67.81,151.22Z" style="fill:#fff"/><path d="M86.09,152.48H84.2A2.53,2.53,0,0,1,81.68,150v1.26a2.53,2.53,0,0,0,2.52,2.52h1.89a2.53,2.53,0,0,0,2.52-2.52V150A2.53,2.53,0,0,1,86.09,152.48Z" style="fill:#e2e2e2"/><path d="M84.2,152.48h1.89A2.53,2.53,0,0,0,88.62,150v-3.66q-3.56.05-6.94-.09V150A2.53,2.53,0,0,0,84.2,152.48Z" style="fill:#fff"/><path d="M103.75,151.22h-1.89a2.53,2.53,0,0,1-2.52-2.52V150a2.53,2.53,0,0,0,2.52,2.52h1.89a2.53,2.53,0,0,0,2.52-2.52v-1.26A2.53,2.53,0,0,1,103.75,151.22Z" style="fill:#e2e2e2"/><path d="M101.86,151.22h1.89a2.53,2.53,0,0,0,2.52-2.52v-4q-3.52.6-6.94,1v3A2.53,2.53,0,0,0,101.86,151.22Z" style="fill:#fff"/><path d="M115.1,148.06H113.2a2.53,2.53,0,0,1-2.52-2.52v1.26a2.53,2.53,0,0,0,2.52,2.52h1.89a2.53,2.53,0,0,0,2.52-2.52v-1.26A2.53,2.53,0,0,1,115.1,148.06Z" style="fill:#e2e2e2"/><path d="M113.2,148.06h1.89a2.53,2.53,0,0,0,2.52-2.52v-3.38q-3.51,1-6.94,1.69v1.69A2.53,2.53,0,0,0,113.2,148.06Z" style="fill:#fff"/><rect x="64.66" y="126.63" width="42.87" height="23.96" rx="11.98" ry="11.98" style="fill:#ea5959"/><rect x="64.66" y="124.74" width="42.87" height="23.96" rx="11.98" ry="11.98" style="fill:#ff6c6c"/><rect x="91.77" y="131.67" width="10.09" height="10.09" rx="5.04" ry="5.04" style="fill:#282828"/><rect x="70.33" y="131.67" width="10.09" height="10.09" rx="5.04" ry="5.04" style="fill:#282828"/><path d="M64.66,182.11s22.07,15.13,41.61,0" style="fill:none;stroke:#ffaeae;stroke-linecap:round;stroke-linejoin:round;stroke-width:4px"/><path d="M311.59,120.09l9.67-8.29a70.37,70.37,0,0,0-135.59,26.41c0,2.24,8.55,5.36,8.76,7.55.22,2.35-7.89,3.76-7.45,6a70.37,70.37,0,1,0,137-31.71Z" style="fill:#58071e"/><circle cx="215.87" cy="113.75" r="9.06" style="fill:#fb7936"/><circle cx="296.19" cy="113.75" r="9.06" style="fill:#fb7936"/><circle cx="295.89" cy="114.36" r="5.13" style="fill:#e55e23"/><circle cx="215.87" cy="114.36" r="5.13" style="fill:#e55e23"/><path d="M213.45,138.21A42.58,42.58,0,1,1,256,180.79,42.58,42.58,0,0,1,213.45,138.21Z" style="fill:#fb7936"/><rect x="237.01" y="144.86" width="37.44" height="24.76" rx="12.38" ry="12.38" style="fill:#f4a04d"/><path d="M264.18,143.65c0,3.17-4.06,8.15-9.06,8.15s-9.06-5-9.06-8.15,4.06-5.74,9.06-5.74S264.18,140.48,264.18,143.65Z" style="fill:#58071e"/><circle cx="233.23" cy="145.91" r="5.74" style="fill:#e55e23"/><circle cx="278.98" cy="146.06" r="5.74" style="fill:#e55e23"/><path d="M258.52,133.38a9.21,9.21,0,0,1,18.42,0" style="fill:none;stroke:#e55e23;stroke-linecap:round;stroke-linejoin:round;stroke-width:5px"/><path d="M233.13,133.38a9.21,9.21,0,0,1,18.42,0" style="fill:none;stroke:#e55e23;stroke-linecap:round;stroke-linejoin:round;stroke-width:5px"/><path d="M266.52,153.94v1.58a.86.86,0,0,1-.86.86H265a.86.86,0,0,1-.86-.86v-1q-.76.16-1.5.28v1.79a.86.86,0,0,1-.86.86h-.64a.86.86,0,0,1-.86-.86v-1.46c-1.25.13-2.47.2-3.64.22V157a.86.86,0,0,1-.86.86h-.64a.86.86,0,0,1-.86-.86v-1.7c-1.12,0-2.2-.14-3.21-.26v1.54a.86.86,0,0,1-.86.86h-.64a.86.86,0,0,1-.86-.86V154.7l-1.29-.25v.86a.86.86,0,0,1-.86.86h-.64a.86.86,0,0,1-.86-.86v-1.43c-.84-.23-1.58-.46-2.2-.68a1.32,1.32,0,0,0-1.67,1.68,13.7,13.7,0,0,0,6,7.42c1.68-1.36,4.84-2.28,8.48-2.28s7.06,1,8.67,2.45a15.5,15.5,0,0,0,6.41-8.47.86.86,0,0,0-1.11-1.08Q268.08,153.52,266.52,153.94Z" style="fill:#282828"/><path d="M247.21,162.3a17.48,17.48,0,0,0,8.16,2.22,15.52,15.52,0,0,0,9-2.05c-1.62-1.45-4.89-2.45-8.67-2.45S248.89,160.94,247.21,162.3Z" style="fill:#ff6c6c"/><path d="M246.59,155.73h-.64a.86.86,0,0,1-.86-.86v.43a.86.86,0,0,0,.86.86h.64a.86.86,0,0,0,.86-.86v-.43A.86.86,0,0,1,246.59,155.73Z" style="fill:#e2e2e2"/><path d="M245.95,155.73h.64a.86.86,0,0,0,.86-.86v-.43c-.85-.18-1.64-.38-2.36-.57v1A.86.86,0,0,0,245.95,155.73Z" style="fill:#fff"/><path d="M250.23,157h-.64a.86.86,0,0,1-.86-.86v.43a.86.86,0,0,0,.86.86h.64a.86.86,0,0,0,.86-.86v-.43A.86.86,0,0,1,250.23,157Z" style="fill:#e2e2e2"/><path d="M249.59,157h.64a.86.86,0,0,0,.86-.86v-1.11c-.82-.1-1.61-.22-2.36-.35v1.46A.86.86,0,0,0,249.59,157Z" style="fill:#fff"/><path d="M255.8,157.45h-.64a.86.86,0,0,1-.86-.86V157a.86.86,0,0,0,.86.86h.64a.86.86,0,0,0,.86-.86v-.43A.86.86,0,0,1,255.8,157.45Z" style="fill:#e2e2e2"/><path d="M255.16,157.45h.64a.86.86,0,0,0,.86-.86v-1.24q-1.21,0-2.36,0v1.28A.86.86,0,0,0,255.16,157.45Z" style="fill:#fff"/><path d="M261.8,157h-.64a.86.86,0,0,1-.86-.86v.43a.86.86,0,0,0,.86.86h.64a.86.86,0,0,0,.86-.86v-.43A.86.86,0,0,1,261.8,157Z" style="fill:#e2e2e2"/><path d="M261.16,157h.64a.86.86,0,0,0,.86-.86V154.8q-1.2.2-2.36.33v1A.86.86,0,0,0,261.16,157Z" style="fill:#fff"/><path d="M265.66,155.95H265a.86.86,0,0,1-.86-.86v.43a.86.86,0,0,0,.86.86h.64a.86.86,0,0,0,.86-.86v-.43A.86.86,0,0,1,265.66,155.95Z" style="fill:#e2e2e2"/><path d="M265,155.95h.64a.86.86,0,0,0,.86-.86v-1.15q-1.19.33-2.36.57v.58A.86.86,0,0,0,265,155.95Z" style="fill:#fff"/><rect x="232.78" y="114.5" width="19.02" height="6.95" rx="3.47" ry="3.47" style="fill:#58071e"/><rect x="258.45" y="113.75" width="19.02" height="6.95" rx="3.47" ry="3.47" style="fill:#58071e"/></g></g></svg>