<svg xmlns="http://www.w3.org/2000/svg" viewBox="0 0 925.2 391.82"><title>Asset 8</title><g id="Layer_2" data-name="Layer 2"><g id="locatie"><ellipse cx="464.19" cy="377.84" rx="92.29" ry="13.98" style="fill:#dd9f07"/><path d="M86.21,8.48S213.74-21.2,317.26,124.83,553,422,818.14,321.28" style="fill:none;stroke:#f2b406;stroke-linecap:round;stroke-linejoin:round;stroke-width:12px;stroke-dasharray:12,30"/><path d="M751,128.91a23,23,0,0,0-41.67-10.25,22.92,22.92,0,0,0-4.18-.75,25.5,25.5,0,0,0-50.95.92h-.51a25.5,25.5,0,1,0,13.62,47.06,23,23,0,0,0,29.35-3,23,23,0,0,0,11.74.35,23,23,0,0,0,30-2A18,18,0,1,0,751,128.91Z" style="fill:#dd9f07"/><path d="M751,122.91a23,23,0,0,0-41.67-10.25,22.92,22.92,0,0,0-4.18-.75,25.5,25.5,0,0,0-50.95.92h-.51a25.5,25.5,0,1,0,13.62,47.06,23,23,0,0,0,29.35-3,23,23,0,0,0,11.74.35,23,23,0,0,0,30-2A18,18,0,1,0,751,122.91Z" style="fill:#f2b406"/><path d="M177,213.91a23,23,0,0,0-41.67-10.25,22.92,22.92,0,0,0-4.18-.75,25.5,25.5,0,0,0-50.95.92h-.51a25.5,25.5,0,1,0,13.62,47.06,23,23,0,0,0,29.35-3,23,23,0,0,0,11.74.35,23,23,0,0,0,30-2A18,18,0,1,0,177,213.91Z" style="fill:#dd9f07"/><path d="M177,207.91a23,23,0,0,0-41.67-10.25,22.92,22.92,0,0,0-4.18-.75,25.5,25.5,0,0,0-50.95.92h-.51a25.5,25.5,0,1,0,13.62,47.06,23,23,0,0,0,29.35-3,23,23,0,0,0,11.74.35,23,23,0,0,0,30-2A18,18,0,1,0,177,207.91Z" style="fill:#f2b406"/><path d="M243.82,103.88a14.72,14.72,0,0,0-26.68-6.57,14.67,14.67,0,0,0-2.68-.48,16.32,16.32,0,0,0-32.62.59h-.33a16.33,16.33,0,1,0,8.72,30.13A14.72,14.72,0,0,0,209,125.63a14.71,14.71,0,0,0,7.52.22,14.72,14.72,0,0,0,19.19-1.31,11.52,11.52,0,1,0,8.09-20.66Z" style="fill:#dd9f07"/><path d="M243.82,100a14.72,14.72,0,0,0-26.68-6.57,14.67,14.67,0,0,0-2.68-.48,16.32,16.32,0,0,0-32.62.59h-.33a16.33,16.33,0,1,0,8.72,30.13A14.72,14.72,0,0,0,209,121.79a14.71,14.71,0,0,0,7.52.22,14.72,14.72,0,0,0,19.19-1.31A11.52,11.52,0,1,0,243.82,100Z" style="fill:#f2b406"/><path d="M826.82,230.88a14.72,14.72,0,0,0-26.68-6.57,14.67,14.67,0,0,0-2.68-.48,16.32,16.32,0,0,0-32.62.59h-.33a16.33,16.33,0,1,0,8.72,30.13A14.72,14.72,0,0,0,792,252.63a14.71,14.71,0,0,0,7.52.22,14.72,14.72,0,0,0,19.19-1.31,11.52,11.52,0,1,0,8.09-20.66Z" style="fill:#dd9f07"/><path d="M826.82,227a14.72,14.72,0,0,0-26.68-6.57,14.67,14.67,0,0,0-2.68-.48,16.32,16.32,0,0,0-32.62.59h-.33a16.33,16.33,0,1,0,8.72,30.13A14.72,14.72,0,0,0,792,248.79a14.71,14.71,0,0,0,7.52.22,14.72,14.72,0,0,0,19.19-1.31A11.52,11.52,0,1,0,826.82,227Z" style="fill:#f2b406"/><path d="M837.19,282.82a19,19,0,0,0-19,19c0,6.73,7.82,17.59,13.43,24.5a7.18,7.18,0,0,0,11.14,0c5.61-6.92,13.43-17.77,13.43-24.5A19,19,0,0,0,837.19,282.82Zm.5,29a8.5,8.5,0,1,1,8.5-8.5A8.5,8.5,0,0,1,837.69,311.82Z" style="fill:#dd9f07"/><path d="M837.19,278.82a19,19,0,0,0-19,19c0,6.73,7.82,17.59,13.43,24.5a7.18,7.18,0,0,0,11.14,0c5.61-6.92,13.43-17.77,13.43-24.5A19,19,0,0,0,837.19,278.82Zm.5,29a8.5,8.5,0,1,1,8.5-8.5A8.5,8.5,0,0,1,837.69,307.82Z" style="fill:#f2b406"/><circle cx="909.7" cy="83.24" r="15.5" transform="translate(68.37 439.12) rotate(-28.16)" style="fill:#f2b406;opacity:0.4"/><circle cx="812.31" cy="55.97" r="10.5" transform="translate(69.71 389.93) rotate(-28.16)" style="fill:#f2b406;opacity:0.4"/><circle cx="831.87" cy="115.83" r="21.5" transform="translate(43.78 406.24) rotate(-28.16)" style="fill:#f2b406;opacity:0.4"/><circle cx="743.84" cy="288.07" r="15.5" transform="translate(231.78 899.7) rotate(-71.23)" style="fill:#f2b406;opacity:0.4"/><circle cx="697.24" cy="198.31" r="10.5" transform="translate(285.17 794.69) rotate(-71.23)" style="fill:#f2b406;opacity:0.4"/><circle cx="666.88" cy="253.47" r="21.5" transform="translate(212.34 803.36) rotate(-71.23)" style="fill:#f2b406;opacity:0.4"/><circle cx="123.7" cy="286.24" r="15.5" transform="translate(-120.43 92.24) rotate(-28.16)" style="fill:#f2b406;opacity:0.4"/><circle cx="26.31" cy="258.97" r="10.5" transform="translate(-119.09 43.06) rotate(-28.16)" style="fill:#f2b406;opacity:0.4"/><circle cx="45.87" cy="318.83" r="21.5" transform="translate(-145.02 59.37) rotate(-28.16)" style="fill:#f2b406;opacity:0.4"/><circle cx="221.13" cy="186.97" r="15.5" transform="matrix(0.93, -0.37, 0.37, 0.93, -53.66, 95.61)" style="fill:#f2b406;opacity:0.4"/><circle cx="183.29" cy="280.76" r="10.5" transform="translate(-91.24 88.26) rotate(-21.82)" style="fill:#f2b406;opacity:0.4"/><circle cx="244.93" cy="267.92" r="21.5" transform="translate(-82.05 110.26) rotate(-21.82)" style="fill:#f2b406;opacity:0.4"/><circle cx="15.5" cy="165.06" r="15.5" transform="translate(-145.85 126.96) rotate(-71.35)" style="fill:#f2b406;opacity:0.4"/><circle cx="105.18" cy="118.29" r="10.5" transform="translate(-40.54 180.1) rotate(-71.35)" style="fill:#f2b406;opacity:0.4"/><circle cx="49.95" cy="88.04" r="21.5" transform="translate(-49.44 107.2) rotate(-71.35)" style="fill:#f2b406;opacity:0.4"/><circle cx="610.5" cy="109.06" r="15.5" transform="matrix(0.32, -0.95, 0.95, 0.32, 311.89, 652.61)" style="fill:#f2b406;opacity:0.4"/><circle cx="700.18" cy="62.29" r="10.5" transform="translate(417.2 705.76) rotate(-71.35)" style="fill:#f2b406;opacity:0.4"/><circle cx="644.95" cy="32.04" r="21.5" transform="translate(408.3 632.86) rotate(-71.35)" style="fill:#f2b406;opacity:0.4"/></g></g></svg>