<svg xmlns="http://www.w3.org/2000/svg" viewBox="0 0 347.07 347.07"><title>Asset 10</title><g id="Layer_2" data-name="Layer 2"><g id="locatie"><path d="M173.53,341.07C81.15,341.07,6,265.91,6,173.53S81.15,6,173.53,6,341.07,81.15,341.07,173.53,265.91,341.07,173.53,341.07Z" style="fill:#23b9fb"/><path d="M173.53,12A161.53,161.53,0,1,1,12,173.53,161.53,161.53,0,0,1,173.53,12m0-12A173.58,173.58,0,0,0,106,333.42,173.57,173.57,0,0,0,241.08,13.64,172.46,172.46,0,0,0,173.53,0Z" style="fill:#f2b406"/><path d="M277.13,50.53a5.72,5.72,0,0,0-6.37-.53L247.95,62.61l-14,8a5.76,5.76,0,0,0-2.9,5V85.89a5.76,5.76,0,0,0,5.76,5.76h0a5.76,5.76,0,0,1,5.72,5.1l2.74,23.71a5.76,5.76,0,0,0,2.53,4.13l4.4,2.93a5.76,5.76,0,0,0,1.37.67L273.8,135a5.69,5.69,0,0,1,1.46.73c4.06,2.83,24.72,17.78,24.72,29.78,0,11.64,11.11,15.88,13.9,16.76a5.56,5.56,0,0,1,1.31.62l10.63,6.76a5.75,5.75,0,0,0,8.84-4.57C335.79,160.78,333,96.05,277.13,50.53Z" style="fill:#17a348"/><path d="M101.53,29l5.56,9.61a15.76,15.76,0,0,0,14.45,9.46h13.68a22.54,22.54,0,0,0,9.6-2.15l9.05-4.26a12.34,12.34,0,0,1,13,1.53h0a13.4,13.4,0,0,0,13.34,2l17-6.78L226.53,21S166.53-4,101.53,29Z" style="fill:#fff"/><path d="M243.53,319l-3.83-5a20.67,20.67,0,0,0-18.95-12.41h-8a33.38,33.38,0,0,0-14.21,3.18l-12.19,5.74a2.88,2.88,0,0,1-3-.36h0a23.51,23.51,0,0,0-23.41-3.47l-11.48,4.59L120.53,326S181.53,350,243.53,319Z" style="fill:#fff"/><path d="M158.78,86.24,127.09,77.5a3.92,3.92,0,0,0-2.64.2l-9.07,4a3.92,3.92,0,0,0-1,.62L97.8,96.74a3.92,3.92,0,0,1-2.57,1H60.53a3.92,3.92,0,0,1-2.41-.82L43.7,85.67c-1.83-1.42-4.93-.61-6.17,1.35-6.42,10.17-24,35-25.48,85.72a4.1,4.1,0,0,0,.54,2.2l11,18.63a3.92,3.92,0,0,1,.54,2h0a3.92,3.92,0,0,0,7.12,2.28l15-20.94a3.92,3.92,0,0,1,5.25-1.06l9.53,5.86a3.92,3.92,0,0,0,5.22-1l8.64-11.78a3.92,3.92,0,0,1,5.75-.63l14.8,13a3.92,3.92,0,0,1,1.34,3v19.71a3.92,3.92,0,0,0,3.92,3.92h20.7a3.92,3.92,0,0,0,3.17-1.62l6.58-9.05a3.92,3.92,0,0,1,4.87-1.23l21,10a3.92,3.92,0,0,0,5.38-2.2l18.64-51.54a3.92,3.92,0,0,0,0-2.53L161.48,88.83A3.92,3.92,0,0,0,158.78,86.24Z" style="fill:#17a348"/><path d="M199.21,178.29l-3.47,3.82a7.62,7.62,0,0,0,0,10.25l5.46,6a7.62,7.62,0,0,1,2,5.13v7.58a7.62,7.62,0,0,0,7.62,7.62h0a7.62,7.62,0,0,0,7.31-5.46L224.39,192a7.62,7.62,0,0,0-3.76-8.91l-12.24-6.44A7.62,7.62,0,0,0,199.21,178.29Z" style="fill:#17a348"/><path d="M141,122.21a13.7,13.7,0,0,0-14.51,12.85c-.46,7.55,11.74,22.8,12.34,22.84s14.56-13.62,15-21.17A13.7,13.7,0,0,0,141,122.21Zm-1.23,20.22a6,6,0,1,1,6.31-5.58A6,6,0,0,1,139.81,142.43Z" style="fill:#fb474b"/></g></g></svg>