<?xml version="1.0" encoding="utf-8"?>
<!-- Generator: Adobe Illustrator 21.0.0, SVG Export Plug-In . SVG Version: 6.00 Build 0)  -->
<!DOCTYPE svg PUBLIC "-//W3C//DTD SVG 1.1//EN" "http://www.w3.org/Graphics/SVG/1.1/DTD/svg11.dtd">
<svg version="1.1" id="Layer_1" xmlns="http://www.w3.org/2000/svg" xmlns:xlink="http://www.w3.org/1999/xlink" x="0px" y="0px"
	 viewBox="0 0 994.3 393.8" style="enable-background:new 0 0 994.3 393.8;" xml:space="preserve">
<style type="text/css">
	.st0{fill:#DD9F07;}
	.st1{fill:#F2B406;}
	.st2{fill:none;stroke:#F2B406;stroke-width:4;stroke-linecap:round;stroke-linejoin:round;}
	.st3{opacity:0.46;}
	.st4{fill:none;stroke:#FFFFFF;stroke-width:5;stroke-linecap:round;stroke-linejoin:round;}
	.st5{fill:#FFFFFF;}
	.st6{fill:#FFD2DB;}
	.st7{fill:#FFAEAE;}
	.st8{fill:#282828;}
	.st9{fill:#FF6C6C;}
	.st10{fill:#E2E2E2;}
	.st11{fill:#EA5959;}
	.st12{fill:none;stroke:#FFAEAE;stroke-width:4;stroke-linecap:round;stroke-linejoin:round;}
	.st13{fill:#85633F;}
	.st14{fill:#007982;}
	.st15{fill:#7966FF;}
	.st16{fill:#DF14B5;}
	.st17{fill:none;stroke:#00A543;stroke-width:10;stroke-linecap:round;stroke-linejoin:round;}
	.st18{fill:#725DFB;}
	.st19{fill:#8077FC;}
</style>
<title>Asset 2</title>
<g>
	<g id="Layer_2">
		<g id="Layer_1-2">
			<g id="background">
				<polygon class="st0" points="755.2,144.7 710,190.1 804,189.8 				"/>
				<polygon class="st0" points="755.2,169.4 710.1,214.9 804.1,214.6 				"/>
				<polygon class="st0" points="755.3,194.2 710.1,239.6 804.1,239.4 				"/>
				<polygon class="st0" points="755.4,219 710.2,264.4 804.2,264.2 				"/>
				<polygon class="st0" points="755.4,243.8 710.3,289.2 804.3,288.9 				"/>
				<path class="st0" d="M757.2,267.6L757.2,267.6c5.7,0,10.3,4.6,10.3,10.2l0.1,47.9c0,5.7-4.6,10.3-10.2,10.3l0,0
					c-5.7,0-10.3-4.6-10.3-10.2l-0.1-47.9C747,272.3,751.6,267.7,757.2,267.6z"/>
				<polygon class="st1" points="710.8,112.2 657.9,165.3 767.9,165 				"/>
				<polygon class="st1" points="710.9,141.2 658,194.3 768,194 				"/>
				<polygon class="st1" points="710.9,170.2 658.1,223.3 768.1,223 				"/>
				<polygon class="st1" points="711,199.2 658.2,252.3 768.2,252 				"/>
				<polygon class="st1" points="711.1,228.2 658.2,281.3 768.2,281 				"/>
				<path class="st1" d="M713.2,256.1L713.2,256.1c6.6,0,12,5.3,12,12l0.2,56c0,6.6-5.3,12-12,12l0,0c-6.6,0-12-5.3-12-12l-0.2-56
					C701.2,261.6,706.6,256.2,713.2,256.1z"/>
				<polygon class="st0" points="249.2,146 204,191.4 298,191.2 				"/>
				<polygon class="st0" points="249.2,170.8 204.1,216.2 298.1,216 				"/>
				<polygon class="st0" points="249.3,195.6 204.1,241 298.1,240.8 				"/>
				<polygon class="st0" points="249.4,220.4 204.2,265.8 298.2,265.5 				"/>
				<polygon class="st0" points="249.4,245.2 204.3,290.6 298.3,290.3 				"/>
				<path class="st0" d="M251.2,269.1L251.2,269.1c5.7,0,10.3,4.6,10.3,10.2l0.1,47.9c0,5.7-4.6,10.3-10.2,10.3l0,0
					c-5.7,0-10.3-4.6-10.3-10.2l-0.1-47.9C241,273.7,245.6,269.1,251.2,269.1z"/>
				<polygon class="st1" points="283.8,113.4 230.9,166.5 340.9,166.2 				"/>
				<polygon class="st1" points="283.9,142.4 231,195.5 341,195.2 				"/>
				<polygon class="st1" points="283.9,171.4 231.1,224.5 341.1,224.2 				"/>
				<polygon class="st1" points="284,200.4 231.2,253.5 341.2,253.2 				"/>
				<polygon class="st1" points="284.1,229.4 231.2,282.5 341.2,282.2 				"/>
				<path class="st1" d="M286.2,257.3L286.2,257.3c6.6,0,12,5.3,12,12l0.2,56c0,6.6-5.3,12-12,12l0,0c-6.6,0-12-5.3-12-12l-0.2-56
					C274.2,262.7,279.6,257.3,286.2,257.3z"/>
				<line class="st2" x1="307.4" y1="335.3" x2="710.4" y2="334.2"/>
				<path class="st1" d="M650,198.9c-0.2-83.1-67.8-150.3-150.9-150.1S348.8,116.6,349,199.8c0.2,57.7,33.3,110.2,85.3,135.2
					l131.1-0.4C617.3,309.3,650.2,256.6,650,198.9z"/>
				<g class="st3">
					
						<ellipse transform="matrix(0.9631 -0.2693 0.2693 0.9631 -25.3754 43.0046)" class="st1" cx="144.1" cy="114" rx="12.9" ry="12.8"/>
					
						<ellipse transform="matrix(0.9631 -0.2693 0.2693 0.9631 -26.9421 48.3317)" class="st1" cx="162.7" cy="122.4" rx="5.4" ry="5.4"/>
					
						<ellipse transform="matrix(0.9631 -0.2693 0.2693 0.9631 -23.0695 48.3291)" class="st1" cx="164.6" cy="108.3" rx="5.4" ry="5.4"/>
					
						<ellipse transform="matrix(0.9631 -0.2693 0.2693 0.9631 -20.3263 45.7219)" class="st1" cx="156.5" cy="97" rx="5.4" ry="5.4"/>
					
						<ellipse transform="matrix(0.9631 -0.2693 0.2693 0.9631 -26.9894 64.5829)" class="st1" cx="221.9" cy="130.7" rx="12.9" ry="12.9"/>
					
						<ellipse transform="matrix(0.9631 -0.2693 0.2693 0.9631 -28.5509 69.9085)" class="st1" cx="240.6" cy="139" rx="5.4" ry="5.4"/>
					
						<ellipse transform="matrix(0.9627 -0.2707 0.2707 0.9627 -24.6373 70.123)" class="st1" cx="241.8" cy="124.4" rx="5.4" ry="5.4"/>
					
						<ellipse transform="matrix(0.9631 -0.2693 0.2693 0.9631 -21.9376 67.2998)" class="st1" cx="234.4" cy="113.6" rx="5.4" ry="5.4"/>
					
						<ellipse transform="matrix(0.5961 -0.8029 0.8029 0.5961 51.0503 224.8143)" class="st1" cx="249" cy="61.7" rx="12.8" ry="12.8"/>
					
						<ellipse transform="matrix(0.5961 -0.8029 0.8029 0.5961 62.9207 238.8125)" class="st1" cx="268.8" cy="56.9" rx="5.5" ry="5.5"/>
					
						<ellipse transform="matrix(0.5961 -0.8029 0.8029 0.5961 69.9551 228.1181)" class="st1" cx="261.7" cy="44.5" rx="5.5" ry="5.5"/>
					
						<ellipse transform="matrix(0.5961 -0.8029 0.8029 0.5961 67.7255 215.8068)" class="st1" cx="248.4" cy="40.6" rx="5.4" ry="5.5"/>
					
						<ellipse transform="matrix(0.5961 -0.8029 0.8029 0.5961 104.7378 275.5445)" class="st1" cx="326.2" cy="33.7" rx="12.9" ry="12.9"/>
					
						<ellipse transform="matrix(0.5961 -0.8029 0.8029 0.5961 116.6089 289.5282)" class="st1" cx="346.1" cy="28.9" rx="5.5" ry="5.4"/>
					
						<ellipse transform="matrix(0.5961 -0.8029 0.8029 0.5961 123.6434 278.8339)" class="st1" cx="339" cy="16.5" rx="5.5" ry="5.5"/>
					<ellipse transform="matrix(0.6 -0.8 0.8 0.6 119.8704 266.9128)" class="st1" cx="326.8" cy="13.6" rx="5.5" ry="5.4"/>
					
						<ellipse transform="matrix(0.7749 -0.632 0.632 0.7749 -147.3859 61.6416)" class="st1" cx="12.9" cy="237.8" rx="12.9" ry="12.9"/>
					
						<ellipse transform="matrix(0.7749 -0.632 0.632 0.7749 -133.8401 59.5931)" class="st1" cx="16.8" cy="217.7" rx="5.5" ry="5.4"/>
					
						<ellipse transform="matrix(0.7749 -0.632 0.632 0.7749 -135.1328 69.0643)" class="st1" cx="29.4" cy="224.3" rx="5.4" ry="5.4"/>
					
						<ellipse transform="matrix(0.7749 -0.632 0.632 0.7749 -142.4293 74.8983)" class="st1" cx="34" cy="237.4" rx="5.5" ry="5.4"/>
					
						<ellipse transform="matrix(0.7749 -0.632 0.632 0.7749 -94.0766 64.9042)" class="st1" cx="44.1" cy="164.6" rx="12.9" ry="12.9"/>
					<ellipse transform="matrix(0.7749 -0.632 0.632 0.7749 -80.5308 62.8556)" class="st1" cx="48" cy="144.5" rx="5.5" ry="5.4"/>
					
						<ellipse transform="matrix(0.7749 -0.632 0.632 0.7749 -81.8234 72.3268)" class="st1" cx="60.6" cy="151.1" rx="5.4" ry="5.4"/>
					
						<ellipse transform="matrix(0.7749 -0.632 0.632 0.7749 -89.1137 78.1585)" class="st1" cx="65.2" cy="164.2" rx="5.4" ry="5.4"/>
					
						<ellipse transform="matrix(0.9997 -2.460666e-02 2.460666e-02 0.9997 -4.4479 2.9117)" class="st1" cx="116.1" cy="182.2" rx="12.9" ry="12.9"/>
					
						<ellipse transform="matrix(0.9997 -2.460666e-02 2.460666e-02 0.9997 -4.1122 3.2854)" class="st1" cx="131.4" cy="168.7" rx="5.4" ry="5.4"/>
					
						<ellipse transform="matrix(0.9997 -2.460666e-02 2.460666e-02 0.9997 -4.4285 3.4369)" class="st1" cx="137.4" cy="181.7" rx="5.4" ry="5.4"/>
					
						<ellipse transform="matrix(0.9997 -2.460666e-02 2.460666e-02 0.9997 -4.7543 3.3308)" class="st1" cx="133" cy="194.8" rx="5.4" ry="5.4"/>
				</g>
				<g class="st3">
					
						<ellipse transform="matrix(0.738 -0.6748 0.6748 0.738 113.3005 586.4213)" class="st1" cx="811.8" cy="147.3" rx="12.8" ry="12.9"/>
					
						<ellipse transform="matrix(0.738 -0.6748 0.6748 0.738 126.8176 580.4482)" class="st1" cx="810.9" cy="126.9" rx="5.5" ry="5.4"/>
					
						<ellipse transform="matrix(0.738 -0.6748 0.6748 0.738 120.1519 572.5688)" class="st1" cx="797.4" cy="131.6" rx="5.5" ry="5.4"/>
					
						<ellipse transform="matrix(0.738 -0.6748 0.6748 0.738 110.1369 571.4747)" class="st1" cx="791" cy="143.9" rx="5.5" ry="5.4"/>
					
						<ellipse transform="matrix(0.738 -0.6748 0.6748 0.738 159.9444 552.5809)" class="st1" cx="791.6" cy="70.3" rx="12.8" ry="12.8"/>
					
						<ellipse transform="matrix(0.738 -0.6748 0.6748 0.738 173.4648 546.6013)" class="st1" cx="790.6" cy="49.9" rx="5.5" ry="5.5"/>
					
						<ellipse transform="matrix(0.738 -0.6748 0.6748 0.738 166.7991 538.722)" class="st1" cx="777.1" cy="54.6" rx="5.5" ry="5.5"/>
					
						<ellipse transform="matrix(0.738 -0.6748 0.6748 0.738 156.7808 537.6343)" class="st1" cx="770.7" cy="66.9" rx="5.5" ry="5.4"/>
					
						<ellipse transform="matrix(0.1697 -0.9855 0.9855 0.1697 519.7651 771.527)" class="st1" cx="717.7" cy="77.3" rx="12.8" ry="12.8"/>
					
						<ellipse transform="matrix(0.1692 -0.9856 0.9856 0.1692 527.9357 743.527)" class="st1" cx="705" cy="58.6" rx="5.5" ry="5.5"/>
					
						<ellipse transform="matrix(0.1697 -0.9855 0.9855 0.1697 505.874 747.7808)" class="st1" cx="696.7" cy="73.7" rx="5.5" ry="5.4"/>
					
						<ellipse transform="matrix(0.1697 -0.9855 0.9855 0.1697 494.4631 761.6196)" class="st1" cx="699.2" cy="87.4" rx="5.5" ry="5.4"/>
					
						<ellipse transform="matrix(0.1697 -0.9855 0.9855 0.1697 525.5684 665.7882)" class="st1" cx="657.9" cy="21" rx="12.8" ry="12.9"/>
					
						<ellipse transform="matrix(0.1697 -0.9855 0.9855 0.1697 529.9058 639.8383)" class="st1" cx="644.7" cy="5.4" rx="5.5" ry="5.4"/>
					
						<ellipse transform="matrix(0.1697 -0.9855 0.9855 0.1697 511.6773 642.0419)" class="st1" cx="636.9" cy="17.4" rx="5.5" ry="5.4"/>
					
						<ellipse transform="matrix(0.1697 -0.9855 0.9855 0.1697 500.2682 655.8794)" class="st1" cx="639.4" cy="31.1" rx="5.5" ry="5.4"/>
					
						<ellipse transform="matrix(0.4064 -0.9137 0.9137 0.4064 392.0059 1020.5853)" class="st1" cx="981.5" cy="208.6" rx="12.8" ry="12.9"/>
					
						<ellipse transform="matrix(0.4064 -0.9137 0.9137 0.4064 375.2568 1005.9391)" class="st1" cx="961.8" cy="214.2" rx="5.5" ry="5.4"/>
					
						<ellipse transform="matrix(0.4064 -0.9137 0.9137 0.4064 388.3592 997.6167)" class="st1" cx="962" cy="199.9" rx="5.5" ry="5.4"/>
					
						<ellipse transform="matrix(0.4064 -0.9137 0.9137 0.4064 403.2466 1000.537)" class="st1" cx="971.7" cy="189.9" rx="5.5" ry="5.4"/>
					
						<ellipse transform="matrix(0.4064 -0.9137 0.9137 0.4064 340.1302 951.0614)" class="st1" cx="902" cy="213.8" rx="12.8" ry="12.9"/>
					
						<ellipse transform="matrix(0.4064 -0.9137 0.9137 0.4064 323.3719 936.4211)" class="st1" cx="882.4" cy="219.3" rx="5.5" ry="5.4"/>
					
						<ellipse transform="matrix(0.4064 -0.9137 0.9137 0.4064 336.4726 928.088)" class="st1" cx="882.5" cy="205.1" rx="5.5" ry="5.4"/>
					
						<ellipse transform="matrix(0.4064 -0.9137 0.9137 0.4064 351.3618 931.0191)" class="st1" cx="892.2" cy="195.1" rx="5.5" ry="5.4"/>
					
						<ellipse transform="matrix(0.8811 -0.473 0.473 0.8811 38.3328 435.5932)" class="st1" cx="885.3" cy="141.6" rx="12.8" ry="12.9"/>
					
						<ellipse transform="matrix(0.8811 -0.473 0.473 0.8811 39.6948 425.7249)" class="st1" cx="866.4" cy="133.9" rx="5.5" ry="5.4"/>
					
						<ellipse transform="matrix(0.8811 -0.473 0.473 0.8811 46.0354 428.5764)" class="st1" cx="875.2" cy="122.8" rx="5.5" ry="5.4"/>
					
						<ellipse transform="matrix(0.8811 -0.473 0.473 0.8811 48.5996 434.8638)" class="st1" cx="889" cy="120.8" rx="5.5" ry="5.4"/>
				</g>
				<line class="st4" x1="502.5" y1="20.8" x2="502.5" y2="28.8"/>
				<line class="st4" x1="516.6" y1="34.7" x2="508.6" y2="34.7"/>
				<line class="st4" x1="502.6" y1="48.8" x2="502.6" y2="40.8"/>
				<line class="st4" x1="488.6" y1="34.8" x2="496.6" y2="34.8"/>
				<line class="st4" x1="321.2" y1="82.8" x2="321.2" y2="90.8"/>
				<line class="st4" x1="335.2" y1="96.7" x2="327.2" y2="96.7"/>
				<line class="st4" x1="321.3" y1="110.8" x2="321.2" y2="102.8"/>
				<line class="st4" x1="307.2" y1="96.8" x2="315.2" y2="96.8"/>
				<line class="st4" x1="662.1" y1="42.3" x2="662.1" y2="52.3"/>
				<line class="st4" x1="679.6" y1="59.8" x2="669.6" y2="59.8"/>
				<line class="st4" x1="662.2" y1="77.3" x2="662.2" y2="67.3"/>
				<line class="st4" x1="644.6" y1="59.9" x2="654.6" y2="59.8"/>
				<line class="st4" x1="420.1" y1="44" x2="420.1" y2="48.3"/>
				<line class="st4" x1="427.6" y1="51.5" x2="423.3" y2="51.5"/>
				<line class="st4" x1="420.1" y1="59" x2="420.1" y2="54.7"/>
				<line class="st4" x1="412.6" y1="51.5" x2="416.9" y2="51.5"/>
				<line class="st4" x1="568.2" y1="92.6" x2="568.2" y2="98.6"/>
				<line class="st4" x1="578.8" y1="103.1" x2="572.8" y2="103.1"/>
				<line class="st4" x1="568.3" y1="113.6" x2="568.3" y2="107.6"/>
				<line class="st4" x1="557.8" y1="103.1" x2="563.8" y2="103.1"/>
			</g>
			<path class="st5" d="M673.9,142.3c0.8,0,1.5-0.7,1.5-1.5s-0.7-1.5-1.5-1.5s-1.5,0.7-1.5,1.5S673.1,142.3,673.9,142.3z"/>
			<path class="st6" d="M344.2,178c-1.3,10-7.7,31.7,2.3,33s32.5-18.2,33.9-28.2c1.3-10-5.7-19.1-15.7-20.5
				C354.7,161,345.5,168,344.2,178z"/>
			<path class="st7" d="M350.9,189.6c1.7,6.9-5.3,16.6,0.6,15.2s22.3-13.4,20.6-20.3s-7.8-11.4-13.6-10S349.2,182.6,350.9,189.6z"/>
			<path class="st6" d="M460.5,149.9c5.7,8.3,21.3,24.6,13,30.4s-37.3-1.4-43-9.6c-5.7-8.3-3.7-19.6,4.6-25.4
				S454.8,141.6,460.5,149.9z"/>
			<path class="st7" d="M458.1,163.6c1.7,6.9,12.3,12.4,6.5,13.8s-25.9-1.8-27.6-8.7s1.7-13.7,7.5-15.1S456.5,156.7,458.1,163.6z"/>
			
				<ellipse transform="matrix(0.972 -0.235 0.235 0.972 -34.0842 101.5097)" class="st6" cx="408.9" cy="193.8" rx="47.8" ry="47.8"/>
			<ellipse transform="matrix(0.972 -0.235 0.235 0.972 -32.2898 96.369)" class="st7" cx="388.2" cy="183.7" rx="11.9" ry="11.9"/>
			<ellipse transform="matrix(0.972 -0.235 0.235 0.972 -32.2898 96.369)" class="st5" cx="388.2" cy="183.7" rx="9.9" ry="9.9"/>
			
				<ellipse transform="matrix(0.972 -0.235 0.235 0.972 -29.3259 104.3415)" class="st7" cx="423.2" cy="175.2" rx="11.9" ry="11.9"/>
			<ellipse transform="matrix(0.972 -0.235 0.235 0.972 -29.3259 104.3415)" class="st5" cx="423.2" cy="175.2" rx="9.9" ry="9.9"/>
			<ellipse transform="matrix(0.972 -0.235 0.235 0.972 -32.5919 96.4173)" class="st8" cx="388.3" cy="185" rx="3.5" ry="3.5"/>
			<ellipse transform="matrix(0.972 -0.235 0.235 0.972 -29.8086 104.5833)" class="st8" cx="424" cy="177.4" rx="3.5" ry="3.5"/>
			<path class="st8" d="M434.3,187.7l0.6,2.6l0.2,1c0.3,1.1-0.4,2.2-1.4,2.4c0,0,0,0,0,0l-1.5,0.4c-1.1,0.3-2.2-0.4-2.4-1.4
				c0,0,0,0,0,0l-0.2-1l-0.3-1.3c-1.1,0.5-2.2,1-3.3,1.5l0.8,3.1l0.2,1c0.3,1.1-0.4,2.2-1.4,2.4c0,0,0,0,0,0l-1.5,0.4
				c-1.1,0.3-2.2-0.4-2.4-1.4c0,0,0,0,0,0l-0.2-1l-0.6-2.4c-2.8,1-5.5,1.8-8.2,2.5l0.7,2.9l0.2,1c0.3,1.1-0.4,2.2-1.4,2.4
				c0,0,0,0,0,0l-1.5,0.4c-1.1,0.3-2.2-0.4-2.4-1.4c0,0,0,0,0,0l-0.2-1l-0.7-2.9c-2.6,0.5-5.1,0.9-7.5,1.2l0.6,2.6l0.2,1
				c0.3,1.1-0.4,2.2-1.4,2.4c0,0,0,0,0,0l-1.5,0.4c-1.1,0.3-2.2-0.4-2.4-1.4c0,0,0,0,0,0l-0.2-1l-0.8-3.4c-1.1,0.1-2.1,0.1-3.1,0.1
				l0.2,1l0.2,1c0.3,1.1-0.4,2.2-1.4,2.4c0,0,0,0,0,0l-1.5,0.4c-1.1,0.3-2.2-0.4-2.4-1.4c0,0,0,0,0,0l-0.2-1l-0.5-2.3
				c-2.1-0.1-3.9-0.2-5.4-0.3c-1.7-0.2-3.2,1.1-3.4,2.8c-0.1,0.7,0.1,1.4,0.5,2c4.1,6.6,10.5,11.4,17.9,13.7
				c3.1-4.1,9.9-7.9,18.2-9.9c8.7-2.1,16.8-1.6,21.3,0.8c7.7-7.7,9.6-17.5,10-23c0.1-1.1-0.7-2.1-1.8-2.2c-0.5-0.1-1,0.1-1.4,0.4
				C438.7,185.1,436.5,186.5,434.3,187.7z"/>
			<path class="st9" d="M394.6,217.6c5.3,1.6,11.9,2.1,20,0.6c8.9-1.7,15.1-5.4,19.5-9.7c-4.5-2.4-12.6-2.9-21.3-0.8
				C404.5,209.7,397.7,213.5,394.6,217.6z"/>
			<path class="st10" d="M389.5,202.9l-1.5,0.4c-1.1,0.3-2.2-0.4-2.4-1.4c0,0,0,0,0,0l0.2,1c0.2,1.1,1.3,1.7,2.4,1.5c0,0,0,0,0,0
				l1.5-0.4c1.1-0.2,1.7-1.3,1.5-2.4c0,0,0,0,0,0l-0.2-1C391.3,201.5,390.6,202.6,389.5,202.9C389.5,202.9,389.5,202.9,389.5,202.9z
				"/>
			<path class="st5" d="M388,203.2l1.5-0.4c1.1-0.2,1.7-1.3,1.5-2.4c0,0,0,0,0,0l-0.2-1c-2.1,0.1-4,0.1-5.7,0l0.5,2.3
				C385.8,202.8,386.9,203.5,388,203.2C388,203.2,388,203.2,388,203.2z"/>
			<path class="st10" d="M398.6,203.8l-1.5,0.4c-1.1,0.3-2.2-0.4-2.4-1.4c0,0,0,0,0,0l0.2,1c0.2,1.1,1.3,1.7,2.4,1.5c0,0,0,0,0,0
				l1.5-0.4c1.1-0.2,1.7-1.3,1.5-2.4c0,0,0,0,0,0l-0.2-1C400.4,202.4,399.7,203.5,398.6,203.8C398.6,203.8,398.6,203.8,398.6,203.8z
				"/>
			<path class="st5" d="M397.1,204.1l1.5-0.4c1.1-0.2,1.7-1.3,1.5-2.4c0,0,0,0,0,0l-0.6-2.6c-2,0.2-3.8,0.4-5.6,0.5l0.8,3.4
				C394.9,203.7,396,204.4,397.1,204.1C397.1,204.2,397.1,204.2,397.1,204.1z"/>
			<path class="st10" d="M411.6,201.7l-1.5,0.4c-1.1,0.3-2.2-0.4-2.4-1.4c0,0,0,0,0,0l0.2,1c0.2,1.1,1.3,1.7,2.4,1.5c0,0,0,0,0,0
				l1.5-0.4c1.1-0.2,1.7-1.3,1.5-2.4c0,0,0,0,0,0l-0.2-1C413.4,200.3,412.7,201.4,411.6,201.7C411.6,201.7,411.6,201.7,411.6,201.7z
				"/>
			<path class="st5" d="M410.1,202l1.5-0.4c1.1-0.2,1.7-1.3,1.5-2.4c0,0,0,0,0,0l-0.7-2.9c-1.8,0.5-3.7,0.9-5.4,1.2l0.7,2.9
				C407.9,201.6,409,202.3,410.1,202C410.1,202,410.1,202,410.1,202z"/>
			<path class="st10" d="M425.1,197.4l-1.5,0.4c-1.1,0.3-2.2-0.4-2.4-1.4c0,0,0,0,0,0l0.2,1c0.2,1.1,1.3,1.7,2.4,1.5c0,0,0,0,0,0
				l1.5-0.4c1.1-0.2,1.7-1.3,1.5-2.4c0,0,0,0,0,0l-0.2-1C426.9,196,426.3,197.1,425.1,197.4C425.2,197.4,425.2,197.4,425.1,197.4z"
				/>
			<path class="st5" d="M423.7,197.7l1.5-0.4c1.1-0.2,1.7-1.3,1.5-2.4c0,0,0,0,0,0l-0.8-3.1c-1.8,0.8-3.5,1.4-5.2,2.1l0.6,2.4
				C421.5,197.3,422.6,198,423.7,197.7C423.7,197.7,423.7,197.7,423.7,197.7z"/>
			<path class="st10" d="M433.4,192.8l-1.5,0.4c-1.1,0.3-2.2-0.4-2.4-1.4c0,0,0,0,0,0l0.2,1c0.2,1.1,1.3,1.7,2.4,1.5c0,0,0,0,0,0
				l1.5-0.4c1.1-0.2,1.7-1.3,1.5-2.4c0,0,0,0,0,0l-0.2-1C435.2,191.4,434.5,192.5,433.4,192.8C433.4,192.8,433.4,192.8,433.4,192.8z
				"/>
			<path class="st5" d="M431.9,193.1l1.5-0.4c1.1-0.2,1.7-1.3,1.5-2.4c0,0,0,0,0,0l-0.6-2.6c-1.7,0.9-3.4,1.8-5.1,2.6l0.3,1.3
				C429.7,192.7,430.8,193.4,431.9,193.1C431.9,193.1,431.9,193.1,431.9,193.1z"/>
			<ellipse transform="matrix(0.972 -0.235 0.235 0.972 -31.9741 96.6994)" class="st5" cx="389.8" cy="182.5" rx="2" ry="2"/>
			<ellipse transform="matrix(0.972 -0.235 0.235 0.972 -29.153 104.9778)" class="st5" cx="425.9" cy="174.8" rx="2" ry="2"/>
			<path class="st11" d="M398.5,183.5l16.4-4c4.7-1.1,9.4,1.8,10.6,6.5l0.4,1.7c1.1,4.7-1.8,9.4-6.5,10.6l-16.4,4
				c-4.7,1.1-9.4-1.8-10.6-6.5l-0.4-1.7C390.9,189.4,393.8,184.7,398.5,183.5z"/>
			<path class="st9" d="M398.2,182.1l16.4-4c4.7-1.1,9.4,1.8,10.6,6.5l0.4,1.7c1.1,4.7-1.8,9.4-6.5,10.6l-16.4,4
				c-4.7,1.1-9.4-1.8-10.6-6.5l-0.4-1.7C390.6,187.9,393.5,183.2,398.2,182.1z"/>
			<path class="st8" d="M415.7,183.5l0.7-0.2c2-0.5,4,0.7,4.5,2.7l0.2,0.7c0.5,2-0.7,4-2.7,4.5l-0.7,0.2c-2,0.5-4-0.7-4.5-2.7
				L413,188C412.5,186,413.7,184,415.7,183.5z"/>
			<path class="st8" d="M399,187.6l0.7-0.2c2-0.5,4,0.7,4.5,2.7l0.2,0.7c0.5,2-0.7,4-2.7,4.5l-0.7,0.2c-2,0.5-4-0.7-4.5-2.7
				l-0.2-0.7C395.8,190.1,397,188.1,399,187.6z"/>
			<path class="st12" d="M400.5,228.9c0,0,20.1,7.6,32.5-7.9"/>
			<path class="st13" d="M553.9,120.7l14.7,1.1c3.3,0.3,6.4,1.9,8.5,4.4l33.9,41.4c3.6,4.4,3.7,10.7,0.2,15.2l-26,33.9
				c-2.5,3.3-6.5,5.1-10.6,4.7l-12.5,8.2c-3.1,2.1-7.2,1.8-10.1-0.6l-12.4-10.4c-3.9-0.3-7.4-2.4-9.4-5.7l-24-38.5
				c-3.1-4.9-2.3-11.2,1.9-15.3l36.4-35.2C547,121.6,550.5,120.4,553.9,120.7z"/>
			<path class="st14" d="M576.4,162.7c0.9-0.6,1.7-1.2,2.4-1.7c1.2-0.6,2.3-1.5,3.1-2.6l0,0l0,0c3-3.7,2.4-9.1-1.3-12.1
				c-3.7-3-9.1-2.4-12.1,1.3c-0.2,0.3-0.4,0.6-0.6,0.9l0,0c-7.5,3.7-14.3-1.1-14.3-1.1l0,0c-2-4.3-7.1-6.1-11.4-4.1
				c-4,1.9-5.9,6.5-4.4,10.6l0,0c0.6,1.7,1.8,3.2,3.3,4.3c0.6,0.7,1.2,1.3,1.8,1.9c-3.7,0.3-6.5,3.5-6.2,7.3c0.3,3.3,2.9,6,6.2,6.2
				l31.7,2.4c3.7,0.3,7-2.5,7.3-6.2C581.9,166.4,579.7,163.4,576.4,162.7L576.4,162.7z"/>
			
				<ellipse transform="matrix(7.741512e-02 -0.997 0.997 7.741512e-02 372.4876 713.997)" class="st5" cx="572" cy="155.7" rx="6.5" ry="6.5"/>
			
				<ellipse transform="matrix(7.741512e-02 -0.997 0.997 7.741512e-02 339.6626 719.2335)" class="st15" cx="558.5" cy="176.1" rx="17.4" ry="12.8"/>
			
				<ellipse transform="matrix(7.741512e-02 -0.997 0.997 7.741512e-02 371.9993 713.9448)" class="st14" cx="571.8" cy="156" rx="1.6" ry="1.6"/>
			
				<ellipse transform="matrix(7.741512e-02 -0.997 0.997 7.741512e-02 353.6386 690.1459)" class="st5" cx="549.7" cy="154" rx="6.5" ry="6.5"/>
			
				<ellipse transform="matrix(7.741512e-02 -0.997 0.997 7.741512e-02 353.5856 690.6534)" class="st14" cx="550" cy="154.3" rx="1.6" ry="1.6"/>
			<path class="st15" d="M569.3,205.8c1-2.3,1.5-4.7,1.7-7.1c0.8-9.7-4.7-18.1-12.1-18.7s-14.1,6.9-14.9,16.6
				c-0.2,2.8,0.1,5.7,0.9,8.4C549.1,207.9,558.1,212.1,569.3,205.8z"/>
			<path class="st15" d="M544.8,207.1c1.8,5.8,6,9.9,11.2,10.3c5.5,0.4,10.5-3.5,13.1-9.5C558,214.2,549,209.9,544.8,207.1z"/>
			<path class="st16" d="M558.4,152.9l-5.9,36.1c0,0-8.9-12.7-13.7-5.2s17.6,22.2,17.6,22.2s33.9-13.6,13.5-19.3
				c0,0-3.6-0.3-7.2,4.7l0.3-38.1L558.4,152.9z"/>
			<path class="st8" d="M549.1,190c0,2.3,2.9,7.2,1.2,7.3s-7.4-4.9-7.4-7.1s1.3-4.2,3-4.2S549.1,187.7,549.1,190z"/>
			<path class="st8" d="M565.4,192.8c-1.1,2-5.9,5.1-4.3,5.9s8.8-1,9.9-3s0.7-4.3-0.8-5.1S566.5,190.8,565.4,192.8z"/>
			<path class="st17" d="M377.5,242.8"/>
			<path class="st18" d="M374.3,258.6c0,0,4.1-16.8-2-28.2l-6.6-1.5l4.3-8.1c0,0-5.8-20.6-22.1-29.5c0,0-7.4,20.6-2.2,35.9l6.1,3.7
				l-3.5,5.2c0,0-8.5,4.8,6.4,28.3L374.3,258.6z"/>
			<path class="st18" d="M381.6,267.3c0,0-9-30.6-29.1-43.1l-12,3.7l-0.7-16.9c0,0-28.2-27.6-62.4-26.5c0,0,7.2,39.5,29.4,59.1
				l13.2,0.3l-0.9,11.5c0,0-9.1,15.4,36.2,39.2L381.6,267.3z"/>
			<path class="st19" d="M372.6,264.2c0,0-9.3-24.9-26.2-36.2l-9.4,2.1l-1.7-13.5c0,0-24.5-23.8-51.8-25.3c0,0,8.4,31.9,27.6,49.1
				l10.6,1.1v9.1c0,0-6.3,11.7,31.6,33.6L372.6,264.2z"/>
			<path class="st18" d="M602.2,228.2c0,0-8.4-15.2-5.5-27.7l6-3.2l-6.3-6.7c0,0,0.2-21.4,13.6-34.2c0,0,12.5,17.9,11.6,34l-5,5.2
				l4.8,4.1c0,0,9.5,2.4,1.3,29L602.2,228.2z"/>
			<path class="st18" d="M597.4,238.5c0,0,0.7-31.9,16.8-49.2l12.5,0.4l-3.8-16.5c0,0,20-34,53.2-42c0,0,3.4,40-12.9,64.8l-12.7,3.8
				l3.9,10.9c0,0,12.9,12.5-24.7,47.4L597.4,238.5z"/>
			<path class="st19" d="M605.2,233.1c0,0,2.4-26.5,15.8-41.8l9.6-0.4l-2-13.5c0,0,17.3-29.4,43.3-38c0,0,0.3,33-13.8,54.6l-10,3.9
				l2.3,8.8c0,0,9.2,9.6-21.7,40.7L605.2,233.1z"/>
			<path class="st17" d="M382.3,235.5"/>
			<path class="st1" d="M353.6,269.7l-0.7-60.1l26.7-3.2l-0.4,11.3l-15.3-0.2l-0.2,19.1l12.8-0.9l0.6,11.4l-13-0.4l-0.9,14.5
				l18.8-0.5l-1.1,9.8L353.6,269.7z"/>
			<path class="st1" d="M415.3,267.1l-10.6-20.2l-11.1,19.3c-0.5,1-7.4-6.8-7.4-6.8l13.6-22.1l-13.5-25.7l9.6-3.3l10,18.8l10.7-17.2
				l6.1,5.6l-12,20.7l15,28L415.3,267.1z"/>
			<path class="st1" d="M432.9,200.3h16.2c0,0,17.2,1,15,17.1s-16.6,15.4-21.7,15l-0.9,31.4l-11.9,1.8L432.9,200.3z M454.8,216.2
				c0.1-6.2-10.9-6.3-10.9-6.3l-0.7,11.6C443.1,221.4,454.7,222.4,454.8,216.2z"/>
			<path class="st1" d="M481.9,242c-1.1,0.2-2.1,0.4-3,0.5l0.2,26.3l-12.4-1l1.9-63.4l10.8-1.3c10.7-1.3,20,5.9,20.5,17
				c0.3,7.4-2.4,13.5-7.8,17.5l11.3,23.7L493,268L481.9,242z M478.8,226.5c1.7,0.3,10.1,1.3,10.6-5c0.6-9.2-6.3-7-9.7-6.5l-0.9,8.7
				L478.8,226.5z"/>
			<path class="st1" d="M508.6,271.5l-0.7-60.1l26.7-3.2l-0.4,11.3l-15.3-0.2l-0.2,19.1l12.8-0.9l0.6,11.4l-13-0.4l-0.9,14.5
				l18.8-0.5l-1.1,9.8L508.6,271.5z"/>
			<path class="st1" d="M540,260.7l4.1-11.1c0,0,9.2,8.4,14.6,8s8.5-5,7.4-10.5c-2.2-11.7-21.2-12.6-21-23.6s7.9-18,14-18.2
				c9.7-0.4,14.8,4.6,14.8,4.6c-0.5,0.7-3.4,6.6-3.4,6.6s-10.2-3.8-12,4.9c-2.4,11.6,20.5,10.7,20.7,26.4
				c0.3,17.7-14.1,22.4-20.9,21.7S540,260.7,540,260.7z"/>
			<path class="st1" d="M581.1,261.2l4.1-11.1c0,0,9.2,8.4,14.6,8s8.5-5,7.4-10.5c-2.2-11.7-21.2-12.6-21-23.6s7.9-18,14-18.2
				c9.7-0.4,14.7,4.5,14.7,4.5c-0.5,0.7-3.4,6.6-3.4,6.6s-10.2-3.8-12,4.9c-2.4,11.6,20.5,10.7,20.7,26.4
				c0.3,17.7-14.1,22.4-20.9,21.7S581.1,261.2,581.1,261.2z"/>
			<path class="st5" d="M353.6,264.7l-0.7-60.1l26.7-3.2l-0.4,11.3l-15.3-0.2l-0.2,19.1l12.8-0.9l0.6,11.4l-13-0.4l-0.9,14.5
				l18.8-0.5l-1.1,9.8L353.6,264.7z"/>
			<path class="st5" d="M415.4,262.1l-10.6-20.2l-11.1,19.3c-0.5,1-7.4-6.8-7.4-6.8l13.6-22.1l-13.5-25.7l9.6-3.3l10,18.8l10.7-17.2
				l6.1,5.6l-12,20.7l15,28L415.4,262.1z"/>
			<path class="st5" d="M432.9,195.3h16.2c0,0,17.2,1,15,17.1s-16.6,15.4-21.7,15l-0.9,31.4l-11.9,1.8L432.9,195.3z M454.8,211.2
				c0.1-6.2-10.9-6.3-10.9-6.3l-0.7,11.6C443.2,216.4,454.8,217.4,454.8,211.2z"/>
			<path class="st5" d="M481.9,237c-1.1,0.2-2.1,0.4-3,0.5l0.2,26.3l-12.4-1l1.9-63.4l10.8-1.3c10.7-1.3,20,5.9,20.5,17
				c0.3,7.4-2.4,13.5-7.8,17.5l11.3,23.7l-10.3,6.6L481.9,237z M478.8,221.5c1.7,0.3,10.1,1.3,10.6-5c0.6-9.2-6.3-7-9.7-6.5
				l-0.9,8.7L478.8,221.5z"/>
			<path class="st5" d="M508.7,266.5l-0.7-60.1l26.7-3.2l-0.4,11.3l-15.3-0.2l-0.2,19.1l12.8-0.9l0.6,11.4l-13-0.4l-0.9,14.5
				l18.8-0.5l-1.1,9.8L508.7,266.5z"/>
			<path class="st5" d="M540.1,255.7l4.1-11.1c0,0,9.2,8.4,14.6,8s8.5-5,7.4-10.5c-2.2-11.7-21.2-12.6-21-23.6s7.9-18,14-18.2
				c9.7-0.4,14.7,4.5,14.7,4.5c-0.5,0.7-3.4,6.6-3.4,6.6s-10.2-3.8-12,4.9c-2.4,11.6,20.5,10.7,20.7,26.4
				c0.3,17.7-14.1,22.4-20.9,21.7S540.1,255.7,540.1,255.7z"/>
			<path class="st5" d="M581.2,256.2l4.1-11.1c0,0,9.2,8.4,14.6,8s8.5-5,7.4-10.5c-2.2-11.7-21.2-12.6-21-23.6s7.9-18,14-18.2
				c9.7-0.4,14.8,4.6,14.8,4.6c-0.5,0.7-3.4,6.6-3.4,6.6s-10.2-3.8-12,4.9c-2.4,11.6,20.5,10.7,20.7,26.4
				c0.3,17.7-14.1,22.4-20.9,21.8S581.2,256.2,581.2,256.2z"/>
			<path class="st1" d="M281.9,328.1l12.8-0.4c0.1,1.5,2.2,9.9,10.5,10.4c1.5,0,3-0.6,4-1.8c5-4.8,8.2-16.7,10.2-29.8
				c-4.9,2.7-10.6,3.7-16.1,2.9c-5.2-0.4-9.8-3.4-12.4-7.9c-6.7-11.5-0.1-29.4,2.2-34.6c1.1-2.8,1.3-4.4,1.2-5.3l-1.2,0.5
				c-1.6,1.1-2.6,2.8-2.8,4.7l-12.5-2.5c1.5-7.5,6.5-13.2,13.1-15c4.7-1.4,9.7,0,13,3.6c2.3,2.7,5.3,8.5,1,18.9
				c-4.6,10.8-5,19.8-2.9,23.3c0.4,0.8,1.1,1.4,2.9,1.7c4.3,0.5,7.6-0.5,10.2-2.8c5.3-4.9,6.6-15.5,6.6-20.5v-1.5l12.8-0.3v2.5
				c0,9.2-0.6,18.3-1.6,27.4c-2.5,22.3-7.2,36.7-14.8,43.8c-3.3,3.4-7.9,5.4-12.7,5.4h-0.7C289.6,350,282.2,336.7,281.9,328.1z"/>
			<path class="st1" d="M337.7,330.7c0.5-16.6,9.2-26,18.1-28.5c2.5-3.6,6.4-5.9,10.8-6.4c7.8-0.6,15.3,4.9,18.6,13.5
				c2,6.5,2.5,13.4,1.3,20.1c5.3,0.1,9.7-2.8,12.8-7.1l11.2,6.2c-6.4,10.9-14.4,12.9-26.2,12.7c-3.4,10.7-13.5,18-24.8,17.7
				C344,358.9,337.2,346.1,337.7,330.7z M368.8,342c0.5-0.6,1-1.2,1.4-1.8c-1.3-0.3-2.6-0.6-3.9-1c-8-2.5-13.1-8.6-14.2-17
				c-1,2.8-1.6,5.7-1.6,8.7c-0.2,6.9,2,14.6,7.6,15.4C362.1,347,366.3,345.4,368.8,342z M373.1,313.6c-1.4-3.5-3.8-5-5.2-5h-0.3
				c-1.2,0.1-2.4,2-2.8,5c-1.9,11.2,3.3,12.9,5.2,13.6c1.4,0.3,2.7,0.5,4.1,0.6C374.8,322.7,374.5,317.4,373.1,313.6L373.1,313.6z"
				/>
			<path class="st1" d="M435.8,334.5c-4.4,5.2-8.6,8.6-12.9,10.4c-4.5,1.9-9.7,1.7-14-0.6c-5.1-2.6-8.9-7.3-10.2-12.9
				c-4.6-17.2,10.8-41.8,12.6-44.5l5.2,3.4l6.8,3.5c-5.5,8.5-16.2,34.5-9,37.8c9.1,4.1,14.1-5.7,23.5-24.3
				c3.5-7.3,6.5-14.5,8.1-18.8c0.7-1.9,1.3-3.5,1.7-4.4l12,4.3c-0.1,0.1-0.7,1.9-1.7,4.7c-6,16.7-14.1,46.1-3.6,46.3
				c6.9,0.1,11.9-9.4,15.7-16.2l11.2,6.2c-0.6,1-11,25-28.9,24.8C440.2,354.1,436.1,346.2,435.8,334.5z"/>
			<path class="st1" d="M486,347c-4.6-9.6,3.1-25.5,8.7-35l-7-3c0,0-3.4,14.9-6.6,20.5l-11.1-6.2c4-6.6,9.4-31.2,9.4-31.2l34.2,14.7
				l-4.2,6.2c-2.9,4.4-5.6,9-7.9,13.8c-5.5,11.7-5.6,15.3-1.6,15.4c5,0.1,12.9-13.3,15.8-18.3l11.1,6.2
				c-7.8,13.8-17.9,24.9-27.1,24.8C492.6,354.7,488.5,352.2,486,347z"/>
			<path class="st1" d="M526.2,341.8l11.4-5.7c1.9,3.9,5.8,6.4,10.2,6.5c4,0.2,7.9-1.4,9.8-4.3c4.7-7.6,1.8-12-6.9-22.4
				c-3.5-3.9-6.7-8.1-9.4-12.6c-4.8,9-10.8,20.3-14.5,26.7l-11.2-6.2c6.7-11,21.4-40.5,21.7-40.8l12,3.2c-0.4,8,5.1,14.6,11,21.5
				c8.2,9.4,18.2,21.3,8,37.4c-4.1,6.5-11.8,10.4-20.1,10.3h-1.1C538.2,355,530.2,349.8,526.2,341.8z"/>
			<path class="st1" d="M593.7,355c-11-3.5-16.6-13.5-15.3-27.9c1.1-12.2,7.3-22,16.5-26.4c5.6-2.6,11.1-2.6,15.1,0
				c5.1,3.3,7.7,9.4,6.6,15.4c-1.6,9.5-10.8,17.5-24.7,21.9c1,2.4,3,4.2,5.5,4.9c9.1,2.7,24.8-10.5,28.6-17.7l11.3,6
				c-6,11-22.8,25.1-36.1,25C598.7,356.1,596.2,355.7,593.7,355z M604,313.9c0.2-0.9-0.1-1.9-0.8-2.5h-0.1c-1.7,0.2-3.4,0.9-4.7,2
				c-2,1.4-5.2,4.6-6.7,11C599.4,321.3,603.4,317.1,604,313.9z"/>
			<path class="st1" d="M626.8,346.2c-4.8-13.5,0.6-39,3.2-49.2c3.9-15.8,10.8-35.6,18.4-44c4.4-4.9,8.5-5.2,11.2-4.6
				c4.8,1.2,8.3,4.7,9.6,10c4.4,17.7-16.4,57.6-31.7,73c-0.1,9.1,1.1,12.2,4.6,12.3c7.8,0.1,15.4-13,18.2-18.1l11.2,6.2
				c-6.4,11.6-16.5,24.9-29.8,24.8C634,356.4,629.3,353.7,626.8,346.2z M650,288.9c6.3-14.2,7.5-22.9,7.1-26.5
				c-4.5,5.9-11.8,24.1-16,43.5C644.1,300.6,647.2,294.7,650,288.9z"/>
			<path class="st1" d="M715.5,331.7c-6.7,13.2-17.3,20.7-29.9,20.6c-6.3-0.1-12.3-2.4-17-6.6c-5.2,25.5-7.4,47.8-7.5,48l-12.6-1.3
				c2.4-21.5,6.1-42.9,10.9-64.1c11-45.9,24.8-68.1,42.4-67.9c3.7,0.1,6.8,2.9,7.3,6.6c1.4,7.8-7,25.4-12.1,34.5
				c-5,8.7-14,23-25,30.1c2.6,3.9,7.8,8.4,13.8,8.5c9,0.1,13.8-5.9,18.3-14.2L715.5,331.7z M678.6,307c6.6-9.4,11.9-19.6,15.9-30.3
				C690.3,280.8,684.5,289.2,678.6,307z"/>
			<path class="st18" d="M283.9,321.1l12.8-0.4c0.1,1.5,2.2,9.9,10.5,10.4c1.5,0,3-0.6,4-1.8c5-4.8,8.2-16.7,10.2-29.8
				c-4.9,2.7-10.6,3.7-16.1,2.9c-5.2-0.5-9.8-3.4-12.3-7.9c-6.7-11.5-0.1-29.4,2.2-34.6c1.1-2.8,1.3-4.4,1.2-5.3l-1.2,0.5
				c-1.6,1.1-2.6,2.8-2.8,4.7l-12.5-2.5c1.5-7.5,6.5-13.2,13.1-15c4.7-1.4,9.7,0,13,3.6c2.3,2.7,5.3,8.5,1,18.9
				c-4.6,10.8-5,19.8-2.9,23.3c0.4,0.8,1.1,1.4,2.9,1.7c4.3,0.5,7.6-0.5,10.2-2.8c5.3-4.9,6.6-15.5,6.6-20.5v-1.5l12.8-0.3v2.5
				c0,9.2-0.6,18.3-1.6,27.4c-2.5,22.3-7.2,36.7-14.8,43.8c-3.3,3.4-7.9,5.4-12.7,5.4h-0.7C291.7,343,284.2,329.7,283.9,321.1z"/>
			<path class="st18" d="M339.8,323.7c0.5-16.6,9.2-26,18.1-28.5c2.5-3.6,6.4-5.9,10.8-6.4c7.8-0.6,15.3,4.9,18.6,13.5
				c2,6.5,2.5,13.4,1.3,20.1c5.3,0.1,9.7-2.8,12.8-7.1l11.2,6.2c-6.4,10.9-14.4,12.9-26.2,12.7c-3.4,10.7-13.5,18-24.8,17.7
				C346.1,352,339.3,339.1,339.8,323.7z M370.9,335c0.5-0.6,1-1.2,1.4-1.8c-1.3-0.3-2.6-0.6-3.9-1c-8-2.5-13.1-8.6-14.2-17
				c-1,2.8-1.6,5.7-1.6,8.7c-0.2,6.9,2,14.6,7.6,15.4C364.2,340,368.4,338.4,370.9,335z M375.2,306.6c-1.4-3.5-3.8-5-5.2-5h-0.3
				c-1.2,0.1-2.4,2-2.8,5c-1.9,11.2,3.3,12.9,5.2,13.6c1.4,0.3,2.7,0.5,4.1,0.6C376.9,315.7,376.6,310.4,375.2,306.6L375.2,306.6z"
				/>
			<path class="st18" d="M437.9,327.5c-4.4,5.2-8.6,8.6-12.9,10.4c-4.5,1.9-9.7,1.7-14-0.6c-5.1-2.6-8.9-7.3-10.2-12.9
				c-4.6-17.2,10.8-41.8,12.6-44.5l5.2,3.4l6.8,3.5c-5.5,8.5-16.2,34.5-9,37.8c9.1,4.1,14.1-5.7,23.5-24.3
				c3.5-7.3,6.5-14.5,8.1-18.8c0.7-1.9,1.3-3.5,1.7-4.4l12,4.3c-0.1,0.1-0.7,1.9-1.7,4.7c-6,16.7-14.1,46.1-3.6,46.3
				c6.9,0.1,11.9-9.4,15.7-16.2l11.2,6.2c-0.6,1-11,25-28.9,24.8C442.3,347.1,438.2,339.2,437.9,327.5z"/>
			<path class="st18" d="M488.1,340c-4.6-9.6,3.1-25.5,8.7-35l-7-3c0,0-3.4,14.9-6.6,20.5l-11.2-6.2c4-6.6,9.4-31.2,9.4-31.2
				l34.2,14.7l-4.2,6.2c-2.9,4.4-5.6,9-7.9,13.8c-5.5,11.7-5.6,15.3-1.6,15.4c5,0.1,12.9-13.3,15.8-18.3l11.2,6.2
				c-7.8,13.8-17.9,25-27,24.8C494.7,347.8,490.5,345.2,488.1,340z"/>
			<path class="st18" d="M528.3,334.8l11.4-5.7c1.9,3.9,5.8,6.4,10.2,6.5c4,0.2,7.9-1.4,9.8-4.3c4.7-7.6,1.8-12-6.9-22.4
				c-3.5-3.9-6.7-8.1-9.4-12.6c-4.8,9-10.8,20.3-14.5,26.7l-11.2-6.2c6.7-11,21.4-40.5,21.7-40.8l12,3.2c-0.4,8,5.1,14.6,11,21.5
				c8.2,9.4,18.2,21.3,8,37.4c-4.1,6.5-11.8,10.4-20.1,10.3h-1.1C540.2,348,532.2,342.8,528.3,334.8z"/>
			<path class="st18" d="M595.8,348c-11-3.5-16.6-13.5-15.3-27.9c1.1-12.2,7.3-22,16.5-26.4c5.6-2.6,11.1-2.6,15.1,0
				c5.1,3.3,7.7,9.4,6.6,15.4c-1.6,9.5-10.8,17.5-24.7,21.9c1,2.4,3,4.2,5.5,4.9c9.1,2.7,24.8-10.5,28.6-17.7l11.3,6
				c-6,11-22.8,25.1-36.1,25C600.8,349.1,598.3,348.7,595.8,348z M606.1,306.9c0.2-0.9-0.1-1.9-0.8-2.5h-0.1c-1.7,0.2-3.4,0.9-4.7,2
				c-2,1.4-5.2,4.6-6.7,11C601.5,314.4,605.5,310.1,606.1,306.9L606.1,306.9z"/>
			<path class="st18" d="M628.9,339.2c-4.8-13.5,0.6-39,3.2-49.2c3.9-15.8,10.8-35.6,18.4-44c4.4-4.9,8.5-5.2,11.2-4.6
				c4.8,1.2,8.3,4.7,9.6,10c4.4,17.7-16.4,57.6-31.7,73c-0.1,9.1,1.1,12.2,4.6,12.3c7.8,0.1,15.4-13,18.2-18.1l11.2,6.2
				c-6.4,11.6-16.5,24.9-29.8,24.8C636.1,349.4,631.4,346.8,628.9,339.2z M652,282c6.3-14.2,7.5-22.9,7.1-26.5
				c-4.5,5.9-11.8,24.1-16,43.5C646.2,293.7,649.3,287.8,652,282z"/>
			<path class="st18" d="M717.5,324.8c-6.7,13.2-17.3,20.7-29.9,20.6c-6.3-0.1-12.3-2.4-17-6.6c-5.2,25.5-7.4,47.8-7.5,48l-12.6-1.3
				c2.4-21.5,6.1-42.9,10.9-64.1c11-45.9,24.8-68.1,42.4-67.9c3.7,0.1,6.8,2.9,7.3,6.6c1.4,7.8-7,25.4-12.1,34.5
				c-5,8.7-14,23-25,30.1c2.6,3.9,7.8,8.4,13.8,8.5c9,0.1,13.8-5.9,18.3-14.2L717.5,324.8z M680.7,300c6.6-9.4,11.9-19.6,15.9-30.3
				C692.3,273.8,686.6,282.2,680.7,300z"/>
		</g>
	</g>
</g>
</svg>
