<?xml version="1.0" encoding="utf-8"?>
<!-- Generator: Adobe Illustrator 21.0.0, SVG Export Plug-In . SVG Version: 6.00 Build 0)  -->
<!DOCTYPE svg PUBLIC "-//W3C//DTD SVG 1.1//EN" "http://www.w3.org/Graphics/SVG/1.1/DTD/svg11.dtd">
<svg version="1.1" id="Layer_1" xmlns="http://www.w3.org/2000/svg" xmlns:xlink="http://www.w3.org/1999/xlink" x="0px" y="0px"
	 viewBox="0 0 102.5 102.5" style="enable-background:new 0 0 102.5 102.5;" xml:space="preserve">
<style type="text/css">
	.st0{fill:#AF5933;}
	.st1{fill:#F4A04D;}
	.st2{fill:#58071E;}
	.st3{fill:#964526;}
	.st4{fill:#FFFFFF;}
	.st5{fill:#282828;}
	.st6{fill:#FF6C6C;}
	.st7{fill:#E2E2E2;}
</style>
<title>Asset 27</title>
<g>
	<g id="Layer_2">
		<g id="avatar_keuze">
			<circle class="st0" cx="51.2" cy="51.2" r="51.2"/>
			<path class="st1" d="M46.6,54.6h9.9c3.8,0,6.8,3.1,6.8,6.8v1.9c0,3.8-3.1,6.8-6.8,6.8h-9.9c-3.8,0-6.8-3.1-6.8-6.8v-1.9
				C39.8,57.7,42.8,54.6,46.6,54.6z"/>
			<path class="st2" d="M56.9,53.8c0,2-2.5,5.1-5.7,5.1s-5.7-3.1-5.7-5.1s2.5-3.6,5.7-3.6S56.9,51.8,56.9,53.8z"/>
			<circle class="st3" cx="37.4" cy="55.3" r="3.6"/>
			<circle class="st3" cx="66.2" cy="55.4" r="3.6"/>
			<circle class="st3" cx="59.1" cy="45.6" r="5.8"/>
			<circle class="st4" cx="59.1" cy="45.6" r="4.3"/>
			<circle class="st5" cx="59" cy="45.8" r="1.6"/>
			<circle class="st4" cx="59.8" cy="44.9" r="0.9"/>
			<circle class="st3" cx="44.2" cy="45.6" r="5.8"/>
			<circle class="st4" cx="44.2" cy="45.6" r="4.3"/>
			<circle class="st5" cx="44.1" cy="45.8" r="1.6"/>
			<circle class="st4" cx="45" cy="44.9" r="0.9"/>
			<path class="st5" d="M58.2,59.9v1c0,0.3-0.2,0.5-0.5,0.5l0,0h-0.4c-0.3,0-0.5-0.2-0.5-0.5l0,0v-0.6l-0.9,0.2v1.1
				c0,0.3-0.2,0.5-0.5,0.5l0,0h-0.4c-0.3,0-0.5-0.2-0.5-0.5l0,0v-0.9c-0.8,0.1-1.5,0.1-2.3,0.1v1c0,0.3-0.2,0.5-0.5,0.5l0,0H51
				c-0.3,0-0.5-0.2-0.5-0.5l0,0v-1.1c-0.7,0-1.4-0.1-2-0.2v1c0,0.3-0.2,0.5-0.5,0.5l0,0h-0.4c-0.3,0-0.5-0.2-0.5-0.5l0,0v-1.2
				l-0.8-0.2v0.5c0,0.3-0.2,0.5-0.5,0.5l0,0h-0.4c-0.3,0-0.5-0.2-0.5-0.5l0,0v-0.9c-0.5-0.2-1-0.3-1.4-0.4c-0.4-0.1-0.9,0.1-1.1,0.5
				c-0.1,0.2-0.1,0.4,0,0.5c0.6,2,2,3.6,3.8,4.7c1.6-1,3.5-1.5,5.3-1.4c1.9-0.1,3.9,0.4,5.5,1.5c1.9-1.3,3.3-3.1,4-5.3
				c0.1-0.3-0.1-0.6-0.3-0.7c-0.1,0-0.2,0-0.4,0C59.5,59.6,58.8,59.8,58.2,59.9z"/>
			<path class="st6" d="M46,65.2c1.6,0.9,3.3,1.4,5.1,1.4c2,0.2,3.9-0.3,5.7-1.3c-1.6-1.1-3.5-1.7-5.5-1.5
				C49.5,63.7,47.6,64.2,46,65.2z"/>
			<path class="st7" d="M45.6,61.1h-0.4c-0.3,0-0.5-0.2-0.5-0.5l0,0v0.3c0,0.3,0.2,0.5,0.5,0.5l0,0h0.4c0.3,0,0.5-0.2,0.5-0.5l0,0
				v-0.3C46.2,60.8,45.9,61.1,45.6,61.1L45.6,61.1z"/>
			<path class="st4" d="M45.2,61.1h0.4c0.3,0,0.5-0.2,0.5-0.5l0,0v-0.3c-0.5-0.1-1-0.2-1.5-0.4v0.6C44.7,60.8,44.9,61.1,45.2,61.1z"
				/>
			<path class="st7" d="M47.9,61.9h-0.4c-0.3,0-0.5-0.2-0.5-0.5l0,0v0.3c0,0.3,0.2,0.5,0.5,0.5l0,0h0.4c0.3,0,0.5-0.2,0.5-0.5l0,0
				v-0.3C48.5,61.6,48.2,61.9,47.9,61.9L47.9,61.9z"/>
			<path class="st4" d="M47.5,61.9h0.4c0.3,0,0.5-0.2,0.5-0.5l0,0v-0.7c-0.5-0.1-1-0.1-1.5-0.2v0.9C47,61.6,47.2,61.9,47.5,61.9
				L47.5,61.9z"/>
			<path class="st7" d="M51.4,62.2H51c-0.3,0-0.5-0.2-0.5-0.5l0,0v0.3c0,0.3,0.2,0.5,0.5,0.5l0,0h0.4c0.3,0,0.5-0.2,0.5-0.5l0,0
				v-0.3C51.9,61.9,51.7,62.1,51.4,62.2z"/>
			<path class="st4" d="M51,62.2h0.4c0.3,0,0.5-0.2,0.5-0.5l0,0v-0.8c-0.5,0-1,0-1.5,0v0.8C50.5,61.9,50.7,62.2,51,62.2z"/>
			<path class="st7" d="M55.2,61.9h-0.4c-0.3,0-0.5-0.2-0.5-0.5l0,0v0.3c0,0.3,0.2,0.5,0.5,0.5l0,0h0.4c0.3,0,0.5-0.2,0.5-0.5l0,0
				v-0.3C55.7,61.6,55.5,61.9,55.2,61.9L55.2,61.9z"/>
			<path class="st4" d="M54.8,61.9h0.4c0.3,0,0.5-0.2,0.5-0.5l0,0v-0.9c-0.5,0.1-1,0.2-1.5,0.2v0.7C54.3,61.6,54.5,61.9,54.8,61.9z"
				/>
			<path class="st7" d="M57.6,61.2h-0.4c-0.3,0-0.5-0.2-0.5-0.5l0,0v0.3c0,0.3,0.2,0.5,0.5,0.5l0,0h0.4c0.3,0,0.5-0.2,0.5-0.5l0,0
				v-0.3C58.2,61,57.9,61.2,57.6,61.2L57.6,61.2z"/>
			<path class="st4" d="M57.2,61.2h0.4c0.3,0,0.5-0.2,0.5-0.5l0,0v-0.7c-0.5,0.1-1,0.3-1.5,0.4v0.4C56.7,61,56.9,61.2,57.2,61.2z"/>
		</g>
	</g>
</g>
</svg>
