<?xml version="1.0" encoding="utf-8"?>
<!-- Generator: Adobe Illustrator 21.0.0, SVG Export Plug-In . SVG Version: 6.00 Build 0)  -->
<!DOCTYPE svg PUBLIC "-//W3C//DTD SVG 1.1//EN" "http://www.w3.org/Graphics/SVG/1.1/DTD/svg11.dtd">
<svg version="1.1" id="Layer_1" xmlns="http://www.w3.org/2000/svg" xmlns:xlink="http://www.w3.org/1999/xlink" x="0px" y="0px"
	 viewBox="0 0 111.5 111.5" style="enable-background:new 0 0 111.5 111.5;" xml:space="preserve">
<style type="text/css">
	.st0{fill:#58071E;}
	.st1{fill:#FB7936;}
	.st2{fill:#F4A04D;}
	.st3{fill:#E55E23;}
	.st4{fill:#FFFFFF;}
	.st5{fill:#282828;}
	.st6{fill:#FF6C6C;}
	.st7{fill:#E2E2E2;}
</style>
<title>Asset 29</title>
<g>
	<g id="Layer_2">
		<g id="avatar_keuze">
			<circle class="st0" cx="55.8" cy="55.8" r="55.8"/>
			<circle class="st1" cx="55.8" cy="55.8" r="43.2"/>
			<path class="st2" d="M50.3,58.7h10.5c4.5,0,8.1,3.6,8.1,8.1v1.4c0,4.5-3.6,8.1-8.1,8.1H50.3c-4.5,0-8.1-3.6-8.1-8.1v-1.4
				C42.2,62.3,45.8,58.7,50.3,58.7z"/>
			<path class="st0" d="M61.5,57.8c0,2.2-2.9,5.8-6.5,5.8s-6.5-3.5-6.5-5.8s2.9-4.1,6.5-4.1S61.5,55.6,61.5,57.8z"/>
			<circle class="st3" cx="39.5" cy="59.5" r="4.1"/>
			<circle class="st3" cx="72.1" cy="59.6" r="4.1"/>
			<circle class="st3" cx="47.3" cy="48.3" r="6.5"/>
			<circle class="st4" cx="47.3" cy="48.3" r="4.9"/>
			<circle class="st5" cx="47.1" cy="48.5" r="1.8"/>
			<circle class="st4" cx="48.1" cy="47.5" r="1"/>
			<circle class="st3" cx="63" cy="48.3" r="6.5"/>
			<circle class="st4" cx="63" cy="48.3" r="4.9"/>
			<circle class="st5" cx="62.8" cy="48.5" r="1.8"/>
			<circle class="st4" cx="63.8" cy="47.5" r="1"/>
			<path class="st5" d="M63.2,65.2v1.1c0,0.3-0.3,0.6-0.6,0.6l0,0h-0.5c-0.3,0-0.6-0.3-0.6-0.6l0,0v-0.7l-1.1,0.2V67
				c0,0.3-0.3,0.6-0.6,0.6l0,0h-0.4c-0.3,0-0.6-0.3-0.6-0.6l0,0v-1c-0.9,0.1-1.8,0.1-2.6,0.2v1.2c0,0.3-0.3,0.6-0.6,0.6l0,0h-0.5
				c-0.3,0-0.6-0.3-0.6-0.6l0,0v-1.2c-0.8,0-1.6-0.1-2.3-0.2v1.1c0,0.3-0.3,0.6-0.6,0.6l0,0h-0.5c-0.3,0-0.6-0.3-0.6-0.6l0,0v-1.3
				l-0.9-0.2v0.6c0,0.3-0.3,0.6-0.6,0.6l0,0h-0.5c-0.3,0-0.6-0.3-0.6-0.6l0,0v-1c-0.6-0.2-1.1-0.3-1.6-0.5c-0.5-0.2-1,0.1-1.2,0.6
				c-0.1,0.2-0.1,0.4,0,0.6c0.7,2.2,2.3,4.1,4.3,5.3c1.8-1.2,3.9-1.7,6-1.6c2.7,0,5,0.7,6.2,1.7c2.2-1.4,3.8-3.5,4.6-6
				c0.1-0.3-0.1-0.7-0.4-0.8c-0.1,0-0.3,0-0.4,0C64.7,64.7,64,65,63.2,65.2z"/>
			<path class="st6" d="M49.5,71.1c1.8,1,3.8,1.5,5.8,1.6c2.2,0.2,4.5-0.3,6.4-1.5c-1.2-1-3.5-1.7-6.2-1.7
				C53.4,69.4,51.3,70,49.5,71.1z"/>
			<path class="st7" d="M49,66.4h-0.5c-0.3,0-0.6-0.3-0.6-0.6l0,0v0.3c0,0.3,0.3,0.6,0.6,0.6l0,0H49c0.3,0,0.6-0.3,0.6-0.6l0,0v-0.3
				C49.6,66.2,49.3,66.4,49,66.4L49,66.4z"/>
			<path class="st4" d="M48.6,66.4H49c0.3,0,0.6-0.3,0.6-0.6l0,0v-0.3c-0.6-0.1-1.2-0.3-1.7-0.4v0.7C47.9,66.2,48.2,66.4,48.6,66.4
				C48.5,66.4,48.6,66.4,48.6,66.4z"/>
			<path class="st7" d="M51.6,67.4h-0.5c-0.3,0-0.6-0.3-0.6-0.6l0,0v0.3c0,0.3,0.3,0.6,0.6,0.6l0,0h0.5c0.3,0,0.6-0.3,0.6-0.6l0,0
				v-0.3C52.2,67.1,52,67.4,51.6,67.4L51.6,67.4z"/>
			<path class="st4" d="M51.2,67.4h0.5c0.3,0,0.6-0.3,0.6-0.6l0,0V66c-0.6-0.1-1.2-0.2-1.7-0.2v1C50.5,67.1,50.8,67.4,51.2,67.4
				L51.2,67.4z"/>
			<path class="st7" d="M55.6,67.7h-0.5c-0.3,0-0.6-0.3-0.6-0.6l0,0v0.3c0,0.3,0.3,0.6,0.6,0.6l0,0h0.5c0.3,0,0.6-0.3,0.6-0.6l0,0
				v-0.3C56.2,67.4,55.9,67.7,55.6,67.7L55.6,67.7z"/>
			<path class="st4" d="M55.1,67.7h0.5c0.3,0,0.6-0.3,0.6-0.6l0,0v-0.9c-0.6,0-1.1,0-1.7,0v0.9C54.5,67.4,54.8,67.7,55.1,67.7z"/>
			<path class="st7" d="M59.8,67.4h-0.4c-0.3,0-0.6-0.3-0.6-0.6l0,0v0.3c0,0.3,0.3,0.6,0.6,0.6l0,0h0.5c0.3,0,0.6-0.3,0.6-0.6l0,0
				v-0.3C60.5,67.1,60.2,67.4,59.8,67.4C59.9,67.4,59.9,67.4,59.8,67.4z"/>
			<path class="st4" d="M59.4,67.4h0.5c0.3,0,0.6-0.3,0.6-0.6l0,0v-1c-0.6,0.1-1.1,0.2-1.7,0.2v0.7C58.8,67.1,59,67.3,59.4,67.4
				C59.4,67.4,59.4,67.4,59.4,67.4z"/>
			<path class="st7" d="M62.6,66.6h-0.5c-0.3,0-0.6-0.3-0.6-0.6l0,0v0.3c0,0.3,0.3,0.6,0.6,0.6l0,0h0.5c0.3,0,0.6-0.3,0.6-0.6l0,0
				V66C63.2,66.3,62.9,66.6,62.6,66.6z"/>
			<path class="st4" d="M62.1,66.6h0.5c0.3,0,0.6-0.3,0.6-0.6l0,0v-0.8c-0.6,0.2-1.1,0.3-1.7,0.4V66C61.5,66.3,61.8,66.6,62.1,66.6z
				"/>
			<path class="st0" d="M41.5,40.9h9c1.3,0,2.3,1,2.3,2.3v0.4c0,1.3-1,2.3-2.3,2.3h-9c-1.3,0-2.3-1-2.3-2.3v-0.4
				C39.2,41.9,40.2,40.9,41.5,40.9z"/>
			<path class="st0" d="M59.7,36.6h9c1.3,0,2.3,1,2.3,2.3v0.4c0,1.3-1,2.3-2.3,2.3h-9c-1.3,0-2.3-1-2.3-2.3v-0.4
				C57.5,37.6,58.5,36.6,59.7,36.6z"/>
		</g>
	</g>
</g>
</svg>
