<?xml version="1.0" encoding="utf-8"?>
<!-- Generator: Adobe Illustrator 21.0.0, SVG Export Plug-In . SVG Version: 6.00 Build 0)  -->
<!DOCTYPE svg PUBLIC "-//W3C//DTD SVG 1.1//EN" "http://www.w3.org/Graphics/SVG/1.1/DTD/svg11.dtd">
<svg version="1.1" id="Layer_1" xmlns="http://www.w3.org/2000/svg" xmlns:xlink="http://www.w3.org/1999/xlink" x="0px" y="0px"
	 viewBox="0 0 102.5 102.5" style="enable-background:new 0 0 102.5 102.5;" xml:space="preserve">
<style type="text/css">
	.st0{fill:#8B44FC;}
	.st1{fill:#007982;}
	.st2{fill:#FFFFFF;}
	.st3{fill:#7966FF;}
	.st4{fill:#DF14B5;}
	.st5{fill:#282828;}
</style>
<title>Asset 24</title>
<g>
	<g id="Layer_2">
		<g id="avatar_keuze">
			<circle class="st0" cx="51.2" cy="51.2" r="51.2"/>
			<path class="st1" d="M60,42.9c0.5-0.4,0.9-0.8,1.3-1.1c0.7-0.4,1.3-1,1.7-1.7l0,0l0,0c1.4-2.4,0.6-5.5-1.7-6.9
				c-2.4-1.4-5.5-0.6-6.9,1.7l0,0l0,0c-2.6,1.5-5.8,1.5-8.4,0l0,0c-1.3-2.4-4.4-3.3-6.8-1.9c-2.3,1.3-3.2,4.1-2.1,6.4l0,0
				c0.4,1,1.2,1.8,2.1,2.3c0.4,0.4,0.7,0.7,1.1,1c-2.2,0.2-3.8,2.1-3.6,4.3s2.1,3.8,4.3,3.6h18.5c2.2,0,3.9-1.8,3.9-4
				C63.4,44.8,61.9,43.2,60,42.9z"/>
			<circle class="st2" cx="57.2" cy="39" r="3.8"/>
			<ellipse class="st3" cx="50.2" cy="51.5" rx="7.4" ry="10.2"/>
			<circle class="st1" cx="57" cy="39.2" r="0.9"/>
			<circle class="st2" cx="44.2" cy="39" r="3.8"/>
			<circle class="st1" cx="44.3" cy="39.2" r="0.9"/>
			<path class="st3" d="M57.9,68.3c0.5-1.4,0.7-2.8,0.7-4.2c0-5.7-3.5-10.3-7.9-10.3s-7.9,4.6-7.9,10.3c0,1.7,0.3,3.3,0.9,4.8
				C48.1,71.5,53.7,71.3,57.9,68.3z"/>
			<path class="st3" d="M43.7,70.1c1.3,3.3,4,5.5,7,5.5c3.2,0,6-2.5,7.2-6.1C53.7,72.5,48.1,72.8,43.7,70.1z"/>
			<path class="st4" d="M49.2,38l-1.8,21.2c0,0-5.8-7-8.2-2.4s11.2,12.1,11.2,12.1s19.1-9.4,7-11.8c0,0-2.1,0-3.9,3L51.9,38H49.2z"
				/>
			<path class="st5" d="M45.4,60c0.1,1.3,2,4.1,1,4.2s-4.5-2.5-4.6-3.8c-0.3-1.1,0.4-2.3,1.6-2.6C44.4,57.7,45.3,58.7,45.4,60z"/>
			<path class="st5" d="M55,60.9c-0.5,1.2-3.2,3.2-2.3,3.6s5.1-1,5.6-2.2c0.6-1,0.3-2.4-0.7-3C56.5,59.1,55.3,59.7,55,60.9z"/>
		</g>
	</g>
</g>
</svg>
