<?xml version="1.0" encoding="utf-8"?>
<!-- Generator: Adobe Illustrator 21.0.0, SVG Export Plug-In . SVG Version: 6.00 Build 0)  -->
<!DOCTYPE svg PUBLIC "-//W3C//DTD SVG 1.1//EN" "http://www.w3.org/Graphics/SVG/1.1/DTD/svg11.dtd">
<svg version="1.1" id="Layer_1" xmlns="http://www.w3.org/2000/svg" xmlns:xlink="http://www.w3.org/1999/xlink" x="0px" y="0px"
	 viewBox="0 0 102.5 102.5" style="enable-background:new 0 0 102.5 102.5;" xml:space="preserve">
<style type="text/css">
	.st0{fill:#199EE0;}
	.st1{fill:#9E9E9E;}
	.st2{fill:#FFFFFF;}
	.st3{fill:#282828;}
	.st4{fill:none;stroke:#BFBFBF;stroke-miterlimit:10;}
	.st5{fill:#58071E;}
	.st6{fill:#0E73A5;}
</style>
<title>Asset 25</title>
<g>
	<g id="Layer_2">
		<g id="avatar_keuze">
			<circle class="st0" cx="51.2" cy="51.2" r="51.2"/>
			<circle class="st1" cx="58.2" cy="47.7" r="6.1"/>
			<circle class="st2" cx="58.2" cy="47.7" r="4.5"/>
			<circle class="st3" cx="58.1" cy="47.9" r="1.6"/>
			<circle class="st2" cx="59.1" cy="47" r="0.9"/>
			<circle class="st1" cx="42.7" cy="47.7" r="6.1"/>
			<circle class="st2" cx="42.7" cy="47.7" r="4.5"/>
			<circle class="st3" cx="42.6" cy="47.9" r="1.6"/>
			<circle class="st2" cx="43.5" cy="47" r="0.9"/>
			<circle class="st2" cx="50.7" cy="70.4" r="3.7"/>
			<line class="st4" x1="50.7" y1="66.7" x2="50.7" y2="74.2"/>
			
				<rect x="33.9" y="36.9" transform="matrix(0.9622 -0.2723 0.2723 0.9622 -8.9367 12.2983)" class="st5" width="11.9" height="3"/>
			<rect x="59.6" y="32.8" transform="matrix(0.3481 -0.9375 0.9375 0.3481 3.5274 82.5743)" class="st5" width="3" height="11.9"/>
			<path class="st6" d="M56.3,58.9c-2.6,0-4.8,1.6-5.7,4.1c-1-3.1-4.4-4.9-7.6-3.8c-3.1,1-4.9,4.4-3.8,7.6c1,3.1,4.4,4.9,7.6,3.8
				c1.8-0.6,3.2-2,3.8-3.8c1,3.2,4.4,4.9,7.5,3.9c3.2-1,4.9-4.4,3.9-7.5C61.3,60.6,59,58.9,56.3,58.9L56.3,58.9z"/>
			<path class="st5" d="M56.8,57.7c0,2.1-2.7,5.4-6,5.4s-6-3.3-6-5.4s2.7-3.8,6-3.8S56.8,55.7,56.8,57.7z"/>
		</g>
	</g>
</g>
</svg>
