<svg xmlns="http://www.w3.org/2000/svg" viewBox="0 0 393.05 235.54"><title>Asset 1</title><g id="Layer_2" data-name="Layer 2"><g id="Layer_1-2" data-name="Layer 1"><rect x="254.14" y="26.26" width="33.72" height="256.67" rx="11.32" ry="11.32" transform="translate(-8.13 293.98) rotate(-56.24)" style="fill:#f2b406"/><rect x="140.68" y="68.68" width="47.85" height="28.28" rx="10.68" ry="10.68" transform="translate(4.27 173.64) rotate(-56.24)" style="fill:#f2b406"/><path d="M95.11,65.53C98,57.86,86.78,53.67,89.65,46s14.07-3.47,16.95-11.13S98.26,23,101.14,15.35c1.34-3.57,4.48-4.56,7.75-5.38C63.67,1.9,48.46,39.81,48.45,39.85c8.41-2.48,16.83-.08,23.76,5a54.52,54.52,0,0,1,9.4,9c2.22,2.62,4.6,5.21,6.2,8.27,1.29,2.47,1.75,5.27,2.62,7.93A7.48,7.48,0,0,0,95.11,65.53Z" style="fill:#f2b406"/><path d="M147.25,25.11a38.32,38.32,0,0,0-5.34-3c-12.46-6.67-23.42-10.46-33-12.17-3.27.82-6.41,1.82-7.75,5.38-2.87,7.66,8.33,11.86,5.46,19.52S92.52,38.34,89.65,46,98,57.86,95.11,65.53A7.48,7.48,0,0,1,90.44,70c.17.53.36,1,.57,1.56a38.07,38.07,0,1,0,56.24-46.42Z" style="fill:#f2b406"/><rect x="264.52" y="17.42" width="33.72" height="256.67" rx="11.32" ry="11.32" transform="translate(3.83 298.68) rotate(-56.24)" style="fill:#383838"/><rect x="151.06" y="59.85" width="47.85" height="28.28" rx="10.68" ry="10.68" transform="translate(16.23 178.35) rotate(-56.24)" style="fill:#c4c4c4"/><path d="M105.49,56.69C108.36,49,97.16,44.83,100,37.16S114.11,33.7,117,26s-8.33-11.86-5.46-19.52c1.34-3.57,4.48-4.56,7.75-5.38C74.05-6.93,58.84,31,58.83,31c8.41-2.48,16.83-.08,23.76,5a54.52,54.52,0,0,1,9.4,9c2.22,2.62,4.6,5.21,6.2,8.27,1.29,2.47,1.75,5.27,2.62,7.93A7.48,7.48,0,0,0,105.49,56.69Z" style="fill:#f938f9"/><path d="M157.64,16.27a38.32,38.32,0,0,0-5.34-3c-12.46-6.67-23.42-10.46-33-12.17-3.27.82-6.41,1.82-7.75,5.38C108.65,14.17,119.85,18.37,117,26S102.9,29.5,100,37.16s8.33,11.86,5.46,19.53a7.48,7.48,0,0,1-4.67,4.45c.17.53.36,1,.57,1.56a38.07,38.07,0,1,0,56.24-46.42Z" style="fill:#f9e1bd"/><path d="M54.15,25.48s-8.51-11.92-18.73-4-13.62,1.7-18.16-9.08-19.3-4-17,6.24S16.69,20.94,8.18,39.1s7.95,25,11.92,17.59,16.46-7.38,18.73.57S49,65.21,51.88,47.61,63.23,39.67,54.15,25.48Z" style="fill:#f938f9"/></g></g></svg>