<svg xmlns="http://www.w3.org/2000/svg" viewBox="0 0 392.42 104.73"><title>Asset 4</title><g id="Layer_2" data-name="Layer 2"><g id="Layer_1-2" data-name="Layer 1"><path d="M33.06,73.68a3.47,3.47,0,0,0,.59,6.14l24.93,10-14.81-23Z" style="fill:#f2b406"/><polygon points="88.72 37.93 43.77 66.8 58.57 89.78 96.01 104.73 88.72 37.93" style="fill:#f2b406"/><path d="M352.19,9.15l-22.27,2.43,7.3,66.8,22.27-2.43a33.6,33.6,0,1,0-7.3-66.8Z" style="fill:#f2b406"/><rect x="91.72" y="25.93" width="217.44" height="67.19" transform="translate(-5.28 22.12) rotate(-6.23)" style="fill:#f2b406"/><rect x="308.45" y="12.75" width="25.2" height="67.19" transform="translate(-3.13 35.14) rotate(-6.23)" style="fill:#f2b406"/><path d="M36,64.74a3.47,3.47,0,0,0,.59,6.14l24.93,10-14.81-23Z" style="fill:#383838"/><polygon points="91.7 28.98 46.76 57.85 61.56 80.83 99 95.78 91.7 28.98" style="fill:#f9e1bd"/><path d="M355.17.2,332.91,2.63l7.3,66.8L362.47,67A33.6,33.6,0,1,0,355.17.2Z" style="fill:#f938f9"/><rect x="94.71" y="16.98" width="217.44" height="67.19" transform="translate(-4.29 22.39) rotate(-6.23)" style="fill:#dd9f07"/><rect x="311.44" y="3.8" width="25.2" height="67.19" transform="translate(-2.15 35.41) rotate(-6.23)" style="fill:#c4c4c4"/><circle cx="14" cy="91.96" r="2" style="fill:#383838"/><circle cx="6" cy="82.96" r="2" style="fill:#383838"/><circle cx="19" cy="86.96" r="2" style="fill:#383838"/><circle cx="11.5" cy="71.46" r="2.5" style="fill:#383838"/><circle cx="16" cy="75.96" r="1" style="fill:#383838"/><circle cx="14" cy="82.96" r="1" style="fill:#383838"/><circle cx="6" cy="89.96" r="1" style="fill:#383838"/><circle cx="1" cy="73.96" r="1" style="fill:#383838"/></g></g></svg>