<?xml version="1.0" encoding="utf-8"?>
<!-- Generator: Adobe Illustrator 21.0.0, SVG Export Plug-In . SVG Version: 6.00 Build 0)  -->
<!DOCTYPE svg PUBLIC "-//W3C//DTD SVG 1.1//EN" "http://www.w3.org/Graphics/SVG/1.1/DTD/svg11.dtd">
<svg version="1.1" id="Layer_1" xmlns="http://www.w3.org/2000/svg" xmlns:xlink="http://www.w3.org/1999/xlink" x="0px" y="0px"
	 viewBox="0 0 768 310" style="enable-background:new 0 0 768 310;" xml:space="preserve">
<style type="text/css">
	.st0{fill:#F2B406;}
	.st1{opacity:0.6;fill:none;stroke:#F2B406;stroke-width:3;stroke-linecap:round;stroke-linejoin:round;enable-background:new    ;}
	.st2{fill:#F87940;}
	.st3{fill:#FFFFFF;}
	.st4{fill:#23B9FB;}
	.st5{fill:#57091F;}
	.st6{fill:#E25E2F;}
	.st7{fill:#F19E55;}
	.st8{fill:#282828;}
	.st9{fill:#FC6D6F;}
	.st10{fill:#E1E1E1;}
</style>
<g>
	<ellipse class="st0" cx="382.9" cy="300.5" rx="53.5" ry="5.5"/>
	<g id="color_intro">
		<ellipse transform="matrix(0.9516 -0.3072 0.3072 0.9516 -20.156 169.397)" class="st1" cx="528" cy="148.7" rx="8.5" ry="8.5"/>
		<ellipse transform="matrix(0.9516 -0.3072 0.3072 0.9516 7.6402 151.9917)" class="st1" cx="486.6" cy="51.7" rx="7.3" ry="7.3"/>
		<line class="st1" x1="524.2" y1="32.1" x2="540.9" y2="30.1"/>
		<line class="st1" x1="531.5" y1="22.7" x2="533.5" y2="39.5"/>
		<ellipse transform="matrix(0.9936 -0.1134 0.1134 0.9936 -3.7776 65.2367)" class="st1" cx="571.6" cy="65.8" rx="7.3" ry="7.3"/>
		<polygon class="st1" points="513,93.7 525.9,94 519.5,82.6 		"/>
		
			<ellipse transform="matrix(0.3072 -0.9516 0.9516 0.3072 231.1049 352.4591)" class="st1" cx="357.6" cy="17.5" rx="8.5" ry="8.5"/>
		
			<ellipse transform="matrix(0.3072 -0.9516 0.9516 0.3072 157.2638 302.5204)" class="st1" cx="286.4" cy="43.2" rx="7.3" ry="7.3"/>
		<line class="st1" x1="211.1" y1="34" x2="194.3" y2="32"/>
		<line class="st1" x1="203.7" y1="24.6" x2="201.7" y2="41.4"/>
		
			<ellipse transform="matrix(0.1134 -0.9936 0.9936 0.1134 79.7753 329.0482)" class="st1" cx="224.3" cy="119.8" rx="7.3" ry="7.3"/>
		<polygon class="st1" points="244.4,87.2 231.6,87.5 237.9,76.1 		"/>
		<line class="st1" x1="667.5" y1="84.2" x2="672.7" y2="100.3"/>
		<line class="st1" x1="662" y1="94.8" x2="678.2" y2="89.7"/>
		<line class="st1" x1="727.5" y1="123.1" x2="732.3" y2="138.1"/>
		<line class="st1" x1="722.3" y1="133" x2="737.5" y2="128.2"/>
		
			<ellipse transform="matrix(0.9516 -0.3072 0.3072 0.9516 21.2259 221.2942)" class="st1" cx="713.5" cy="43.2" rx="8.5" ry="8.5"/>
		
			<ellipse transform="matrix(0.9516 -0.3072 0.3072 0.9516 -16.7391 227.8999)" class="st1" cx="715.5" cy="167.1" rx="8.5" ry="8.5"/>
		
			<ellipse transform="matrix(0.9516 -0.3072 0.3072 0.9516 -9.577 207.6101)" class="st1" cx="654.7" cy="134.2" rx="7.3" ry="7.3"/>
		<polygon class="st1" points="724.4,90.1 729.9,101.7 717,100.6 		"/>
		<line class="st1" x1="608" y1="157.9" x2="591.3" y2="159.8"/>
		<line class="st1" x1="600.6" y1="167.3" x2="598.6" y2="150.5"/>
		<ellipse transform="matrix(0.9936 -0.1134 0.1134 0.9936 -8.0677 69.214)" class="st1" cx="604.4" cy="105.5" rx="7.3" ry="7.3"/>
		<polygon class="st1" points="568,114.4 555.2,114.1 561.5,125.5 		"/>
		<polygon class="st1" points="638.8,53.3 628.2,46.1 627.5,59 		"/>
		<line class="st1" x1="99.2" y1="84.2" x2="94" y2="100.3"/>
		<line class="st1" x1="104.7" y1="94.8" x2="88.6" y2="89.7"/>
		<line class="st1" x1="16.9" y1="127.2" x2="12.1" y2="142.2"/>
		<line class="st1" x1="22" y1="137.1" x2="7" y2="132.3"/>
		
			<ellipse transform="matrix(0.3072 -0.9516 0.9516 0.3072 -54.7691 109.3171)" class="st1" cx="47.7" cy="92.3" rx="8.5" ry="8.5"/>
		
			<ellipse transform="matrix(0.3072 -0.9516 0.9516 0.3072 -21.5117 222.4974)" class="st1" cx="142.1" cy="126" rx="8.5" ry="8.5"/>
		<ellipse transform="matrix(0.3072 -0.9516 0.9516 0.3072 -76.9954 160.8861)" class="st1" cx="72" cy="133.3" rx="7.3" ry="7.3"/>
		<polygon class="st1" points="48.8,37.4 43.2,49 56.2,47.9 		"/>
		<line class="st1" x1="104.7" y1="153" x2="121.5" y2="154.9"/>
		<line class="st1" x1="112.1" y1="162.4" x2="114.1" y2="145.6"/>
		
			<ellipse transform="matrix(0.1134 -0.9936 0.9936 0.1134 67.4279 247.8185)" class="st1" cx="172.6" cy="86.1" rx="7.3" ry="7.3"/>
		<polygon class="st1" points="189.9,149.6 202.7,149.3 196.4,160.7 		"/>
		<polygon class="st1" points="122.2,52.5 132.8,45.3 133.6,58.2 		"/>
	</g>
	<path class="st0" d="M502.4,148.6c0-65.7-53.3-119-119-119s-119,53.3-119,119c0,35.6,16,69.4,43.5,92h151
		C486.5,218,502.5,184.2,502.4,148.6z"/>
	<line class="st1" x1="427.6" y1="30.6" x2="444.3" y2="28.6"/>
	<line class="st1" x1="434.9" y1="21.2" x2="436.9" y2="38"/>
</g>
<g>
	<path class="st2" d="M364.8,201.5h2c4,0,7.2,3.2,7.2,7.2v78.2c0,4-3.2,7.2-7.2,7.2h-2c-4,0-7.2-3.2-7.2-7.2v-78.2
		C357.5,204.8,360.8,201.5,364.8,201.5z"/>
	
		<ellipse transform="matrix(0.9516 -0.3072 0.3072 0.9516 -23.4631 133.1429)" class="st1" cx="411.2" cy="141.1" rx="8.5" ry="8.5"/>
	<polygon class="st1" points="400.5,94.1 394.9,82.5 407.9,83.6 	"/>
	
		<ellipse transform="matrix(0.3072 -0.9516 0.9516 0.3072 119.8368 446.8141)" class="st1" cx="366.8" cy="141.1" rx="8.5" ry="8.5"/>
	<polygon class="st1" points="377.6,94.1 383.1,82.5 370.2,83.6 	"/>
	<path class="st2" d="M400.3,201.5h2c4,0,7.2,3.2,7.2,7.2v78.2c0,4-3.2,7.2-7.2,7.2h-2c-4,0-7.2-3.2-7.2-7.2v-78.2
		C393.1,204.8,396.3,201.5,400.3,201.5z"/>
	<path class="st3" d="M346.5,227.3c4.1,17.8,19,31,36.7,31s32.6-13.2,36.7-31C384.2,249.6,346.6,227.4,346.5,227.3z"/>
	<path class="st4" d="M411.6,190c1.4-3.9,2.2-8,2.1-12.2c0-18.2-13.6-33-30.5-33s-30.5,14.8-30.5,33c0,4.2,0.7,8.3,2.1,12.2
		c-6.2,7.7-9.6,17.3-9.6,27.3c0,3.4,0.4,6.8,1.1,10.1c0.1,0.1,37.7,22.2,73.5,0c0.8-3.3,1.2-6.7,1.1-10.1
		C421.2,207.3,417.8,197.8,411.6,190z"/>
	<path class="st2" d="M364.1,154.5L364.1,154.5c-3.2-3.2-8.4-3.2-11.7,0l-45.2,45.2c-1.6-2.8-5.2-3.7-8-2.1c-2.8,1.6-3.7,5.2-2.1,8
		c0.5,0.9,1.2,1.6,2.1,2.1l-0.6,0.6c-3.2,3.2-3.2,8.4,0,11.7l0,0c3.2,3.2,8.4,3.2,11.7,0l53.9-53.9
		C367.2,162.9,367.2,157.8,364.1,154.5z"/>
	<path class="st2" d="M469.3,208.3l-2.7-2.7c3-1.2,4.4-4.7,3.2-7.6c-1.2-3-4.7-4.4-7.6-3.2c-1.4,0.6-2.6,1.7-3.2,3.2l-43.5-43.5
		c-3.2-3.2-8.4-3.2-11.7,0l0,0c-3.2,3.2-3.2,8.4,0,11.7l53.9,53.9c3.2,3.2,8.4,3.2,11.7,0l0,0C472.5,216.8,472.5,211.6,469.3,208.3z
		"/>
	
		<rect x="310.9" y="173.5" transform="matrix(0.7071 -0.7071 0.7071 0.7071 -31.1339 290.8445)" class="st4" width="49.2" height="19"/>
	
		<rect x="422.9" y="158.4" transform="matrix(0.7071 -0.7071 0.7071 0.7071 -2.7588 359.3302)" class="st4" width="19" height="49.2"/>
	<path class="st2" d="M365,286.2c-9.2,0-16.6,7.4-16.7,16.6h33.4C381.6,293.8,374.2,286.2,365,286.2z"/>
	<path class="st2" d="M401.8,286.2c-9.2,0-16.6,7.4-16.7,16.6h33.4C418.3,293.8,410.9,286.2,401.8,286.2z"/>
	<path class="st5" d="M430.8,102.7l8.2-7c-12.4-30.5-47.1-45.2-77.6-32.8c-22.5,9.1-37.2,30.9-37.2,55.2c0,1.9,7.2,4.5,7.4,6.4
		s-6.7,3.2-6.3,5.1c6.3,32.3,37.5,53.4,69.8,47.1s53.4-37.5,47.1-69.8c-0.3-1.4-0.6-2.8-1-4.1L430.8,102.7z"/>
	<circle class="st2" cx="349.8" cy="97.3" r="7.7"/>
	<circle class="st2" cx="417.8" cy="97.3" r="7.7"/>
	<circle class="st6" cx="417.4" cy="97.9" r="4.4"/>
	<circle class="st6" cx="349.8" cy="97.9" r="4.4"/>
	<path class="st2" d="M347.6,118c0-19.9,16.1-36,36-36s36,16.1,36,36s-16.1,36-36,36S347.6,137.9,347.6,118z"/>
	<path class="st7" d="M376.8,123.7H390c5.1,0,9.2,4.1,9.2,9.2v2.6c0,5.1-4.1,9.2-9.2,9.2h-13.3c-5.1,0-9.2-4.1-9.2-9.2v-2.6
		C367.6,127.8,371.8,123.7,376.8,123.7z"/>
	<path class="st5" d="M390.6,122.7c0,2.7-3.4,6.9-7.7,6.9s-7.7-4.2-7.7-6.9s3.4-4.9,7.7-4.9S390.6,120,390.6,122.7z"/>
	<circle class="st6" cx="364.4" cy="124.6" r="4.9"/>
	<circle class="st6" cx="403.1" cy="124.7" r="4.9"/>
	<circle class="st6" cx="373.6" cy="111.3" r="7.8"/>
	<circle class="st3" cx="373.6" cy="111.3" r="5.8"/>
	<circle class="st8" cx="373.4" cy="111.5" r="2.1"/>
	<circle class="st3" cx="374.6" cy="110.3" r="1.2"/>
	<circle class="st6" cx="392.2" cy="111.3" r="7.8"/>
	<circle class="st3" cx="392.2" cy="111.3" r="5.8"/>
	<circle class="st8" cx="392.1" cy="111.5" r="2.1"/>
	<circle class="st3" cx="393.3" cy="110.3" r="1.2"/>
	<path class="st8" d="M392.5,131.4v1.3c0,0.4-0.3,0.7-0.7,0.7l0,0h-0.5c-0.4,0-0.7-0.3-0.7-0.7l0,0v-0.8l-1.3,0.2v1.5
		c0,0.4-0.3,0.7-0.7,0.7l0,0H388c-0.4,0-0.7-0.3-0.7-0.7l0,0v-1.2c-1.1,0.1-2.1,0.2-3.1,0.2v1.4c0,0.4-0.3,0.7-0.7,0.7l0,0H383
		c-0.4,0-0.7-0.3-0.7-0.7l0,0v-1.4c-1,0-1.9-0.1-2.7-0.2v1.3c0,0.4-0.3,0.7-0.7,0.7l0,0h-0.5c-0.4,0-0.7-0.3-0.7-0.7l0,0v-1.6
		l-1.1-0.2v0.7c0,0.4-0.3,0.7-0.7,0.7l0,0h-0.5c-0.4,0-0.7-0.3-0.7-0.7l0,0v-1.2c-0.7-0.2-1.3-0.4-1.9-0.6c-0.6-0.2-1.2,0.1-1.4,0.7
		c-0.1,0.2-0.1,0.5,0,0.7c0.9,2.6,2.7,4.9,5.1,6.3c1.4-1.1,4.1-1.9,7.2-1.9s6,0.8,7.3,2.1c2.6-1.7,4.5-4.2,5.4-7.2
		c0.1-0.4-0.1-0.8-0.5-0.9c-0.2,0-0.3,0-0.5,0C394.3,130.8,393.4,131.1,392.5,131.4z"/>
	<path class="st9" d="M376.2,138.4c2.1,1.2,4.5,1.8,6.9,1.9c2.7,0.2,5.3-0.4,7.6-1.7c-1.4-1.2-4.1-2.1-7.3-2.1
		S377.6,137.3,376.2,138.4z"/>
	<path class="st10" d="M375.8,132.9h-0.5c-0.4,0-0.7-0.3-0.7-0.7l0,0v0.4c0,0.4,0.3,0.7,0.7,0.7l0,0h0.5c0.4,0,0.7-0.3,0.7-0.7l0,0
		v-0.5C376.4,132.6,376.1,132.9,375.8,132.9L375.8,132.9z"/>
	<path class="st3" d="M375.1,132.9h0.5c0.4,0,0.7-0.3,0.7-0.7l0,0v-0.4c-0.7-0.2-1.4-0.3-2-0.5v0.8
		C374.4,132.6,374.8,132.9,375.1,132.9z"/>
	<path class="st10" d="M378.8,134h-0.5c-0.4,0-0.7-0.3-0.7-0.7l0,0v0.4c0,0.4,0.3,0.7,0.7,0.7l0,0h0.5c0.4,0,0.7-0.3,0.7-0.7l0,0
		v-0.4C379.5,133.6,379.2,134,378.8,134L378.8,134z"/>
	<path class="st3" d="M378.2,134h0.5c0.4,0,0.7-0.3,0.7-0.7l0,0v-0.9c-0.7-0.1-1.4-0.2-2-0.3v1.2C377.5,133.6,377.8,134,378.2,134z"
		/>
	<path class="st10" d="M383.5,134.3H383c-0.4,0-0.7-0.3-0.7-0.7l0,0v0.4c0,0.4,0.3,0.7,0.7,0.7l0,0h0.5c0.4,0,0.7-0.3,0.7-0.7l0,0
		v-0.4C384.2,134,383.9,134.3,383.5,134.3L383.5,134.3z"/>
	<path class="st3" d="M382.9,134.3h0.5c0.4,0,0.7-0.3,0.7-0.7l0,0v-1.1c-0.7,0-1.3,0-2,0v1.1C382.2,134,382.5,134.3,382.9,134.3z"/>
	<path class="st10" d="M388.6,134h-0.5c-0.4,0-0.7-0.3-0.7-0.7l0,0v0.4c0,0.4,0.3,0.7,0.7,0.7l0,0h0.5c0.4,0,0.7-0.3,0.7-0.7l0,0
		v-0.4C389.3,133.6,389,134,388.6,134L388.6,134z"/>
	<path class="st3" d="M388,134h0.6c0.4,0,0.7-0.3,0.7-0.7l0,0v-1.2c-0.7,0.1-1.3,0.2-2,0.3v0.9C387.3,133.6,387.6,133.9,388,134z"/>
	<path class="st10" d="M391.8,133.1h-0.5c-0.4,0-0.7-0.3-0.7-0.7l0,0v0.4c0,0.4,0.3,0.7,0.7,0.7l0,0h0.5c0.4,0,0.7-0.3,0.7-0.7l0,0
		v-0.4C392.6,132.8,392.2,133.1,391.8,133.1L391.8,133.1z"/>
	<path class="st3" d="M391.3,133.1h0.5c0.4,0,0.7-0.3,0.7-0.7l0,0v-1c-0.7,0.2-1.3,0.3-2,0.5v0.5
		C390.5,132.7,390.8,133.1,391.3,133.1C391.2,133.1,391.3,133.1,391.3,133.1z"/>
	<path class="st5" d="M366.6,102.4h10.9c1.4,0,2.6,1.2,2.6,2.6v0.7c0,1.4-1.2,2.6-2.6,2.6h-10.9c-1.4,0-2.6-1.2-2.6-2.6V105
		C364,103.6,365.1,102.4,366.6,102.4z"/>
	<path class="st5" d="M388.3,97.3h10.9c1.4,0,2.6,1.2,2.6,2.6v0.7c0,1.4-1.2,2.6-2.6,2.6h-10.9c-1.4,0-2.6-1.2-2.6-2.6v-0.7
		C385.8,98.5,386.9,97.3,388.3,97.3z"/>
</g>
</svg>
