<?xml version="1.0" encoding="utf-8"?>
<!-- Generator: Adobe Illustrator 21.0.0, SVG Export Plug-In . SVG Version: 6.00 Build 0)  -->
<!DOCTYPE svg PUBLIC "-//W3C//DTD SVG 1.1//EN" "http://www.w3.org/Graphics/SVG/1.1/DTD/svg11.dtd">
<svg version="1.1" id="Layer_1" xmlns="http://www.w3.org/2000/svg" xmlns:xlink="http://www.w3.org/1999/xlink" x="0px" y="0px"
	 viewBox="0 0 219.1 180.1" style="enable-background:new 0 0 219.1 180.1;" xml:space="preserve">
<style type="text/css">
	.st0{fill:#282828;}
	.st1{fill:#BAAA83;}
	.st2{fill:#DD9F07;}
	.st3{fill:#F2B406;}
	.st4{fill:#E02D36;}
	.st5{fill:#F53B3F;}
	.st6{fill:#836342;}
	.st7{fill:#107980;}
	.st8{fill:#DC24B2;}
	.st9{fill:#FFFFFF;}
	.st10{fill:#796BFA;}
	.st11{fill:#755639;}
	.st12{fill:#CE2838;}
</style>
<title>Asset 3</title>
<g id="Layer_2">
	<g id="overzicht_1_2">
		<path class="st0" d="M49.8,33.6c-0.2-0.1-0.5,0-0.5,0.2c0,0.1,0,0.2,0,0.3l0.8,3.2l1.2-3.1L49.8,33.6z"/>
		<polygon class="st1" points="57.3,36.4 51.2,34.1 50.1,37.2 51.3,42 		"/>
		<path class="st2" d="M79.3,60l-1.9-2l-6,5.6l1.9,2c1.5,1.7,4.1,1.8,5.8,0.2C80.7,64.2,80.8,61.7,79.3,60z"/>
		<rect x="59.3" y="35.6" transform="matrix(0.7323 -0.681 0.681 0.7323 -16.3258 56.219)" class="st2" width="8.2" height="26.5"/>
		<rect x="69.3" y="58.2" transform="matrix(0.7323 -0.681 0.681 0.7323 -20.9998 65.9612)" class="st3" width="8.2" height="3.1"/>
		<path class="st4" d="M140.6,38.4c0,0,38.6,12.3,39.3,22.1s-14.1,21.4-14.1,21.4L140.6,38.4z"/>
		<path class="st5" d="M84.5,211.1h7c3.5,0,6.4,2.9,6.4,6.4v98.4c0,3.5-2.9,6.4-6.4,6.4h-7c-3.5,0-6.4-2.9-6.4-6.4v-98.4
			C78.1,214,81,211.1,84.5,211.1z"/>
		<path class="st5" d="M127.2,211.1h7c3.5,0,6.4,2.9,6.4,6.4v98.4c0,3.5-2.9,6.4-6.4,6.4h-7c-3.5,0-6.4-2.9-6.4-6.4v-98.4
			C120.8,214,123.7,211.1,127.2,211.1z"/>
		<path class="st6" d="M87.1,312.7c-11,0-20,8.9-20,19.9h40C107.1,321.6,98.1,312.7,87.1,312.7z"/>
		<path class="st6" d="M131.1,312.7c-11,0-20,8.9-20,19.9h40C151.1,321.6,142.1,312.7,131.1,312.7z"/>
		<path class="st6" d="M216.2,205.4l-3.3-3.3c3.6-1.5,5.2-5.6,3.7-9.2c-1.5-3.6-5.6-5.2-9.2-3.7c-1.7,0.7-3,2-3.7,3.7l-52.2-52.1
			c-3.9-3.9-10.1-3.9-14,0l0,0c-3.9,3.9-3.9,10.1,0,14l64.6,64.6c3.9,3.9,10.1,3.9,14,0l0,0C220,215.5,220,209.2,216.2,205.4z"/>
		<polygon class="st5" points="145,129.6 192.2,176.8 175.5,195.1 128.2,147.8 		"/>
		<path class="st6" d="M2.9,205.4l3.3-3.3c-3.6-1.5-5.2-5.6-3.7-9.2s5.6-5.2,9.2-3.7c1.7,0.7,3,2,3.7,3.7l52.2-52.1
			c3.9-3.9,10.1-3.9,14,0l0,0c3.9,3.9,3.9,10.1,0,14l-64.6,64.6c-3.9,3.9-10.1,3.9-14,0l0,0c-6.1,0-11-0.9-11-7
			S-3.2,201.4,2.9,205.4z"/>
		<polygon class="st5" points="92.3,147.1 45.1,194.3 26.8,177.6 74,130.3 		"/>
		<path class="st7" d="M156,172c-0.1-26.7-21.7-48.3-48.3-48.3l0,0C81,123.7,59.4,145.3,59.3,172v14.9c0,14.3,6.9,40.2,17.4,61
			c12,3.2,37.8,8.5,63.2,2.1c10-21.2,16.1-48.3,16.1-63.1L156,172z"/>
		<path class="st8" d="M76.7,247.9c9,17.9,20.7,32.1,33,32.1l0,0c11.8,0,22.3-13.1,30.2-30C114.5,256.4,88.7,251.2,76.7,247.9z"/>
		<path class="st6" d="M97.4,18.3h18.4c4.2,0,8.1,1.7,11,4.7L173,71.2c4.9,5.1,5.6,12.9,1.8,18.9l-29.1,44.6
			c-2.8,4.3-7.6,6.9-12.8,6.9L118.1,153c-3.7,2.8-8.8,2.9-12.6,0.2l-16.4-11.6c-4.8,0-9.4-2.3-12.3-6.2L43.3,89.9
			c-4.3-5.8-3.9-13.8,0.8-19.2L86,23.4C88.9,20.2,93,18.3,97.4,18.3z"/>
		<path class="st7" d="M129.3,68.4c1-0.8,2-1.6,2.8-2.3c1.5-0.9,2.7-2.1,3.6-3.6v0l0,0c3-5.1,1.4-11.6-3.7-14.7
			c-5.1-3-11.6-1.4-14.7,3.7c0,0,0,0,0,0.1l0,0c-8.9,5.3-17.8,0-17.8,0l0,0c-2.9-5.1-9.5-6.9-14.6-3.9c-4.7,2.7-6.6,8.6-4.5,13.6
			l0,0c0.9,2.1,2.5,3.9,4.5,5c0.8,0.8,1.6,1.5,2.4,2.2c-4.6,0.7-7.8,5-7,9.6c0.6,4.1,4.2,7.2,8.4,7.1h39.6c4.7,0,8.4-3.8,8.5-8.4
			C136.6,72.5,133.5,68.9,129.3,68.4L129.3,68.4z"/>
		<circle class="st9" cx="123.3" cy="60.2" r="8.1"/>
		<ellipse class="st10" cx="108.4" cy="86.8" rx="15.9" ry="21.7"/>
		<circle class="st7" cx="123" cy="60.5" r="1.9"/>
		<circle class="st9" cx="95.4" cy="60.2" r="8.1"/>
		<circle class="st7" cx="95.7" cy="60.5" r="1.9"/>
		<path class="st10" d="M124.8,122.7c1-2.9,1.5-5.9,1.5-9c0-12.2-7.6-22.1-16.9-22.1s-16.9,9.9-16.9,22.1c0,3.5,0.7,7.1,2,10.3
			C99.8,127.2,111.4,131.6,124.8,122.7z"/>
		<path class="st10" d="M94.4,126.6c2.8,7,8.4,11.7,14.9,11.7c6.9,0,12.8-5.4,15.4-13.1C111.4,134.2,99.8,129.8,94.4,126.6z"/>
		<path class="st8" d="M106.1,57.9l-3.9,45.4c0,0-12.3-14.9-17.5-5.2s24,26,24,26s40.9-20.1,14.9-25.4c0,0-4.5,0-8.4,6.5l-3.2-47.4
			L106.1,57.9z"/>
		<path class="st0" d="M98.1,105c0.3,2.8,4.3,8.7,2.2,8.9s-9.6-5.3-9.9-8.2s1.2-5.3,3.4-5.5S97.8,102.1,98.1,105z"/>
		<path class="st0" d="M118.6,106.9c-1.2,2.6-6.8,6.9-4.8,7.8s10.8-2.1,12-4.7s0.5-5.5-1.5-6.3S119.8,104.2,118.6,106.9z"/>
		<path class="st11" d="M124.2,1.5H89.1c-9,0-16.3,7.3-16.3,16.3v20.6c0,0.7,0.5,1.2,1.2,1.2c0,0,0,0,0,0h65.4
			c0.7,0,1.2-0.5,1.2-1.2v0V17.8C140.6,8.8,133.3,1.5,124.2,1.5z M116.1,33.2H97.4c0,0,0,0,0-0.1c0-5.2,4.2-9.4,9.4-9.4
			C111.9,23.8,116.1,28,116.1,33.2C116.1,33.1,116.1,33.2,116.1,33.2z"/>
		<path class="st5" d="M124.2,0.2H89.1c-9,0-16.3,7.3-16.3,16.4v20.6c0,0.7,0.5,1.2,1.2,1.2c0,0,0,0,0,0h65.4c0.7,0,1.2-0.5,1.2-1.2
			v0V16.6C140.6,7.6,133.3,0.3,124.2,0.2z M116.1,32H97.4c0,0,0,0,0-0.1c0-5.2,4.2-9.4,9.4-9.4C111.9,22.6,116.1,26.8,116.1,32
			L116.1,32z"/>
		<path class="st4" d="M83.6,38.4h-0.7V13.9c0-4.1,1.6-8,4.6-10.8c1.3-1.3,2.9-2.4,4.6-3.1l0.3,0.7c-1.6,0.7-3.1,1.8-4.4,3
			c-2.8,2.6-4.4,6.3-4.4,10.2L83.6,38.4z"/>
		<path class="st4" d="M130.2,38.4h-0.7V13.9c0.1-3.9-1.5-7.6-4.4-10.2c-1.3-1.2-2.8-2.3-4.4-3l0.3-0.7c1.7,0.8,3.3,1.8,4.6,3.1
			c3,2.8,4.6,6.7,4.6,10.8L130.2,38.4z"/>
		<polygon class="st12" points="143.2,40 146.5,42.1 174.1,70.4 174.6,73.1 		"/>
	</g>
</g>
</svg>
