<?xml version="1.0" encoding="utf-8"?>
<!-- Generator: Adobe Illustrator 21.0.0, SVG Export Plug-In . SVG Version: 6.00 Build 0)  -->
<!DOCTYPE svg PUBLIC "-//W3C//DTD SVG 1.1//EN" "http://www.w3.org/Graphics/SVG/1.1/DTD/svg11.dtd">
<svg version="1.1" id="Layer_1" xmlns="http://www.w3.org/2000/svg" xmlns:xlink="http://www.w3.org/1999/xlink" x="0px" y="0px"
	 viewBox="0 0 177 151.7" style="enable-background:new 0 0 177 151.7;" xml:space="preserve">
<style type="text/css">
	.st0{fill:#1E1E1E;}
	.st1{fill:#FFD2DB;}
	.st2{fill:#FFFFFF;}
	.st3{fill:#FFAEAE;}
	.st4{fill:#282828;}
	.st5{fill:#FF6C6C;}
	.st6{fill:#E2E2E2;}
	.st7{fill:#EA5959;}
	.st8{fill:#FFC600;}
	.st9{fill:#F2B406;}
</style>
<title>Asset 2</title>
<g id="overzicht_1_2">
	<path class="st0" d="M74.5,66.9c-1.8-1.8-4.8-1.8-6.7,0l-24,24l6.7,6.7l24-24C76.3,71.7,76.3,68.7,74.5,66.9z"/>
	<path class="st1" d="M42,92.7c-0.9-1.6-2.9-2.2-4.6-1.3c-1.6,0.9-2.2,2.9-1.3,4.6c0.3,0.5,0.7,1,1.3,1.3l-0.4,0.4
		c-1.8,1.8-1.8,4.8,0,6.7l0,0c1.8,1.8,4.8,1.8,6.7,0l6.8-6.8l-6.7-6.7L42,92.7z"/>
	<path class="st0" d="M95.8,66.9c1.8-1.8,4.8-1.8,6.7,0l24,24l-6.7,6.7l-24-24C94,71.7,94,68.7,95.8,66.9z"/>
	<path class="st1" d="M128.3,92.7c0.9-1.6,2.9-2.2,4.6-1.3c1.6,0.9,2.2,2.9,1.3,4.6c-0.3,0.5-0.7,1-1.3,1.3l0.4,0.4
		c1.8,1.8,1.8,4.8,0,6.7l0,0c-1.8,1.8-4.8,1.8-6.7,0l-6.8-6.8l6.6-6.7L128.3,92.7z"/>
	<path class="st0" d="M75,93.8h1c2.3,0,4.2,1.9,4.2,4.2v44.5c0,2.3-1.9,4.2-4.2,4.2h-1c-2.3,0-4.2-1.9-4.2-4.2V98
		C70.7,95.7,72.6,93.8,75,93.8z"/>
	<path class="st0" d="M95.3,93.8h1c2.3,0,4.2,1.9,4.2,4.2v44.5c0,2.3-1.9,4.2-4.2,4.2h-1c-2.3,0-4.2-1.9-4.2-4.2V98
		C91.1,95.7,93,93.8,95.3,93.8z"/>
	<path class="st0" d="M64.5,108.5c2.4,10.2,10.9,17.7,21,17.7s18.6-7.5,21-17.7C86,121.2,64.6,108.6,64.5,108.5z"/>
	<path class="st0" d="M101.7,87.2c0.8-2.2,1.2-4.6,1.2-7c0-10.4-7.8-18.9-17.4-18.9s-17.4,8.5-17.4,18.9c0,2.4,0.4,4.8,1.2,7
		c-3.6,4.4-5.5,9.9-5.5,15.6c0,1.9,0.2,3.9,0.7,5.8c0.1,0,21.5,12.7,42,0c0.4-1.9,0.7-3.8,0.7-5.8C107.2,97.1,105.2,91.6,101.7,87.2
		z"/>
	<path class="st1" d="M75,142.2c-5.3,0-9.5,4.2-9.5,9.5h19.1C84.6,146.4,80.3,142.2,75,142.2z"/>
	<path class="st1" d="M96,142.2c-5.3,0-9.5,4.2-9.5,9.5h19.1C105.5,146.4,101.3,142.2,96,142.2z"/>
	<polygon class="st2" points="77.3,75.2 85.6,96.7 92,75 	"/>
	<path class="st1" d="M55.6,38.4c-1.8,4.5-7.2,14-2.7,15.8s17.4-4.9,19.1-9.4c1.9-4.5-0.2-9.7-4.7-11.5c-4.5-1.9-9.7,0.2-11.5,4.7
		C55.8,38,55.7,38.2,55.6,38.4z"/>
	<path class="st3" d="M57.5,44.6c0,3.5-4.4,7.2-1.5,7.2s12-3.8,12-7.2s-2.4-6.2-5.3-6.2C59.8,38.4,57.5,41.2,57.5,44.6z"/>
	<path class="st1" d="M113.5,38.4c1.8,4.5,7.2,14,2.7,15.8s-17.4-4.9-19.1-9.4c-1.6-4.6,0.7-9.6,5.3-11.3
		C106.8,31.9,111.7,34.1,113.5,38.4L113.5,38.4z"/>
	<path class="st3" d="M110.8,44.6c0,3.5,4.4,7.2,1.5,7.2s-12-3.8-12-7.2s2.4-6.2,5.3-6.2S110.8,41.2,110.8,44.6z"/>
	<circle class="st1" cx="84.2" cy="53.2" r="23.1"/>
	<circle class="st3" cx="75.7" cy="46.1" r="5.8"/>
	<circle class="st2" cx="75.7" cy="46.1" r="4.8"/>
	<circle class="st3" cx="93" cy="46.1" r="5.8"/>
	<circle class="st2" cx="93" cy="46.1" r="4.8"/>
	<circle class="st4" cx="75.6" cy="46.7" r="1.7"/>
	<circle class="st4" cx="93.2" cy="47.2" r="1.7"/>
	<path class="st4" d="M96.8,53.2V55c0,0.6-0.4,1-1,1h-0.7c-0.6,0-1-0.4-1-1v-1.2c-0.6,0.1-1.1,0.2-1.7,0.3v2c0,0.6-0.4,1-1,1h-0.7
		c-0.6,0-1-0.4-1-1v-1.6c-1.4,0.2-2.8,0.2-4.2,0.2v1.9c0,0.6-0.4,1-1,1h-0.7c-0.6,0-1-0.4-1-1v-1.9c-1.3,0-2.5-0.2-3.7-0.3v1.8
		c0,0.6-0.4,1-1,1h-0.7c-0.6,0-1-0.4-1-1v-2.2l-1.5-0.3v1c0,0.6-0.4,1-1,1h-0.5c-0.6,0-1-0.4-1-1v-1.7c-1-0.3-1.8-0.5-2.5-0.8
		c-0.8-0.3-1.6,0.2-1.9,0.9c-0.1,0.3-0.1,0.7,0,1c1.2,3.6,3.6,6.6,6.8,8.5c1.9-1.6,5.5-2.6,9.7-2.6c4.3,0,8.1,1.1,9.9,2.8
		c3.5-2.3,6.1-5.7,7.3-9.7c0.2-0.5-0.1-1.1-0.7-1.3c-0.2-0.1-0.4-0.1-0.6,0C99.2,52.5,98,52.9,96.8,53.2z"/>
	<path class="st5" d="M74.8,62.7c2.9,1.6,6.1,2.5,9.3,2.5c3.6,0.3,7.1-0.5,10.2-2.3c-1.8-1.7-5.6-2.8-9.9-2.8
		C80.4,60.1,76.7,61.2,74.8,62.7z"/>
	<path class="st6" d="M74.1,55.2h-0.7c-0.6,0-1-0.4-1-1v0.5c0,0.6,0.4,1,1,1h0.7c0.6,0,1-0.4,1-1v-0.5
		C75.1,54.8,74.7,55.2,74.1,55.2C74.1,55.2,74.1,55.2,74.1,55.2z"/>
	<path class="st2" d="M73.4,55.2h0.7c0.6,0,1-0.4,1-1v-0.5c-1-0.2-1.9-0.4-2.7-0.7v1.1C72.4,54.8,72.8,55.2,73.4,55.2z"/>
	<path class="st6" d="M78.2,56.7h-0.7c-0.6,0-1-0.4-1-1v0.5c0,0.6,0.4,1,1,1h0.7c0.6,0,1-0.4,1-1v-0.5
		C79.2,56.3,78.8,56.7,78.2,56.7z"/>
	<path class="st2" d="M77.5,56.7h0.7c0.6,0,1-0.4,1-1v-1.2c-0.9-0.1-1.8-0.2-2.7-0.4v1.7C76.6,56.3,77,56.7,77.5,56.7z"/>
	<path class="st6" d="M84.6,57.2h-0.7c-0.6,0-1-0.4-1-1v0.5c0,0.6,0.4,1,1,1h0.7c0.6,0,1-0.4,1-1v-0.5
		C85.6,56.8,85.2,57.2,84.6,57.2z"/>
	<path class="st2" d="M83.9,57.2h0.7c0.6,0,1-0.4,1-1v-1.4c-0.9,0-1.8,0-2.7,0v1.5C82.9,56.8,83.4,57.2,83.9,57.2z"/>
	<path class="st6" d="M91.5,56.7h-0.7c-0.6,0-1-0.4-1-1v0.5c0,0.6,0.4,1,1,1h0.7c0.6,0,1-0.4,1-1v-0.5C92.5,56.3,92,56.7,91.5,56.7z
		"/>
	<path class="st2" d="M90.7,56.7h0.7c0.6,0,1-0.4,1-1v-1.5c-0.9,0.2-1.8,0.3-2.7,0.4v1.2C89.8,56.3,90.2,56.7,90.7,56.7z"/>
	<path class="st6" d="M95.9,55.5h-0.7c-0.6,0-1-0.4-1-1V55c0,0.6,0.4,1,1,1h0.7c0.6,0,1-0.4,1-1v-0.5C96.9,55.1,96.4,55.5,95.9,55.5
		z"/>
	<path class="st2" d="M95.1,55.5h0.7c0.6,0,1-0.4,1-1v-1.3c-0.9,0.3-1.8,0.5-2.7,0.7v0.7C94.2,55,94.6,55.5,95.1,55.5z"/>
	<circle class="st2" cx="76.5" cy="45.7" r="1"/>
	<circle class="st2" cx="94.4" cy="46.2" r="1"/>
	<path class="st7" d="M80.5,47.2h8.3c2.3,0,4.2,1.9,4.2,4.2v1c0,2.3-1.9,4.2-4.2,4.2h-8.3c-2.3,0-4.2-1.9-4.2-4.2v-1
		C76.3,49,78.2,47.2,80.5,47.2z"/>
	<path class="st5" d="M80.5,46.4h8.3c2.3,0,4.2,1.9,4.2,4.2v1c0,2.3-1.9,4.2-4.2,4.2h-8.3c-2.3,0-4.2-1.9-4.2-4.2v-1
		C76.3,48.3,78.2,46.4,80.5,46.4z"/>
	<path class="st4" d="M88.6,49.1H89c1,0,1.8,0.8,1.8,1.8v0.4c0,1-0.8,1.8-1.8,1.8h-0.4c-1,0-1.8-0.8-1.8-1.8v-0.4
		C86.8,49.9,87.6,49.1,88.6,49.1z"/>
	<path class="st4" d="M80.2,49.1h0.4c1,0,1.8,0.8,1.8,1.8v0.4c0,1-0.8,1.8-1.8,1.8h-0.4c-1,0-1.8-0.8-1.8-1.8v-0.4
		C78.5,49.9,79.3,49.1,80.2,49.1z"/>
	<path class="st3" d="M84.9,71.7c-1.2,0-2.3-0.1-3.4-0.4c-1.9-0.5-3.7-1.2-5.4-2.3c-0.2-0.2-0.2-0.4,0-0.6c0.1-0.1,0.3-0.2,0.5-0.1
		l0,0c1.6,1,3.3,1.7,5.1,2.2c1.6,0.4,3.3,0.5,5,0.3c2-0.3,3.9-1.1,5.5-2.4c0.2-0.1,0.5-0.1,0.6,0.1c0.1,0.2,0.1,0.4-0.1,0.5
		C90.4,70.8,87.7,71.7,84.9,71.7z"/>
	<path class="st5" d="M83.3,77l-2.9-1c-0.4-0.1-0.8,0.1-1,0.5c0,0.1,0,0.2,0,0.3v2.6c0,0.4,0.3,0.8,0.7,0.8c0.1,0,0.2,0,0.3,0l3-1
		c0.3-0.1,0.5-0.4,0.5-0.7v-0.5C83.9,77.4,83.7,77.1,83.3,77z"/>
	<path class="st5" d="M85.9,77l2.9-1c0.4-0.1,0.8,0.1,1,0.5c0,0.1,0,0.2,0,0.3v2.6c0,0.4-0.3,0.8-0.7,0.8c-0.1,0-0.2,0-0.3,0l-2.9-1
		c-0.3-0.1-0.5-0.4-0.5-0.7v-0.5C85.4,77.4,85.6,77.1,85.9,77z"/>
	<path class="st5" d="M84.6,76.5h0.3c0.8,0,1.4,0.6,1.4,1.4v0.3c0,0.8-0.6,1.4-1.4,1.4h-0.3c-0.8,0-1.4-0.6-1.4-1.4v-0.3
		C83.2,77.1,83.8,76.5,84.6,76.5z"/>
	<path class="st0" d="M82.1,12H84c4.6,0,8.4,3.7,8.4,8.4v4.2c0,4.6-3.7,8.4-8.4,8.4h-1.9c-4.6,0-8.4-3.7-8.4-8.4v-4.2
		C73.7,15.7,77.5,12,82.1,12z"/>
	<ellipse class="st0" cx="83" cy="32.2" rx="14.8" ry="2.1"/>
	<rect x="73.9" y="26" class="st5" width="18.5" height="4.6"/>
	<circle class="st2" cx="45.5" cy="44.2" r="3.9"/>
	<circle class="st2" cx="35.7" cy="36.9" r="4.7"/>
	<path class="st2" d="M46.9,16.3c0-4-3.2-7.2-7.2-7.2c-0.2,0-0.4,0-0.6,0c-1-3.5-4.4-5.7-8-5.1c-1.6-1.1-3.7-1.5-5.6-1.1
		c-3.2-2.3-7.7-1.5-10,1.7c-0.1,0.2-0.2,0.4-0.4,0.6c-2.8-0.6-5.5,1-6.4,3.7c-0.9,0.5-1.6,1.2-2.1,2c-3.1,0.3-5.3,3-5,6.1
		c0.2,1.7,1.1,3.2,2.5,4.1c-0.4,3.1,1.7,5.9,4.8,6.3c0.3,0,0.5,0.1,0.8,0.1c0.8,0,1.7-0.2,2.4-0.5c1.2,0.9,2.6,1.3,4.1,1.1
		c0.6,3,3.5,5.1,6.5,4.5c1.8-0.3,3.3-1.5,4.1-3.2c2.5,1.1,5.4,0.3,7-2h0.3c1.7,0,3.2-0.7,4.3-2c3,0.8,6.1-0.9,6.9-3.9
		c0.1-0.3,0.1-0.5,0.2-0.8C46.4,19.3,46.9,17.8,46.9,16.3z"/>
	<circle class="st2" cx="119.7" cy="64" r="3.9"/>
	<circle class="st2" cx="131" cy="60.1" r="3.9"/>
	<path class="st2" d="M119.7,34.4c0-4.8,3.9-8.7,8.8-8.7c0.2,0,0.5,0,0.7,0c1.2-4.3,5.4-7,9.8-6.2c2-1.4,4.5-1.8,6.9-1.3
		c3.9-2.8,9.4-1.9,12.2,2c0.2,0.2,0.3,0.4,0.4,0.7c3.4-0.7,6.7,1.2,7.8,4.5c1.1,0.6,2,1.4,2.6,2.4c3.8,0.4,6.5,3.7,6.2,7.5
		c-0.2,2.1-1.3,3.9-3.1,5.1c0.5,3.7-2.1,7.2-5.8,7.7c-0.3,0-0.7,0.1-1,0.1c-1,0-2-0.2-2.9-0.7c-1.4,1.1-3.2,1.6-5,1.3
		c-0.7,3.7-4.3,6.2-8,5.5c-2.2-0.4-4.1-1.9-5-3.9c-3.1,1.4-6.7,0.4-8.5-2.4h-0.4c-2,0-3.9-0.9-5.2-2.4c-3.6,1-7.4-1.1-8.4-4.8
		c-0.1-0.3-0.2-0.6-0.2-1C120.4,38.2,119.8,36.3,119.7,34.4z"/>
	<g>
		<circle class="st8" cx="22.1" cy="15.9" r="6.3"/>
		<circle class="st9" cx="19.8" cy="13.7" r="1.1"/>
		<circle class="st9" cx="23.9" cy="13.7" r="1.1"/>
		<path class="st9" d="M18.1,16.5c0,0,0.6,2.3,4,2.3s4-2.3,4-2.3H18.1z"/>
	</g>
	<g>
		<circle class="st8" cx="147.8" cy="34.8" r="7.7"/>
		<circle class="st9" cx="145" cy="32" r="1.4"/>
		<circle class="st9" cx="149.9" cy="32" r="1.4"/>
		<path class="st9" d="M152.7,38.3c0,0-0.7-2.8-4.9-2.8s-4.9,2.8-4.9,2.8H152.7z"/>
	</g>
</g>
</svg>
