<?xml version="1.0" encoding="utf-8"?>
<!-- Generator: Adobe Illustrator 21.0.0, SVG Export Plug-In . SVG Version: 6.00 Build 0)  -->
<!DOCTYPE svg PUBLIC "-//W3C//DTD SVG 1.1//EN" "http://www.w3.org/Graphics/SVG/1.1/DTD/svg11.dtd">
<svg version="1.1" id="Layer_1" xmlns="http://www.w3.org/2000/svg" xmlns:xlink="http://www.w3.org/1999/xlink" x="0px" y="0px"
	 viewBox="0 0 352.2 172.6" style="enable-background:new 0 0 352.2 172.6;" xml:space="preserve">
<style type="text/css">
	.st0{fill:#FB7936;}
	.st1{fill:#FFFFFF;}
	.st2{fill:#39AEF7;}
	.st3{fill:#F938F9;}
	.st4{fill:none;stroke:#E55E23;stroke-width:0.3855;stroke-linecap:round;stroke-linejoin:round;stroke-miterlimit:10;}
	.st5{fill:#E55E23;}
	.st6{fill:#58071E;}
	.st7{fill:#F4A04D;}
	.st8{fill:#282828;}
	.st9{fill:#FF6C6C;}
	.st10{fill:#E2E2E2;}
	.st11{fill:#AF5933;}
	.st12{fill:#964526;}
	.st13{fill:#383838;}
	.st14{fill:#C4C4C4;}
	.st15{fill:#E536EA;}
	.st16{fill:#F9E1BD;}
	.st17{fill:none;stroke:#383838;stroke-miterlimit:10;}
	.st18{fill:#2595CE;}
</style>
<title>Asset 8</title>
<g>
	<path class="st0" d="M166.7,165.6H161c-1.5,0-2.7-1.2-2.7-2.7v-57.1c0-1.5,1.2-2.7,2.7-2.7h5.8c1.5,0,2.7,1.2,2.7,2.7v57.1
		C169.4,164.4,168.2,165.6,166.7,165.6z"/>
	<path class="st0" d="M190.7,165.6H185c-1.5,0-2.7-1.2-2.7-2.7v-57.1c0-1.5,1.2-2.7,2.7-2.7h5.8c1.5,0,2.7,1.2,2.7,2.7v57.1
		C193.4,164.4,192.2,165.6,190.7,165.6z"/>
	<g>
		<path class="st1" d="M150.9,120.5c2.8,12,12.8,20.9,24.8,20.9s22-8.9,24.8-20.9C176.3,135.5,151,120.6,150.9,120.5z"/>
		<path class="st0" d="M194.8,95.3c0.9-2.5,1.5-5.3,1.5-8.2c0-12.3-9.2-22.3-20.5-22.3s-20.5,10-20.5,22.3c0,2.9,0.5,5.7,1.5,8.2
			c-4,4.9-6.5,11.3-6.5,18.4c0,2.3,0.3,4.6,0.8,6.8c0.1,0,25.4,15,49.5,0c0.5-2.2,0.8-4.5,0.8-6.8
			C201.2,106.7,198.8,100.2,194.8,95.3z"/>
	</g>
	<path class="st2" d="M162.7,71.4L162.7,71.4c-2.2-2.2-5.7-2.2-7.9,0l-30.5,30.5c-0.7-1.2-2-2-3.4-2c-2.2,0-3.9,1.8-3.9,3.9
		c0,1.5,0.8,2.8,2,3.4l-0.4,0.4c-2.2,2.2-2.2,5.7,0,7.9h0c2.2,2.2,5.7,2.2,7.9,0l36.3-36.3C164.9,77.1,164.9,73.6,162.7,71.4z"/>
	<path class="st3" d="M233.7,107.7l-1.8-1.8c1.4-0.6,2.4-2,2.4-3.6c0-2.2-1.8-3.9-3.9-3.9c-1.6,0-3.1,1-3.6,2.4l-29.3-29.3
		c-2.2-2.2-5.7-2.2-7.9,0h0c-2.2,2.2-2.2,5.7,0,7.9l36.3,36.3c2.2,2.2,5.7,2.2,7.9,0l0,0C235.9,113.4,235.9,109.9,233.7,107.7z"/>
	<g>
		<path class="st0" d="M163.3,160.2c-6.2,0-11.2,5-11.2,11.2h22.5C174.6,165.2,169.5,160.2,163.3,160.2z"/>
		<path class="st0" d="M188.1,160.2c-6.2,0-11.2,5-11.2,11.2h22.5C199.3,165.2,194.3,160.2,188.1,160.2z"/>
	</g>
	<path class="st4" d="M175.7,114.5c0,0-1.7,3,0,2.7c1.7-0.4,1.2-1.3,1.2-1.3"/>
	<ellipse class="st5" cx="190.8" cy="90.6" rx="2" ry="1"/>
	<ellipse class="st5" cx="162.4" cy="90.6" rx="2" ry="1"/>
	<g>
		<path class="st6" d="M207.6,31l5.5-4.7c-6-14.7-20.4-25.1-37.2-25.1c-22.2,0-40.2,18-40.2,40.2c0,1.3,4.9,3.1,5,4.3
			c0.1,1.3-4.5,2.1-4.2,3.4c3.6,18.5,19.9,32.4,39.4,32.4c22.2,0,40.2-18,40.2-40.2c0-3.6-0.5-7-1.3-10.3H207.6z"/>
		<g>
			<circle class="st0" cx="153" cy="27.4" r="5.2"/>
		</g>
		<g>
			<circle class="st0" cx="198.9" cy="27.4" r="5.2"/>
		</g>
		<circle class="st5" cx="198.7" cy="27.7" r="2.9"/>
		<circle class="st5" cx="153" cy="27.7" r="2.9"/>
		<path class="st0" d="M151.6,41.3c0-13.4,10.9-24.3,24.3-24.3c4.8,0,9.3,1.4,13,3.8c6.8,4.3,11.3,11.9,11.3,20.5
			c0,13.4-10.9,24.3-24.3,24.3S151.6,54.7,151.6,41.3z"/>
		<path class="st7" d="M183,59.2h-14.6c-1.9,0-3.4-1.5-3.4-3.4v-7.3c0-1.9,1.5-3.4,3.4-3.4H183c1.9,0,3.4,1.5,3.4,3.4v7.3
			C186.4,57.7,184.9,59.2,183,59.2z"/>
		<path class="st6" d="M180.6,44.4c0,1.8-2.3,4.7-5.2,4.7s-5.2-2.8-5.2-4.7s2.3-3.3,5.2-3.3S180.6,42.6,180.6,44.4z"/>
		<circle class="st5" cx="162.9" cy="45.7" r="3.3"/>
		<circle class="st5" cx="189" cy="45.8" r="3.3"/>
		<circle class="st5" cx="169.1" cy="36.8" r="5.3"/>
		<circle class="st1" cx="169.1" cy="36.8" r="3.9"/>
		<circle class="st8" cx="169" cy="36.9" r="1.4"/>
		<circle class="st1" cx="169.8" cy="36.1" r="0.8"/>
		<circle class="st5" cx="181.7" cy="36.8" r="5.3"/>
		<circle class="st1" cx="181.7" cy="36.8" r="3.9"/>
		<circle class="st8" cx="181.6" cy="36.9" r="1.4"/>
		<circle class="st1" cx="182.4" cy="36.1" r="0.8"/>
		<g>
			<path class="st8" d="M181.9,50.3V51v0.2c0,0.3-0.2,0.5-0.5,0.5h-0.4c-0.3,0-0.5-0.2-0.5-0.5V51v-0.3c-0.3,0.1-0.6,0.1-0.9,0.2
				v0.8v0.2c0,0.3-0.2,0.5-0.5,0.5h-0.4c-0.3,0-0.5-0.2-0.5-0.5v-0.2V51c-0.7,0.1-1.4,0.1-2.1,0.1v0.7v0.2c0,0.3-0.2,0.5-0.5,0.5
				h-0.4c-0.3,0-0.5-0.2-0.5-0.5v-0.2v-0.7c-0.6,0-1.3-0.1-1.8-0.2v0.6v0.2c0,0.3-0.2,0.5-0.5,0.5h-0.4c-0.3,0-0.5-0.2-0.5-0.5v-0.2
				v-0.8c-0.3,0-0.5-0.1-0.7-0.1v0.2v0.2c0,0.3-0.2,0.5-0.5,0.5h-0.4c-0.3,0-0.5-0.2-0.5-0.5v-0.2v-0.6c-0.5-0.1-0.9-0.3-1.3-0.4
				c-0.6-0.2-1.2,0.4-1,1c0.4,1.3,1.4,3,3.4,4.2c1-0.8,2.8-1.3,4.8-1.3c2.2,0,4,0.6,5,1.4c2.2-1.4,3.2-3.6,3.7-4.8
				c0.1-0.4-0.3-0.8-0.6-0.6C183.1,49.9,182.5,50.1,181.9,50.3z"/>
			<path class="st9" d="M170.9,55.1c1.2,0.7,2.7,1.2,4.7,1.3c2.2,0.1,3.9-0.4,5.1-1.2c-0.9-0.8-2.8-1.4-5-1.4
				C173.7,53.8,171.9,54.3,170.9,55.1z"/>
			<path class="st10" d="M170.5,51.3h-0.4c-0.3,0-0.5-0.2-0.5-0.5v0.2c0,0.3,0.2,0.5,0.5,0.5h0.4c0.3,0,0.5-0.2,0.5-0.5v-0.2
				C171,51.1,170.8,51.3,170.5,51.3z"/>
			<path class="st1" d="M170.2,51.3h0.4c0.3,0,0.5-0.2,0.5-0.5v-0.2c-0.5-0.1-0.9-0.2-1.3-0.3v0.6C169.7,51.1,169.9,51.3,170.2,51.3
				z"/>
			<path class="st10" d="M172.6,52.1h-0.4c-0.3,0-0.5-0.2-0.5-0.5v0.2c0,0.3,0.2,0.5,0.5,0.5h0.4c0.3,0,0.5-0.2,0.5-0.5v-0.2
				C173.1,51.8,172.9,52.1,172.6,52.1z"/>
			<path class="st1" d="M172.3,52.1h0.4c0.3,0,0.5-0.2,0.5-0.5v-0.6c-0.5-0.1-0.9-0.1-1.3-0.2v0.8C171.8,51.8,172,52.1,172.3,52.1z"
				/>
			<path class="st10" d="M175.8,52.3h-0.4c-0.3,0-0.5-0.2-0.5-0.5v0.2c0,0.3,0.2,0.5,0.5,0.5h0.4c0.3,0,0.5-0.2,0.5-0.5v-0.2
				C176.3,52.1,176.1,52.3,175.8,52.3z"/>
			<path class="st1" d="M175.4,52.3h0.4c0.3,0,0.5-0.2,0.5-0.5v-0.7c-0.5,0-0.9,0-1.3,0v0.7C174.9,52.1,175.2,52.3,175.4,52.3z"/>
			<path class="st10" d="M179.2,52.1h-0.4c-0.3,0-0.5-0.2-0.5-0.5v0.2c0,0.3,0.2,0.5,0.5,0.5h0.4c0.3,0,0.5-0.2,0.5-0.5v-0.2
				C179.7,51.8,179.5,52.1,179.2,52.1z"/>
			<path class="st1" d="M178.9,52.1h0.4c0.3,0,0.5-0.2,0.5-0.5v-0.8c-0.5,0.1-0.9,0.1-1.3,0.2v0.6C178.4,51.8,178.6,52.1,178.9,52.1
				z"/>
			<path class="st10" d="M181.4,51.4h-0.4c-0.3,0-0.5-0.2-0.5-0.5v0.2c0,0.3,0.2,0.5,0.5,0.5h0.4c0.3,0,0.5-0.2,0.5-0.5V51
				C181.9,51.2,181.7,51.4,181.4,51.4z"/>
			<path class="st1" d="M181.1,51.4h0.4c0.3,0,0.5-0.2,0.5-0.5v-0.7c-0.5,0.1-0.9,0.2-1.3,0.3V51C180.6,51.2,180.8,51.4,181.1,51.4z
				"/>
		</g>
		<path class="st6" d="M172.6,31.5h-8.9c-0.5,0-1-0.4-1-1v-2.1c0-0.5,0.4-1,1-1h8.9c0.5,0,1,0.4,1,1v2.1
			C173.5,31,173.1,31.5,172.6,31.5z"/>
		<path class="st6" d="M187.2,31.3h-8.9c-0.5,0-1-0.4-1-1v-2.1c0-0.5,0.4-1,1-1h8.9c0.5,0,1,0.4,1,1v2.1
			C188.2,30.9,187.7,31.3,187.2,31.3z"/>
	</g>
</g>
<g id="Layer_2">
	<g id="color_intro">
		<path class="st11" d="M306.7,67L306.7,67c-2.3-2.3-6-2.3-8.2,0l-32,32c-1.1-2-3.6-2.7-5.6-1.6c-2,1.1-2.7,3.6-1.6,5.6
			c0.4,0.7,0.9,1.2,1.6,1.6l-0.5,0.5c-2.3,2.3-2.3,6,0,8.2l0,0c2.3,2.3,6,2.3,8.2,0l38-38C308.9,73.1,309,69.4,306.7,67
			C306.7,67,306.7,67,306.7,67z"/>
		<path class="st11" d="M307.9,95.7L307.9,95.7c3.2,0,5.8,2.6,5.8,5.8v53.8c0,3.2-2.6,5.8-5.8,5.8l0,0c-3.2,0-5.8-2.6-5.8-5.8v-53.8
			C302,98.3,304.6,95.7,307.9,95.7z"/>
		<path class="st11" d="M333,95.7L333,95.7c3.2,0,5.8,2.6,5.8,5.8v53.8c0,3.2-2.6,5.8-5.8,5.8l0,0c-3.2,0-5.8-2.6-5.8-5.8v-53.8
			C327.2,98.3,329.8,95.7,333,95.7z"/>
		<path class="st1" d="M294.3,113.9c2.9,12.6,13.4,21.9,26,21.9s23-9.3,26-21.9C320.9,129.6,294.4,114,294.3,113.9z"/>
		<path class="st3" d="M340.2,87.5c1-2.8,1.5-5.7,1.5-8.6c0-12.9-9.6-23.3-21.5-23.3S298.7,66,298.7,78.9c0,2.9,0.5,5.9,1.5,8.6
			c-4.4,5.4-6.8,12.3-6.8,19.3c0,2.4,0.3,4.8,0.8,7.1c0.1,0,26.6,15.7,51.9,0c0.5-2.3,0.8-4.7,0.8-7.1C347,99.8,344.6,93,340.2,87.5
			z"/>
		<path class="st11" d="M307.3,155.5c-6.5,0-11.8,5.2-11.8,11.7h23.6C319.1,160.7,313.8,155.5,307.3,155.5z"/>
		<path class="st11" d="M333.2,155.5c-6.5,0-11.8,5.2-11.8,11.7H345C345,160.8,339.7,155.5,333.2,155.5z"/>
		<circle class="st11" cx="297.7" cy="32" r="9.5"/>
		<circle class="st11" cx="342.8" cy="32" r="9.5"/>
		<circle class="st12" cx="342.8" cy="32" r="6.2"/>
		<circle class="st12" cx="297.7" cy="32" r="6.2"/>
		<path class="st11" d="M293.8,45.3c0-14.3,11.6-25.9,25.9-25.9s25.9,11.6,25.9,25.9S334,71.3,319.7,71.3S293.8,59.7,293.8,45.3
			L293.8,45.3z"/>
		<path class="st7" d="M306.6,50.2h7.7c4.2,0,7.5,3.4,7.5,7.5l0,0c0,4.2-3.4,7.5-7.5,7.5h-7.7c-4.2,0-7.5-3.4-7.5-7.5l0,0
			C299,53.5,302.4,50.2,306.6,50.2z"/>
		<path class="st6" d="M314.9,47.9c0,1.9-2.5,5-5.5,5s-5.5-3-5.5-5s2.5-3.5,5.5-3.5S314.9,46,314.9,47.9z"/>
		<circle class="st12" cx="297.5" cy="49.4" r="3.5"/>
		<circle class="st12" cx="323" cy="47.9" r="3.5"/>
		<circle class="st12" cx="317.4" cy="38.8" r="5.6"/>
		<circle class="st1" cx="317.4" cy="38.8" r="4.2"/>
		<circle class="st8" cx="316.3" cy="39" r="1.5"/>
		<circle class="st1" cx="317.2" cy="38.1" r="0.9"/>
		<circle class="st12" cx="303" cy="38.8" r="5.6"/>
		<circle class="st1" cx="303" cy="38.8" r="4.2"/>
		<circle class="st8" cx="302" cy="39" r="1.5"/>
		<circle class="st1" cx="302.9" cy="38.1" r="0.9"/>
		<path class="st8" d="M315.8,55.4v1c0,0.3-0.2,0.5-0.5,0.5H315c-0.3,0-0.5-0.2-0.5-0.5v-0.6l-0.8,0.2v1c0,0.3-0.2,0.5-0.5,0.5h-0.4
			c-0.3,0-0.5-0.2-0.5-0.5v-0.9c-0.7,0.1-1.3,0.1-2,0.1v1c0,0.3-0.2,0.5-0.5,0.5h-0.4c-0.3,0-0.5-0.2-0.5-0.5v-1
			c-0.6,0-1.2-0.1-1.8-0.2V57c0,0.3-0.2,0.5-0.5,0.5h-0.4c-0.3,0-0.5-0.2-0.5-0.5c0,0,0,0,0-0.1v-1.1l-0.7-0.2v0.5
			c0,0.3-0.2,0.5-0.5,0.5h-0.4c-0.3,0-0.5-0.2-0.5-0.5v-0.9c-0.5-0.1-0.9-0.3-1.2-0.4c-0.4-0.1-0.8,0.1-0.9,0.6c0,0.1,0,0.3,0,0.4
			c0.5,1.8,1.7,3.4,3.3,4.5c1.4-1,3-1.5,4.7-1.4c1.7-0.1,3.4,0.4,4.8,1.5c1.7-1.3,3-3.1,3.5-5.2c0.1-0.3,0-0.5-0.3-0.6
			c-0.1,0-0.2,0-0.3,0C317,55,316.4,55.2,315.8,55.4z"/>
		<path class="st9" d="M305.2,60.5c1.4,0.8,2.9,1.3,4.5,1.3c1.8,0.2,3.5-0.3,5-1.2c-1.4-1.1-3.1-1.6-4.8-1.5
			C308.2,59,306.5,59.5,305.2,60.5z"/>
		<path class="st10" d="M304.8,56.5h-0.4c-0.3,0-0.5-0.2-0.5-0.5v0.3c0,0.3,0.2,0.5,0.5,0.5h0.4c0.3,0,0.5-0.2,0.5-0.5V56
			C305.3,56.3,305.1,56.5,304.8,56.5z"/>
		<path class="st1" d="M304.5,56.5h0.4c0.3,0,0.5-0.2,0.5-0.5v-0.3c-0.5-0.1-0.9-0.2-1.3-0.3V56C304,56.3,304.2,56.5,304.5,56.5z"/>
		<path class="st10" d="M306.8,57.3h-0.4c-0.3,0-0.5-0.2-0.5-0.5V57c0,0.3,0.2,0.5,0.5,0.5h0.4c0.3,0,0.5-0.2,0.5-0.5v-0.3
			C307.3,57,307.1,57.3,306.8,57.3C306.8,57.3,306.8,57.3,306.8,57.3z"/>
		<path class="st1" d="M306.5,57.3h0.4c0.3,0,0.5-0.2,0.5-0.5v-0.7c-0.5-0.1-0.9-0.1-1.3-0.2v0.9C306,57,306.2,57.3,306.5,57.3
			C306.5,57.3,306.5,57.3,306.5,57.3z"/>
		<path class="st10" d="M309.9,57.5h-0.4c-0.3,0-0.5-0.2-0.5-0.5v0.3c0,0.3,0.2,0.5,0.5,0.5h0.4c0.3,0,0.5-0.2,0.5-0.5V57
			C310.4,57.3,310.2,57.5,309.9,57.5C309.9,57.5,309.9,57.5,309.9,57.5z"/>
		<path class="st1" d="M309.5,57.5h0.4c0.3,0,0.5-0.2,0.5-0.5v-0.8c-0.4,0-0.9,0-1.3,0V57C309,57.3,309.2,57.5,309.5,57.5
			C309.5,57.5,309.5,57.5,309.5,57.5z"/>
		<path class="st10" d="M313.2,57.3h-0.4c-0.3,0-0.5-0.2-0.5-0.5V57c0,0.3,0.2,0.5,0.5,0.5h0.4c0.3,0,0.5-0.2,0.5-0.5v-0.3
			C313.7,57,313.5,57.3,313.2,57.3C313.2,57.3,313.2,57.3,313.2,57.3z"/>
		<path class="st1" d="M312.9,57.3h0.4c0.3,0,0.5-0.2,0.5-0.5v-0.8c-0.4,0.1-0.9,0.1-1.3,0.2v0.6C312.4,57,312.6,57.3,312.9,57.3
			C312.8,57.3,312.8,57.3,312.9,57.3z"/>
		<path class="st10" d="M315.3,56.6H315c-0.3,0-0.5-0.2-0.5-0.5v0.3c0,0.3,0.2,0.5,0.5,0.5h0.4c0.3,0,0.5-0.2,0.5-0.5v-0.3
			C315.8,56.4,315.6,56.6,315.3,56.6C315.3,56.6,315.3,56.6,315.3,56.6z"/>
		<path class="st1" d="M315,56.6h0.4c0.3,0,0.5-0.2,0.5-0.5v-0.7c-0.4,0.1-0.9,0.2-1.3,0.3v0.3C314.5,56.4,314.7,56.6,315,56.6
			C315,56.6,315,56.6,315,56.6z"/>
		<path class="st13" d="M241.8,90.3L241.8,90.3c0.5-2.1,2.6-3.5,4.8-3l51.2,12c2.1,0.5,3.5,2.6,3,4.8v0c-0.5,2.1-2.6,3.5-4.8,3
			l-51.2-12C242.7,94.5,241.3,92.4,241.8,90.3z"/>
		<path class="st14" d="M238.1,91.6l1.1-4.5c0.4-1.8,2.2-2.9,4-2.5l0,0c1.8,0.4,2.9,2.2,2.5,4l-1.1,4.5c-0.4,1.8-2.2,2.9-4,2.5l0,0
			C238.8,95.2,237.7,93.4,238.1,91.6z"/>
		<path class="st11" d="M288.6,101.4l2.2-1.6c-2-1.2-2.6-3.7-1.4-5.7s3.7-2.6,5.7-1.4c0.9,0.6,1.6,1.5,1.9,2.5l34.9-25.8
			c2.6-1.9,6.2-1.4,8.2,1.2l0,0c1.9,2.6,1.4,6.2-1.2,8.1l-43.2,32c-2.6,1.9-6.2,1.4-8.1-1.2l0,0C285.5,107,286,103.3,288.6,101.4z"
			/>
		<path class="st15" d="M225.1,93.8c0-1.9-2.8-1.9-2.8-3.9s2.8-1.9,2.8-3.9s-2.8-1.9-2.8-3.9c0.1-0.8,0.6-1.5,1.3-1.8
			c-10.7,2-10.9,11.6-10.9,11.6c1.6-1.2,3.7-1.5,5.7-0.9c1,0.3,1.9,0.7,2.8,1.2c0.7,0.4,1.4,0.8,2.1,1.3c0.5,0.5,0.9,1,1.2,1.5
			C224.8,94.9,225.1,94.4,225.1,93.8z"/>
		<path class="st15" d="M233.3,80.6c-0.5-0.1-0.9-0.2-1.4-0.2c-2.8-0.4-5.6-0.4-8.3,0c-0.7,0.3-1.2,1-1.3,1.8c0,1.9,2.8,1.9,2.8,3.9
			s-2.8,1.9-2.8,3.9s2.8,1.9,2.8,3.9c0,0.5-0.2,1-0.7,1.4l0.3,0.3c3.4,3.6,9.1,3.8,12.7,0.4c3.6-3.4,3.8-9.1,0.4-12.7
			C236.6,81.9,235,80.9,233.3,80.6L233.3,80.6z"/>
		<path class="st3" d="M225.1,92.1c0-1.9-2.8-1.9-2.8-3.9s2.8-1.9,2.8-3.9s-2.8-1.9-2.8-3.9c0.1-0.8,0.6-1.5,1.3-1.8
			c-10.7,2-10.9,11.6-10.9,11.6c1.6-1.2,3.7-1.5,5.7-0.9c1,0.3,1.9,0.7,2.8,1.2c0.7,0.4,1.4,0.8,2.1,1.3c0.5,0.5,0.9,1,1.2,1.5
			C224.8,93.1,225.1,92.6,225.1,92.1z"/>
		<path class="st16" d="M233.3,78.8c-0.5-0.1-0.9-0.2-1.4-0.2c-2.8-0.4-5.6-0.4-8.3,0c-0.7,0.3-1.2,1-1.3,1.8c0,1.9,2.8,1.9,2.8,3.9
			s-2.8,1.9-2.8,3.9s2.8,1.9,2.8,3.9c0,0.5-0.2,1-0.7,1.4l0.3,0.3c3.4,3.6,9.1,3.8,12.7,0.4c3.6-3.4,3.8-9.1,0.4-12.7
			C236.6,80.1,235,79.2,233.3,78.8L233.3,78.8z"/>
		<path class="st13" d="M337.8,11.8c0-5-5.4-9-12.1-9c-2.6,0-5.2,0.6-7.4,1.9l0,0c1.2-1.6,0.5-4,0.5-4l-1.4,0.6c0.7-0.2,1,3.4,1,3.4
			c-2.3-1.3-4.8-1.9-7.4-1.9c-6.7,0-12.1,4-12.1,9c0,3.8,3.2,7.1,7.7,8.4v2.8H333v-3C335.9,18.3,337.7,15.2,337.8,11.8z"/>
		<path class="st13" d="M317.3,1.3L317.3,1.3L317.3,1.3z"/>
		<rect x="306.5" y="20.1" class="st8" width="26.4" height="0.9"/>
		<circle class="st13" cx="304.6" cy="42.3" r="3"/>
		<circle class="st13" cx="314.7" cy="42.3" r="3"/>
		<path class="st17" d="M307.6,42.3c0,0,1.1-2.9,4.1,0"/>
		<path class="st11" d="M45.5,67L45.5,67c2.3-2.3,6-2.3,8.2,0l32,32c1.1-2,3.6-2.7,5.6-1.6c2,1.1,2.7,3.6,1.6,5.6
			c-0.4,0.7-0.9,1.2-1.6,1.6l0.5,0.5c2.3,2.3,2.3,6,0,8.2l0,0c-2.3,2.3-6,2.3-8.2,0l-38-38C43.3,73.1,43.3,69.4,45.5,67
			C45.5,67,45.5,67,45.5,67z"/>
		<path class="st11" d="M44.4,161.1L44.4,161.1c-3.2,0-5.8-2.6-5.8-5.8v-53.8c0-3.2,2.6-5.8,5.8-5.8l0,0c3.2,0,5.8,2.6,5.8,5.8v53.8
			C50.2,158.5,47.6,161.1,44.4,161.1z"/>
		<path class="st11" d="M19.2,161.1L19.2,161.1c-3.2,0-5.8-2.6-5.8-5.8v-53.8c0-3.2,2.6-5.8,5.8-5.8l0,0c3.2,0,5.8,2.6,5.8,5.8v53.8
			C25,158.5,22.4,161.1,19.2,161.1z"/>
		<path class="st1" d="M57.9,113.9C55,126.5,44.5,135.8,32,135.8s-23-9.3-26-21.9C31.3,129.6,57.8,114,57.9,113.9z"/>
		<path class="st2" d="M12,87.5c-1-2.8-1.5-5.7-1.5-8.6c0-12.9,9.6-23.3,21.5-23.3S53.5,66,53.5,78.9c0,2.9-0.5,5.9-1.5,8.6
			c4.4,5.4,6.8,12.3,6.8,19.3c0,2.4-0.3,4.8-0.8,7.1c-0.1,0-26.6,15.7-51.9,0c-0.5-2.3-0.8-4.7-0.8-7.1C5.2,99.8,7.6,93,12,87.5z"/>
		<path class="st11" d="M44.9,155.5c6.5,0,11.8,5.2,11.8,11.7H33.1C33.1,160.7,38.4,155.5,44.9,155.5z"/>
		<path class="st11" d="M19,155.5c6.5,0,11.8,5.2,11.8,11.7H7.2C7.2,160.7,12.5,155.5,19,155.5z"/>
		<circle class="st11" cx="54.5" cy="32" r="9.5"/>
		<circle class="st11" cx="9.5" cy="32" r="9.5"/>
		<circle class="st12" cx="9.5" cy="32" r="6.2"/>
		<circle class="st12" cx="54.5" cy="32" r="6.2"/>
		<path class="st11" d="M58.5,45.3c0-14.3-11.6-25.9-25.9-25.9c-14.3,0-25.9,11.6-25.9,25.9c0,14.3,11.6,25.9,25.9,25.9
			C46.8,71.3,58.4,59.7,58.5,45.3C58.5,45.4,58.5,45.4,58.5,45.3z"/>
		<path class="st7" d="M45.7,65.2H38c-4.2,0-7.5-3.4-7.5-7.5l0,0c0-4.2,3.4-7.5,7.5-7.5h7.7c4.2,0,7.5,3.4,7.5,7.5l0,0
			C53.2,61.8,49.8,65.2,45.7,65.2z"/>
		<path class="st6" d="M37.3,47.9c0,1.9,2.5,5,5.5,5s5.5-3,5.5-5s-2.5-3.5-5.5-3.5S37.3,46,37.3,47.9z"/>
		<circle class="st12" cx="54.8" cy="49.4" r="3.5"/>
		<circle class="st12" cx="29.3" cy="47.9" r="3.5"/>
		<circle class="st12" cx="34.8" cy="38.8" r="5.6"/>
		<circle class="st1" cx="34.8" cy="38.8" r="4.2"/>
		<circle class="st8" cx="35.9" cy="39" r="1.5"/>
		<circle class="st1" cx="35" cy="38.1" r="0.9"/>
		<circle class="st12" cx="49.2" cy="38.8" r="5.6"/>
		<circle class="st1" cx="49.2" cy="38.8" r="4.2"/>
		<circle class="st8" cx="50.2" cy="39" r="1.5"/>
		<circle class="st1" cx="49.4" cy="38.1" r="0.9"/>
		<path class="st8" d="M36.4,55.4v1c0,0.3,0.2,0.5,0.5,0.5h0.3c0.3,0,0.5-0.2,0.5-0.5v-0.6l0.8,0.2v1c0,0.3,0.2,0.5,0.5,0.5h0.3
			c0.3,0,0.5-0.2,0.5-0.5v-0.9c0.7,0.1,1.3,0.1,2,0.1v1c0,0.3,0.2,0.5,0.5,0.5h0.3c0.3,0,0.5-0.2,0.5-0.5v-1c0.6,0,1.2-0.1,1.8-0.2
			V57c0,0.3,0.2,0.5,0.5,0.5h0.3c0.3,0,0.5-0.2,0.5-0.5v-1.1l0.7-0.2v0.5c0,0.3,0.2,0.5,0.5,0.5h0.3c0.3,0,0.5-0.2,0.5-0.5v-0.9
			c0.5-0.1,0.9-0.3,1.2-0.4c0.4-0.1,0.8,0.1,0.9,0.6c0,0.1,0,0.3,0,0.4c-0.5,1.8-1.7,3.4-3.3,4.5c-1.4-1-3-1.5-4.7-1.4
			c-1.7-0.1-3.4,0.4-4.8,1.5c-1.7-1.3-3-3.1-3.5-5.2c-0.1-0.3,0-0.5,0.3-0.6c0.1,0,0.2,0,0.3,0C35.3,55,35.8,55.2,36.4,55.4z"/>
		<path class="st9" d="M47.1,60.5c-1.4,0.8-2.9,1.3-4.5,1.3c-1.8,0.2-3.5-0.3-5-1.2c1.4-1.1,3.1-1.6,4.8-1.5
			C44,59,45.7,59.5,47.1,60.5z"/>
		<path class="st10" d="M47.4,56.5h0.3c0.3,0,0.5-0.2,0.5-0.5v0.3c0,0.3-0.2,0.5-0.5,0.5h-0.3c-0.3,0-0.5-0.2-0.5-0.5V56
			C46.9,56.3,47.1,56.5,47.4,56.5z"/>
		<path class="st1" d="M47.8,56.5h-0.3c-0.3,0-0.5-0.2-0.5-0.5v-0.3c0.5-0.1,0.9-0.2,1.3-0.3V56C48.2,56.3,48,56.5,47.8,56.5z"/>
		<path class="st10" d="M45.4,57.3h0.3c0.3,0,0.5-0.2,0.5-0.5V57c0,0.3-0.2,0.5-0.5,0.5h-0.3c-0.3,0-0.5-0.2-0.5-0.5v-0.3
			C44.9,57,45.1,57.3,45.4,57.3C45.4,57.3,45.4,57.3,45.4,57.3z"/>
		<path class="st1" d="M45.8,57.3h-0.3c-0.3,0-0.5-0.2-0.5-0.5v-0.7c0.5-0.1,0.9-0.1,1.3-0.2v0.9C46.2,57,46,57.3,45.8,57.3
			C45.8,57.3,45.8,57.3,45.8,57.3z"/>
		<path class="st10" d="M42.3,57.5h0.3c0.3,0,0.5-0.2,0.5-0.5v0.3c0,0.3-0.2,0.5-0.5,0.5h-0.3c-0.3,0-0.5-0.2-0.5-0.5V57
			C41.8,57.3,42,57.5,42.3,57.5C42.3,57.5,42.3,57.5,42.3,57.5z"/>
		<path class="st1" d="M42.7,57.5h-0.3c-0.3,0-0.5-0.2-0.5-0.5v-0.8c0.4,0,0.9,0,1.3,0V57C43.2,57.3,43,57.5,42.7,57.5
			C42.7,57.5,42.7,57.5,42.7,57.5z"/>
		<path class="st10" d="M39,57.3h0.3c0.3,0,0.5-0.2,0.5-0.5V57c0,0.3-0.2,0.5-0.5,0.5H39c-0.3,0-0.5-0.2-0.5-0.5v-0.3
			C38.5,57,38.7,57.3,39,57.3C39,57.3,39,57.3,39,57.3z"/>
		<path class="st1" d="M39.4,57.3H39c-0.3,0-0.5-0.2-0.5-0.5v-0.8c0.4,0.1,0.9,0.1,1.3,0.2v0.6C39.8,57,39.6,57.3,39.4,57.3z"/>
		<path class="st10" d="M36.9,56.6h0.3c0.3,0,0.5-0.2,0.5-0.5v0.3c0,0.3-0.2,0.5-0.5,0.5h-0.3c-0.3,0-0.5-0.2-0.5-0.5v-0.3
			C36.4,56.4,36.6,56.6,36.9,56.6z"/>
		<path class="st1" d="M37.2,56.6h-0.3c-0.3,0-0.5-0.2-0.5-0.5v-0.7c0.4,0.1,0.9,0.2,1.3,0.3v0.3C37.7,56.4,37.5,56.6,37.2,56.6
			C37.3,56.6,37.3,56.6,37.2,56.6z"/>
		<path class="st13" d="M51.4,104.1L51.4,104.1c-0.5-2.1,0.8-4.3,3-4.8l51.2-12c2.1-0.5,4.3,0.8,4.8,3l0,0c0.5,2.1-0.8,4.3-3,4.8
			l-51.2,12C54.1,107.6,51.9,106.3,51.4,104.1z"/>
		<path class="st14" d="M107.6,93.2l-1.1-4.5c-0.4-1.8,0.7-3.6,2.5-4l0,0c1.8-0.4,3.6,0.7,4,2.5l1.1,4.5c0.4,1.8-0.7,3.6-2.5,4l0,0
			C109.8,96.1,108.1,95,107.6,93.2z"/>
		<path class="st11" d="M63.6,101.4l-2.2-1.6c2-1.2,2.6-3.7,1.4-5.7s-3.7-2.6-5.7-1.4c-0.9,0.6-1.6,1.5-1.9,2.5L20.4,69.4
			c-2.6-1.9-6.2-1.4-8.1,1.2l0,0c-1.9,2.6-1.4,6.2,1.2,8.1l43.2,32c2.6,1.9,6.2,1.4,8.1-1.2l0,0C66.7,107,66.2,103.3,63.6,101.4z"/>
		<path class="st18" d="M127.1,93.8c0-1.9,2.8-1.9,2.8-3.9s-2.8-1.9-2.8-3.9s2.9-1.9,2.9-3.9c-0.1-0.8-0.6-1.5-1.3-1.8
			c10.7,2,10.9,11.6,10.9,11.6c-1.6-1.2-3.7-1.5-5.7-0.9c-1,0.3-1.9,0.7-2.8,1.2c-0.8,0.4-1.5,0.8-2.1,1.3c-0.5,0.5-0.9,1-1.2,1.5
			C127.4,94.9,127.1,94.4,127.1,93.8z"/>
		<path class="st18" d="M119,80.6c0.5-0.1,0.9-0.2,1.4-0.2c2.8-0.4,5.6-0.4,8.3,0c0.7,0.4,1.2,1.1,1.3,1.9c0,1.9-2.8,1.9-2.8,3.9
			s2.8,1.9,2.8,3.9s-2.8,1.9-2.8,3.9c0,0.5,0.2,1,0.7,1.4l-0.3,0.3c-3.4,3.6-9.1,3.8-12.7,0.4c-3.6-3.4-3.8-9.1-0.4-12.7
			C115.7,81.9,117.3,81,119,80.6z"/>
		<path class="st2" d="M127.1,92.1c0-1.9,2.8-1.9,2.8-3.9s-2.8-1.9-2.8-3.9s2.9-1.9,2.9-3.9c-0.1-0.8-0.6-1.5-1.3-1.8
			c10.7,2,10.9,11.6,10.9,11.6c-1.6-1.2-3.7-1.5-5.7-0.9c-1,0.3-1.9,0.7-2.8,1.2c-0.8,0.4-1.5,0.8-2.1,1.3c-0.5,0.5-0.9,1-1.2,1.5
			C127.4,93.1,127.1,92.6,127.1,92.1z"/>
		<path class="st16" d="M119,78.8c0.5-0.1,0.9-0.2,1.4-0.2c2.8-0.4,5.6-0.4,8.3,0c0.7,0.4,1.2,1.1,1.3,1.9c0,1.9-2.8,1.9-2.8,3.9
			s2.8,1.9,2.8,3.9s-2.8,1.9-2.8,3.9c0,0.5,0.2,1,0.7,1.4l-0.3,0.3c-3.4,3.6-9.1,3.8-12.7,0.5s-3.8-9.1-0.5-12.7
			C115.6,80.2,117.2,79.2,119,78.8z"/>
		<path class="st13" d="M14.4,11.8c0-5,5.4-9,12.1-9c2.6,0,5.2,0.6,7.4,1.9l0,0c-1.2-1.6-0.5-4-0.5-4l1.4,0.6c-0.7-0.2-1,3.4-1,3.4
			c2.3-1.3,4.8-1.9,7.4-1.9c6.7,0,12.1,4,12.1,9c0,3.8-3.2,7.1-7.7,8.4v2.8H19.3v-3C16.4,18.3,14.6,15.2,14.4,11.8z"/>
		<path class="st13" d="M34.9,1.3L34.9,1.3L34.9,1.3z"/>
		<rect x="19.3" y="20.1" class="st8" width="26.4" height="0.9"/>
		<circle class="st13" cx="47.6" cy="42.3" r="3"/>
		<circle class="st13" cx="37.6" cy="42.3" r="3"/>
		<path class="st17" d="M44.7,42.3c0,0-1.1-2.9-4.1,0"/>
	</g>
</g>
</svg>
